<svg xmlns="http://www.w3.org/2000/svg" viewBox="0 0 750 500"><g id="freepik--background-complete--inject-2"><rect x="548.78" y="361.18" width="128.08" height="22.14" style="fill:#e0e0e0"></rect><path d="M647.41,336.5a7.35,7.35,0,0,1,9-3.74,6.91,6.91,0,0,1,12.55-1,4.8,4.8,0,0,1,4.83,7.27" style="fill:#e0e0e0"></path><path d="M661.81,357.45h0a17,17,0,0,1-17-17.05v-4h34.1v4A17.05,17.05,0,0,1,661.81,357.45Z" style="fill:#f5f5f5"></path><polygon points="631.98 357.45 622.39 357.45 618.84 339.26 635.67 339.26 631.98 357.45" style="fill:#e0e0e0"></polygon><rect x="536.41" y="357.45" width="150.97" height="7.46" style="fill:#e0e0e0"></rect><polygon points="562.59 357.45 553 357.45 549.46 339.26 566.29 339.26 562.59 357.45" style="fill:#ebebeb"></polygon><polygon points="624.17 357.45 614.58 357.45 611.04 339.26 627.87 339.26 624.17 357.45" style="fill:#f5f5f5"></polygon><path d="M577.23,357.45V319.69a5.27,5.27,0,0,1,5.27-5.28h.22v-8.75h6.76v8.54h0a5.27,5.27,0,0,1,5.27,5.28v38Z" style="fill:#e0e0e0"></path><rect x="546.82" y="364.9" width="2.64" height="68.34" style="fill:#f5f5f5"></rect><rect x="676.21" y="364.9" width="2.64" height="68.34" style="fill:#f5f5f5"></rect><circle cx="612.82" cy="373.79" r="3.58" style="fill:#f5f5f5"></circle><rect x="123.34" y="244.92" width="94.82" height="179.25" style="fill:#e0e0e0"></rect><rect x="95.2" y="244.92" width="94.82" height="179.25" style="fill:#f5f5f5"></rect><path d="M183,281.82H101.65V253.41H183Zm-80.39-1H182V254.41H102.65Z" style="fill:#e0e0e0"></path><path d="M127.45,253.9h30.89a0,0,0,0,1,0,0v.71a4.95,4.95,0,0,1-4.95,4.95h-21a4.95,4.95,0,0,1-4.95-4.95v-.71A0,0,0,0,1,127.45,253.9Z" style="fill:#ebebeb"></path><path d="M183,317.91H101.65V289.5H183Zm-80.39-1H182V290.5H102.65Z" style="fill:#e0e0e0"></path><path d="M127.45,290h30.89a0,0,0,0,1,0,0v.71a4.95,4.95,0,0,1-4.95,4.95h-21a4.95,4.95,0,0,1-4.95-4.95V290A0,0,0,0,1,127.45,290Z" style="fill:#ebebeb"></path><path d="M183,354H101.65V325.59H183Zm-80.39-1H182V326.59H102.65Z" style="fill:#e0e0e0"></path><path d="M127.45,326.09h30.89a0,0,0,0,1,0,0v.71a4.95,4.95,0,0,1-4.95,4.95h-21a4.95,4.95,0,0,1-4.95-4.95v-.71A0,0,0,0,1,127.45,326.09Z" style="fill:#ebebeb"></path><path d="M183,390.09H101.65V361.68H183Zm-80.39-1H182V362.68H102.65Z" style="fill:#e0e0e0"></path><path d="M127.45,362.18h30.89a0,0,0,0,1,0,0v.71a4.95,4.95,0,0,1-4.95,4.95h-21a4.95,4.95,0,0,1-4.95-4.95v-.71a0,0,0,0,1,0,0Z" style="fill:#ebebeb"></path><rect x="90.99" y="238.21" width="103" height="8.93" style="fill:#ebebeb"></rect><rect x="193.98" y="238.21" width="30.97" height="8.93" style="fill:#e0e0e0"></rect><rect x="95.2" y="424.17" width="4.98" height="9.16" style="fill:#e0e0e0"></rect><rect x="125.99" y="424.17" width="4.98" height="9.16" style="fill:#e0e0e0"></rect><rect x="182.22" y="424.17" width="4.98" height="9.16" style="fill:#e0e0e0"></rect><rect x="210.34" y="424.17" width="4.98" height="9.16" style="fill:#e0e0e0"></rect><path d="M674.18,228.08a7.29,7.29,0,0,1-.93-.91,12.39,12.39,0,0,1-2-3.12,14.21,14.21,0,0,1-1.29-5.76,13.43,13.43,0,0,1,2.21-7.46,54.28,54.28,0,0,1,6.12-7.22,28.88,28.88,0,0,0,3.18-4.14,13.22,13.22,0,0,0,1.93-5.08,10.52,10.52,0,0,0-.87-5.6,23.5,23.5,0,0,0-3.19-5.13c-1.25-1.64-2.63-3.25-3.9-5a23.86,23.86,0,0,1-3.13-5.78,14.51,14.51,0,0,1-.86-6.54,11.2,11.2,0,0,1,2.56-5.87,8.28,8.28,0,0,1,5.4-3,4.75,4.75,0,0,1,3,.61,3.21,3.21,0,0,1,1.51,2.61,2.82,2.82,0,0,1-1.62,2.44,3.77,3.77,0,0,1-2.84.28,8.86,8.86,0,0,1-4.22-3.25,18.91,18.91,0,0,1-3.63-8.72,28.15,28.15,0,0,1-.06-7.82,53,53,0,0,1,1.05-5.8c.37-1.58.69-2.79.91-3.61l.27-.93a1.93,1.93,0,0,1,.1-.32,1.51,1.51,0,0,1-.05.33c-.06.24-.13.55-.22.95-.19.86-.46,2.07-.81,3.62a53.93,53.93,0,0,0-1,5.79,28.12,28.12,0,0,0,.14,7.73,18.38,18.38,0,0,0,3.6,8.51,8.53,8.53,0,0,0,4,3.08,3.3,3.3,0,0,0,2.5-.25,2.36,2.36,0,0,0,1.36-2,2.72,2.72,0,0,0-1.3-2.2,4.33,4.33,0,0,0-2.69-.53,7.8,7.8,0,0,0-5.06,2.82,10.7,10.7,0,0,0-2.44,5.59,14.09,14.09,0,0,0,.84,6.3,23.77,23.77,0,0,0,3.06,5.66c1.25,1.73,2.62,3.34,3.89,5a24.64,24.64,0,0,1,3.24,5.24,11,11,0,0,1,.88,5.86,13.47,13.47,0,0,1-2,5.26,28.79,28.79,0,0,1-3.25,4.19,54.75,54.75,0,0,0-6.13,7.13,13.29,13.29,0,0,0-2.23,7.26A14.13,14.13,0,0,0,671.4,224a13,13,0,0,0,1.93,3.14C673.87,227.75,674.2,228.06,674.18,228.08Z" style="fill:#e0e0e0"></path><path d="M681.12,68.46c-13.4-1.8-23.26,5.22-27.66,15.92s-2.24,23.25,3.34,33.39c3.1,5.64,7.74,11,14,12.35,5.16,1.06,10.59-.9,14.69-4.2s7-7.82,9.51-12.46c4.44-8.26,7.09-17.6,6.06-26.92-.9-8.16-9.27-16.87-20-18.08" style="fill:#f5f5f5"></path><path d="M673,129.24c-.49.69-1.57,3.11-2,3.87a1.37,1.37,0,0,0-.18,1.15,1,1,0,0,0,1.18.38,2.67,2.67,0,0,0,1.06-.83,1.29,1.29,0,1,0,2.51-.56,2.24,2.24,0,0,0,1,.87c.43.13,1-.1,1-.55a1.11,1.11,0,0,0-.34-.76l-2.65-3.33" style="fill:#f5f5f5"></path><path d="M52.56,352.22a8.33,8.33,0,0,1-.93-.91,12.56,12.56,0,0,1-2-3.13,14.17,14.17,0,0,1-1.28-5.75A13.41,13.41,0,0,1,50.52,335a54.33,54.33,0,0,1,6.12-7.23,28.78,28.78,0,0,0,3.18-4.13,13,13,0,0,0,1.92-5.09,10.62,10.62,0,0,0-.86-5.6,24.48,24.48,0,0,0-3.19-5.12c-1.26-1.65-2.64-3.26-3.9-5A23.93,23.93,0,0,1,50.66,297a14.46,14.46,0,0,1-.86-6.53,11.13,11.13,0,0,1,2.56-5.87,8.29,8.29,0,0,1,5.39-3,4.77,4.77,0,0,1,3,.62,3.21,3.21,0,0,1,1.51,2.61,2.85,2.85,0,0,1-1.62,2.44,3.83,3.83,0,0,1-2.85.27,8.86,8.86,0,0,1-4.21-3.24A18.73,18.73,0,0,1,50,275.59a28.49,28.49,0,0,1-.07-7.81A53.72,53.72,0,0,1,51,262c.37-1.57.7-2.78.92-3.61.11-.38.2-.69.26-.93a1.19,1.19,0,0,1,.11-.31,1.42,1.42,0,0,1-.06.33c0,.24-.12.55-.21.94-.19.86-.47,2.08-.82,3.63a56.1,56.1,0,0,0-1,5.79,28.85,28.85,0,0,0,.14,7.72,18.54,18.54,0,0,0,3.61,8.52,8.38,8.38,0,0,0,4,3.07,3.33,3.33,0,0,0,2.51-.25,2.36,2.36,0,0,0,1.36-2,2.69,2.69,0,0,0-1.3-2.19,4.23,4.23,0,0,0-2.7-.53,7.84,7.84,0,0,0-5.06,2.81,10.76,10.76,0,0,0-2.43,5.6,14.09,14.09,0,0,0,.84,6.3,23.61,23.61,0,0,0,3.06,5.66c1.25,1.73,2.62,3.34,3.89,5a24.39,24.39,0,0,1,3.24,5.24,11.12,11.12,0,0,1,.88,5.85,13.46,13.46,0,0,1-2,5.27A28.6,28.6,0,0,1,57,328a54.68,54.68,0,0,0-6.12,7.14,13.13,13.13,0,0,0-2.23,7.26,14.21,14.21,0,0,0,1.18,5.67,13.24,13.24,0,0,0,1.93,3.14C52.25,351.89,52.58,352.2,52.56,352.22Z" style="fill:#e0e0e0"></path><path d="M59.5,192.59c-13.4-1.8-23.26,5.23-27.66,15.92s-2.24,23.26,3.34,33.39c3.1,5.64,7.74,11.06,14,12.35,5.15,1.06,10.59-.9,14.68-4.2s7-7.82,9.52-12.45c4.43-8.27,7.08-17.6,6.06-26.93-.9-8.16-9.27-16.86-20-18.08" style="fill:#f5f5f5"></path><path d="M51.34,253.38c-.5.69-1.57,3.1-2,3.87a1.33,1.33,0,0,0-.17,1.15,1,1,0,0,0,1.18.38,2.84,2.84,0,0,0,1.06-.83A1.35,1.35,0,0,0,53,259a1.34,1.34,0,0,0,.94-1.64,2.26,2.26,0,0,0,1,.86c.43.14,1-.09,1-.54a1.23,1.23,0,0,0-.34-.77L53,253.62" style="fill:#f5f5f5"></path><path d="M605,135.42a3.37,3.37,0,0,1-.52-1.27,5.39,5.39,0,0,1,.7-3.81c1.58-3.19,7.77-4.91,13.12-1.66a4.12,4.12,0,0,1,1.35,2,3.27,3.27,0,0,1-.19,2.52,2.91,2.91,0,0,1-2.19,1.44,5.26,5.26,0,0,1-2.68-.38,9.58,9.58,0,0,1-5.38-9.55,8.41,8.41,0,0,1,2.71-5.57,10,10,0,0,1,5.92-2.62,8.93,8.93,0,0,1,3.36.32,5.9,5.9,0,0,1,2.95,1.79,3.24,3.24,0,0,1,.79,1.64,2.32,2.32,0,0,1-.51,1.79,4,4,0,0,1-3.38,1.13,10.08,10.08,0,0,1-8.78-9.32,9.58,9.58,0,0,1,2-6.15,10.15,10.15,0,0,1,5.07-3.6,7.24,7.24,0,0,1,5.86.49,4.55,4.55,0,0,1,1.85,2.24,3.5,3.5,0,0,1-.1,2.82,4.46,4.46,0,0,1-4.64,2.1,5.88,5.88,0,0,1-3.8-2.91,8.41,8.41,0,0,1-1.18-4.2,9.79,9.79,0,0,1,.72-3.83,11.34,11.34,0,0,1,3.76-4.89,9.11,9.11,0,0,1,3.56-1.61,7.3,7.3,0,0,1,1.36-.16s-.47.06-1.33.26a9.36,9.36,0,0,0-3.47,1.67,10.74,10.74,0,0,0-2,2,10.2,10.2,0,0,0-1.63,2.87,9.7,9.7,0,0,0-.66,3.72,8.23,8.23,0,0,0,1.16,4,5.51,5.51,0,0,0,3.56,2.7,4,4,0,0,0,4.18-1.9,3.59,3.59,0,0,0-1.6-4.47,6.8,6.8,0,0,0-5.48-.42,9.67,9.67,0,0,0-4.81,3.44,9,9,0,0,0-1.88,5.83,9.59,9.59,0,0,0,8.3,8.82,3.55,3.55,0,0,0,2.95-.94,1.79,1.79,0,0,0,.39-1.39,2.81,2.81,0,0,0-.66-1.38,5.44,5.44,0,0,0-2.71-1.63,8.72,8.72,0,0,0-3.17-.31,9.57,9.57,0,0,0-5.62,2.49,7.94,7.94,0,0,0-2.57,5.24,9.15,9.15,0,0,0,5.06,9.11,4.8,4.8,0,0,0,2.46.36,2.47,2.47,0,0,0,1.9-1.21,2.86,2.86,0,0,0,.17-2.22,3.71,3.71,0,0,0-1.21-1.81,8.07,8.07,0,0,0-3.9-1.52,12.82,12.82,0,0,0-3.8-.06,6.8,6.8,0,0,0-5,3.06,5.39,5.39,0,0,0-.77,3.69A6.48,6.48,0,0,0,605,135.42Z" style="fill:#e0e0e0"></path><path d="M329.3,370.56a3.44,3.44,0,0,1-1.36-.08,5.43,5.43,0,0,1-3.12-2.3c-2.19-2.81-1-9.13,4.22-12.53a4,4,0,0,1,2.38-.35,3.26,3.26,0,0,1,2.18,1.27,2.91,2.91,0,0,1,.34,2.6,5.31,5.31,0,0,1-1.51,2.24,9.58,9.58,0,0,1-10.94.68,8.45,8.45,0,0,1-3.83-4.87,10.05,10.05,0,0,1,.22-6.47,9.09,9.09,0,0,1,1.75-2.88,5.92,5.92,0,0,1,2.9-1.88,3.22,3.22,0,0,1,1.82,0,2.35,2.35,0,0,1,1.4,1.24,4,4,0,0,1-.47,3.54,10.08,10.08,0,0,1-12.21,3.83,9.6,9.6,0,0,1-4.67-4.48,10.12,10.12,0,0,1-1-6.13,7.24,7.24,0,0,1,3-5.06,4.56,4.56,0,0,1,2.82-.69,3.52,3.52,0,0,1,2.49,1.33,4.45,4.45,0,0,1-.14,5.09,5.87,5.87,0,0,1-4.27,2.15A8.51,8.51,0,0,1,307,346a9.85,9.85,0,0,1-3.13-2.31,11.11,11.11,0,0,1-2.76-5.52,9.27,9.27,0,0,1,.11-3.91,6.81,6.81,0,0,1,.45-1.29s-.15.45-.35,1.31a9.52,9.52,0,0,0,0,3.85,11,11,0,0,0,.9,2.64,10.27,10.27,0,0,0,1.87,2.72,9.75,9.75,0,0,0,3.06,2.21,8.22,8.22,0,0,0,4.13.71,5.48,5.48,0,0,0,4-2,4,4,0,0,0,.11-4.59,3.58,3.58,0,0,0-4.72-.51,6.8,6.8,0,0,0-2.77,4.75,9.67,9.67,0,0,0,1,5.82,9.13,9.13,0,0,0,4.43,4.24,9.57,9.57,0,0,0,11.56-3.62,3.53,3.53,0,0,0,.44-3.06,1.76,1.76,0,0,0-1.08-1,2.84,2.84,0,0,0-1.53,0,5.42,5.42,0,0,0-2.65,1.72,8.74,8.74,0,0,0-1.65,2.72,9.55,9.55,0,0,0-.22,6.15,8,8,0,0,0,3.59,4.6,9.16,9.16,0,0,0,10.41-.58,5,5,0,0,0,1.4-2.06,2.48,2.48,0,0,0-.27-2.24,2.85,2.85,0,0,0-1.91-1.12,3.74,3.74,0,0,0-2.17.3,8.09,8.09,0,0,0-3.06,2.85,12.29,12.29,0,0,0-1.71,3.39,6.79,6.79,0,0,0,.56,5.85,5.45,5.45,0,0,0,3,2.31A7.16,7.16,0,0,0,329.3,370.56Z" style="fill:#e0e0e0"></path><path d="M327.79,158a.75.75,0,0,1,0-.28c.05-.21.12-.47.2-.8a25.42,25.42,0,0,0,.52-3.12,23.6,23.6,0,0,0-1.63-11.4,16.94,16.94,0,0,0-4.46-6.52,8.47,8.47,0,0,0-3.91-1.89,6.6,6.6,0,0,0-4.47.66,3.94,3.94,0,0,0-1.62,1.64,2.24,2.24,0,0,0-.1,2.18,2.09,2.09,0,0,0,2,.93,3.56,3.56,0,0,0,2.19-1,12.8,12.8,0,0,0,1.7-2,21.38,21.38,0,0,0,1.44-2.28,14.42,14.42,0,0,0,1.75-5.16c.51-3.62-1.1-7.54-4.2-9.14a5.71,5.71,0,0,0-4.84-.24,3.88,3.88,0,0,0-2.29,3.79,3.07,3.07,0,0,0,.85,2,3.24,3.24,0,0,0,2,.9,4.46,4.46,0,0,0,3.81-1.57,8.47,8.47,0,0,0,1.78-7.39A8.59,8.59,0,0,0,315,112a9.25,9.25,0,0,0-4.63-1.61,9,9,0,0,0-3.12.32c-.7.19-1,.36-1.06.33a4.78,4.78,0,0,1,1-.43,8.62,8.62,0,0,1,3.17-.42,9.4,9.4,0,0,1,4.79,1.57A9.17,9.17,0,0,1,317.06,125a4.91,4.91,0,0,1-4.19,1.73,3.7,3.7,0,0,1-2.24-1,3.51,3.51,0,0,1-1-2.32,4.44,4.44,0,0,1,.59-2.51,4.29,4.29,0,0,1,2-1.76,6.16,6.16,0,0,1,5.28.24,8.26,8.26,0,0,1,3.69,4.06A10.43,10.43,0,0,1,322,129a15,15,0,0,1-1.82,5.35,20.85,20.85,0,0,1-1.48,2.33,13,13,0,0,1-1.76,2.09,4.07,4.07,0,0,1-2.51,1.15,2.6,2.6,0,0,1-2.45-1.18,2.73,2.73,0,0,1,.1-2.66,4.4,4.4,0,0,1,1.82-1.83,7.05,7.05,0,0,1,4.78-.69,8.92,8.92,0,0,1,4.1,2,17.15,17.15,0,0,1,4.53,6.72,23.43,23.43,0,0,1,1.49,11.56A16.7,16.7,0,0,1,327.79,158Z" style="fill:#e0e0e0"></path><path d="M686.42,313.55a1.1,1.1,0,0,1,.05-.28c0-.21.12-.48.2-.8a25.28,25.28,0,0,0,.53-3.13,23.85,23.85,0,0,0-1.63-11.4,17,17,0,0,0-4.47-6.52,8.41,8.41,0,0,0-3.91-1.88,6.56,6.56,0,0,0-4.46.66,3.94,3.94,0,0,0-1.63,1.63A2.31,2.31,0,0,0,671,294a2.12,2.12,0,0,0,2,.93,3.61,3.61,0,0,0,2.19-1,13.82,13.82,0,0,0,1.69-2,22.44,22.44,0,0,0,1.44-2.28,14.61,14.61,0,0,0,1.76-5.17c.51-3.61-1.11-7.54-4.2-9.13a5.72,5.72,0,0,0-4.84-.25,3.9,3.9,0,0,0-2.3,3.8,3.1,3.1,0,0,0,.86,2,3.29,3.29,0,0,0,2,.89,4.47,4.47,0,0,0,3.82-1.56,8.47,8.47,0,0,0,1.77-7.4,8.62,8.62,0,0,0-3.48-5.35,9.41,9.41,0,0,0-7.76-1.29c-.7.19-1,.37-1.06.34a5,5,0,0,1,1-.44,8.79,8.79,0,0,1,3.16-.41,9.29,9.29,0,0,1,4.79,1.56,9.19,9.19,0,0,1,1.87,13.28,4.92,4.92,0,0,1-4.19,1.73,3.73,3.73,0,0,1-2.24-1,3.5,3.5,0,0,1-1-2.33,4.47,4.47,0,0,1,.6-2.51,4.27,4.27,0,0,1,2-1.76,6.23,6.23,0,0,1,5.28.24,8.28,8.28,0,0,1,3.7,4.06,10.48,10.48,0,0,1,.78,5.6,14.89,14.89,0,0,1-1.81,5.34,23.17,23.17,0,0,1-1.48,2.34,14,14,0,0,1-1.77,2.09,4.09,4.09,0,0,1-2.5,1.15,2.61,2.61,0,0,1-2.46-1.18,2.76,2.76,0,0,1,.1-2.66,4.4,4.4,0,0,1,1.82-1.83,7.13,7.13,0,0,1,4.79-.7,9,9,0,0,1,4.1,2,17.29,17.29,0,0,1,4.53,6.72,23.39,23.39,0,0,1,1.49,11.55A17.11,17.11,0,0,1,686.42,313.55Z" style="fill:#e0e0e0"></path><path d="M97.62,109.84a1.1,1.1,0,0,1,0-.28c0-.21.12-.48.2-.8a25.65,25.65,0,0,0,.52-3.13,23.6,23.6,0,0,0-1.63-11.4,16.83,16.83,0,0,0-4.46-6.52,8.41,8.41,0,0,0-3.91-1.88,6.56,6.56,0,0,0-4.46.66,3.88,3.88,0,0,0-1.63,1.63,2.31,2.31,0,0,0-.1,2.19,2.12,2.12,0,0,0,2,.93,3.64,3.64,0,0,0,2.19-1,13.31,13.31,0,0,0,1.69-2,22.44,22.44,0,0,0,1.44-2.28,14.4,14.4,0,0,0,1.75-5.17c.51-3.61-1.1-7.54-4.19-9.13a5.72,5.72,0,0,0-4.84-.25,3.9,3.9,0,0,0-2.3,3.8,3.09,3.09,0,0,0,.85,2,3.39,3.39,0,0,0,2,.9,4.51,4.51,0,0,0,3.82-1.57,8.47,8.47,0,0,0,1.77-7.4,8.62,8.62,0,0,0-3.48-5.35,9.41,9.41,0,0,0-7.76-1.29c-.7.19-1,.37-1.06.34a5,5,0,0,1,1-.44A8.79,8.79,0,0,1,80.24,62,9.29,9.29,0,0,1,85,63.53,9.2,9.2,0,0,1,86.9,76.81a4.93,4.93,0,0,1-4.19,1.73,3.79,3.79,0,0,1-2.25-1,3.53,3.53,0,0,1-1-2.32,4.49,4.49,0,0,1,.6-2.52,4.27,4.27,0,0,1,2-1.76,6.23,6.23,0,0,1,5.28.24A8.26,8.26,0,0,1,91,75.22a10.38,10.38,0,0,1,.79,5.6A15.08,15.08,0,0,1,90,86.16,23.17,23.17,0,0,1,88.5,88.5a14,14,0,0,1-1.77,2.09,4.12,4.12,0,0,1-2.51,1.15,2.6,2.6,0,0,1-2.45-1.18,2.76,2.76,0,0,1,.1-2.66,4.4,4.4,0,0,1,1.82-1.83,7.05,7.05,0,0,1,4.78-.69,8.82,8.82,0,0,1,4.1,2,17.21,17.21,0,0,1,4.54,6.72,23.49,23.49,0,0,1,1.48,11.55A16.88,16.88,0,0,1,97.62,109.84Z" style="fill:#e0e0e0"></path></g><g id="freepik--Floor--inject-2"><path d="M689.18,433.54c0,.14-137.27.26-306.57.26S76,433.68,76,433.54s137.25-.26,306.6-.26S689.18,433.39,689.18,433.54Z" style="fill:#263238"></path></g><g id="freepik--character-3--inject-2"><path d="M531.11,136.59c2.7,2.41.59,5.78,2,6.38a8.41,8.41,0,0,1,4.73,7.65c-.07,2.85-2.67,5.42-2,8.19.49,2,2.45,3.17,3.8,4.71,3.48,4,2.5,10.51-1,14.44s-8.89,5.68-14.11,6.47a51.18,51.18,0,0,1-22.64-1.72c-3.2-1-6.41-2.36-8.69-4.81s-3.44-6.21-2.06-9.27c1-2.27,3.35-4.23,2.94-6.69a15.78,15.78,0,0,0-1.36-3.14c-1-2.53-.07-5.44,1.38-7.75s3.39-4.29,4.65-6.71,1.73-5.53.16-7.76" style="fill:#FFC100"></path><path d="M539.86,177.88s22.51,20.7,23.17,18.27c3.61-13.18,3.17-30.15,2.83-36.66-.35-.56-.75-1.19-1.22-1.88a8.59,8.59,0,0,0-2-2.07,13.36,13.36,0,0,0-3.08-1.85c-1.06-.33-1.19-1.75-.25-2.06s3.86.52,6.53,2.89,1.71-3.1,1.39-5.1-1-8.21-.46-8.78c.79-.83,1.86-.12,2.12,1.88s1.5,7.95,2.55,7.76-.71-10.33-.71-10.33-.72-2.12.48-2.38c2.17-.47,3.23,10.44,3.3,11.48.06.72,1.2.55,1.11-.22s-2-10.09.23-10.59c1.69-.38.95,9,2.41,10.71s-.16-7.17,1.47-7.46c.61-.11,1.08-.11,1.28,5.11a115.44,115.44,0,0,1-.81,12.58c1,14.37,2.62,58.3-17.15,56.24-23.33-2.43-28.2-21-28.2-21Z" style="fill:#ffbe9d"></path><path d="M456.74,228.08a16.83,16.83,0,0,1,.08-22.15l14-15.87L483,201.5c-.49.33-13.05,16.29-13.05,16.29l17.55,21.86a12.6,12.6,0,0,1,2.08,12l-4.69,11.48-12.83-5.76,1-1.5h9.64l.57-2.31h0Z" style="fill:#ffbe9d"></path><path d="M499.26,429.57l.05-9.23H516.6l.07,13.5-1.07.07c-4.77.27-24.28,1-27.47.07C484.57,432.89,499.26,429.57,499.26,429.57Z" style="fill:#FFC100"></path><g style="opacity:0.6000000000000001"><path d="M510.42,433.92a6,6,0,0,1,2.2-3.69,5.86,5.86,0,0,1,4-1.26v4.83Z" style="fill:#fff"></path></g><g style="opacity:0.6000000000000001"><path d="M492.11,431.44s-5.15,1.49-4.51,2.33,20.39.83,29.1.05l0-.38-23,.22S493.11,431.48,492.11,431.44Z" style="fill:#fff"></path></g><path d="M516.79,433.3l-.29,0-.86.06-3.14.13c-2.65.1-6.32.19-10.38.2s-7.72-.06-10.38-.15l-3.14-.13-.85-.05-.3,0h1.15l3.15.06c2.65.05,6.32.1,10.37.09s7.72-.07,10.37-.13l3.15-.08h1.15Z" style="fill:#263238"></path><path d="M493.64,434a6.31,6.31,0,0,0-.59-1.5,7.65,7.65,0,0,0-1.07-1.21,2.39,2.39,0,0,1,1.25,1.1A2.31,2.31,0,0,1,493.64,434Z" style="fill:#263238"></path><path d="M499.07,431c-.05,0-.29-.27-.55-.67a2,2,0,0,1-.37-.77c.05,0,.3.26.55.66S499.12,431,499.07,431Z" style="fill:#263238"></path><path d="M500.47,430.25c0,.05-.31-.13-.61-.4s-.51-.52-.47-.56.31.13.61.4S500.51,430.21,500.47,430.25Z" style="fill:#263238"></path><path d="M501.35,428.62a2,2,0,0,1-.9.12,2.12,2.12,0,0,1-.91-.1,2.17,2.17,0,0,1,.91-.11A1.94,1.94,0,0,1,501.35,428.62Z" style="fill:#263238"></path><path d="M501.65,427.47a1.74,1.74,0,0,1-1,.29,1.79,1.79,0,0,1-1-.13,5.54,5.54,0,0,1,1-.08A5.15,5.15,0,0,1,501.65,427.47Z" style="fill:#263238"></path><path d="M498.48,429.49a3.45,3.45,0,0,1-1.11,0,6.2,6.2,0,0,1-1.18-.26,2.92,2.92,0,0,1-.68-.27.67.67,0,0,1-.28-.35.45.45,0,0,1,.17-.44,2.07,2.07,0,0,1,2.89,1.33c0,.19,0,.3,0,.3a2.77,2.77,0,0,0-.5-1,2,2,0,0,0-.95-.61,1.71,1.71,0,0,0-1.33.09c-.17.13-.1.34.09.45a3.23,3.23,0,0,0,.63.27,8.48,8.48,0,0,0,1.14.3C498.06,429.45,498.48,429.45,498.48,429.49Z" style="fill:#263238"></path><path d="M498.19,429.54a1.11,1.11,0,0,1-.13-.77,1.87,1.87,0,0,1,.31-.81,1.09,1.09,0,0,1,.92-.57.45.45,0,0,1,.34.52,1.19,1.19,0,0,1-.18.49,4,4,0,0,1-.53.68,1.66,1.66,0,0,1-.63.45s.22-.2.52-.56a3.62,3.62,0,0,0,.47-.66c.15-.24.25-.66,0-.71s-.56.25-.73.47a1.85,1.85,0,0,0-.31.72A5.34,5.34,0,0,0,498.19,429.54Z" style="fill:#263238"></path><path d="M516.91,428.9s-.5,0-1.28,0a5.64,5.64,0,0,0-2.79,1.16,5.47,5.47,0,0,0-1.73,2.46c-.27.74-.29,1.24-.33,1.24a1.09,1.09,0,0,1,0-.35,4.41,4.41,0,0,1,.18-.94,5.45,5.45,0,0,1,1.75-2.58,5.34,5.34,0,0,1,2.9-1.13,4.74,4.74,0,0,1,1,0C516.79,428.85,516.91,428.88,516.91,428.9Z" style="fill:#263238"></path><path d="M515.1,421.16a29.57,29.57,0,0,1,.16,3.55,28.54,28.54,0,0,1-.06,3.56,34.1,34.1,0,0,1-.15-3.56A32.39,32.39,0,0,1,515.1,421.16Z" style="fill:#263238"></path><path d="M508.57,431.67a9.94,9.94,0,0,1-2.52.25,9.31,9.31,0,0,1-2.53-.2c0-.06,1.14,0,2.53,0S508.57,431.61,508.57,431.67Z" style="fill:#263238"></path><path d="M512,431.66c.05,0-.09.24-.2.5s-.18.49-.24.48-.09-.27,0-.57S511.93,431.62,512,431.66Z" style="fill:#263238"></path><path d="M513.24,430.07s-.07.22-.25.4-.36.3-.4.25.07-.22.25-.4S513.2,430,513.24,430.07Z" style="fill:#263238"></path><path d="M515.06,429.34c0,.06-.24.06-.49.15s-.44.22-.48.18.1-.28.41-.38S515.08,429.28,515.06,429.34Z" style="fill:#263238"></path><path d="M516.37,429c0,.06-.08.15-.23.2s-.27.06-.29,0,.07-.15.22-.2S516.34,428.94,516.37,429Z" style="fill:#263238"></path><path d="M552.25,430.12l0-9.23H534.91l-.07,13.51,1.08.07c4.77.26,24.27,1,27.46.06C566.94,433.44,552.25,430.12,552.25,430.12Z" style="fill:#FFC100"></path><g style="opacity:0.6000000000000001"><path d="M541.1,434.47a6,6,0,0,0-2.21-3.69,5.85,5.85,0,0,0-4-1.26v4.84Z" style="fill:#fff"></path></g><g style="opacity:0.6000000000000001"><path d="M559.41,432s5.14,1.49,4.5,2.34-20.38.82-29.09,0l0-.38,23,.22S558.4,432,559.41,432Z" style="fill:#fff"></path></g><path d="M534.72,433.85l.3,0,.85.05,3.14.14c2.66.1,6.33.18,10.38.19s7.72-.06,10.38-.15l3.14-.13.86,0,.29,0h-1.15l-3.14.06c-2.66,0-6.33.1-10.38.09s-7.72-.07-10.37-.13l-3.15-.07-.85,0Z" style="fill:#263238"></path><path d="M557.87,434.55a8.06,8.06,0,0,1,.59-1.5,6.24,6.24,0,0,1,1.08-1.2,2.26,2.26,0,0,0-1.26,1.09A2.38,2.38,0,0,0,557.87,434.55Z" style="fill:#263238"></path><path d="M552.44,431.55s.3-.27.55-.66.42-.75.37-.78-.29.27-.55.66A2,2,0,0,0,552.44,431.55Z" style="fill:#263238"></path><path d="M551.05,430.81s.31-.14.61-.41.5-.52.47-.56-.32.14-.61.4S551,430.76,551.05,430.81Z" style="fill:#263238"></path><path d="M550.16,429.17a2.06,2.06,0,0,0,.9.12,2.17,2.17,0,0,0,.91-.09,2,2,0,0,0-.9-.12A2,2,0,0,0,550.16,429.17Z" style="fill:#263238"></path><path d="M549.86,428a1.81,1.81,0,0,0,1,.3,1.86,1.86,0,0,0,1-.14,5.24,5.24,0,0,0-1-.07A5.59,5.59,0,0,0,549.86,428Z" style="fill:#263238"></path><path d="M553,430a3.27,3.27,0,0,0,1.11,0,8.37,8.37,0,0,0,1.19-.26,4.09,4.09,0,0,0,.68-.28.61.61,0,0,0,.27-.35.42.42,0,0,0-.17-.44,2,2,0,0,0-2.52.59,2,2,0,0,0-.36.74.58.58,0,0,0,0,.3,3.37,3.37,0,0,1,.51-.94,2,2,0,0,1,.95-.62,1.69,1.69,0,0,1,1.32.09c.18.13.11.34-.09.46a3.38,3.38,0,0,1-.62.26,7.29,7.29,0,0,1-1.15.3C553.46,430,553,430,553,430Z" style="fill:#263238"></path><path d="M553.32,430.1a1.11,1.11,0,0,0,.13-.78,2,2,0,0,0-.3-.81,1.17,1.17,0,0,0-.93-.57.46.46,0,0,0-.34.52,1.2,1.2,0,0,0,.19.49,3.26,3.26,0,0,0,.52.68,1.64,1.64,0,0,0,.64.45s-.22-.2-.53-.55a3.72,3.72,0,0,1-.46-.67c-.16-.24-.26-.66,0-.71s.56.25.73.47a1.83,1.83,0,0,1,.31.73A4,4,0,0,1,553.32,430.1Z" style="fill:#263238"></path><path d="M534.61,429.45s.49-.05,1.27.05a5.49,5.49,0,0,1,2.79,1.15,5.7,5.7,0,0,1,1.74,2.46c.26.74.29,1.24.33,1.24a1.59,1.59,0,0,0,0-.35,4.36,4.36,0,0,0-.19-.93,5.27,5.27,0,0,0-4.65-3.72,4.64,4.64,0,0,0-.95,0A1,1,0,0,0,534.61,429.45Z" style="fill:#263238"></path><path d="M536.41,421.71a28.48,28.48,0,0,0-.15,3.55,29.77,29.77,0,0,0,0,3.56,28.48,28.48,0,0,0,.15-3.55A29.87,29.87,0,0,0,536.41,421.71Z" style="fill:#263238"></path><path d="M542.94,432.22a9.94,9.94,0,0,0,2.52.25,9.31,9.31,0,0,0,2.53-.2c0-.06-1.13,0-2.52,0S543,432.16,542.94,432.22Z" style="fill:#263238"></path><path d="M539.55,432.21s.09.24.21.5.18.49.24.48.08-.27,0-.57S539.59,432.17,539.55,432.21Z" style="fill:#263238"></path><path d="M538.28,430.62s.07.22.24.4.36.3.4.26-.07-.22-.25-.41S538.32,430.58,538.28,430.62Z" style="fill:#263238"></path><path d="M536.45,429.89c0,.06.24.06.49.15s.44.22.49.18-.1-.27-.42-.38S536.43,429.84,536.45,429.89Z" style="fill:#263238"></path><path d="M535.15,429.55c0,.05.08.14.22.19s.28.06.3,0-.08-.14-.22-.2S535.17,429.49,535.15,429.55Z" style="fill:#263238"></path><polyline points="484.19 249.02 492.59 426.43 519.51 426.99 512.53 273.69 530.76 426.34 558.26 427.03 536.74 247.08" style="fill:#455a64"></polyline><path d="M505.27,426.69c-.14,0-2.07-39.64-4.3-88.54s-3.92-88.57-3.78-88.58,2.07,39.63,4.3,88.55S505.42,426.69,505.27,426.69Z" style="fill:#263238"></path><path d="M545.47,425.27c-.15,0-5-38.49-10.79-86s-10.41-86-10.26-86.06,5,38.48,10.78,86S545.61,425.25,545.47,425.27Z" style="fill:#263238"></path><path d="M501.61,164.6l-4.92.9a25.32,25.32,0,0,0-13.81,7.5l-17.71,21.12L481.81,207,491,196.25s-1.33,6.59-1.06,7.6a7.59,7.59,0,0,0,2.16,3.07L491.81,225,484.19,249l52.55.55-4-25.48.74-25.94,8.82,10,15.06-17.73-17-17.09h0a30.26,30.26,0,0,0-11.71-7.58,24.14,24.14,0,0,0-6.71-1.36" style="fill:#263238"></path><path d="M524.56,205.62a3.11,3.11,0,0,1-1.29.81,8.37,8.37,0,0,1-7.18-.38,3.3,3.3,0,0,1-1.2-1,13.37,13.37,0,0,0,4.77,1.43A13.21,13.21,0,0,0,524.56,205.62Z" style="fill:#fafafa"></path><path d="M482.26,172.84a2.42,2.42,0,0,1,.92-.37,5.15,5.15,0,0,1,2.71.13,4.87,4.87,0,0,1,3,2.64,5.17,5.17,0,0,1-.34,4.89,5,5,0,0,1-4.41,2.11,4.4,4.4,0,0,1-3.44-2.06,4.56,4.56,0,0,1-.74-2.61,2.06,2.06,0,0,1,.21-1c.05,0,0,.36,0,1A4.61,4.61,0,0,0,481,180a4.06,4.06,0,0,0,3.16,1.78,4.56,4.56,0,0,0,3.94-1.92,4.72,4.72,0,0,0,.34-4.4,4.54,4.54,0,0,0-2.7-2.49,5.43,5.43,0,0,0-2.55-.28A7.1,7.1,0,0,1,482.26,172.84Z" style="fill:#fafafa"></path><path d="M505.13,177.48a.87.87,0,0,1,.3.08,3.14,3.14,0,0,1,.81.42,5.35,5.35,0,0,1,2.23,5,4.73,4.73,0,0,1-1.13,2.46,5.22,5.22,0,0,1-9.27-3.12,4.87,4.87,0,0,1,.54-2.65,5.51,5.51,0,0,1,1.55-1.77,5.38,5.38,0,0,1,3.16-1.07,3.49,3.49,0,0,1,.91.09c.2,0,.3.09.3.11s-.44-.06-1.2,0a5.41,5.41,0,0,0-2.94,1.17,4.6,4.6,0,0,0-1.84,4.08,4.76,4.76,0,0,0,8.43,2.84,4.23,4.23,0,0,0,1.06-2.2,4.81,4.81,0,0,0-.16-2.16,5.23,5.23,0,0,0-1.76-2.63C505.52,177.67,505.11,177.53,505.13,177.48Z" style="fill:#fafafa"></path><path d="M483.79,191.11s.12,0,.31.08a3,3,0,0,1,.81.42,5.16,5.16,0,0,1,2,2.67,5.24,5.24,0,0,1,.24,2.34,4.73,4.73,0,0,1-1.13,2.46,5.22,5.22,0,0,1-9.27-3.12,4.75,4.75,0,0,1,.54-2.65,5.52,5.52,0,0,1,4.71-2.85,3.79,3.79,0,0,1,.9.1c.21.05.31.09.3.1s-.43,0-1.19,0a5.49,5.49,0,0,0-2.95,1.16,4.68,4.68,0,0,0-1.84,4.09,4.77,4.77,0,0,0,8.44,2.84,4.38,4.38,0,0,0,1.06-2.2,5,5,0,0,0-.16-2.17,5.24,5.24,0,0,0-1.76-2.62C484.19,191.3,483.77,191.16,483.79,191.11Z" style="fill:#fafafa"></path><path d="M521.56,188.78s.11,0,.3.08a3.14,3.14,0,0,1,.81.42,5.35,5.35,0,0,1,2.23,5,4.73,4.73,0,0,1-1.13,2.46,5.22,5.22,0,0,1-9.27-3.12A4.85,4.85,0,0,1,515,191a5.51,5.51,0,0,1,1.55-1.77,5.38,5.38,0,0,1,3.16-1.07,3.49,3.49,0,0,1,.91.09c.2.05.3.09.3.11s-.44-.06-1.2,0a5.41,5.41,0,0,0-2.94,1.17,4.6,4.6,0,0,0-1.84,4.08,4.76,4.76,0,0,0,8.43,2.84,4.23,4.23,0,0,0,1.06-2.2,4.81,4.81,0,0,0-.16-2.16,5.23,5.23,0,0,0-1.76-2.63C522,189,521.54,188.83,521.56,188.78Z" style="fill:#fafafa"></path><path d="M545.45,186.44a.89.89,0,0,1,.31.08,3.71,3.71,0,0,1,.81.42,5.33,5.33,0,0,1,2.22,5,4.66,4.66,0,0,1-1.13,2.46,5.48,5.48,0,0,1-5.71,1.66,5.55,5.55,0,0,1-3.56-4.78,4.87,4.87,0,0,1,.55-2.65,5.15,5.15,0,0,1,1.55-1.76,5.33,5.33,0,0,1,3.15-1.08,3.93,3.93,0,0,1,.91.09c.2.06.3.09.3.11s-.44-.05-1.2,0a5.43,5.43,0,0,0-2.94,1.17,4.6,4.6,0,0,0-1.84,4.08,5.1,5.1,0,0,0,3.24,4.32,5,5,0,0,0,5.19-1.47,4.31,4.31,0,0,0,1.07-2.21,5,5,0,0,0-.16-2.16,5.29,5.29,0,0,0-1.76-2.63C545.84,186.64,545.43,186.49,545.45,186.44Z" style="fill:#fafafa"></path><path d="M530.43,171.91a.87.87,0,0,1,.3.08,3.71,3.71,0,0,1,.81.42,5.14,5.14,0,0,1,2,2.68,5.06,5.06,0,0,1,.24,2.33,4.73,4.73,0,0,1-1.13,2.46,5.47,5.47,0,0,1-5.72,1.65,5.53,5.53,0,0,1-3.55-4.77,4.87,4.87,0,0,1,.54-2.65,5.54,5.54,0,0,1,4.71-2.84,3.83,3.83,0,0,1,.9.09c.21,0,.31.09.31.11s-.44-.05-1.2,0a5.38,5.38,0,0,0-2.94,1.17,4.6,4.6,0,0,0-1.84,4.08,4.77,4.77,0,0,0,8.43,2.85,4.38,4.38,0,0,0,1.06-2.21,4.81,4.81,0,0,0-.16-2.16,5.23,5.23,0,0,0-1.76-2.63C530.82,172.11,530.41,172,530.43,171.91Z" style="fill:#fafafa"></path><path d="M525.41,213.25s.11,0,.31.08a3,3,0,0,1,.81.42,5.16,5.16,0,0,1,2,2.67,5.24,5.24,0,0,1,.24,2.34,4.67,4.67,0,0,1-1.14,2.46,5.23,5.23,0,0,1-9.27-3.12,4.84,4.84,0,0,1,.55-2.65,5.4,5.4,0,0,1,1.55-1.77,5.48,5.48,0,0,1,3.16-1.08,3.79,3.79,0,0,1,.9.1c.2.05.31.08.3.1s-.43-.05-1.2,0a5.49,5.49,0,0,0-2.94,1.16,4.68,4.68,0,0,0-1.84,4.09,4.76,4.76,0,0,0,8.43,2.84,4.32,4.32,0,0,0,1.07-2.2,5,5,0,0,0-.16-2.17,5.19,5.19,0,0,0-1.76-2.62C525.81,213.44,525.39,213.3,525.41,213.25Z" style="fill:#fafafa"></path><path d="M523.83,235s.11,0,.31.07a3.71,3.71,0,0,1,.81.42,5.37,5.37,0,0,1,2.23,5A4.74,4.74,0,0,1,526,243a5.22,5.22,0,0,1-9.26-3.13,4.78,4.78,0,0,1,.54-2.65,5.46,5.46,0,0,1,1.55-1.76,5.33,5.33,0,0,1,3.16-1.08,3.33,3.33,0,0,1,.9.1c.21,0,.31.08.3.1s-.43-.05-1.19,0a5.51,5.51,0,0,0-2.95,1.17,4.67,4.67,0,0,0-1.84,4.09,5.09,5.09,0,0,0,3.25,4.31,5,5,0,0,0,5.18-1.47,4.31,4.31,0,0,0,1.07-2.21,5,5,0,0,0-.16-2.16,5.19,5.19,0,0,0-1.76-2.62C524.23,235.17,523.81,235,523.83,235Z" style="fill:#fafafa"></path><path d="M497.77,237.16a.87.87,0,0,1,.3.08,3.71,3.71,0,0,1,.81.42,5.14,5.14,0,0,1,2,2.68,5.06,5.06,0,0,1,.24,2.33,4.73,4.73,0,0,1-1.13,2.46,5.47,5.47,0,0,1-5.72,1.65,5.53,5.53,0,0,1-3.55-4.77,4.87,4.87,0,0,1,.54-2.65,5.54,5.54,0,0,1,4.71-2.84,3.83,3.83,0,0,1,.9.09c.21,0,.31.09.31.11s-.44-.05-1.2,0a5.38,5.38,0,0,0-2.94,1.17,4.63,4.63,0,0,0-1.85,4.08,5.11,5.11,0,0,0,3.25,4.32,5.05,5.05,0,0,0,5.19-1.47,4.38,4.38,0,0,0,1.06-2.21,4.81,4.81,0,0,0-.16-2.16,5.23,5.23,0,0,0-1.76-2.63C498.16,237.36,497.74,237.21,497.77,237.16Z" style="fill:#fafafa"></path><path d="M503.49,201.42s.11,0,.31.08a3.5,3.5,0,0,1,.81.42,5.21,5.21,0,0,1,2,2.67,5.26,5.26,0,0,1,.23,2.34,4.73,4.73,0,0,1-1.13,2.46,5.23,5.23,0,0,1-9.27-3.12,4.77,4.77,0,0,1,.55-2.65,5.45,5.45,0,0,1,4.7-2.84,3.44,3.44,0,0,1,.91.09c.2,0,.3.09.3.11s-.44-.06-1.2,0a5.43,5.43,0,0,0-2.94,1.17,4.6,4.6,0,0,0-1.84,4.08,4.76,4.76,0,0,0,8.43,2.84,4.25,4.25,0,0,0,1.07-2.2,5,5,0,0,0-.17-2.16,5.29,5.29,0,0,0-1.75-2.63C503.88,201.61,503.47,201.47,503.49,201.42Z" style="fill:#fafafa"></path><path d="M508.5,221.29s.11,0,.31.08a3.31,3.31,0,0,1,.81.42,5.21,5.21,0,0,1,2,2.67,5.26,5.26,0,0,1,.23,2.34,4.58,4.58,0,0,1-1.13,2.46,5.23,5.23,0,0,1-9.27-3.12,4.85,4.85,0,0,1,.55-2.65,5.29,5.29,0,0,1,1.55-1.77,5.38,5.38,0,0,1,3.15-1.07,3.44,3.44,0,0,1,.91.09c.2,0,.3.09.3.11s-.44-.06-1.2,0a5.43,5.43,0,0,0-2.94,1.17,4.6,4.6,0,0,0-1.84,4.08,5.1,5.1,0,0,0,3.24,4.32,5,5,0,0,0,5.19-1.48,4.25,4.25,0,0,0,1.07-2.2,5,5,0,0,0-.16-2.16A5.29,5.29,0,0,0,509.5,222C508.9,221.48,508.48,221.34,508.5,221.29Z" style="fill:#fafafa"></path><path d="M503.36,165.39c0-3.35-.06-6.27-.06-6.27s-6.77-.72-7.18-7.43,0-22.19,0-22.19l12.33-6L522,133.75l-1.43,31.95a8.61,8.61,0,0,1-8.6,8.23h0A8.61,8.61,0,0,1,503.36,165.39Z" style="fill:#ffbe9d"></path><path d="M498,140.2a.86.86,0,1,0,.86-.86A.86.86,0,0,0,498,140.2Z" style="fill:#263238"></path><path d="M496.74,139.85c.11.11.74-.43,1.67-.48s1.61.4,1.71.27-.07-.26-.37-.47a2.34,2.34,0,0,0-1.38-.36,2.3,2.3,0,0,0-1.32.53C496.77,139.58,496.68,139.8,496.74,139.85Z" style="fill:#263238"></path><circle cx="508.97" cy="140.2" r="0.86" style="fill:#263238"></circle><path d="M507,139.85c.11.11.74-.43,1.67-.48s1.62.4,1.71.27-.06-.26-.37-.47a2.34,2.34,0,0,0-1.38-.36,2.3,2.3,0,0,0-1.32.53C507,139.58,506.93,139.8,507,139.85Z" style="fill:#263238"></path><path d="M503.65,147.66a4.42,4.42,0,0,1-1.52.13,1.64,1.64,0,0,1-.42,0,.61.61,0,0,1-.43-.36,1.54,1.54,0,0,1,.08-1c.2-.63.39-1.26.6-1.93a26,26,0,0,1,1.84-4.86,25.47,25.47,0,0,1-1.34,5l-.64,1.92a1.3,1.3,0,0,0-.14.7c0,.13.22.17.46.19A4.52,4.52,0,0,1,503.65,147.66Z" style="fill:#263238"></path><path d="M503.3,159.12a16.1,16.1,0,0,0,8.57-3s-1.83,4.93-8.56,4.65Z" style="fill:#eb996e"></path><path d="M531.93,139.34l0,1.19c-.14-1.24-.49-4.06-.69-4.83-3.66-14-16-16.61-18.39-16.61-2.61,0-7.11-1.36-13.83,5.48-5.53,5.63-4.4,13.7-4.4,13.7l2.5-.37,9.82-2.54c1.41-3,2.08-5.3,2.73-6.83h0a12.44,12.44,0,0,0,11.38,10.4L520.87,159C533.94,156.22,531.93,139.34,531.93,139.34Z" style="fill:#FFC100"></path><path d="M505.48,149.89a1.28,1.28,0,0,0-1.63.12,1.21,1.21,0,0,0,0,1.61,1.14,1.14,0,0,0,1.6,0,1.22,1.22,0,0,0,.25-1.12,1.63,1.63,0,0,0-.71-.94" style="fill:#eb996e"></path><path d="M506.21,148.44c.06,0,.08.32-.09.77A3.16,3.16,0,0,1,505,150.7a3.09,3.09,0,0,1-1.8.55c-.49,0-.77-.13-.76-.2a7.54,7.54,0,0,0,2.26-.78C505.75,149.52,506.06,148.39,506.21,148.44Z" style="fill:#263238"></path><path d="M509.91,137.44c-.1.1-.72-.55-1.7-.59s-1.65.54-1.75.43.05-.27.36-.51a2.13,2.13,0,0,1,1.42-.44,2.2,2.2,0,0,1,1.37.57C509.89,137.17,510,137.4,509.91,137.44Z" style="fill:#263238"></path><path d="M529.06,136.09a10.13,10.13,0,0,1,1.92-4.5,5,5,0,0,1,4.33-1.9,3.89,3.89,0,0,1,3.06,5.34,4.82,4.82,0,0,1-4.72,2.67,8.11,8.11,0,0,1-5.07-2.52" style="fill:#FFC100"></path></g><g id="freepik--character-2--inject-2"><path d="M407,171.52,432,178s20.67-22.94,21.64-23.74,13.65,3.22,13.65,3.22l-14.73,27.27c-3.51,8.89-8.74,13.91-13.82,14.13l-41-8.14Z" style="fill:#ffbe9d"></path><path d="M452.77,155.28s2.85-5.73,3.25-6.59A78.75,78.75,0,0,0,458.5,141s1.7-.37,1.59,3.43.66,2.75.66,2.75,7.9-9.6,9.82-9c.71.24-.27,2.52-1.58,3.75a26.52,26.52,0,0,0-2.72,3.23s7.43-6.7,9.13-5.65c0,0,.83.66-1.53,2.64a53.05,53.05,0,0,0-5.5,5.3s7.37-5.19,8.2-4.63c1.39.93-6.09,6.23-7.32,8.2,0,0,5.55-4.26,5.7-2.89s-6.76,6.17-9.92,13.14Z" style="fill:#ffbe9d"></path><path d="M458.71,148.14s.64.12,1.39.83a5.11,5.11,0,0,1,1.6,3.59l-.46-.17,0,0a6,6,0,0,1,3.45-2,2.86,2.86,0,0,1,1.63,0c0,.09-.62.07-1.55.33a6.33,6.33,0,0,0-3.13,1.93l0,0-.45.49v-.65a5.33,5.33,0,0,0-1.34-3.35C459.21,148.5,458.66,148.21,458.71,148.14Z" style="fill:#eb996e"></path><path d="M343,170.45l-25,6.49S297.38,154,296.41,153.19s-13.65,3.23-13.65,3.23l14.73,27.27c3.51,8.89,8.74,13.91,13.82,14.13l41-8.14Z" style="fill:#ffbe9d"></path><path d="M297.23,154.21s-2.85-5.73-3.25-6.59A78.75,78.75,0,0,1,291.5,140s-1.7-.38-1.59,3.43-.66,2.75-.66,2.75-7.9-9.6-9.82-9c-.71.24.27,2.52,1.58,3.75a26.52,26.52,0,0,1,2.72,3.23s-7.43-6.7-9.13-5.65c0,0-.83.66,1.53,2.63a53.7,53.7,0,0,1,5.5,5.31s-7.37-5.19-8.2-4.63c-1.39.93,6.08,6.23,7.32,8.2,0,0-5.55-4.26-5.7-2.89s6.76,6.17,9.92,13.14Z" style="fill:#ffbe9d"></path><path d="M291.29,147.07c0,.07-.5.36-1.13,1.08a5.33,5.33,0,0,0-1.34,3.35v.65l-.45-.49,0,0a6.33,6.33,0,0,0-3.13-1.93c-.93-.26-1.55-.24-1.55-.33a2.86,2.86,0,0,1,1.63,0,6,6,0,0,1,3.45,1.95l0,0-.46.17a5.11,5.11,0,0,1,1.6-3.59C290.65,147.19,291.28,147,291.29,147.07Z" style="fill:#eb996e"></path><path d="M385.14,137.64a1.56,1.56,0,0,0,2.09,2c1-.46,1.25-1.87,1.11-3s-.45-2.36.08-3.38a7.57,7.57,0,0,1,1.86-1.84,4.92,4.92,0,0,0,1.6-4.12,4.15,4.15,0,0,0-2.68-3.43c-1.48-.5-3.35-.14-4.41-1.29-.77-.83-.75-2.12-1.33-3.1-.89-1.51-2.94-1.86-4.69-1.71s-3.55.6-5.23.08c-1.41-.43-2.52-1.48-3.82-2.17a7.7,7.7,0,0,0-10.58,10,4.85,4.85,0,0,0,2.26,2.48" style="fill:#263238"></path><path d="M383.39,167.47l-16.55-1.32c-.11-1.93,0-9.41,0-9.41s-6.89-1.07-7-8S361,126.07,361,126.07h0a23.94,23.94,0,0,1,24.05,3l1,.78Z" style="fill:#ffbe9d"></path><path d="M363.8,137.76a1,1,0,0,0,.07-1.41,1,1,0,0,0-1.42-.07,1,1,0,0,0-.07,1.41A1,1,0,0,0,363.8,137.76Z" style="fill:#263238"></path><path d="M360.92,136.5c.11.12.78-.4,1.73-.41s1.64.49,1.75.37-.06-.27-.36-.5a2.28,2.28,0,0,0-1.39-.44,2.33,2.33,0,0,0-1.38.47C361,136.23,360.87,136.45,360.92,136.5Z" style="fill:#263238"></path><path d="M372.64,136.67a1,1,0,0,0-.33,1.37,1,1,0,1,0,1.7-1A1,1,0,0,0,372.64,136.67Z" style="fill:#263238"></path><path d="M371.23,137c.1.12.78-.4,1.73-.41s1.64.49,1.74.37-.06-.27-.36-.5A2.25,2.25,0,0,0,373,136a2.35,2.35,0,0,0-1.38.47C371.28,136.73,371.17,137,371.23,137Z" style="fill:#263238"></path><path d="M367.42,145a4.72,4.72,0,0,0-1.53-.32c-.25,0-.45-.09-.46-.22a1.34,1.34,0,0,1,.17-.71c.25-.63.5-1.26.75-1.93a26,26,0,0,0,1.63-5.07,26.65,26.65,0,0,0-2.13,4.88c-.25.67-.48,1.31-.71,1.94a1.61,1.61,0,0,0-.14,1,.66.66,0,0,0,.43.39,1.76,1.76,0,0,0,.42.06A4.49,4.49,0,0,0,367.42,145Z" style="fill:#263238"></path><path d="M370.5,146.05a18,18,0,0,1-4.65,1.35,2.63,2.63,0,0,0,3.09,1C371,147.69,370.5,146.05,370.5,146.05Z" style="fill:#fff"></path><path d="M366.86,156.64a16.07,16.07,0,0,0,9-2.55s-2.12,4.95-9,4.33Z" style="fill:#eb996e"></path><path d="M360.86,127.81s4,2.33,9.67,0c3.71-1.52,7.93-2.08,8.8-1.3s.78,4.48,4.24,5.82c0,0-.76,7,2.05,7s1.87-11,1.87-11l-6.59-3.85-7.37-2-7.11.47L360.86,124Z" style="fill:#263238"></path><path d="M385.23,137c.12-.05,4.74-1.4,4.59,3.31s-4.85,3.58-4.86,3.45S385.23,137,385.23,137Z" style="fill:#ffbe9d"></path><path d="M386.46,142s.08.06.22.13a.77.77,0,0,0,.61,0,2,2,0,0,0,1-1.79,2.64,2.64,0,0,0-.2-1.18.93.93,0,0,0-.59-.65.41.41,0,0,0-.49.21c-.07.13,0,.22-.07.23s-.1-.08-.05-.28a.49.49,0,0,1,.19-.28.64.64,0,0,1,.46-.11,1.15,1.15,0,0,1,.83.76,2.71,2.71,0,0,1,.24,1.32,2.11,2.11,0,0,1-1.26,2,.88.88,0,0,1-.74-.14C386.46,142.16,386.44,142.05,386.46,142Z" style="fill:#eb996e"></path><path d="M388.43,122.42c0,.15-.74.08-1.52.34s-1.33.69-1.44.59.33-.8,1.28-1.09S388.48,122.29,388.43,122.42Z" style="fill:#263238"></path><path d="M385.75,119.45a3.21,3.21,0,0,1,.14,2.24c-.25,1.28-1.05,2-1.14,1.94s.41-.9.63-2S385.59,119.46,385.75,119.45Z" style="fill:#263238"></path><path d="M365.53,134.79c-.14.26-1,0-2.13,0s-2,.1-2.13-.17.82-.93,2.18-.87S365.69,134.56,365.53,134.79Z" style="fill:#263238"></path><path d="M376.1,133.91c-.14.26-1,0-2.13,0s-2,.1-2.13-.17.81-.93,2.18-.87S376.26,133.67,376.1,133.91Z" style="fill:#263238"></path><path d="M415.09,425l1.64,6.9s11.27,14.64,14.75,13.93c2.28-.47-.52-4.29-4.81-15.42l-.9-4.59Z" style="fill:#FFC100"></path><path d="M431.94,443.64a.59.59,0,0,1-.09.21,1.35,1.35,0,0,1-.47.44,1.89,1.89,0,0,1-1,.22,2.58,2.58,0,0,1-1.27-.47,53.13,53.13,0,0,1-5.68-5.3,70.88,70.88,0,0,1-5-5.9c-.6-.79-1.07-1.44-1.39-1.9l-.36-.53-.12-.19a.69.69,0,0,1,.15.17l.39.5c.42.54.9,1.15,1.44,1.86,1.24,1.55,3,3.66,5.08,5.85a62,62,0,0,0,5.61,5.32,2.1,2.1,0,0,0,2.16.3A1.4,1.4,0,0,0,431.94,443.64Z" style="fill:#263238"></path><path d="M430.34,438.94a8.58,8.58,0,0,0-.91,0,5.22,5.22,0,0,0-2,.77,4.06,4.06,0,0,0-1.52,1.52c-.27.49-.34.84-.38.83a2,2,0,0,1,.24-.9,4,4,0,0,1,1.55-1.63,4.81,4.81,0,0,1,2.13-.74A1.76,1.76,0,0,1,430.34,438.94Z" style="fill:#263238"></path><path d="M419.67,435.5s.12-.5.21-1.29a5.37,5.37,0,0,0-.56-3,5.07,5.07,0,0,0-2.16-2.18,8.14,8.14,0,0,0-1.23-.44,1.23,1.23,0,0,1,.36,0,3.92,3.92,0,0,1,.93.29,4.87,4.87,0,0,1,2.28,2.22,5.13,5.13,0,0,1,.53,3.13,5.75,5.75,0,0,1-.23.95A1.31,1.31,0,0,1,419.67,435.5Z" style="fill:#263238"></path><path d="M415.8,426.15a7.12,7.12,0,0,1,.62,2.16c.21,1.23.43,2.19.39,2.21a7.06,7.06,0,0,1-.59-2.17C416,427.13,415.75,426.17,415.8,426.15Z" style="fill:#263238"></path><path d="M426.87,431.36c0,.07-.64,0-1.4.22s-1.32.47-1.35.42a3.38,3.38,0,0,1,2.75-.64Z" style="fill:#263238"></path><path d="M427.1,432.55c0,.06-.54,0-1.17.15s-1.08.44-1.12.39a1.79,1.79,0,0,1,1.07-.59A1.65,1.65,0,0,1,427.1,432.55Z" style="fill:#263238"></path><path d="M428,434a5.25,5.25,0,0,0-1.21,0,5.06,5.06,0,0,0-1.12.49,1.49,1.49,0,0,1,1.07-.7A1.46,1.46,0,0,1,428,434Z" style="fill:#263238"></path><path d="M426.09,430.87a1.29,1.29,0,0,1-.37-.05,6.73,6.73,0,0,1-1-.27,8.51,8.51,0,0,1-1.4-.62,8.21,8.21,0,0,1-.78-.48,1.18,1.18,0,0,1-.56-.86.67.67,0,0,1,.85-.54,1.81,1.81,0,0,1,.79.53,12.31,12.31,0,0,1,1,1.13,8.38,8.38,0,0,1,.62.82c.14.2.21.32.19.33s-.34-.41-.92-1.06c-.29-.32-.64-.69-1.06-1.08a1.61,1.61,0,0,0-.69-.47c-.26-.06-.6.08-.6.35s.24.51.47.68a7.85,7.85,0,0,0,.75.48,9.78,9.78,0,0,0,1.36.66C425.57,430.73,426.1,430.84,426.09,430.87Z" style="fill:#263238"></path><path d="M425.5,430.73a1.22,1.22,0,0,1,0-.35c0-.22,0-.54.07-.93a5,5,0,0,1,.36-1.36,2.79,2.79,0,0,1,.44-.73.77.77,0,0,1,.9-.28.87.87,0,0,1,.31.89,3.2,3.2,0,0,1-.25.81,4.28,4.28,0,0,1-.8,1.16,5.07,5.07,0,0,1-.72.61,1,1,0,0,1-.3.18s.39-.31.91-.89a4.39,4.39,0,0,0,.73-1.14,3.1,3.1,0,0,0,.22-.75.69.69,0,0,0-.2-.69c-.21-.12-.47.05-.65.24a3.34,3.34,0,0,0-.42.66,5.53,5.53,0,0,0-.38,1.31A11.42,11.42,0,0,1,425.5,430.73Z" style="fill:#263238"></path><g style="opacity:0.4"><path d="M416.73,431.88l-.8-3.32s2.77.51,3.48,2.58a8.63,8.63,0,0,1,.54,3.54l6,6.47s1.51-2.94,4.23-2.24c0,0,2.15,4.73,2.08,5.91s-1.44,1-1.93.82a24.52,24.52,0,0,1-5.38-4.25C421.78,438.09,418.27,433.91,416.73,431.88Z"></path></g><path d="M359,428.47l0-9.2,17.22-.21.22,13.45-1.07.09c-4.75.32-24.17,1.3-27.36.37C344.44,431.94,359,428.47,359,428.47Z" style="fill:#FFC100"></path><g style="opacity:0.4"><path d="M370.17,432.45a6,6,0,0,1,2.16-3.69,5.85,5.85,0,0,1,4-1.31l.06,4.82Z"></path></g><g style="opacity:0.4"><path d="M351.9,430.42s-5.11,1.54-4.46,2.38,20.32.58,29-.29l0-.38-22.94.49S352.91,430.45,351.9,430.42Z"></path></g><path d="M376.66,432.12l-.3,0-.85.06-3.13.18c-2.64.13-6.29.26-10.33.31s-7.69,0-10.34,0l-3.13-.09-.85,0-.3,0h1.15l3.13,0c2.65,0,6.3,0,10.34,0s7.68-.16,10.33-.25l3.13-.11.85,0Z" style="fill:#263238"></path><path d="M353.46,432.88a6.88,6.88,0,0,0-.6-1.48,7.8,7.8,0,0,0-1.08-1.19,2.35,2.35,0,0,1,1.25,1.08A2.29,2.29,0,0,1,353.46,432.88Z" style="fill:#263238"></path><path d="M358.51,430.24c-.05,0-.29-.26-.55-.65s-.43-.74-.38-.77.3.26.55.65S358.56,430.21,358.51,430.24Z" style="fill:#263238"></path><path d="M359.9,429.49s-.32-.14-.62-.4-.51-.51-.47-.56.31.14.61.4S359.93,429.44,359.9,429.49Z" style="fill:#263238"></path><path d="M360.76,427.85a2.11,2.11,0,0,1-.9.13,1.94,1.94,0,0,1-.9-.09,2.17,2.17,0,0,1,.89-.12A2.08,2.08,0,0,1,360.76,427.85Z" style="fill:#263238"></path><path d="M361,426.7a2.56,2.56,0,0,1-2,.18,5.54,5.54,0,0,1,1-.08A5.12,5.12,0,0,1,361,426.7Z" style="fill:#263238"></path><path d="M357.91,428.75a3.27,3.27,0,0,1-1.11,0,6,6,0,0,1-1.18-.24,3.69,3.69,0,0,1-.68-.27.61.61,0,0,1-.28-.34.45.45,0,0,1,.16-.45,2,2,0,0,1,2.52.57,1.92,1.92,0,0,1,.37.73c.05.19.05.3,0,.3a2.84,2.84,0,0,0-.51-.94,2,2,0,0,0-1-.6,1.69,1.69,0,0,0-1.32.11c-.18.13-.11.33.09.45a4.39,4.39,0,0,0,.63.26,9.84,9.84,0,0,0,1.14.28C357.48,428.72,357.91,428.71,357.91,428.75Z" style="fill:#263238"></path><path d="M357.62,428.81a1.17,1.17,0,0,1-.14-.77,1.76,1.76,0,0,1,.3-.81,1.1,1.1,0,0,1,.91-.58.44.44,0,0,1,.35.51,1.35,1.35,0,0,1-.18.49,3.65,3.65,0,0,1-.52.68,1.61,1.61,0,0,1-.63.46s.22-.21.52-.56a4.31,4.31,0,0,0,.46-.67c.15-.24.24-.66,0-.7s-.56.25-.73.48a1.82,1.82,0,0,0-.3.72A4.44,4.44,0,0,0,357.62,428.81Z" style="fill:#263238"></path><path d="M376.25,427.41s-.5,0-1.27.06a5.51,5.51,0,0,0-2.77,1.18,5.59,5.59,0,0,0-1.7,2.47c-.25.74-.27,1.24-.31,1.24a1.26,1.26,0,0,1,0-.35,4.92,4.92,0,0,1,.18-.93,5.24,5.24,0,0,1,4.59-3.76,4.78,4.78,0,0,1,1,0A1,1,0,0,1,376.25,427.41Z" style="fill:#263238"></path><path d="M374.37,420.26a27.8,27.8,0,0,1,.19,3.54,30,30,0,0,1,0,3.54,62.77,62.77,0,0,1-.18-7.08Z" style="fill:#263238"></path><path d="M368,430.8a14.23,14.23,0,0,1-5,.11c0-.06,1.13,0,2.52,0S368,430.74,368,430.8Z" style="fill:#263238"></path><path d="M371.36,430.75c0,.05-.09.24-.2.5s-.17.49-.23.49-.09-.27,0-.57S371.32,430.71,371.36,430.75Z" style="fill:#263238"></path><path d="M372.61,429.16s-.06.22-.24.4-.35.3-.39.26.06-.22.24-.41S372.57,429.12,372.61,429.16Z" style="fill:#263238"></path><path d="M374.42,428.41c0,.06-.24.06-.49.15s-.43.23-.48.19.1-.28.41-.39S374.44,428.36,374.42,428.41Z" style="fill:#263238"></path><path d="M375.72,428.05c0,.05-.08.14-.22.2s-.28.06-.3,0,.08-.14.22-.2S375.69,428,375.72,428.05Z" style="fill:#263238"></path><polyline points="347.31 245.85 355.35 424.5 382.17 425.07 377.72 275.5 407.88 426.21 433.38 426.21 399.33 245.85" style="fill:#263238"></polyline><polygon points="406.56 423.78 407.17 426.42 433.38 426.78 432.99 422.65 406.56 423.78" style="fill:#455a64"></polygon><path d="M427,423.63c.15,0,.32.28.38.69s0,.76-.13.78-.31-.28-.38-.69S426.82,423.65,427,423.63Z" style="fill:#455a64"></path><path d="M426,417.78c.14,0,.37.61.5,1.42s.13,1.48,0,1.5-.36-.61-.5-1.42S425.84,417.8,426,417.78Z" style="fill:#455a64"></path><path d="M425,411.93c.14,0,.37.61.5,1.42s.13,1.48,0,1.5-.37-.61-.5-1.42S424.86,412,425,411.93Z" style="fill:#455a64"></path><path d="M424,406.08c.14,0,.36.61.5,1.42s.13,1.48,0,1.5-.37-.61-.51-1.42S423.87,406.1,424,406.08Z" style="fill:#455a64"></path><path d="M423,400.23c.14,0,.37.61.5,1.42s.13,1.48,0,1.5-.36-.61-.5-1.42S422.89,400.25,423,400.23Z" style="fill:#455a64"></path><path d="M422,394.38c.14,0,.37.61.51,1.42s.13,1.48,0,1.5-.37-.61-.51-1.42S421.9,394.4,422,394.38Z" style="fill:#455a64"></path><path d="M421.05,388.53c.14,0,.37.61.51,1.41s.13,1.49,0,1.51-.37-.61-.51-1.42S420.91,388.55,421.05,388.53Z" style="fill:#455a64"></path><path d="M420.06,382.68c.14,0,.37.61.5,1.42s.14,1.48,0,1.5-.37-.61-.51-1.42S419.92,382.7,420.06,382.68Z" style="fill:#455a64"></path><path d="M419.06,376.83c.14,0,.37.61.51,1.42s.13,1.48,0,1.5-.37-.61-.51-1.42S418.92,376.85,419.06,376.83Z" style="fill:#455a64"></path><path d="M418.06,371c.14,0,.37.61.51,1.42s.13,1.48,0,1.5-.37-.61-.5-1.42S417.92,371,418.06,371Z" style="fill:#455a64"></path><path d="M417.06,365.13c.14,0,.37.61.5,1.42s.14,1.48,0,1.5-.37-.61-.51-1.41S416.92,365.16,417.06,365.13Z" style="fill:#455a64"></path><path d="M416.05,359.28c.14,0,.37.61.51,1.42s.13,1.48,0,1.51-.37-.61-.51-1.42S415.91,359.31,416.05,359.28Z" style="fill:#455a64"></path><path d="M415,353.44c.14,0,.37.61.51,1.41s.14,1.49,0,1.51-.37-.61-.51-1.42S414.89,353.46,415,353.44Z" style="fill:#455a64"></path><path d="M414,347.59c.14,0,.37.61.51,1.42s.14,1.48,0,1.51-.37-.61-.51-1.42S413.87,347.62,414,347.59Z" style="fill:#455a64"></path><path d="M413,341.75c.15,0,.38.61.52,1.41s.14,1.49,0,1.51-.37-.61-.52-1.42S412.84,341.77,413,341.75Z" style="fill:#455a64"></path><path d="M412,335.91c.14,0,.37.6.52,1.41s.14,1.48,0,1.51-.37-.61-.52-1.42S411.81,335.93,412,335.91Z" style="fill:#455a64"></path><path d="M410.91,330.06c.14,0,.37.61.52,1.42s.14,1.48,0,1.51-.37-.61-.52-1.42S410.77,330.09,410.91,330.06Z" style="fill:#455a64"></path><path d="M409.86,324.22c.14,0,.37.61.52,1.42s.15,1.48,0,1.5-.38-.6-.52-1.41S409.72,324.25,409.86,324.22Z" style="fill:#455a64"></path><path d="M408.8,318.39c.14,0,.38.6.52,1.41s.15,1.48,0,1.51-.37-.61-.52-1.42S408.66,318.41,408.8,318.39Z" style="fill:#455a64"></path><path d="M407.74,312.55c.14,0,.37.61.52,1.41s.15,1.48,0,1.51-.37-.61-.52-1.41S407.6,312.58,407.74,312.55Z" style="fill:#455a64"></path><path d="M406.66,306.71c.14,0,.38.61.53,1.42s.15,1.48,0,1.5-.38-.6-.53-1.41S406.52,306.74,406.66,306.71Z" style="fill:#455a64"></path><path d="M405.58,300.88c.14,0,.37.61.52,1.41s.16,1.48,0,1.51-.38-.61-.53-1.41S405.43,300.91,405.58,300.88Z" style="fill:#455a64"></path><path d="M404.48,295.05c.14,0,.38.6.53,1.41s.16,1.48,0,1.5-.38-.6-.53-1.41S404.34,295.08,404.48,295.05Z" style="fill:#455a64"></path><path d="M403.37,289.22c.14,0,.38.6.54,1.41s.16,1.48,0,1.5-.38-.6-.53-1.4S403.23,289.25,403.37,289.22Z" style="fill:#455a64"></path><path d="M402.25,283.39c.15,0,.39.61.54,1.41s.17,1.48,0,1.51-.39-.61-.54-1.41S402.11,283.42,402.25,283.39Z" style="fill:#455a64"></path><path d="M401.12,277.57c.14,0,.39.6.54,1.4s.17,1.48,0,1.51-.38-.6-.54-1.41S401,277.6,401.12,277.57Z" style="fill:#455a64"></path><path d="M400,271.75c.14,0,.38.6.54,1.4s.17,1.48,0,1.51-.38-.6-.54-1.41S399.84,271.77,400,271.75Z" style="fill:#455a64"></path><path d="M398.82,265.93c.14,0,.39.6.55,1.4s.17,1.48,0,1.51-.38-.6-.54-1.41S398.68,266,398.82,265.93Z" style="fill:#455a64"></path><path d="M397.65,260.11c.14,0,.38.6.55,1.4s.18,1.48,0,1.51-.39-.6-.55-1.4S397.51,260.14,397.65,260.11Z" style="fill:#455a64"></path><path d="M396.46,254.29c.14,0,.39.6.55,1.41s.19,1.47,0,1.5-.38-.6-.55-1.4S396.32,254.32,396.46,254.29Z" style="fill:#455a64"></path><path d="M395.55,249.91c.14,0,.32.28.41.69s0,.75-.1.78-.33-.27-.41-.68S395.41,249.94,395.55,249.91Z" style="fill:#455a64"></path><path d="M377.55,423.61c.14,0,.27.32.3.73s-.08.76-.23.76-.27-.32-.3-.73S377.4,423.61,377.55,423.61Z" style="fill:#455a64"></path><path d="M377.3,417.65c.14,0,.29.66.32,1.48s-.06,1.49-.21,1.5-.28-.65-.31-1.48S377.16,417.66,377.3,417.65Z" style="fill:#455a64"></path><path d="M377.12,411.7c.14,0,.28.66.3,1.48s-.07,1.49-.22,1.5-.28-.66-.3-1.48S377,411.71,377.12,411.7Z" style="fill:#455a64"></path><path d="M377,405.75c.15,0,.28.66.3,1.48s-.08,1.49-.22,1.49-.28-.66-.3-1.48S376.82,405.75,377,405.75Z" style="fill:#455a64"></path><path d="M376.82,399.79c.15,0,.28.66.3,1.48s-.08,1.5-.23,1.5-.27-.66-.29-1.48S376.68,399.79,376.82,399.79Z" style="fill:#455a64"></path><path d="M376.67,393.83c.14,0,.28.66.3,1.48s-.08,1.5-.22,1.5-.28-.66-.3-1.48S376.52,393.83,376.67,393.83Z" style="fill:#455a64"></path><path d="M376.47,387.87c.15,0,.29.66.31,1.48s-.06,1.5-.2,1.5-.29-.66-.32-1.48S376.33,387.88,376.47,387.87Z" style="fill:#455a64"></path><path d="M376.22,381.92c.15,0,.29.66.32,1.48s-.05,1.49-.19,1.5-.29-.66-.33-1.48S376.08,381.93,376.22,381.92Z" style="fill:#455a64"></path><path d="M376,376c.14,0,.28.66.32,1.48s-.06,1.49-.21,1.5-.28-.66-.31-1.48S375.85,376,376,376Z" style="fill:#455a64"></path><path d="M375.78,370c.15,0,.28.65.31,1.48S376,373,375.88,373s-.28-.65-.31-1.48S375.64,370,375.78,370Z" style="fill:#455a64"></path><path d="M375.6,364.06c.14,0,.28.66.3,1.48s-.07,1.49-.21,1.5-.28-.66-.31-1.49S375.46,364.06,375.6,364.06Z" style="fill:#455a64"></path><path d="M375.44,358.1c.15,0,.28.66.3,1.49s-.08,1.49-.22,1.49-.28-.66-.3-1.48S375.3,358.11,375.44,358.1Z" style="fill:#455a64"></path><path d="M375.32,352.15c.14,0,.27.66.29,1.48s-.09,1.49-.23,1.5-.28-.66-.29-1.49S375.17,352.15,375.32,352.15Z" style="fill:#455a64"></path><path d="M375.21,346.19c.15,0,.28.67.29,1.49s-.09,1.49-.24,1.49-.27-.66-.28-1.48S375.07,346.19,375.21,346.19Z" style="fill:#455a64"></path><path d="M375.14,340.24c.15,0,.27.66.28,1.48s-.1,1.49-.24,1.49-.27-.66-.28-1.48S375,340.24,375.14,340.24Z" style="fill:#455a64"></path><path d="M375.1,334.28c.14,0,.26.67.27,1.49s-.11,1.49-.25,1.49-.27-.67-.27-1.49S375,334.28,375.1,334.28Z" style="fill:#455a64"></path><path d="M375.09,328.32c.14,0,.26.67.26,1.49s-.12,1.49-.26,1.49-.26-.66-.26-1.49S374.94,328.32,375.09,328.32Z" style="fill:#455a64"></path><path d="M375.1,322.37c.15,0,.26.66.26,1.49s-.12,1.49-.27,1.49-.26-.67-.25-1.5S375,322.37,375.1,322.37Z" style="fill:#455a64"></path><path d="M375.15,316.41c.15,0,.26.67.25,1.49s-.13,1.49-.28,1.49-.25-.67-.24-1.49S375,316.41,375.15,316.41Z" style="fill:#455a64"></path><path d="M375.23,310.45c.14,0,.25.67.24,1.5s-.14,1.48-.28,1.48-.25-.67-.24-1.49S375.08,310.45,375.23,310.45Z" style="fill:#455a64"></path><path d="M375.33,304.5c.15,0,.25.67.24,1.49s-.15,1.49-.29,1.49-.25-.67-.23-1.5S375.19,304.5,375.33,304.5Z" style="fill:#455a64"></path><path d="M375.47,298.54c.14,0,.24.67.22,1.5s-.15,1.48-.29,1.48-.25-.67-.23-1.5S375.33,298.54,375.47,298.54Z" style="fill:#455a64"></path><path d="M375.68,292.58c.14,0,.23.68.2,1.5s-.18,1.49-.32,1.48-.23-.68-.2-1.5S375.54,292.58,375.68,292.58Z" style="fill:#455a64"></path><path d="M376,286.63c.14,0,.21.69.16,1.51s-.22,1.47-.36,1.47-.22-.69-.16-1.51S375.88,286.62,376,286.63Z" style="fill:#455a64"></path><path d="M376.57,280.7c.14,0,.19.69.11,1.51s-.27,1.47-.41,1.45-.19-.68-.11-1.5S376.43,280.68,376.57,280.7Z" style="fill:#455a64"></path><path d="M377.15,276.27c.14,0,.21.37.15.78s-.22.73-.36.71-.22-.37-.16-.78S377,276.25,377.15,276.27Z" style="fill:#455a64"></path><polygon points="354.65 425.37 383.01 425.83 382.79 421.11 354.65 421.26 354.65 425.37" style="fill:#455a64"></polygon><path d="M373.25,248.12a5.39,5.39,0,0,1,.17,1.09c.07.71.16,1.73.27,3,.2,2.53.44,6,.68,9.88.12,1.92.22,3.75.32,5.44a16.74,16.74,0,0,0,.52,4.34A3.68,3.68,0,0,0,377,274a4.77,4.77,0,0,0,1,.29s-.1,0-.29.05a2.32,2.32,0,0,1-.82-.16,3.78,3.78,0,0,1-2.08-2.21,16.11,16.11,0,0,1-.65-4.44c-.11-1.69-.23-3.52-.36-5.44-.23-3.86-.42-7.35-.53-9.89-.06-1.26-.09-2.29-.1-3A3.93,3.93,0,0,1,373.25,248.12Z" style="fill:#455a64"></path><path d="M376,250.49c0,.07-.22.24-.25.67a.83.83,0,0,0,.21.61.72.72,0,0,0,1.14-.46.85.85,0,0,0-.28-.59c-.31-.28-.63-.22-.64-.3s.33-.3.85,0a1,1,0,0,1-.17,1.92,1.09,1.09,0,0,1-1.25-.26,1.11,1.11,0,0,1-.22-1C375.55,250.51,376,250.42,376,250.49Z" style="fill:#455a64"></path><path d="M401.24,254.73a5.17,5.17,0,0,1-2.23.85,9.62,9.62,0,0,1-5.71-.64,9.49,9.49,0,0,1-4.28-3.83,5.13,5.13,0,0,1-.86-2.23c.09,0,.36.84,1.17,2a9.76,9.76,0,0,0,9.62,4.3C400.37,255,401.21,254.64,401.24,254.73Z" style="fill:#455a64"></path><path d="M356.64,248.12a3.89,3.89,0,0,1-.1,1.94,7.6,7.6,0,0,1-6.7,5.86,3.7,3.7,0,0,1-1.93-.16c0-.08.74,0,1.88-.2a8.32,8.32,0,0,0,4-1.88,8.44,8.44,0,0,0,2.39-3.72C356.53,248.85,356.55,248.12,356.64,248.12Z" style="fill:#455a64"></path><path d="M391.36,164.88a24.29,24.29,0,0,0-7.31-1.4h0a29.29,29.29,0,0,1-17.65,0,85.52,85.52,0,0,0-16,3L328,172.52,335.33,200l13.52-4.56s-7.4,51.05-7.27,56.76l59.35-3.91-2.27-28.24-.75-24.51,17,3.12,11.42-22.79" style="fill:#FFC100"></path><path d="M386.39,163.39s-.24.22-.73.53a15.33,15.33,0,0,1-2.19,1.12,20.41,20.41,0,0,1-3.47,1.15,24.74,24.74,0,0,1-4.44.58,23.36,23.36,0,0,1-4.47-.33,20.5,20.5,0,0,1-3.53-.94,15.14,15.14,0,0,1-2.25-1,3.4,3.4,0,0,1-.77-.48c0-.08,1.18.51,3.13,1.13a23.92,23.92,0,0,0,3.5.82,26.18,26.18,0,0,0,4.37.28,27,27,0,0,0,4.35-.53,24.82,24.82,0,0,0,3.44-1C385.25,164,386.35,163.31,386.39,163.39Z" style="fill:#263238"></path><path d="M377.82,188.78a4.63,4.63,0,0,1,.92-.05l2.7-.06,9.77-.12h.23v.23c0,1.83,0,3.8,0,5.89,0,1.05,0,2.1,0,3.23a6.93,6.93,0,0,1-5.4,6.29,6.91,6.91,0,0,1-7.87-4,7.16,7.16,0,0,1-.51-2,17.07,17.07,0,0,1,0-1.88c0-2.3.07-4.18.1-5.58,0-.59,0-1.08,0-1.48a3.12,3.12,0,0,1,0-.49,3.3,3.3,0,0,1,0,.56c0,.41,0,.91,0,1.53,0,1.37.06,3.23.1,5.5,0,.57,0,1.18.07,1.79a6.64,6.64,0,0,0,.51,1.85,6.5,6.5,0,0,0,7.36,3.69,6.45,6.45,0,0,0,5-5.83c.05-1.06,0-2.16,0-3.2,0-2.09,0-4.06,0-5.89l.22.23-9.62-.12-2.76-.06A8.78,8.78,0,0,1,377.82,188.78Z" style="fill:#263238"></path><path d="M390.78,190.9s.14-.06.41-.08V191c-.91.1-3.45.17-6.45.17a44.39,44.39,0,0,1-6.85-.26,46,46,0,0,1,6.85-.26c3,0,5.54.08,6.45.18V191C390.92,191,390.78,190.93,390.78,190.9Z" style="fill:#263238"></path><path d="M424.74,175.5a3.85,3.85,0,0,1-.42.93L423,178.86l-4.28,8-4.19,8.06-1.27,2.44a3.69,3.69,0,0,1-.53.86,4,4,0,0,1,.34-.95c.26-.6.64-1.46,1.13-2.52,1-2.11,2.4-5,4.06-8.14s3.24-5.94,4.42-7.94c.59-1,1.09-1.81,1.44-2.35A4.24,4.24,0,0,1,424.74,175.5Z" style="fill:#263238"></path><path d="M339,198.56a4.36,4.36,0,0,1-.47-1c-.28-.65-.66-1.6-1.11-2.77-.91-2.36-2.1-5.64-3.32-9.29s-2.23-7-2.91-9.43c-.35-1.21-.61-2.2-.78-2.88a4.08,4.08,0,0,1-.21-1.08,4.33,4.33,0,0,1,.4,1l.94,2.84c.82,2.51,1.88,5.77,3.06,9.36l3.16,9.33c.38,1.11.7,2.06,1,2.83A4.24,4.24,0,0,1,339,198.56Z" style="fill:#263238"></path><path d="M401.24,245.74c0,.14-13.21,1-29.52,2s-29.55,1.63-29.56,1.49,13.21-1.05,29.53-2S401.23,245.6,401.24,245.74Z" style="fill:#263238"></path></g><g id="freepik--Character1--inject-2"><path d="M228,165l18.16-1.76c.23-2.05-.13-12-.13-12s7.4-.7,7.93-8,.27-24.23.27-24.23h0a25.52,25.52,0,0,0-25.79,1.68l-1.14.77Z" style="fill:#b78876"></path><path d="M250,131.38a1.07,1.07,0,1,1,1.53-1.49,1.07,1.07,0,0,1-1.53,1.49Z" style="fill:#263238"></path><path d="M253.43,129.87c-.12.12-.8-.47-1.81-.54s-1.78.41-1.88.28.08-.29.41-.51a2.49,2.49,0,0,1,2.95.21C253.4,129.58,253.49,129.82,253.43,129.87Z" style="fill:#263238"></path><path d="M240.88,130.1a1.07,1.07,0,1,1-1.49.26A1.08,1.08,0,0,1,240.88,130.1Z" style="fill:#263238"></path><path d="M242.69,130.15c-.13.12-.81-.48-1.82-.54s-1.78.41-1.88.27.08-.28.41-.5a2.49,2.49,0,0,1,2.95.21C242.65,129.86,242.75,130.1,242.69,130.15Z" style="fill:#263238"></path><path d="M246.23,138.72a5.28,5.28,0,0,1,1.66-.23c.26,0,.48-.06.51-.21a1.38,1.38,0,0,0-.14-.78l-.67-2.1a30,30,0,0,1-1.42-5.49,30.36,30.36,0,0,1,1.94,5.33c.22.73.43,1.43.63,2.11a1.69,1.69,0,0,1,.08,1.1.69.69,0,0,1-.47.39,1.87,1.87,0,0,1-.45,0A5,5,0,0,1,246.23,138.72Z" style="fill:#263238"></path><path d="M246.09,151.14a17.08,17.08,0,0,1-9.4-3.29s1.94,5.41,9.3,5.19Z" style="fill:#a36957"></path><path d="M228.76,127.94c-.16-.06-5.44-.74-4.93,5.49s6.64,3.66,6.63,3.48S228.76,127.94,228.76,127.94Z" style="fill:#b78876"></path><path d="M228.37,134.88s-.1.09-.28.19a1.14,1.14,0,0,1-.81.08,2.73,2.73,0,0,1-1.44-2.31,3.69,3.69,0,0,1,.18-1.58,1.26,1.26,0,0,1,.75-.9.57.57,0,0,1,.67.25c.09.16.06.29.1.3s.12-.12.05-.37a.67.67,0,0,0-.28-.37.82.82,0,0,0-.61-.11,1.51,1.51,0,0,0-1,1.06,3.66,3.66,0,0,0-.24,1.77,2.83,2.83,0,0,0,1.8,2.56,1.13,1.13,0,0,0,1-.25C228.37,135,228.4,134.89,228.37,134.88Z" style="fill:#a36957"></path><path d="M235.71,115s.93-5.15,12.43-4.43a7.32,7.32,0,0,1,6.66,5.76,2.42,2.42,0,0,1,2.63,2.14,3.6,3.6,0,0,1-1.65,3.21,8.38,8.38,0,0,1-3.6,1c-7.73,1.14-13.12-3.32-17.09-3.72s-2.59,3.12-2.59,3.12c1.22,6.61-1.16,8.31-3.06,12.08l-1,0-.9-5.25a4,4,0,0,1-.73-1.52h0c-.6-1.94-.77-4-1.44-5.9-1.58-4.45,1.51-6.65,1.51-6.65S228.35,112.37,235.71,115Z" style="fill:#263238"></path><path d="M246.52,140.88c0,.05-.11.28-.49.47a2.09,2.09,0,0,1-1.65.05,2.13,2.13,0,0,1-1.17-1.16c-.15-.4-.1-.67,0-.68s.38,1,1.39,1.36S246.45,140.76,246.52,140.88Z" style="fill:#263238"></path><path d="M241.58,126.1c-.07.14-.79-.11-1.69,0s-1.58.41-1.67.29.57-.73,1.63-.81S241.66,126,241.58,126.1Z" style="fill:#263238"></path><path d="M252,126.05c-.07.13-.73-.12-1.55-.21s-1.52,0-1.57-.14.67-.48,1.62-.37S252.07,125.93,252,126.05Z" style="fill:#263238"></path><path d="M236.48,110.66c0,.07-.32.06-.7.31a1.81,1.81,0,0,0-.7,1.51,3.31,3.31,0,0,0,.47,1.73c.24.41.46.63.42.69s-.36-.07-.72-.48a2.91,2.91,0,0,1-.7-2,2,2,0,0,1,1.06-1.81C236.15,110.42,236.51,110.6,236.48,110.66Z" style="fill:#263238"></path><path d="M238.78,429.34l0-9.23-17.29-.18-.2,13.5,1.07.09c4.77.31,24.27,1.26,27.47.33C253.44,432.81,238.78,429.34,238.78,429.34Z" style="fill:#FFC100"></path><g style="opacity:0.4"><path d="M227.6,433.37a6,6,0,0,0-2.17-3.71,5.72,5.72,0,0,0-4-1.3l-.06,4.83Z"></path></g><path d="M245.94,431.29s5.14,1.54,4.49,2.38-20.4.62-29.1-.24l0-.38,23,.45S244.94,431.32,245.94,431.29Z" style="opacity:0.4"></path><path d="M221.09,433l.3,0,.85.06,3.14.17c2.66.13,6.32.25,10.38.3s7.72,0,10.38-.05l3.14-.1.86,0,.29,0a.94.94,0,0,0-.29,0h-.86l-3.14,0c-2.66,0-6.33,0-10.38,0s-7.72-.15-10.37-.24l-3.15-.1-.85,0A1.36,1.36,0,0,0,221.09,433Z" style="fill:#263238"></path><path d="M244.38,433.77a4.64,4.64,0,0,1,1.69-2.68,2.24,2.24,0,0,0-1.26,1.08A2.3,2.3,0,0,0,244.38,433.77Z" style="fill:#263238"></path><path d="M239.31,431.13c.05,0,.29-.27.55-.66s.43-.74.38-.77-.3.26-.55.65S239.26,431.09,239.31,431.13Z" style="fill:#263238"></path><path d="M237.92,430.37s.31-.14.61-.4.51-.51.48-.56-.32.14-.62.4S237.88,430.33,237.92,430.37Z" style="fill:#263238"></path><path d="M237.05,428.73a2,2,0,0,0,.9.12,2.08,2.08,0,0,0,.91-.08,3.78,3.78,0,0,0-1.81,0Z" style="fill:#263238"></path><path d="M236.76,427.57a1.76,1.76,0,0,0,1,.31,1.79,1.79,0,0,0,1-.13,5.54,5.54,0,0,0-1-.08A6.29,6.29,0,0,0,236.76,427.57Z" style="fill:#263238"></path><path d="M239.91,429.62a3.09,3.09,0,0,0,1.11,0,6.2,6.2,0,0,0,1.19-.25,3.1,3.1,0,0,0,.68-.27.61.61,0,0,0,.28-.34.44.44,0,0,0-.16-.45,2,2,0,0,0-2.53.57,2,2,0,0,0-.37.74c-.05.19-.05.3,0,.3a2.93,2.93,0,0,1,.51-.95,2.09,2.09,0,0,1,1-.6,1.73,1.73,0,0,1,1.32.1c.18.14.11.34-.09.46a4.39,4.39,0,0,1-.63.26,6.8,6.8,0,0,1-1.15.28C240.34,429.59,239.91,429.59,239.91,429.62Z" style="fill:#263238"></path><path d="M240.2,429.68a1.1,1.1,0,0,0,.14-.77,1.8,1.8,0,0,0-.3-.81,1.12,1.12,0,0,0-.92-.58.46.46,0,0,0-.35.51,1.3,1.3,0,0,0,.19.5,3.19,3.19,0,0,0,.52.68,1.51,1.51,0,0,0,.63.45s-.22-.2-.53-.55a3.82,3.82,0,0,1-.45-.68c-.15-.23-.25-.66,0-.7s.56.25.72.48a1.71,1.71,0,0,1,.31.72A4.41,4.41,0,0,1,240.2,429.68Z" style="fill:#263238"></path><path d="M221.5,428.31s.49,0,1.27.06a5.5,5.5,0,0,1,2.78,1.18,5.59,5.59,0,0,1,1.71,2.48c.26.74.28,1.24.32,1.24a1.07,1.07,0,0,0,0-.35,3.86,3.86,0,0,0-.18-.94,5.33,5.33,0,0,0-1.72-2.6,5.4,5.4,0,0,0-2.89-1.16,4.78,4.78,0,0,0-.95,0A.86.86,0,0,0,221.5,428.31Z" style="fill:#263238"></path><path d="M223.37,421.13a30.49,30.49,0,0,0-.19,3.55,29,29,0,0,0,0,3.56,30.49,30.49,0,0,0,.19-3.55A28.92,28.92,0,0,0,223.37,421.13Z" style="fill:#263238"></path><path d="M229.8,431.7a9.07,9.07,0,0,0,2.52.28,10.23,10.23,0,0,0,2.53-.17c0-.06-1.14,0-2.53,0S229.8,431.64,229.8,431.7Z" style="fill:#263238"></path><path d="M226.41,431.66s.09.24.2.5.17.49.23.49.09-.27,0-.57S226.45,431.62,226.41,431.66Z" style="fill:#263238"></path><path d="M225.15,430.06s.07.22.24.4.36.3.4.26-.07-.22-.25-.4S225.19,430,225.15,430.06Z" style="fill:#263238"></path><path d="M223.33,429.31c0,.06.24.06.49.15s.44.23.48.19-.09-.28-.41-.39S223.31,429.26,223.33,429.31Z" style="fill:#263238"></path><path d="M222,429c0,.06.08.15.22.2s.28.06.3,0-.08-.14-.22-.2S222.05,428.9,222,429Z" style="fill:#263238"></path><path d="M256.91,426.31l2.3-8.94L242.5,413,239,426l1,.34c4.55,1.48,23.22,7.19,26.55,7.08C270.26,433.27,256.91,426.31,256.91,426.31Z" style="fill:#FFC100"></path><g style="opacity:0.4"><path d="M245.08,427.46a6,6,0,0,0-1.19-4.13,5.84,5.84,0,0,0-3.59-2.25l-1.24,4.67Z"></path></g><path d="M263.37,430s4.6,2.76,3.76,3.41S247.21,429,239,426l.13-.37,22.21,6.1S262.38,429.74,263.37,430Z" style="opacity:0.4"></path><path d="M238.85,425.54a1,1,0,0,0,.28.11l.81.27,3,.94c2.54.77,6.07,1.79,10,2.83s7.48,1.91,10.07,2.51l3.07.68.84.17a1,1,0,0,0,.3,0l-.29-.08-.83-.21-3-.75c-2.58-.63-6.14-1.52-10.06-2.56s-7.44-2-10-2.78l-3-.87-.82-.23A1.62,1.62,0,0,0,238.85,425.54Z" style="fill:#263238"></path><path d="M261.25,432a6.46,6.46,0,0,1,.95-1.3,7.17,7.17,0,0,1,1.34-.89,2.33,2.33,0,0,0-1.49.74A2.31,2.31,0,0,0,261.25,432Z" style="fill:#263238"></path><path d="M257,428.17s.35-.18.69-.5.6-.62.56-.66-.35.18-.7.5S256.94,428.13,257,428.17Z" style="fill:#263238"></path><path d="M255.81,427.09c0,.06.34,0,.7-.23s.62-.37.6-.43-.34.06-.7.24S255.79,427,255.81,427.09Z" style="fill:#263238"></path><path d="M255.38,425.29a2,2,0,0,0,.84.34,1.86,1.86,0,0,0,.9.14,2.12,2.12,0,0,0-.84-.34A2,2,0,0,0,255.38,425.29Z" style="fill:#263238"></path><path d="M255.38,424.1a1.78,1.78,0,0,0,.9.54,1.74,1.74,0,0,0,1,.13,6.69,6.69,0,0,0-1-.33A5.74,5.74,0,0,0,255.38,424.1Z" style="fill:#263238"></path><path d="M257.93,426.86a3.32,3.32,0,0,0,1.08.28,6.51,6.51,0,0,0,1.21.05,3.83,3.83,0,0,0,.72-.09.67.67,0,0,0,.36-.27.42.42,0,0,0-.05-.47,2,2,0,0,0-2.59-.07,1.91,1.91,0,0,0-.54.62c-.09.17-.12.28-.1.29a2.81,2.81,0,0,1,.73-.79,2,2,0,0,1,1.07-.35,1.71,1.71,0,0,1,1.26.42c.14.18,0,.36-.2.42a3.1,3.1,0,0,1-.67.1,7.72,7.72,0,0,1-1.19,0C258.35,426.94,257.94,426.83,257.93,426.86Z" style="fill:#263238"></path><path d="M258.2,427a1.16,1.16,0,0,0,.32-.71,2,2,0,0,0-.09-.87,1.08,1.08,0,0,0-.75-.78.44.44,0,0,0-.46.41,1.1,1.1,0,0,0,.06.52,3.24,3.24,0,0,0,.33.79,1.66,1.66,0,0,0,.5.6s-.16-.25-.37-.67a4.5,4.5,0,0,1-.28-.77c-.08-.26-.08-.7.21-.67s.47.38.58.64a1.73,1.73,0,0,1,.12.78A4.76,4.76,0,0,1,258.2,427Z" style="fill:#263238"></path><path d="M240.4,421.06s.5.08,1.23.37a5.43,5.43,0,0,1,3.45,4.65c.06.79,0,1.27,0,1.28a1.19,1.19,0,0,0,.09-.34,4.79,4.79,0,0,0,.06-.95,5.36,5.36,0,0,0-1-2.94,5.3,5.3,0,0,0-2.51-1.84,4.78,4.78,0,0,0-.93-.22A1,1,0,0,0,240.4,421.06Z" style="fill:#263238"></path><path d="M244,414.56a34.36,34.36,0,0,0-1,3.4,31.69,31.69,0,0,0-.86,3.45,30.1,30.1,0,0,0,1.06-3.4A27.84,27.84,0,0,0,244,414.56Z" style="fill:#263238"></path><path d="M247.62,426.39a9.57,9.57,0,0,0,2.37.89,9.23,9.23,0,0,0,2.5.45c0-.06-1.1-.28-2.44-.65S247.64,426.33,247.62,426.39Z" style="fill:#263238"></path><path d="M244.34,425.52c-.05,0,0,.25.07.53s.05.52.11.53.16-.24.1-.56S244.39,425.49,244.34,425.52Z" style="fill:#263238"></path><path d="M243.51,423.65s0,.23.14.45.27.38.32.35,0-.23-.14-.45S243.56,423.62,243.51,423.65Z" style="fill:#263238"></path><path d="M241.93,422.48c0,.06.22.12.45.27s.36.33.41.3,0-.29-.3-.48S241.93,422.42,241.93,422.48Z" style="fill:#263238"></path><path d="M240.76,421.82s0,.15.17.24.25.13.28.08,0-.15-.16-.24S240.8,421.77,240.76,421.82Z" style="fill:#263238"></path><path d="M265.66,240.08a75.12,75.12,0,0,0-7.07,5.73c-2.12,1.94,2.07,13.45,4.37,11.42s8.59-10,8.59-10Z" style="fill:#b78876"></path><path d="M262.63,257.43s6.54-.74,6.35-2.09a7.23,7.23,0,0,0-1.62-3Z" style="fill:#a36957"></path><path d="M265.21,250.11l-20.35-1.53h0l-33.47-2.66,4,179.73,29.05-.42s0-2-.07-5.51l17,4.63s16.52-56.09,22.14-79.12C288.25,326,265.21,250.11,265.21,250.11ZM244,391.77c-.51-41.48-1.12-112-.53-120.66,0,0,16.27,62.08,16.44,67C260,341.07,251.07,369.75,244,391.77Z" style="fill:#263238"></path><path d="M244.61,418.4c0,.16-6.5.3-14.51.31s-14.52-.11-14.52-.26,6.5-.3,14.51-.31S244.61,418.24,244.61,418.4Z" style="fill:#455a64"></path><path d="M244.35,411.94a17,17,0,0,1,2.66.85l6.65,2.31,6.65,2.31a15.82,15.82,0,0,1,2.73,1.07,14.2,14.2,0,0,1-2.85-.68c-1.74-.5-4.12-1.25-6.72-2.16s-4.93-1.79-6.61-2.47A10,10,0,0,1,244.35,411.94Z" style="fill:#455a64"></path><path d="M243.93,388.14a6.58,6.58,0,0,1,.09,1.41c0,1,0,2.29.06,3.83,0,3.33.13,7.75.2,12.64s.27,9.3.37,12.63c0,1.54.08,2.83.11,3.83a8.09,8.09,0,0,1,0,1.41,6.7,6.7,0,0,1-.18-1.4c-.08-.9-.18-2.21-.28-3.82-.2-3.23-.4-7.7-.51-12.64s-.11-9.41-.06-12.65c0-1.62.07-2.93.11-3.84A7.2,7.2,0,0,1,243.93,388.14Z" style="fill:#455a64"></path><path d="M270.41,337.54a27.55,27.55,0,0,1-5.47.7,26.21,26.21,0,0,1-5.52.14,26.3,26.3,0,0,1,5.48-.71A26.46,26.46,0,0,1,270.41,337.54Z" style="fill:#455a64"></path><path d="M268.53,340.8a16,16,0,0,1-4.2-.91,16.2,16.2,0,0,1-4-1.45,15.8,15.8,0,0,1,4.19.9A16.35,16.35,0,0,1,268.53,340.8Z" style="fill:#455a64"></path><path d="M245.26,248.8a24,24,0,0,1,.16,3.43c0,2.11,0,5,0,8.26,0,1.61,0,3.14-.06,4.55a9.07,9.07,0,0,1-.68,3.71,4.92,4.92,0,0,1-1.63,2,2,2,0,0,1-.85.4,9.1,9.1,0,0,1,.73-.56,5.05,5.05,0,0,0,1.41-1.95,9,9,0,0,0,.54-3.57c0-1.41,0-2.94,0-4.54,0-3.23.07-6.15.13-8.27A22.17,22.17,0,0,1,245.26,248.8Z" style="fill:#455a64"></path><path d="M269.48,172.37l22.16,24.89c6.51,7.87,5.26,18.35.1,27.17a156.37,156.37,0,0,1-19,25.11c-.1.14-8.95-12.38-8.95-12.38s13.69-21.91,11.49-26.92-17-23.26-17-23.26Z" style="fill:#455a64"></path><path d="M262.81,192.62l.65,33.71,2.62,24-55.55-3.45,2.91-28-2.84-29.5-15.43-13q1.59-2.13,3.08-3.93c6.89-8.29,18.74-13.47,29.51-13.85,0,0,2.35,3.85,11.27,4,6.24.12,7.42-4.06,7.42-4.06,4.15.26,15.57,2.21,24.43,15.38h0" style="fill:#455a64"></path><path d="M200.23,170.73l-22.08,25c-6.49,7.9-5.21,18.36,0,27.17,7.89,13.4,22.51,28.83,22.38,28.71S209.72,240,209.72,240s-17.4-26.37-15.21-31.38,18.38-21.39,18.38-21.39Z" style="fill:#455a64"></path><path d="M267.75,170.76a2.47,2.47,0,0,1-.35.59,7.81,7.81,0,0,1-1.37,1.42,11,11,0,0,1-6.82,2.19,20.08,20.08,0,0,1-5-.72c-1.75-.45-3.56-1.09-5.46-1.74a33.51,33.51,0,0,0-6-1.57,16,16,0,0,0-6.6.49c-4.41,1.22-8.41,3.46-12.56,3.69a12.79,12.79,0,0,1-3-.17,12,12,0,0,1-2.68-.88,24.1,24.1,0,0,1-4.27-2.62,45.31,45.31,0,0,0-5.92-4c-1.51-.77-2.44-1-2.42-1a3.16,3.16,0,0,1,.67.16,11.2,11.2,0,0,1,1.84.7,40.51,40.51,0,0,1,6.05,3.93,24.37,24.37,0,0,0,4.23,2.52,12.54,12.54,0,0,0,2.58.82,11.85,11.85,0,0,0,2.87.14c4-.24,7.95-2.46,12.46-3.71a16.27,16.27,0,0,1,6.8-.5,33.22,33.22,0,0,1,6.14,1.63c1.9.66,3.69,1.31,5.41,1.77a20.05,20.05,0,0,0,4.85.77,11.09,11.09,0,0,0,6.7-2A10.53,10.53,0,0,0,267.75,170.76Z" style="fill:#263238"></path><path d="M280.57,184.5l-.24-.07-.66-.25a20.39,20.39,0,0,0-2.63-.76,20.72,20.72,0,0,0-9.91.2,19.12,19.12,0,0,0-3.11,1.12c-1,.48-2.09,1.08-3.19,1.69a22.65,22.65,0,0,1-3.54,1.67,11,11,0,0,1-2,.49,9.58,9.58,0,0,1-2.14,0c-2.9-.36-5.49-2-8.3-3.11a12.06,12.06,0,0,0-4.45-.94,15.63,15.63,0,0,0-4.64.82c-3.07,1-5.93,2.44-9,3.12a15.35,15.35,0,0,1-8.82-.72,44.2,44.2,0,0,1-7.19-3.57A54.73,54.73,0,0,0,204.6,181a15.61,15.61,0,0,0-9.76-1.2,12,12,0,0,0-3.36,1.45l.19-.16a6,6,0,0,1,.59-.41,9,9,0,0,1,2.54-1.07,13.08,13.08,0,0,1,4.34-.36,18.26,18.26,0,0,1,5.6,1.41,52.48,52.48,0,0,1,6.22,3.18,45.13,45.13,0,0,0,7.14,3.49,15,15,0,0,0,8.55.67c3-.66,5.81-2.11,8.93-3.11a15.53,15.53,0,0,1,4.8-.84,12.27,12.27,0,0,1,4.64,1c2.86,1.14,5.42,2.75,8.17,3.1a8.54,8.54,0,0,0,2,0,9.51,9.51,0,0,0,1.93-.45,23.07,23.07,0,0,0,3.48-1.62c1.1-.59,2.16-1.2,3.23-1.67a19.53,19.53,0,0,1,3.18-1.12,20.57,20.57,0,0,1,10.06,0A14.09,14.09,0,0,1,280.57,184.5Z" style="fill:#263238"></path><path d="M263.09,204.1a2.13,2.13,0,0,1-.43.34,4.33,4.33,0,0,1-1.48.59,8.59,8.59,0,0,1-5.66-1c-1.11-.54-2.26-1.24-3.53-1.86a15.73,15.73,0,0,0-4.29-1.35,28.67,28.67,0,0,0-10.33.56c-3.63.75-7.07,1.71-10.29,2.13a22.14,22.14,0,0,1-8.59-.3,13.54,13.54,0,0,1-5.23-2.48,8.07,8.07,0,0,1-1.16-1.08,2.21,2.21,0,0,1-.35-.43s.54.55,1.63,1.35a14.14,14.14,0,0,0,5.2,2.29A22.5,22.5,0,0,0,227,203c3.18-.45,6.6-1.41,10.26-2.17a28.44,28.44,0,0,1,10.51-.52,16,16,0,0,1,4.4,1.43c1.29.66,2.42,1.37,3.5,1.92a8.66,8.66,0,0,0,5.46,1.17A6.43,6.43,0,0,0,263.09,204.1Z" style="fill:#263238"></path><path d="M263.75,218.22a8.53,8.53,0,0,0-7-1.88c-2.31.21-4.9,1.27-7.86,2.23a19.18,19.18,0,0,1-4.81,1,22.34,22.34,0,0,1-5.25-.33c-3.55-.62-6.8-1.72-9.79-2.47a30,30,0,0,0-8.07-1.06,15.06,15.06,0,0,0-5.36,1.06c-1.2.51-1.8.93-1.83.88s.14-.12.43-.32a10.47,10.47,0,0,1,1.31-.75,14.44,14.44,0,0,1,5.43-1.24,28.94,28.94,0,0,1,8.21,1c3,.73,6.26,1.81,9.76,2.42A22.42,22.42,0,0,0,244,219a19.2,19.2,0,0,0,4.7-.92c2.93-.92,5.58-2,8-2.13a9.65,9.65,0,0,1,5.47,1A4.55,4.55,0,0,1,263.75,218.22Z" style="fill:#263238"></path><path d="M264.78,235.28s0,.05-.11.1a1.9,1.9,0,0,1-.35.23,4.61,4.61,0,0,1-1.52.52,7.13,7.13,0,0,1-2.54-.07,16.15,16.15,0,0,1-3.19-1.07,23.57,23.57,0,0,0-8.27-2.19,21.66,21.66,0,0,0-5.05.21,44.37,44.37,0,0,0-5.31,1.28,49.46,49.46,0,0,1-5.35,1.37,26.22,26.22,0,0,1-5.14.45,28.28,28.28,0,0,1-8.59-1.41,27.11,27.11,0,0,1-5.34-2.43,15,15,0,0,1-1.34-.88c-.3-.21-.45-.32-.44-.34s.67.39,1.88,1A28.86,28.86,0,0,0,228,235.63a27.85,27.85,0,0,0,5.05-.47,54.51,54.51,0,0,0,5.3-1.37,43.25,43.25,0,0,1,5.38-1.29,22,22,0,0,1,5.16-.18,23.24,23.24,0,0,1,8.38,2.34,16.83,16.83,0,0,0,3.1,1.12,7.35,7.35,0,0,0,2.45.15A6.11,6.11,0,0,0,264.78,235.28Z" style="fill:#263238"></path><path d="M182.17,190.43c.05,0,.16.29.52.73a4.81,4.81,0,0,0,1.94,1.32,11.74,11.74,0,0,0,3.49.71,11.94,11.94,0,0,1,4.39,1,8.6,8.6,0,0,1,3.11,3.29,21.87,21.87,0,0,0,2,3,7,7,0,0,0,2.63,1.9,1.87,1.87,0,0,1-.88-.2,5.93,5.93,0,0,1-2-1.46,17.84,17.84,0,0,1-2.14-3,8.59,8.59,0,0,0-2.95-3.08,11.94,11.94,0,0,0-4.21-1,11.48,11.48,0,0,1-3.58-.85,4.67,4.67,0,0,1-2-1.54A1.78,1.78,0,0,1,182.17,190.43Z" style="fill:#263238"></path><path d="M194.47,210.62s-.18.27-.65.59a5.68,5.68,0,0,1-2.26.84,9.93,9.93,0,0,1-3.56-.14,37.22,37.22,0,0,1-4.13-1.29,15.32,15.32,0,0,0-4.11-.94,7.31,7.31,0,0,0-3.32.59,5.49,5.49,0,0,0-2.33,2,1.84,1.84,0,0,1,.35-.81,4.65,4.65,0,0,1,1.82-1.57,7.19,7.19,0,0,1,3.5-.74,14.4,14.4,0,0,1,4.26.93c1.45.5,2.8,1,4.06,1.31a10.34,10.34,0,0,0,3.41.25A7.53,7.53,0,0,0,194.47,210.62Z" style="fill:#263238"></path><path d="M198.46,222.44c0,.05-.27-.07-.73-.12a3.27,3.27,0,0,0-1.88.46,5.65,5.65,0,0,0-2,2c-.6.95-1.07,2.12-1.8,3.26a6.34,6.34,0,0,1-2.89,2.48,6.63,6.63,0,0,1-3.06.51,5.39,5.39,0,0,1-2-.51,1.82,1.82,0,0,1-.65-.41,9.87,9.87,0,0,0,2.68.56,6.72,6.72,0,0,0,2.86-.59,6,6,0,0,0,2.64-2.33c.7-1.08,1.19-2.25,1.84-3.22a5.65,5.65,0,0,1,2.28-2.11,3.22,3.22,0,0,1,2.08-.33A1.33,1.33,0,0,1,198.46,222.44Z" style="fill:#263238"></path><path d="M205.55,234.26a6,6,0,0,1-.74,2.27,12.77,12.77,0,0,1-8.92,6.83,6.15,6.15,0,0,1-2.39.12c0-.09.91-.12,2.31-.48a13.93,13.93,0,0,0,5-2.43,14.07,14.07,0,0,0,3.67-4.21C205.19,235.1,205.46,234.23,205.55,234.26Z" style="fill:#263238"></path><path d="M288.15,193a1.48,1.48,0,0,1-.18.86,3.91,3.91,0,0,1-1.66,1.72,6.5,6.5,0,0,1-3.46.78c-1.34,0-2.77-.28-4.25-.28a12.8,12.8,0,0,0-7.13,2.25c-1.62,1.11-2.37,2.1-2.45,2a2.62,2.62,0,0,1,.5-.71,10.87,10.87,0,0,1,1.73-1.62,12.38,12.38,0,0,1,7.35-2.47c1.55,0,3,.29,4.26.32a6.43,6.43,0,0,0,3.27-.62,3.9,3.9,0,0,0,1.65-1.5C288.05,193.33,288.11,193,288.15,193Z" style="fill:#263238"></path><path d="M296,211.58a6.94,6.94,0,0,0-.77-.43,3.43,3.43,0,0,0-2.3-.05,14.92,14.92,0,0,0-3.16,1.68,18.83,18.83,0,0,1-4.09,1.87,9.53,9.53,0,0,1-4.52.31,7.32,7.32,0,0,1-3.35-1.58,5.26,5.26,0,0,1-1.49-2,3.93,3.93,0,0,1-.2-.65.55.55,0,0,1,0-.24,6.85,6.85,0,0,0,1.95,2.6,7.21,7.21,0,0,0,3.2,1.4,9.37,9.37,0,0,0,4.28-.34,20.4,20.4,0,0,0,4-1.78,14.17,14.17,0,0,1,3.3-1.63,3.49,3.49,0,0,1,2.49.22C295.85,211.26,296,211.57,296,211.58Z" style="fill:#263238"></path><path d="M282.49,238.32a7.52,7.52,0,0,0-.39-2.66,5.5,5.5,0,0,0-1.67-2.31,7,7,0,0,0-3.29-1.23,14.31,14.31,0,0,1-1.88-.45,6.19,6.19,0,0,1-1.64-.84,6.56,6.56,0,0,1-2-2.33,6.16,6.16,0,0,1-.6-2,1.77,1.77,0,0,1,0-.75,10.26,10.26,0,0,0,.91,2.55,6.41,6.41,0,0,0,1.95,2.12,8,8,0,0,0,3.34,1.17,7.1,7.1,0,0,1,3.49,1.37,5.54,5.54,0,0,1,1.72,2.55,4.93,4.93,0,0,1,.23,2.06A1.58,1.58,0,0,1,282.49,238.32Z" style="fill:#263238"></path><path d="M199.18,189.5c-.14,0-.37-.61-.52-1.43s-.14-1.49,0-1.51.37.61.52,1.42S199.32,189.47,199.18,189.5Z" style="fill:#fff"></path><path d="M208.62,175.76c0,.14-.71.41-1.65.59s-1.73.22-1.76.08.72-.4,1.66-.59S208.59,175.62,208.62,175.76Z" style="fill:#fff"></path><path d="M230,180.1c-.1.11-.73-.29-1.42-.89s-1.16-1.18-1.06-1.29.72.3,1.41.9S230,180,230,180.1Z" style="fill:#fff"></path><path d="M254.84,178.75c.11.1-.5.95-1.35,1.9s-1.64,1.64-1.75,1.54.5-.94,1.36-1.89S254.74,178.66,254.84,178.75Z" style="fill:#fff"></path><path d="M270.65,179.73c-.08.12-.88-.31-1.79-.95s-1.57-1.25-1.48-1.37.88.31,1.78,1S270.73,179.61,270.65,179.73Z" style="fill:#fff"></path><path d="M221.42,210.77a3.74,3.74,0,0,1-2.25-.88c-1.12-.76-1.74-1.69-1.63-1.78s.87.63,1.93,1.35S221.47,210.62,221.42,210.77Z" style="fill:#fff"></path><path d="M238.28,209.41c.1.1-.57.93-1.5,1.84s-1.76,1.58-1.86,1.48.57-.93,1.5-1.85S238.18,209.31,238.28,209.41Z" style="fill:#fff"></path><path d="M250.32,212.27a5.7,5.7,0,0,1-2.15-1c-1.12-.69-2-1.34-1.88-1.47a5.7,5.7,0,0,1,2.15,1C249.56,211.49,250.4,212.14,250.32,212.27Z" style="fill:#fff"></path><path d="M261.51,209.14c.1.11-.25.55-.76,1s-1,.69-1.1.58.25-.55.77-1S261.42,209,261.51,209.14Z" style="fill:#fff"></path><path d="M256,194.38c-.13,0,.05-.93.62-1.87s1.26-1.53,1.36-1.44-.38.81-.91,1.7S256.17,194.43,256,194.38Z" style="fill:#fff"></path><path d="M243.13,191.63c-.1.11-.67-.26-1.27-.82s-1-1.09-.91-1.2.66.26,1.27.82S243.22,191.52,243.13,191.63Z" style="fill:#fff"></path><path d="M225,194.9c.1.1-.3.64-.9,1.2s-1.17.93-1.27.82.31-.64.91-1.2S224.88,194.79,225,194.9Z" style="fill:#fff"></path><path d="M273.93,192c-.08.12-.7-.16-1.39-.64s-1.17-.95-1.09-1.07.7.17,1.39.64S274,191.87,273.93,192Z" style="fill:#fff"></path><path d="M281,203.37a5,5,0,0,1-.51,2.17c-.41,1.15-.86,2-1,2a5.14,5.14,0,0,1,.51-2.17C280.38,204.21,280.82,203.32,281,203.37Z" style="fill:#fff"></path><path d="M278,224.48c-.13.05-.56-.7-.94-1.69s-.59-1.83-.46-1.88.56.7.94,1.69S278.16,224.43,278,224.48Z" style="fill:#fff"></path><path d="M271.5,239c-.15,0-.16-.81-.25-1.78s-.21-1.75-.07-1.79.5.72.59,1.75S271.63,239,271.5,239Z" style="fill:#fff"></path><path d="M256.61,224.12c.09.1-.43.73-1.18,1.4s-1.42,1.13-1.52,1,.43-.74,1.18-1.41S256.51,224,256.61,224.12Z" style="fill:#fff"></path><path d="M246,227.2c-.11.09-.76-.61-1.45-1.56s-1.14-1.78-1-1.87.76.62,1.45,1.57S246.09,227.12,246,227.2Z" style="fill:#fff"></path><path d="M231.25,224.58c.11.1-.42.85-1.19,1.67s-1.46,1.42-1.57,1.32.43-.85,1.19-1.67S231.15,224.49,231.25,224.58Z" style="fill:#fff"></path><path d="M220.52,227.22c-.12.08-.6-.45-1.08-1.17s-.76-1.39-.64-1.47.61.45,1.08,1.18S220.64,227.14,220.52,227.22Z" style="fill:#fff"></path><path d="M220.29,243.48c-.1.1-.6-.23-1.13-.73s-.87-1-.77-1.1.61.22,1.13.72S220.39,243.37,220.29,243.48Z" style="fill:#fff"></path><path d="M232.05,241.82c.11.1-.22.63-.74,1.19s-1,.93-1.12.84.23-.63.74-1.19S232,241.73,232.05,241.82Z" style="fill:#fff"></path><path d="M247,244.88c-.12.09-.95-.81-1.86-2a7.17,7.17,0,0,1-1.45-2.31c.11-.09.94.8,1.86,2A7.6,7.6,0,0,1,247,244.88Z" style="fill:#fff"></path><path d="M258.89,241.75c.1.1-.59.94-1.55,1.86s-1.82,1.6-1.92,1.5.6-.94,1.56-1.87S258.79,241.64,258.89,241.75Z" style="fill:#fff"></path><path d="M194,236.9c-.14,0-.19-.89-.1-2s.27-1.93.41-1.92.19.89.11,2S194.11,236.91,194,236.9Z" style="fill:#fff"></path><path d="M200.33,232.69c-.06.13-.73,0-1.51-.38s-1.35-.73-1.29-.86.73,0,1.5.38S200.39,232.56,200.33,232.69Z" style="fill:#fff"></path><path d="M184.93,221.54c0,.14-.79.08-1.69-.14s-1.61-.5-1.58-.64.79-.08,1.7.14S185,221.4,184.93,221.54Z" style="fill:#fff"></path><path d="M191.14,219a5.14,5.14,0,0,1,.77-2.13c.56-1.12,1.11-2,1.24-1.91a5.2,5.2,0,0,1-.77,2.14C191.82,218.24,191.27,219.1,191.14,219Z" style="fill:#fff"></path><path d="M180.19,198.71c.14-.05.58.87,1.23,1.91s1.26,1.85,1.16,1.95-.92-.57-1.6-1.68S180.05,198.76,180.19,198.71Z" style="fill:#fff"></path><path d="M189.09,202.71c0,.15-.42.34-.9.67s-.83.67-.95.59.07-.63.66-1S189.08,202.57,189.09,202.71Z" style="fill:#fff"></path><path d="M220.28,169.11c-.13.07-.68-.71-1.24-1.74a4.72,4.72,0,0,1-.79-2c.13-.07.69.71,1.24,1.74A4.63,4.63,0,0,1,220.28,169.11Z" style="fill:#fff"></path><path d="M233.47,165.83c.08.12-.72.81-1.79,1.54a5.71,5.71,0,0,1-2.09,1.11c-.08-.12.72-.81,1.8-1.54S233.39,165.71,233.47,165.83Z" style="fill:#fff"></path><path d="M252.75,168.13a12.36,12.36,0,0,1-4.36-2.63,6.14,6.14,0,0,1,2.31,1.09A6.58,6.58,0,0,1,252.75,168.13Z" style="fill:#fff"></path><path d="M261.4,165c.14,0,.12.87,0,1.9s-.43,1.85-.57,1.82-.12-.87.05-1.9S261.26,165,261.4,165Z" style="fill:#fff"></path><path d="M267.75,170.76a2.47,2.47,0,0,1-.35.59,7.81,7.81,0,0,1-1.37,1.42,11,11,0,0,1-6.82,2.19,20.08,20.08,0,0,1-5-.72c-1.75-.45-3.56-1.09-5.46-1.74a33.51,33.51,0,0,0-6-1.57,16,16,0,0,0-6.6.49c-4.41,1.22-8.41,3.46-12.56,3.69a12.79,12.79,0,0,1-3-.17,12,12,0,0,1-2.68-.88,24.1,24.1,0,0,1-4.27-2.62,45.31,45.31,0,0,0-5.92-4c-1.51-.77-2.44-1-2.42-1a3.16,3.16,0,0,1,.67.16,11.2,11.2,0,0,1,1.84.7,40.51,40.51,0,0,1,6.05,3.93,24.37,24.37,0,0,0,4.23,2.52,12.54,12.54,0,0,0,2.58.82,11.85,11.85,0,0,0,2.87.14c4-.24,7.95-2.46,12.46-3.71a16.27,16.27,0,0,1,6.8-.5,33.22,33.22,0,0,1,6.14,1.63c1.9.66,3.69,1.31,5.41,1.77a20.05,20.05,0,0,0,4.85.77,11.09,11.09,0,0,0,6.7-2A10.53,10.53,0,0,0,267.75,170.76Z" style="fill:#263238"></path><path d="M280.57,184.5l-.24-.07-.66-.25a20.39,20.39,0,0,0-2.63-.76,20.72,20.72,0,0,0-9.91.2,19.12,19.12,0,0,0-3.11,1.12c-1,.48-2.09,1.08-3.19,1.69a22.65,22.65,0,0,1-3.54,1.67,11,11,0,0,1-2,.49,9.58,9.58,0,0,1-2.14,0c-2.9-.36-5.49-2-8.3-3.11a12.06,12.06,0,0,0-4.45-.94,15.63,15.63,0,0,0-4.64.82c-3.07,1-5.93,2.44-9,3.12a15.35,15.35,0,0,1-8.82-.72,44.2,44.2,0,0,1-7.19-3.57A54.73,54.73,0,0,0,204.6,181a15.61,15.61,0,0,0-9.76-1.2,12,12,0,0,0-3.36,1.45l.19-.16a6,6,0,0,1,.59-.41,9,9,0,0,1,2.54-1.07,13.08,13.08,0,0,1,4.34-.36,18.26,18.26,0,0,1,5.6,1.41,52.48,52.48,0,0,1,6.22,3.18,45.13,45.13,0,0,0,7.14,3.49,15,15,0,0,0,8.55.67c3-.66,5.81-2.11,8.93-3.11a15.53,15.53,0,0,1,4.8-.84,12.27,12.27,0,0,1,4.64,1c2.86,1.14,5.42,2.75,8.17,3.1a8.54,8.54,0,0,0,2,0,9.51,9.51,0,0,0,1.93-.45,23.07,23.07,0,0,0,3.48-1.62c1.1-.59,2.16-1.2,3.23-1.67a19.53,19.53,0,0,1,3.18-1.12,20.57,20.57,0,0,1,10.06,0A14.09,14.09,0,0,1,280.57,184.5Z" style="fill:#263238"></path><path d="M263.09,204.1a2.13,2.13,0,0,1-.43.34,4.33,4.33,0,0,1-1.48.59,8.59,8.59,0,0,1-5.66-1c-1.11-.54-2.26-1.24-3.53-1.86a15.73,15.73,0,0,0-4.29-1.35,28.67,28.67,0,0,0-10.33.56c-3.63.75-7.07,1.71-10.29,2.13a22.14,22.14,0,0,1-8.59-.3,13.54,13.54,0,0,1-5.23-2.48,8.07,8.07,0,0,1-1.16-1.08,2.21,2.21,0,0,1-.35-.43s.54.55,1.63,1.35a14.14,14.14,0,0,0,5.2,2.29A22.5,22.5,0,0,0,227,203c3.18-.45,6.6-1.41,10.26-2.17a28.44,28.44,0,0,1,10.51-.52,16,16,0,0,1,4.4,1.43c1.29.66,2.42,1.37,3.5,1.92a8.66,8.66,0,0,0,5.46,1.17A6.43,6.43,0,0,0,263.09,204.1Z" style="fill:#263238"></path><path d="M263.75,218.22a8.53,8.53,0,0,0-7-1.88c-2.31.21-4.9,1.27-7.86,2.23a19.18,19.18,0,0,1-4.81,1,22.34,22.34,0,0,1-5.25-.33c-3.55-.62-6.8-1.72-9.79-2.47a30,30,0,0,0-8.07-1.06,15.06,15.06,0,0,0-5.36,1.06c-1.2.51-1.8.93-1.83.88s.14-.12.43-.32a10.47,10.47,0,0,1,1.31-.75,14.44,14.44,0,0,1,5.43-1.24,28.94,28.94,0,0,1,8.21,1c3,.73,6.26,1.81,9.76,2.42A22.42,22.42,0,0,0,244,219a19.2,19.2,0,0,0,4.7-.92c2.93-.92,5.58-2,8-2.13a9.65,9.65,0,0,1,5.47,1A4.55,4.55,0,0,1,263.75,218.22Z" style="fill:#263238"></path><path d="M264.78,235.28s0,.05-.11.1a1.9,1.9,0,0,1-.35.23,4.61,4.61,0,0,1-1.52.52,7.13,7.13,0,0,1-2.54-.07,16.15,16.15,0,0,1-3.19-1.07,23.57,23.57,0,0,0-8.27-2.19,21.66,21.66,0,0,0-5.05.21,44.37,44.37,0,0,0-5.31,1.28,49.46,49.46,0,0,1-5.35,1.37,26.22,26.22,0,0,1-5.14.45,28.28,28.28,0,0,1-8.59-1.41,27.11,27.11,0,0,1-5.34-2.43,15,15,0,0,1-1.34-.88c-.3-.21-.45-.32-.44-.34s.67.39,1.88,1A28.86,28.86,0,0,0,228,235.63a27.85,27.85,0,0,0,5.05-.47,54.51,54.51,0,0,0,5.3-1.37,43.25,43.25,0,0,1,5.38-1.29,22,22,0,0,1,5.16-.18,23.24,23.24,0,0,1,8.38,2.34,16.83,16.83,0,0,0,3.1,1.12,7.35,7.35,0,0,0,2.45.15A6.11,6.11,0,0,0,264.78,235.28Z" style="fill:#263238"></path><path d="M182.17,190.43c.05,0,.16.29.52.73a4.81,4.81,0,0,0,1.94,1.32,11.74,11.74,0,0,0,3.49.71,11.94,11.94,0,0,1,4.39,1,8.6,8.6,0,0,1,3.11,3.29,21.87,21.87,0,0,0,2,3,7,7,0,0,0,2.63,1.9,1.87,1.87,0,0,1-.88-.2,5.93,5.93,0,0,1-2-1.46,17.84,17.84,0,0,1-2.14-3,8.59,8.59,0,0,0-2.95-3.08,11.94,11.94,0,0,0-4.21-1,11.48,11.48,0,0,1-3.58-.85,4.67,4.67,0,0,1-2-1.54A1.78,1.78,0,0,1,182.17,190.43Z" style="fill:#263238"></path><path d="M194.47,210.62s-.18.27-.65.59a5.68,5.68,0,0,1-2.26.84,9.93,9.93,0,0,1-3.56-.14,37.22,37.22,0,0,1-4.13-1.29,15.32,15.32,0,0,0-4.11-.94,7.31,7.31,0,0,0-3.32.59,5.49,5.49,0,0,0-2.33,2,1.84,1.84,0,0,1,.35-.81,4.65,4.65,0,0,1,1.82-1.57,7.19,7.19,0,0,1,3.5-.74,14.4,14.4,0,0,1,4.26.93c1.45.5,2.8,1,4.06,1.31a10.34,10.34,0,0,0,3.41.25A7.53,7.53,0,0,0,194.47,210.62Z" style="fill:#263238"></path><path d="M198.46,222.44c0,.05-.27-.07-.73-.12a3.27,3.27,0,0,0-1.88.46,5.65,5.65,0,0,0-2,2c-.6.95-1.07,2.12-1.8,3.26a6.34,6.34,0,0,1-2.89,2.48,6.63,6.63,0,0,1-3.06.51,5.39,5.39,0,0,1-2-.51,1.82,1.82,0,0,1-.65-.41,9.87,9.87,0,0,0,2.68.56,6.72,6.72,0,0,0,2.86-.59,6,6,0,0,0,2.64-2.33c.7-1.08,1.19-2.25,1.84-3.22a5.65,5.65,0,0,1,2.28-2.11,3.22,3.22,0,0,1,2.08-.33A1.33,1.33,0,0,1,198.46,222.44Z" style="fill:#263238"></path><path d="M205.55,234.26a6,6,0,0,1-.74,2.27,12.77,12.77,0,0,1-8.92,6.83,6.15,6.15,0,0,1-2.39.12c0-.09.91-.12,2.31-.48a13.93,13.93,0,0,0,5-2.43,14.07,14.07,0,0,0,3.67-4.21C205.19,235.1,205.46,234.23,205.55,234.26Z" style="fill:#263238"></path><path d="M288.15,193a1.48,1.48,0,0,1-.18.86,3.91,3.91,0,0,1-1.66,1.72,6.5,6.5,0,0,1-3.46.78c-1.34,0-2.77-.28-4.25-.28a12.8,12.8,0,0,0-7.13,2.25c-1.62,1.11-2.37,2.1-2.45,2a2.62,2.62,0,0,1,.5-.71,10.87,10.87,0,0,1,1.73-1.62,12.38,12.38,0,0,1,7.35-2.47c1.55,0,3,.29,4.26.32a6.43,6.43,0,0,0,3.27-.62,3.9,3.9,0,0,0,1.65-1.5C288.05,193.33,288.11,193,288.15,193Z" style="fill:#263238"></path><path d="M296,211.58a6.94,6.94,0,0,0-.77-.43,3.43,3.43,0,0,0-2.3-.05,14.92,14.92,0,0,0-3.16,1.68,18.83,18.83,0,0,1-4.09,1.87,9.53,9.53,0,0,1-4.52.31,7.32,7.32,0,0,1-3.35-1.58,5.26,5.26,0,0,1-1.49-2,3.93,3.93,0,0,1-.2-.65.55.55,0,0,1,0-.24,6.85,6.85,0,0,0,1.95,2.6,7.21,7.21,0,0,0,3.2,1.4,9.37,9.37,0,0,0,4.28-.34,20.4,20.4,0,0,0,4-1.78,14.17,14.17,0,0,1,3.3-1.63,3.49,3.49,0,0,1,2.49.22C295.85,211.26,296,211.57,296,211.58Z" style="fill:#263238"></path><path d="M282.49,238.32a7.52,7.52,0,0,0-.39-2.66,5.5,5.5,0,0,0-1.67-2.31,7,7,0,0,0-3.29-1.23,14.31,14.31,0,0,1-1.88-.45,6.19,6.19,0,0,1-1.64-.84,6.56,6.56,0,0,1-2-2.33,6.16,6.16,0,0,1-.6-2,1.77,1.77,0,0,1,0-.75,10.26,10.26,0,0,0,.91,2.55,6.41,6.41,0,0,0,1.95,2.12,8,8,0,0,0,3.34,1.17,7.1,7.1,0,0,1,3.49,1.37,5.54,5.54,0,0,1,1.72,2.55,4.93,4.93,0,0,1,.23,2.06A1.58,1.58,0,0,1,282.49,238.32Z" style="fill:#263238"></path><path d="M199.18,189.5c-.14,0-.37-.61-.52-1.43s-.14-1.49,0-1.51.37.61.52,1.42S199.32,189.47,199.18,189.5Z" style="fill:#fff"></path><path d="M208.62,175.76c0,.14-.71.41-1.65.59s-1.73.22-1.76.08.72-.4,1.66-.59S208.59,175.62,208.62,175.76Z" style="fill:#fff"></path><path d="M230,180.1c-.1.11-.73-.29-1.42-.89s-1.16-1.18-1.06-1.29.72.3,1.41.9S230,180,230,180.1Z" style="fill:#fff"></path><path d="M254.84,178.75c.11.1-.5.95-1.35,1.9s-1.64,1.64-1.75,1.54.5-.94,1.36-1.89S254.74,178.66,254.84,178.75Z" style="fill:#fff"></path><path d="M270.65,179.73c-.08.12-.88-.31-1.79-.95s-1.57-1.25-1.48-1.37.88.31,1.78,1S270.73,179.61,270.65,179.73Z" style="fill:#fff"></path><path d="M221.42,210.77a3.74,3.74,0,0,1-2.25-.88c-1.12-.76-1.74-1.69-1.63-1.78s.87.63,1.93,1.35S221.47,210.62,221.42,210.77Z" style="fill:#fff"></path><path d="M238.28,209.41c.1.1-.57.93-1.5,1.84s-1.76,1.58-1.86,1.48.57-.93,1.5-1.85S238.18,209.31,238.28,209.41Z" style="fill:#fff"></path><path d="M250.32,212.27a5.7,5.7,0,0,1-2.15-1c-1.12-.69-2-1.34-1.88-1.47a5.7,5.7,0,0,1,2.15,1C249.56,211.49,250.4,212.14,250.32,212.27Z" style="fill:#fff"></path><path d="M261.51,209.14c.1.11-.25.55-.76,1s-1,.69-1.1.58.25-.55.77-1S261.42,209,261.51,209.14Z" style="fill:#fff"></path><path d="M256,194.38c-.13,0,.05-.93.62-1.87s1.26-1.53,1.36-1.44-.38.81-.91,1.7S256.17,194.43,256,194.38Z" style="fill:#fff"></path><path d="M243.13,191.63c-.1.11-.67-.26-1.27-.82s-1-1.09-.91-1.2.66.26,1.27.82S243.22,191.52,243.13,191.63Z" style="fill:#fff"></path><path d="M225,194.9c.1.1-.3.64-.9,1.2s-1.17.93-1.27.82.31-.64.91-1.2S224.88,194.79,225,194.9Z" style="fill:#fff"></path><path d="M273.93,192c-.08.12-.7-.16-1.39-.64s-1.17-.95-1.09-1.07.7.17,1.39.64S274,191.87,273.93,192Z" style="fill:#fff"></path><path d="M281,203.37a5,5,0,0,1-.51,2.17c-.41,1.15-.86,2-1,2a5.14,5.14,0,0,1,.51-2.17C280.38,204.21,280.82,203.32,281,203.37Z" style="fill:#fff"></path><path d="M278,224.48c-.13.05-.56-.7-.94-1.69s-.59-1.83-.46-1.88.56.7.94,1.69S278.16,224.43,278,224.48Z" style="fill:#fff"></path><path d="M271.5,239c-.15,0-.16-.81-.25-1.78s-.21-1.75-.07-1.79.5.72.59,1.75S271.63,239,271.5,239Z" style="fill:#fff"></path><path d="M256.61,224.12c.09.1-.43.73-1.18,1.4s-1.42,1.13-1.52,1,.43-.74,1.18-1.41S256.51,224,256.61,224.12Z" style="fill:#fff"></path><path d="M246,227.2c-.11.09-.76-.61-1.45-1.56s-1.14-1.78-1-1.87.76.62,1.45,1.57S246.09,227.12,246,227.2Z" style="fill:#fff"></path><path d="M231.25,224.58c.11.1-.42.85-1.19,1.67s-1.46,1.42-1.57,1.32.43-.85,1.19-1.67S231.15,224.49,231.25,224.58Z" style="fill:#fff"></path><path d="M220.52,227.22c-.12.08-.6-.45-1.08-1.17s-.76-1.39-.64-1.47.61.45,1.08,1.18S220.64,227.14,220.52,227.22Z" style="fill:#fff"></path><path d="M220.29,243.48c-.1.1-.6-.23-1.13-.73s-.87-1-.77-1.1.61.22,1.13.72S220.39,243.37,220.29,243.48Z" style="fill:#fff"></path><path d="M232.05,241.82c.11.1-.22.63-.74,1.19s-1,.93-1.12.84.23-.63.74-1.19S232,241.73,232.05,241.82Z" style="fill:#fff"></path><path d="M247,244.88c-.12.09-.95-.81-1.86-2a7.17,7.17,0,0,1-1.45-2.31c.11-.09.94.8,1.86,2A7.6,7.6,0,0,1,247,244.88Z" style="fill:#fff"></path><path d="M258.89,241.75c.1.1-.59.94-1.55,1.86s-1.82,1.6-1.92,1.5.6-.94,1.56-1.87S258.79,241.64,258.89,241.75Z" style="fill:#fff"></path><path d="M194,236.9c-.14,0-.19-.89-.1-2s.27-1.93.41-1.92.19.89.11,2S194.11,236.91,194,236.9Z" style="fill:#fff"></path><path d="M200.33,232.69c-.06.13-.73,0-1.51-.38s-1.35-.73-1.29-.86.73,0,1.5.38S200.39,232.56,200.33,232.69Z" style="fill:#fff"></path><path d="M184.93,221.54c0,.14-.79.08-1.69-.14s-1.61-.5-1.58-.64.79-.08,1.7.14S185,221.4,184.93,221.54Z" style="fill:#fff"></path><path d="M191.14,219a5.14,5.14,0,0,1,.77-2.13c.56-1.12,1.11-2,1.24-1.91a5.2,5.2,0,0,1-.77,2.14C191.82,218.24,191.27,219.1,191.14,219Z" style="fill:#fff"></path><path d="M180.19,198.71c.14-.05.58.87,1.23,1.91s1.26,1.85,1.16,1.95-.92-.57-1.6-1.68S180.05,198.76,180.19,198.71Z" style="fill:#fff"></path><path d="M189.09,202.71c0,.15-.42.34-.9.67s-.83.67-.95.59.07-.63.66-1S189.08,202.57,189.09,202.71Z" style="fill:#fff"></path><path d="M220.28,169.11c-.13.07-.68-.71-1.24-1.74a4.72,4.72,0,0,1-.79-2c.13-.07.69.71,1.24,1.74A4.63,4.63,0,0,1,220.28,169.11Z" style="fill:#fff"></path><path d="M233.47,165.83c.08.12-.72.81-1.79,1.54a5.71,5.71,0,0,1-2.09,1.11c-.08-.12.72-.81,1.8-1.54S233.39,165.71,233.47,165.83Z" style="fill:#fff"></path><path d="M252.75,168.13a12.36,12.36,0,0,1-4.36-2.63,6.14,6.14,0,0,1,2.31,1.09A6.58,6.58,0,0,1,252.75,168.13Z" style="fill:#fff"></path><path d="M261.4,165c.14,0,.12.87,0,1.9s-.43,1.85-.57,1.82-.12-.87.05-1.9S261.26,165,261.4,165Z" style="fill:#fff"></path><path d="M207.52,242.33a74.78,74.78,0,0,1,7.09,5.71c2.13,1.93-2,13.45-4.33,11.43s-8.62-10-8.62-10Z" style="fill:#b78876"></path><path d="M210.61,259.67s-6.54-.72-6.36-2.07a7.32,7.32,0,0,1,1.61-3Z" style="fill:#a36957"></path></g><g id="freepik--Garlands--inject-2"><path d="M247.93,40.34s9.19,50.81,15.41,50.58c8-.3,35.3-42.61,35.3-42.61S252.43,41.2,247.93,40.34Z" style="fill:#FFC100"></path><g style="opacity:0.30000000000000004"><path d="M247.93,40.34s9.19,50.81,15.41,50.58c8-.3,35.3-42.61,35.3-42.61S252.43,41.2,247.93,40.34Z" style="fill:#fff"></path></g><path d="M267.11,56.53l5.52.2a.83.83,0,0,1,.32.06.63.63,0,0,1,.45.67.56.56,0,0,1-.07.26.83.83,0,0,1-.71.43L267.67,58l-.8,4.67,3.57.13a.92.92,0,0,1,.38.09.66.66,0,0,1,.4.66.59.59,0,0,1-.05.23.81.81,0,0,1-.72.44l-3.8-.14-.73,4.37,4.9.18a1.16,1.16,0,0,1,.37.07.67.67,0,0,1,.42.67.6.6,0,0,1,0,.22.78.78,0,0,1-.73.46l-5.72-.21a.69.69,0,0,1-.39-.12.82.82,0,0,1-.31-.73q0-.13,2-11.8a.84.84,0,0,1,.07-.24A.65.65,0,0,1,267.11,56.53Z" style="fill:#263238"></path><path d="M303.66,49.1s13.69,49.79,19.86,49c8-1,31.36-45.59,31.36-45.59S308.21,49.56,303.66,49.1Z" style="fill:#FFC100"></path><path d="M329.2,76.67l-5.78.3a.62.62,0,0,1-.37-.09,1.07,1.07,0,0,1-.37-.7h0q0-.36,1-11.92a2.11,2.11,0,0,1,0-.25.69.69,0,0,1,.93-.39.64.64,0,0,1,.39.59c0,.52-.1,1.61-.22,3.26q-.6,7.64-.61,8.05l4.91-.26a1.14,1.14,0,0,1,.37,0,.64.64,0,0,1,.47.62.6.6,0,0,1,0,.23A.8.8,0,0,1,329.2,76.67Z" style="fill:#263238"></path><path d="M359.89,52.55s18.11,48.36,24.18,47c7.84-1.73,27.14-48.22,27.14-48.22S364.46,52.6,359.89,52.55Z" style="fill:#FFC100"></path><g style="opacity:0.30000000000000004"><path d="M359.89,52.55s18.11,48.36,24.18,47c7.84-1.73,27.14-48.22,27.14-48.22S364.46,52.6,359.89,52.55Z" style="fill:#fff"></path></g><path d="M386.77,67.41a4.19,4.19,0,0,0-.58-.77,1.92,1.92,0,0,0-1.6-.67,1.82,1.82,0,0,0-1,.54,5.55,5.55,0,0,0-1.37,2.73,9.57,9.57,0,0,0-.25,3.69,6.55,6.55,0,0,0,.95,2.73,1.88,1.88,0,0,0,1.84,1,1.92,1.92,0,0,0,1-.6,5.72,5.72,0,0,0,1.32-2.28.36.36,0,0,1,0-.11.61.61,0,0,1,.52-.42.69.69,0,0,1,.35,0,.65.65,0,0,1,.43.55.87.87,0,0,1,0,.34,7.39,7.39,0,0,1-1,2.17,3.79,3.79,0,0,1-2.55,1.74l-.38,0a3.08,3.08,0,0,1-2.39-1.24,7.1,7.1,0,0,1-1.51-3.68,10.24,10.24,0,0,1,0-2.82,9.13,9.13,0,0,1,1.36-3.92,3.85,3.85,0,0,1,2.62-1.91,2.85,2.85,0,0,1,1.26.1,4,4,0,0,1,2.17,2,.77.77,0,0,1,.11.31.61.61,0,0,1,0,.35.68.68,0,0,1-.54.43A.83.83,0,0,1,386.77,67.41Z" style="fill:#263238"></path><path d="M413.55,51.43S434.46,98.65,440.45,97c7.72-2.19,24.26-49.74,24.26-49.74S418.12,51.21,413.55,51.43Z" style="fill:#FFC100"></path><path d="M435.28,70.87a10.33,10.33,0,0,1-.17-2.85,8.93,8.93,0,0,1,1.16-4,3.82,3.82,0,0,1,2.47-2,2.94,2.94,0,0,1,2.58.78,6.54,6.54,0,0,1,1.87,3.31c.17-.11.42-.29.74-.53a2.83,2.83,0,0,1,1-.56.58.58,0,0,1,.32,0,.61.61,0,0,1,.43.47,1,1,0,0,1-.17.67,4.39,4.39,0,0,1-2,1.36,10.86,10.86,0,0,1,.05,1.89,8.86,8.86,0,0,1-1.14,4.06,3.92,3.92,0,0,1-2.53,2l-.38,0A3.09,3.09,0,0,1,437,74.46,7.11,7.11,0,0,1,435.28,70.87Zm1.38-.53a7.55,7.55,0,0,0,1,2.58c.6.94,1.29,1.33,2.05,1.17a1.32,1.32,0,0,0,.57-.26,4.24,4.24,0,0,0,1.35-2.21,9.53,9.53,0,0,0,.45-3.67,4.2,4.2,0,0,1-2.43-.24,5.08,5.08,0,0,1-2.51-2.31A8.64,8.64,0,0,0,436.66,70.34Zm2.66-6.85a.84.84,0,0,0-.38.18,1.15,1.15,0,0,0-.25,1.15,1.9,1.9,0,0,0,.09.29,2.33,2.33,0,0,0,1.48,1.33,3,3,0,0,0,1.58.19,8,8,0,0,0-.48-1.33C440.77,64,440.09,63.39,439.32,63.49Z" style="fill:#263238"></path><path d="M467.86,45.87s25.68,44.8,31.46,42.49c7.46-3,19-52,19-52S472.38,45.18,467.86,45.87Z" style="fill:#FFC100"></path><g style="opacity:0.30000000000000004"><path d="M467.86,45.87s25.68,44.8,31.46,42.49c7.46-3,19-52,19-52S472.38,45.18,467.86,45.87Z" style="fill:#fff"></path></g><path d="M502,64.58v0a.66.66,0,0,1-.45.85.7.7,0,0,1-.38,0,.83.83,0,0,1-.54-.6q0-.13-1.34-7c-.44,3.15-.79,5.64-1,7.46-.05.39-.08.6-.09.65a.79.79,0,0,1-.5.68l-.16,0a.79.79,0,0,1-.7-.4l-3.63-6.53q.71,3.91,1.18,7.2v0a.64.64,0,0,1-.45.84.59.59,0,0,1-.37,0,.79.79,0,0,1-.55-.59c0-.06-.56-3.13-1.63-9.23-.27-1.58-.42-2.43-.44-2.55a1.06,1.06,0,0,1,0-.31.68.68,0,0,1,.5-.51l.19,0a.53.53,0,0,1,.52.25c.3.57,1.22,2.25,2.75,5l2.13,3.89L498.53,53a.81.81,0,0,1,0-.2.79.79,0,0,1,.5-.49.73.73,0,0,1,.86.44c0,.16.06.35.11.57C501.24,60,501.91,63.74,502,64.58Z" style="fill:#263238"></path><path d="M521.23,35.58s29,42.73,34.59,40c7.21-3.53,15-53.27,15-53.27S525.69,34.55,521.23,35.58Z" style="fill:#FFC100"></path><path d="M545.41,42.68l5.13-2.06a1.25,1.25,0,0,1,.31-.07.64.64,0,0,1,.69.43.63.63,0,0,1,0,.27.84.84,0,0,1-.47.68l-4.61,1.84,1.17,4.59L551,47a1.07,1.07,0,0,1,.39-.07.67.67,0,0,1,.64.44.62.62,0,0,1,0,.23.82.82,0,0,1-.48.7L548,49.74,549.15,54l4.55-1.82a.94.94,0,0,1,.36-.08.71.71,0,0,1,.71.65.79.79,0,0,1-.47.72L549,55.63a.73.73,0,0,1-.41,0,.82.82,0,0,1-.58-.54q0-.12-3-11.58a.72.72,0,0,1,0-.25A.63.63,0,0,1,545.41,42.68Z" style="fill:#263238"></path><path d="M193.77,27.06s5.16,51.38,11.38,51.64C213.17,79,243.7,39,243.7,39S198.18,28.27,193.77,27.06Z" style="fill:#FFC100"></path><path d="M209.34,45.08a.58.58,0,0,1,.31.13.67.67,0,0,1,.27.63c-.52,1.83-.92,3.27-1.21,4.31-.71,2.53-1.08,4-1.14,4.33-.22,1.46,0,2.24.77,2.36a4.23,4.23,0,0,0,1.86-.15,10.18,10.18,0,0,1,.06-2.48,12.39,12.39,0,0,1,.41-1.86c.58-1.84,1.51-2.66,2.78-2.47a2,2,0,0,1,1.25.67,2.27,2.27,0,0,1,.46,1.89c0,.19-.07.4-.12.6a7.57,7.57,0,0,1-1.92,3.45,4.32,4.32,0,0,1-1.15.95c0,.16.17.26.44.3a4.49,4.49,0,0,0,3.75-1.52A14.47,14.47,0,0,0,219,52.11a4.23,4.23,0,0,1-2.37-1.18,3,3,0,0,1-.73-2.58,2.41,2.41,0,0,1,1.12-1.68,2.55,2.55,0,0,1,1.74-.38,2.79,2.79,0,0,1,1.86,1.06,3.18,3.18,0,0,1,.54,2.47c0,.22-.1.58-.22,1.07a2.63,2.63,0,0,0,.39-.06,5.7,5.7,0,0,0,1.23-.4,1.64,1.64,0,0,1,.85-.19.44.44,0,0,1,.24.11.6.6,0,0,1,.24.61c-.05.34-.39.63-1,.87a6.39,6.39,0,0,1-2.48.41,14.89,14.89,0,0,1-3,4.62A6.23,6.23,0,0,1,211.94,59l-.16,0a2,2,0,0,1-1.25-.87,5.76,5.76,0,0,1-2.71.23,1.93,1.93,0,0,1-1.21-.65,4.13,4.13,0,0,1-.5-3.3,25.13,25.13,0,0,1,1-4c.51-1.58.85-2.7,1-3.36-.62.28-1.11.49-1.47.64a3.46,3.46,0,0,1-1.06.36.68.68,0,0,1-.59-.8.83.83,0,0,1,.5-.58l.22-.1A14.74,14.74,0,0,1,209.34,45.08ZM211.52,56a3,3,0,0,0,.67-.54,5.3,5.3,0,0,0,1.5-3c0-.06,0-.11,0-.16,0-.48-.14-.75-.55-.81s-.6.21-.89.73a7.55,7.55,0,0,0-.68,2.34A8.89,8.89,0,0,0,211.52,56Zm5.77-7.18a1.42,1.42,0,0,0,.08.77c.27.68,1,1.1,2.18,1.28a7.89,7.89,0,0,0,.33-1.26,2.55,2.55,0,0,0,0-.73,1.18,1.18,0,0,0-1-1.07,1.47,1.47,0,0,0-.81.08A1.15,1.15,0,0,0,217.29,48.79Z" style="fill:#263238"></path><path d="M619.08,6s-.41.18-1.21.5l-3.55,1.41-5.78,2.29-3.69,1.45-4.24,1.54-10,3.63-12,4c-2.15.75-4.39,1.42-6.71,2.13l-7.16,2.2c-1.22.38-2.47.77-3.74,1.14l-3.86,1.09-8,2.25a659.24,659.24,0,0,1-78.47,16.19c-15,2.07-30.7,3.82-47.08,5s-33.38,1.71-50.79,1.64l-13-.16L347,51.83l-3.17-.12-3.16-.19-6.28-.39-6.23-.38L322,50.23c-4.09-.38-8.15-.64-12.16-1.1l-11.9-1.31c-3.92-.45-7.79-1-11.62-1.53l-5.71-.78-5.62-.9c-14.93-2.24-29-5.2-42.08-8.07-13.06-3.08-25.18-6.19-36.1-9.48l-8-2.39c-2.6-.76-5.09-1.65-7.54-2.44-4.88-1.61-9.51-3.07-13.75-4.66s-8.25-2.92-11.87-4.32l-9.89-3.88c-1.48-.59-2.89-1.12-4.2-1.67l-3.64-1.55L132.19,3.7l-3.5-1.51c-.79-.34-1.19-.53-1.19-.53s.41.15,1.21.48l3.53,1.46c1.55.65,3.46,1.46,5.73,2.4l3.65,1.54c1.31.54,2.72,1.06,4.21,1.64L155.72,13c3.63,1.38,7.62,2.74,11.88,4.28s8.88,3,13.76,4.62c2.45.78,4.94,1.66,7.55,2.41l8,2.38C207.84,30,220,33.05,233,36.12c13.11,2.85,27.14,5.79,42.06,8l5.62.9,5.71.77c3.83.5,7.69,1.08,11.61,1.53l11.89,1.3c4,.45,8.07.72,12.15,1.09l6.16.52,6.22.38,6.28.38,3.15.19,3.17.12,12.8.47,13,.16c17.4.07,34.39-.53,50.76-1.63s32.1-2.94,47-5A663.65,663.65,0,0,0,549,29.25l8-2.24L561,25.93l3.74-1.12,7.16-2.18c2.32-.71,4.56-1.38,6.71-2.11l12-4,10-3.59,4.25-1.52,3.7-1.43,5.79-2.23,3.57-1.37Z" style="fill:#455a64"></path></g><g id="freepik--Confetti--inject-2"><path d="M477.5,121.46a2.22,2.22,0,0,1-.9.05,3.61,3.61,0,0,1-2.25-1.28c-1.67-1.69-1.4-6,1.81-8.62a2.66,2.66,0,0,1,1.55-.42,2.19,2.19,0,0,1,1.54.66,2,2,0,0,1,.43,1.7,3.51,3.51,0,0,1-.83,1.61,6.38,6.38,0,0,1-7.18,1.3,5.59,5.59,0,0,1-2.92-2.92,6.66,6.66,0,0,1-.36-4.3,6.13,6.13,0,0,1,.93-2,3.94,3.94,0,0,1,1.77-1.47,2.15,2.15,0,0,1,1.21-.13,1.5,1.5,0,0,1,1,.71,2.69,2.69,0,0,1,0,2.38,6.71,6.71,0,0,1-7.78,3.49,6.4,6.4,0,0,1-3.45-2.59,6.79,6.79,0,0,1-1.16-4,4.85,4.85,0,0,1,1.59-3.59,3,3,0,0,1,1.81-.67,2.3,2.3,0,0,1,1.76.68,3,3,0,0,1,.31,3.38,4,4,0,0,1-2.66,1.76,5.67,5.67,0,0,1-2.91-.18,6.6,6.6,0,0,1-2.25-1.29,6.81,6.81,0,0,1-1.47-1.71,7,7,0,0,1-.79-1.72,6.21,6.21,0,0,1-.24-2.6,6,6,0,0,1,.19-.89s-.06.31-.12.9a6.2,6.2,0,0,0,.3,2.55,7.21,7.21,0,0,0,.8,1.67,6.94,6.94,0,0,0,1.45,1.66,6.6,6.6,0,0,0,2.2,1.22,5.45,5.45,0,0,0,2.79.14,3.6,3.6,0,0,0,2.47-1.65,2.66,2.66,0,0,0-.28-3,2.39,2.39,0,0,0-3.17,0,4.52,4.52,0,0,0-1.46,3.36,6.43,6.43,0,0,0,1.12,3.78,6.07,6.07,0,0,0,3.26,2.46,6.39,6.39,0,0,0,7.37-3.31,2.37,2.37,0,0,0,0-2.06,1.19,1.19,0,0,0-.79-.55,1.77,1.77,0,0,0-1,.11,3.61,3.61,0,0,0-1.62,1.35,5.71,5.71,0,0,0-.88,1.93,6.35,6.35,0,0,0,.33,4.09,5.3,5.3,0,0,0,2.75,2.76,6.1,6.1,0,0,0,6.84-1.2,3.37,3.37,0,0,0,.77-1.47,1.7,1.7,0,0,0-.36-1.47,1.92,1.92,0,0,0-1.35-.58,2.37,2.37,0,0,0-1.41.37,5.41,5.41,0,0,0-1.81,2.12,8.36,8.36,0,0,0-.86,2.38,4.49,4.49,0,0,0,.83,3.83,3.62,3.62,0,0,0,2.15,1.29A5.56,5.56,0,0,0,477.5,121.46Z" style="fill:#263238"></path><path d="M330.92,239.55s-.08.06-.24.14l-.74.38a25.38,25.38,0,0,0-2.7,1.65,23.78,23.78,0,0,0-7.55,8.69,16.94,16.94,0,0,0-2,7.65,8.46,8.46,0,0,0,1.14,4.19,6.6,6.6,0,0,0,3.42,2.94,3.93,3.93,0,0,0,2.3.16,2.29,2.29,0,0,0,1.72-1.36,2.09,2.09,0,0,0-.61-2.11,3.61,3.61,0,0,0-2.21-1,13.65,13.65,0,0,0-2.63,0,20.53,20.53,0,0,0-2.67.41,14.58,14.58,0,0,0-5,2.05c-3.06,2-5,5.78-4.15,9.16a5.71,5.71,0,0,0,3,3.82,3.89,3.89,0,0,0,4.37-.75,3,3,0,0,0,1-2,3.25,3.25,0,0,0-.6-2.07,4.48,4.48,0,0,0-3.69-1.86,8.48,8.48,0,0,0-6.75,3.5,8.64,8.64,0,0,0-1.76,6.14,9.44,9.44,0,0,0,4.11,6.71c.6.4,1,.55.94.58a4.9,4.9,0,0,1-1-.49,8.82,8.82,0,0,1-2.38-2.12,9.41,9.41,0,0,1-2-4.65,9.19,9.19,0,0,1,8.81-10.1,4.87,4.87,0,0,1,4.05,2,3.7,3.7,0,0,1,.7,2.36,3.56,3.56,0,0,1-1.09,2.28,4.53,4.53,0,0,1-2.3,1.2,4.31,4.31,0,0,1-2.62-.34,6.16,6.16,0,0,1-3.27-4.15,8.25,8.25,0,0,1,.64-5.45,10.44,10.44,0,0,1,3.71-4.26,15.2,15.2,0,0,1,5.23-2.13,21.7,21.7,0,0,1,2.73-.41,13.93,13.93,0,0,1,2.74,0,4.09,4.09,0,0,1,2.51,1.13,2.6,2.6,0,0,1,.72,2.63,2.74,2.74,0,0,1-2.08,1.67,4.32,4.32,0,0,1-2.57-.18,7,7,0,0,1-3.66-3.16,8.83,8.83,0,0,1-1.17-4.41,17.15,17.15,0,0,1,2.11-7.82,23.39,23.39,0,0,1,7.75-8.7A16.76,16.76,0,0,1,330.92,239.55Z" style="fill:#263238"></path></g><g id="freepik--Balloons--inject-2"><path d="M146.33,200.57a5,5,0,0,1-.62-.6,8.44,8.44,0,0,1-1.36-2.08,9.56,9.56,0,0,1-.86-3.84,9,9,0,0,1,1.47-5,36.25,36.25,0,0,1,4.08-4.81,19.42,19.42,0,0,0,2.11-2.75,8.71,8.71,0,0,0,1.28-3.39,7,7,0,0,0-.57-3.72,16.35,16.35,0,0,0-2.12-3.41c-.84-1.09-1.76-2.16-2.6-3.33a16.14,16.14,0,0,1-2.09-3.86,9.71,9.71,0,0,1-.57-4.36,7.49,7.49,0,0,1,1.7-3.91,5.55,5.55,0,0,1,3.61-2,3.22,3.22,0,0,1,2,.41,2.15,2.15,0,0,1,1,1.75,1.91,1.91,0,0,1-1.09,1.64,2.48,2.48,0,0,1-1.9.18,6,6,0,0,1-2.82-2.16,12.45,12.45,0,0,1-2.41-5.82,19,19,0,0,1,0-5.2,33,33,0,0,1,.71-3.87c.24-1,.46-1.85.61-2.4.07-.26.13-.46.18-.62a.8.8,0,0,1,.07-.21s0,.08,0,.22-.08.37-.14.63l-.54,2.41a37.25,37.25,0,0,0-.64,3.86,19.07,19.07,0,0,0,.1,5.14,12.28,12.28,0,0,0,2.4,5.66,5.66,5.66,0,0,0,2.65,2.05,2.23,2.23,0,0,0,1.66-.17,1.57,1.57,0,0,0,.9-1.34,1.8,1.8,0,0,0-.86-1.45,2.87,2.87,0,0,0-1.79-.35,5.18,5.18,0,0,0-3.36,1.87,7.12,7.12,0,0,0-1.61,3.72,9.25,9.25,0,0,0,.56,4.18,15.74,15.74,0,0,0,2,3.77c.83,1.15,1.75,2.22,2.59,3.33a16.46,16.46,0,0,1,2.16,3.49,7.48,7.48,0,0,1,.59,3.91,9.12,9.12,0,0,1-1.35,3.51,19.68,19.68,0,0,1-2.16,2.79,36.06,36.06,0,0,0-4.08,4.74,8.79,8.79,0,0,0-1.49,4.83,9.57,9.57,0,0,0,.78,3.78,8.81,8.81,0,0,0,1.29,2.09C146.13,200.35,146.34,200.56,146.33,200.57Z" style="fill:#263238"></path><path d="M151,94.28c-8.92-1.19-15.49,3.48-18.42,10.61s-1.49,15.48,2.23,22.23c2.06,3.75,5.15,7.36,9.35,8.22a12.09,12.09,0,0,0,9.77-2.79,26.41,26.41,0,0,0,6.34-8.3c2.95-5.5,4.72-11.72,4-17.92-.59-5.44-6.17-11.24-13.3-12" style="fill:#FFC100"></path><path d="M145.52,134.76c-.33.46-1.05,2.07-1.3,2.57a.9.9,0,0,0-.12.77.63.63,0,0,0,.78.26,1.76,1.76,0,0,0,.71-.56.86.86,0,1,0,1.67-.37,1.63,1.63,0,0,0,.67.58.53.53,0,0,0,.7-.37.8.8,0,0,0-.23-.51c-.59-.74-1.18-1.47-1.76-2.21" style="fill:#FFC100"></path><path d="M618.1,297.87a5,5,0,0,1-.62-.6,8.44,8.44,0,0,1-1.36-2.08,9.56,9.56,0,0,1-.86-3.84,9,9,0,0,1,1.48-5,36,36,0,0,1,4.07-4.81,19.42,19.42,0,0,0,2.11-2.75,8.65,8.65,0,0,0,1.28-3.39,7,7,0,0,0-.57-3.72,16.35,16.35,0,0,0-2.12-3.41c-.84-1.09-1.76-2.16-2.6-3.33a16,16,0,0,1-2.09-3.86,9.71,9.71,0,0,1-.57-4.36,7.42,7.42,0,0,1,1.71-3.91,5.54,5.54,0,0,1,3.6-2,3.21,3.21,0,0,1,2,.41,2.15,2.15,0,0,1,1,1.75,1.91,1.91,0,0,1-1.09,1.64,2.53,2.53,0,0,1-1.9.19,6,6,0,0,1-2.81-2.17,12.57,12.57,0,0,1-2.42-5.82,18.54,18.54,0,0,1,0-5.2,35.44,35.44,0,0,1,.7-3.87c.24-1.05.46-1.85.61-2.4.07-.26.13-.46.18-.62a.8.8,0,0,1,.07-.21.89.89,0,0,1,0,.22l-.14.63-.54,2.41a38.19,38.19,0,0,0-.64,3.86,19.07,19.07,0,0,0,.1,5.14,12.31,12.31,0,0,0,2.4,5.67,5.69,5.69,0,0,0,2.65,2,2.23,2.23,0,0,0,1.66-.17,1.55,1.55,0,0,0,.9-1.34,1.78,1.78,0,0,0-.86-1.45,2.86,2.86,0,0,0-1.79-.35,5.16,5.16,0,0,0-3.35,1.87,7.05,7.05,0,0,0-1.62,3.72,9.31,9.31,0,0,0,.56,4.19,15.67,15.67,0,0,0,2,3.76c.83,1.15,1.75,2.22,2.59,3.33a16.46,16.46,0,0,1,2.16,3.49,7.48,7.48,0,0,1,.59,3.91,9.2,9.2,0,0,1-1.34,3.51,19.9,19.9,0,0,1-2.17,2.79,36.06,36.06,0,0,0-4.08,4.74,8.79,8.79,0,0,0-1.49,4.83,9.39,9.39,0,0,0,.79,3.78,8.84,8.84,0,0,0,1.28,2.09C617.9,297.65,618.11,297.86,618.1,297.87Z" style="fill:#263238"></path><path d="M622.72,191.59c-8.92-1.2-15.48,3.47-18.42,10.6s-1.49,15.48,2.23,22.23c2.06,3.75,5.15,7.36,9.35,8.22a12.12,12.12,0,0,0,9.78-2.79,26.53,26.53,0,0,0,6.33-8.3c3-5.5,4.72-11.72,4-17.92-.6-5.44-6.18-11.23-13.31-12" style="fill:#455a64"></path><path d="M617.29,232.06c-.33.46-1,2.07-1.3,2.58a.91.91,0,0,0-.12.76.64.64,0,0,0,.79.26,1.8,1.8,0,0,0,.7-.56.86.86,0,1,0,1.67-.37,1.62,1.62,0,0,0,.67.58.53.53,0,0,0,.7-.37.75.75,0,0,0-.23-.51c-.59-.73-1.17-1.47-1.76-2.21" style="fill:#455a64"></path><path d="M445.15,382a7.61,7.61,0,0,1-.76-.74,10.23,10.23,0,0,1-1.67-2.54,11.62,11.62,0,0,1-1.05-4.7,10.94,10.94,0,0,1,1.8-6.09,44,44,0,0,1,5-5.9A23,23,0,0,0,451,358.7a10.41,10.41,0,0,0,1.56-4.12,8.57,8.57,0,0,0-.7-4.54,19.43,19.43,0,0,0-2.59-4.16c-1-1.34-2.15-2.65-3.18-4.08a19.58,19.58,0,0,1-2.55-4.73,11.76,11.76,0,0,1-.71-5.34,9.13,9.13,0,0,1,2.1-4.81,6.74,6.74,0,0,1,4.42-2.43,3.85,3.85,0,0,1,2.48.5,2.66,2.66,0,0,1,1.26,2.17,2.36,2.36,0,0,1-1.35,2,3.11,3.11,0,0,1-2.35.23,7.34,7.34,0,0,1-3.45-2.66,15.26,15.26,0,0,1-3-7.12,22.8,22.8,0,0,1,0-6.38,42.37,42.37,0,0,1,.86-4.73c.3-1.28.57-2.26.76-2.93.09-.31.16-.56.21-.76s.09-.26.1-.25a1.27,1.27,0,0,1,0,.26c-.05.21-.1.46-.17.77l-.66,3a44.12,44.12,0,0,0-.77,4.71,23.13,23.13,0,0,0,.12,6.29,15.07,15.07,0,0,0,2.93,6.91,6.83,6.83,0,0,0,3.24,2.49,2.68,2.68,0,0,0,2-.2,1.9,1.9,0,0,0,1.09-1.62,2.15,2.15,0,0,0-1-1.74,3.41,3.41,0,0,0-2.17-.43,6.32,6.32,0,0,0-4.09,2.28,8.7,8.7,0,0,0-2,4.53,11.41,11.41,0,0,0,.69,5.11,19.07,19.07,0,0,0,2.48,4.6c1,1.4,2.13,2.71,3.16,4.07a20,20,0,0,1,2.65,4.28,9,9,0,0,1,.72,4.79,11.15,11.15,0,0,1-1.65,4.3,22.91,22.91,0,0,1-2.65,3.41,44.43,44.43,0,0,0-5,5.81,10.64,10.64,0,0,0-1.82,5.89,11.36,11.36,0,0,0,1,4.61,10.49,10.49,0,0,0,1.56,2.56C444.91,381.75,445.17,382,445.15,382Z" style="fill:#263238"></path><path d="M450.81,252c-10.91-1.46-18.95,4.26-22.53,13s-1.83,18.94,2.72,27.19c2.53,4.6,6.3,9,11.44,10.06,4.19.86,8.62-.73,12-3.42s5.72-6.37,7.74-10.14c3.62-6.73,5.77-14.34,4.94-21.93-.73-6.65-7.55-13.74-16.27-14.73" style="fill:#FFC100"></path><path d="M444.16,301.53c-.4.56-1.28,2.53-1.59,3.15a1.1,1.1,0,0,0-.14.94.78.78,0,0,0,1,.31,2.26,2.26,0,0,0,.86-.68,1,1,0,1,0,2-.46,1.89,1.89,0,0,0,.83.71.65.65,0,0,0,.85-.45,1,1,0,0,0-.28-.62l-2.16-2.71" style="fill:#FFC100"></path></g></svg>