<svg xmlns="http://www.w3.org/2000/svg" viewBox="0 0 500 500"><g id="freepik--background-complete--inject-2"><rect x="103.75" y="112.2" width="377.37" height="251.58" rx="11.09" style="fill:#f5f5f5"></rect><rect x="109.9" y="118.34" width="364.05" height="238.6" rx="11.09" style="fill:#e0e0e0"></rect><rect x="115.38" y="191.79" width="349.99" height="131.81" style="fill:#fff"></rect><rect x="36.82" y="188.78" width="377.37" height="251.58" rx="11.09" style="fill:#f5f5f5"></rect><rect x="42.97" y="194.93" width="364.05" height="238.6" rx="11.09" style="fill:#e0e0e0"></rect><rect x="48.45" y="268.37" width="349.99" height="131.81" style="fill:#fff"></rect></g><g id="freepik--Plant--inject-2"><path d="M363.45,158.4s.32.09.92.29,1.49.48,2.69.78a31.38,31.38,0,0,0,10.69.76,42.5,42.5,0,0,0,7.62-1.47,48,48,0,0,0,8.63-3.3,53.19,53.19,0,0,0,17.37-14.11,16.22,16.22,0,0,0,3.08-5.51,8.43,8.43,0,0,0-.49-6.38,7,7,0,0,0-5.59-3.38,12.76,12.76,0,0,0-6.93,1.34,25.67,25.67,0,0,1-3.5,1.36,6.81,6.81,0,0,1-3.85,0,4.11,4.11,0,0,1-2.88-2.64,4.81,4.81,0,0,1,.66-3.92,7.29,7.29,0,0,1,3-2.65,29.39,29.39,0,0,1,3.76-1.49,51.41,51.41,0,0,0,7.45-3.33,50.64,50.64,0,0,0,7-4.6,16.78,16.78,0,0,0,3.06-2.89,6,6,0,0,0,1.48-3.79,4,4,0,0,0-2.19-3.27,9.52,9.52,0,0,0-4.14-1,24.51,24.51,0,0,1-4.47-.47,5,5,0,0,1-3.57-2.86,2.72,2.72,0,0,1,.23-2.4,5.88,5.88,0,0,1,1.72-1.62q1.86-1.29,3.65-2.73a59.67,59.67,0,0,0,6.69-6.34,29.9,29.9,0,0,0,5.36-7.57,9.22,9.22,0,0,0,.81-4.5,6.79,6.79,0,0,0-1.87-4.12,9.07,9.07,0,0,0-8.5-2.51,14.9,14.9,0,0,0-7.73,4.78c-4.15,4.63-6.08,10.64-9.46,15.68a24.93,24.93,0,0,1-2.82,3.56,7.9,7.9,0,0,1-1.76,1.48,2.37,2.37,0,0,1-2.36.16,2.94,2.94,0,0,1-1.3-2,8.24,8.24,0,0,1-.09-2.26,6,6,0,0,0-.14-2.09,3.84,3.84,0,0,0-1.06-1.73,5.23,5.23,0,0,0-3.78-1.36,5.93,5.93,0,0,0-3.65,1.7A9.27,9.27,0,0,0,375,85.42a14.83,14.83,0,0,0-.88,4c-.24,2.73-.13,5.48-.17,8.17s0,5.37,0,8,.22,5.26-.65,7.77a4.57,4.57,0,0,1-2.61,2.84,5.54,5.54,0,0,1-3.79-.14,15,15,0,0,1-5.95-4.23,15.83,15.83,0,0,1-2-2.94,30.57,30.57,0,0,0-1.69-3,4.79,4.79,0,0,0-2.51-2,4.44,4.44,0,0,0-3.1.31,6.38,6.38,0,0,0-2.4,2,7.1,7.1,0,0,0-1.18,2.84,44.72,44.72,0,0,0-.36,6.09c-.08,2-.09,3.92-.06,5.81a73.49,73.49,0,0,0,.95,10.58,52.27,52.27,0,0,0,2.23,9c.42,1.36,1,2.59,1.49,3.8s1.08,2.29,1.68,3.29a34.28,34.28,0,0,0,6.66,8.4,12.89,12.89,0,0,0,1.23,1.06l.92.74.73.61s-.26-.18-.76-.57l-.94-.72a12.45,12.45,0,0,1-1.25-1,33.9,33.9,0,0,1-6.76-8.38c-.61-1-1.13-2.13-1.72-3.3s-1.09-2.44-1.51-3.81a51.62,51.62,0,0,1-2.28-9,72.44,72.44,0,0,1-1-10.63c0-1.89,0-3.83,0-5.83a44.64,44.64,0,0,1,.35-6.14,7.66,7.66,0,0,1,1.23-3,6.75,6.75,0,0,1,2.55-2.12,4.83,4.83,0,0,1,3.37-.34,5.21,5.21,0,0,1,2.73,2.13,32.48,32.48,0,0,1,1.72,3,15.38,15.38,0,0,0,2,2.86,14.73,14.73,0,0,0,5.77,4.1,5.21,5.21,0,0,0,3.5.13,4.12,4.12,0,0,0,2.34-2.58c.82-2.36.55-5,.61-7.62s0-5.29,0-8-.08-5.43.16-8.22a15.37,15.37,0,0,1,.91-4.14,9.72,9.72,0,0,1,2.36-3.59,6.44,6.44,0,0,1,4-1.83A5.74,5.74,0,0,1,385,81.31a4.25,4.25,0,0,1,1.2,2,6.62,6.62,0,0,1,.16,2.25,7.9,7.9,0,0,0,.08,2.13,2.47,2.47,0,0,0,1.05,1.64,1.89,1.89,0,0,0,1.87-.16A7.67,7.67,0,0,0,391,87.73a24.78,24.78,0,0,0,2.76-3.49c3.33-5,5.25-11,9.49-15.75a15.44,15.44,0,0,1,8-4.94,9.58,9.58,0,0,1,9,2.67,7.29,7.29,0,0,1,2,4.42,9.76,9.76,0,0,1-.85,4.75,30,30,0,0,1-5.46,7.72,61.61,61.61,0,0,1-6.75,6.39c-1.19,1-2.43,1.88-3.68,2.75a5.58,5.58,0,0,0-1.58,1.47,2.2,2.2,0,0,0-.18,2A4.52,4.52,0,0,0,407,98.22a24.36,24.36,0,0,0,4.38.46,10,10,0,0,1,4.36,1.1,5,5,0,0,1,1.71,1.51,4.22,4.22,0,0,1,.72,2.17,6.38,6.38,0,0,1-1.59,4.11,17,17,0,0,1-3.13,3,52.26,52.26,0,0,1-7.06,4.63,51.24,51.24,0,0,1-7.52,3.35,28.9,28.9,0,0,0-3.71,1.46,6.84,6.84,0,0,0-2.86,2.48,4.38,4.38,0,0,0-.62,3.55,3.68,3.68,0,0,0,2.58,2.35,6.43,6.43,0,0,0,3.61,0,24,24,0,0,0,3.44-1.33,13.33,13.33,0,0,1,7.15-1.36,8.53,8.53,0,0,1,3.42,1.09,6.64,6.64,0,0,1,2.47,2.52,8.8,8.8,0,0,1,.51,6.68,16.55,16.55,0,0,1-3.16,5.63,53.35,53.35,0,0,1-17.53,14.14,48.11,48.11,0,0,1-8.69,3.28,41.91,41.91,0,0,1-7.68,1.43,31.11,31.11,0,0,1-10.73-.86,25.32,25.32,0,0,1-2.68-.83C363.75,158.53,363.45,158.4,363.45,158.4Z" style="fill:#263238"></path><path d="M418,65.86s-.08.1-.26.26-.47.4-.8.7c-.71.61-1.75,1.51-3.06,2.71a100,100,0,0,0-10.31,10.93c-2,2.46-4.11,5.24-6.3,8.27s-4.5,6.3-6.81,9.82a118.93,118.93,0,0,0-6.7,11.36c-1.05,2-2,4.16-2.95,6.33s-1.92,4.38-2.9,6.61a245.44,245.44,0,0,0-9.76,25.63,118.92,118.92,0,0,0-4.66,21.89,87.11,87.11,0,0,0-.39,15.1c.12,1.78.24,3.16.36,4.1.05.44.08.8.11,1.06a3.17,3.17,0,0,1,0,.37,1.52,1.52,0,0,1-.08-.36c0-.26-.09-.62-.16-1.06-.15-.93-.3-2.31-.46-4.1a83.86,83.86,0,0,1,.24-15.14,117.08,117.08,0,0,1,4.58-22,238.36,238.36,0,0,1,9.74-25.7l2.9-6.61c1-2.16,1.91-4.31,3-6.35a120.71,120.71,0,0,1,6.75-11.4c2.33-3.52,4.66-6.77,6.86-9.8s4.33-5.81,6.36-8.26a94.7,94.7,0,0,1,10.46-10.84c1.33-1.18,2.39-2.06,3.11-2.65l.84-.66Z" style="fill:#263238"></path><path d="M383.46,109.67a5.78,5.78,0,0,1-.25-1.15c-.13-.74-.29-1.81-.47-3.15-.35-2.66-.71-6.36-1.1-10.43s-.79-7.77-1.19-10.42c-.19-1.32-.36-2.4-.48-3.14a5.74,5.74,0,0,1-.14-1.16,5.35,5.35,0,0,1,.33,1.13c.18.72.4,1.79.64,3.12.48,2.64.95,6.33,1.33,10.42s.7,7.66,1,10.44c.12,1.26.23,2.32.31,3.17A5.73,5.73,0,0,1,383.46,109.67Z" style="fill:#263238"></path><path d="M417.89,103.56a6.8,6.8,0,0,1-1.37.16c-.89.07-2.16.16-3.74.33-3.15.31-7.49.89-12.24,1.74s-9,1.82-12.1,2.61c-1.54.38-2.78.72-3.64.95a7.24,7.24,0,0,1-1.34.32,7,7,0,0,1,1.29-.51c.84-.28,2.07-.68,3.6-1.1,3-.88,7.33-1.9,12.1-2.76a121.42,121.42,0,0,1,12.3-1.6c1.58-.12,2.87-.17,3.76-.18A8.75,8.75,0,0,1,417.89,103.56Z" style="fill:#263238"></path><path d="M368.13,147.72a2.29,2.29,0,0,1-.23-.42c-.15-.34-.34-.75-.57-1.25-.5-1.09-1.18-2.68-2-4.66-1.63-3.95-3.69-9.48-5.89-15.61s-4.22-11.68-5.75-15.66l-1.84-4.71c-.2-.51-.36-.94-.49-1.29a1.4,1.4,0,0,1-.14-.46,2,2,0,0,1,.23.43c.16.33.35.74.58,1.24.49,1.09,1.17,2.68,2,4.66,1.62,4,3.69,9.48,5.89,15.62s4.21,11.67,5.75,15.65L367.5,146l.49,1.29A1.4,1.4,0,0,1,368.13,147.72Z" style="fill:#263238"></path><path d="M413.94,133.43l-.45.18-1.34.43-4.9,1.54c-4.14,1.3-9.84,3.16-16.14,5.23s-12,3.88-16.19,5.09c-2.08.61-3.77,1.09-4.95,1.39l-1.35.34a1.5,1.5,0,0,1-.49.09,1.83,1.83,0,0,1,.46-.18l1.33-.44,4.9-1.54c4.15-1.3,9.85-3.16,16.14-5.22s12-3.88,16.19-5.1c2.08-.61,3.78-1.08,5-1.39l1.36-.34A1.59,1.59,0,0,1,413.94,133.43Z" style="fill:#263238"></path><path d="M339.24,97.39a11.26,11.26,0,0,1,7.79,4.08,19.7,19.7,0,0,1,3.92,8.06c1.46,5.65.48,12.29-1.18,17.88-6.08-2.23-9.78-8.77-11.46-12.2-2.64-5.43-4.12-16.84.93-17.82" style="fill:#FFC100"></path><path d="M358.49,134.31a9.59,9.59,0,0,1-.37-9.61,12.73,12.73,0,0,1,7.72-6.09,5.34,5.34,0,0,1,4.5.25,4.09,4.09,0,0,1,1.55,3.86,8.26,8.26,0,0,1-1.79,3.92c-3,4-6.63,7.3-11.61,7.67" style="fill:#FFC100"></path><path d="M359,153.14a6.55,6.55,0,0,1-.27-1.17c-.15-.84-.35-1.92-.59-3.22a33.61,33.61,0,0,1-.58-10.78,20.49,20.49,0,0,1,4.09-10,13.49,13.49,0,0,1,2.33-2.32,8.59,8.59,0,0,1,.73-.52A1.07,1.07,0,0,1,365,125a22.39,22.39,0,0,0-3.1,3.17A21.23,21.23,0,0,0,358,138a36.15,36.15,0,0,0,.45,10.68c.21,1.36.37,2.47.47,3.23A6.67,6.67,0,0,1,359,153.14Z" style="fill:#263238"></path><path d="M341.14,106a2.81,2.81,0,0,1,.24.46c.16.35.36.8.62,1.36.52,1.19,1.27,2.92,2.17,5.06,1.8,4.28,4.2,10.23,6.71,16.86s4.64,12.69,6.12,17.09c.74,2.2,1.33,4,1.72,5.23l.43,1.43a2.59,2.59,0,0,1,.13.51,3.81,3.81,0,0,1-.21-.48c-.13-.37-.3-.83-.51-1.41-.45-1.27-1.08-3-1.84-5.18-1.56-4.38-3.73-10.41-6.24-17s-4.86-12.59-6.59-16.9c-.85-2.12-1.54-3.85-2.05-5.1l-.54-1.4A2,2,0,0,1,341.14,106Z" style="fill:#263238"></path><path d="M351.87,140.63a22.45,22.45,0,0,0-17.3-11c-1.81-.15-4,.14-4.79,1.75s.24,3.54,1.45,4.89a19.15,19.15,0,0,0,20.7,4.8" style="fill:#FFC100"></path><path d="M337.27,134.52a5.67,5.67,0,0,1,1.13,0,11.25,11.25,0,0,1,1.31.17c.51.1,1.1.16,1.73.34a21.07,21.07,0,0,1,2.05.58,22.35,22.35,0,0,1,2.28.9,23,23,0,0,1,8.76,6.88,20.93,20.93,0,0,1,1.39,2,19.93,19.93,0,0,1,1,1.87,16.8,16.8,0,0,1,.7,1.61,9.59,9.59,0,0,1,.44,1.25,5.31,5.31,0,0,1,.28,1.1c-.09,0-.51-1.53-1.69-3.83a20,20,0,0,0-1.06-1.81,22,22,0,0,0-1.4-2,25.24,25.24,0,0,0-3.91-3.89,26,26,0,0,0-4.7-2.88,21.1,21.1,0,0,0-2.24-.91,18.11,18.11,0,0,0-2-.63C338.87,134.71,337.26,134.61,337.27,134.52Z" style="fill:#263238"></path></g><g id="freepik--Card--inject-2"><rect x="75.48" y="148.2" width="377.37" height="251.58" rx="11.09" style="fill:#f5f5f5"></rect><rect x="81.63" y="154.35" width="364.05" height="238.6" rx="11.09" style="fill:#FFC100"></rect><rect x="87.11" y="227.8" width="349.99" height="131.81" style="fill:#fff"></rect><path d="M273.73,182.59v24.67H268V197.15H256.81v10.11H251.1V182.59h5.71v9.73H268v-9.73Z" style="fill:#fff"></path><path d="M298.69,202.68v4.58h-19.1V182.59h18.64v4.58h-13v5.36h11.45V197H285.26v5.71Z" style="fill:#fff"></path><path d="M303.24,182.59H309v20h12.37v4.65H303.24Z" style="fill:#fff"></path><path d="M324.53,182.59h5.71v20h12.38v4.65H324.53Z" style="fill:#fff"></path><path d="M343.85,194.93c0-7.34,5.71-12.76,13.5-12.76s13.5,5.39,13.5,12.76-5.74,12.76-13.5,12.76S343.85,202.26,343.85,194.93Zm21.22,0a7.72,7.72,0,1,0-7.72,7.89A7.53,7.53,0,0,0,365.07,194.93Z" style="fill:#fff"></path></g><g id="freepik--Character--inject-2"><path d="M73.09,276.16l-17,31.28,1.4-75.95a26.61,26.61,0,0,1,4.71-13.44,27.79,27.79,0,0,1,4.09-4.89c2-1.69,4.67-3.83,6.5-4.55,2.27-.9,2.34-4.05.23-4.6s-8.43,1.77-13.93,7.41-4.26-6.55-3.88-11,.89-18.25-.39-19.41c-1.87-1.71-4.1,0-4.37,4.48s-2,17.75-4.37,17.5S46,180.12,46,180.12s1.26-4.78-1.43-5.16c-4.86-.69-5.45,23.49-5.45,25.8,0,1.6-2.55,1.42-2.46-.3s2.74-22.54-2.2-23.28c-3.79-.57-.67,19.89-3.61,24s-.78-15.8-4.43-16.2c-1.35-.15-2.39-.07-2,11.47.22,6.21,3,15.49,2.5,27.47l-.12,3.1h0C23.93,249.43,11,367,55.51,363.81c0,0,33.77-4.69,52.54-66.15Z" style="fill:#ffbe9d"></path><path d="M35,218.77c0,.11.75.2,1.86.78a7,7,0,0,1,3.29,3.62l.35.89.39-.87a11.18,11.18,0,0,1,2.31-3.33,13.16,13.16,0,0,1,6.86-3.69c2-.41,3.3-.18,3.32-.34a6.26,6.26,0,0,0-3.42-.26,12.56,12.56,0,0,0-7.38,3.69,11.57,11.57,0,0,0-2.42,3.61h.74a7,7,0,0,0-3.83-3.77A3.36,3.36,0,0,0,35,218.77Z" style="fill:#eb996e"></path><polyline points="276.11 290.77 295.02 326.39 312.29 359.61 273.24 359.61 249.04 309.74" style="fill:#ffbe9d"></polyline><path d="M128,359.61c3.72-12.67,1.28-14.67-2.72-27.25l-8.6-27-18.82,27.8h0L57.85,301h0l13.27-29.93c24.79-56.18,65-52.19,65-52.19l51.24-9.78s32.78-3,54,16.26c6.92,6.28,38.35,62.86,38.35,62.86l-38.62,27.06-9.47-16.15L229,321.08c-2.06,12-1.93,27.27,2.62,38.53" style="fill:#455a64"></path><path d="M123.54,238c0,.14-8.43,2-18.88,4.15s-19,3.78-19,3.64,8.42-2,18.88-4.15S123.51,237.84,123.54,238Z" style="fill:#fafafa"></path><path d="M236.21,221.82c0,.15-8.27,1.8-18.54,3.69s-18.61,3.32-18.64,3.17,8.28-1.79,18.55-3.68S236.19,221.68,236.21,221.82Z" style="fill:#fafafa"></path><path d="M252,240.11c0,.14-12.87,3-28.81,6.47s-28.88,6.1-28.91,6,12.86-3,28.8-6.47S251.93,240,252,240.11Z" style="fill:#fafafa"></path><path d="M267.79,268.3l-.54.11-1.58.28-6.11,1-22.47,3.68-74.18,11.9c-29,4.59-55.23,8.68-74.25,11.54-9.5,1.44-17.2,2.56-22.53,3.3-2.66.36-4.73.63-6.14.78a6.79,6.79,0,0,1-2.14.12,12.32,12.32,0,0,0,2.13-.22l6.12-.88,22.51-3.46,74.22-11.7L237,273l22.5-3.52,6.12-.93,1.6-.23Z" style="fill:#fafafa"></path><path d="M230.06,312.08c0,.14-23.82,3.37-53.23,7.2s-53.27,6.82-53.29,6.68,23.81-3.36,53.23-7.2S230,311.94,230.06,312.08Z" style="fill:#fafafa"></path><path d="M225.51,349.52c0,.15-21.32.13-47.6,0s-47.61-.4-47.61-.55,21.31-.13,47.61,0S225.51,349.38,225.51,349.52Z" style="fill:#fafafa"></path><path d="M138.19,261.14a3.47,3.47,0,0,1-.69.15l-2,.33-7.3,1.16c-6.17,1-14.68,2.41-24,4.16s-17.82,3.5-23.93,4.81L73,273.3l-2,.41a3.21,3.21,0,0,1-.7.11,3.51,3.51,0,0,1,.67-.21L73,273.1c1.7-.42,4.16-1,7.2-1.71,6.09-1.41,14.53-3.21,23.91-5s17.9-3.11,24.08-4c3.1-.45,5.6-.79,7.34-1l2-.23A3.32,3.32,0,0,1,138.19,261.14Z" style="fill:#fafafa"></path><path d="M182.18,99.77c-1.23,14.82,18.63,25.34,16.86,40.1-.49,4.1-2.62,8.56-.45,12.08,2.6,4.23,8.93,3.34,13.55,5.17,5.69,2.25,8.6,9.1,7.74,15.15s-4.78,11.28-9.39,15.31a46,46,0,0,1-26,11.17c-4.46.4-9.12.08-13.1-2s-7.13-6.09-7.15-10.57" style="fill:#263238"></path><path d="M184.14,217.6c-2.64-12.65-5.19-26-5.19-26s15.71-6.16,14.58-28.11c-1.07-20.94-14.32-67-14.32-67h0c-25.45-4.59-51.86,7.65-64.6,30h0l23.13,102.34c2.68,11.88,15,19,27.73,16.07h0C178.3,241.84,186.65,229.65,184.14,217.6Z" style="fill:#ffbe9d"></path><path d="M180.93,134.3a2.79,2.79,0,0,1-2.05,3.3,2.66,2.66,0,0,1-3.33-1.86,2.79,2.79,0,0,1,2-3.31A2.67,2.67,0,0,1,180.93,134.3Z" style="fill:#263238"></path><path d="M184,131.55c-.26.43-2.65-.66-5.58,0s-4.77,2.55-5.16,2.26c-.19-.13,0-.84.81-1.72a7.61,7.61,0,0,1,4-2.25,7.32,7.32,0,0,1,4.53.47C183.66,130.78,184.1,131.36,184,131.55Z" style="fill:#263238"></path><path d="M151,141.17a2.79,2.79,0,0,1-2,3.31,2.67,2.67,0,0,1-3.33-1.87,2.78,2.78,0,0,1,2-3.3A2.66,2.66,0,0,1,151,141.17Z" style="fill:#263238"></path><path d="M154,138.39c-.26.42-2.65-.67-5.58,0s-4.76,2.55-5.16,2.26c-.19-.12,0-.84.81-1.72a7.72,7.72,0,0,1,4-2.25,7.41,7.41,0,0,1,4.54.47C153.71,137.62,154.16,138.19,154,138.39Z" style="fill:#263238"></path><path d="M169.58,157.34c-.05-.17,1.71-.87,4.58-1.87.73-.24,1.41-.53,1.43-1.07a3.94,3.94,0,0,0-1-2.11l-3.42-5.23c-4.8-7.47-8.44-13.67-8.13-13.86s4.43,5.71,9.22,13.17l3.34,5.28a4.49,4.49,0,0,1,1,2.86,1.91,1.91,0,0,1-1,1.35,5.19,5.19,0,0,1-1.23.45C171.47,157.1,169.63,157.5,169.58,157.34Z" style="fill:#263238"></path><path d="M179,191.6a55.27,55.27,0,0,1-30-1.57s10,13.13,30.83,6.64Z" style="fill:#eb996e"></path><path d="M169.84,164.66a5.39,5.39,0,0,0-5.15-.95,4.87,4.87,0,0,0-2.95,2.49,3.11,3.11,0,0,0,.5,3.54,3.62,3.62,0,0,0,4,.16,11.39,11.39,0,0,0,3.28-3,3.36,3.36,0,0,0,.65-1,1,1,0,0,0-.24-1.1" style="fill:#FFC100"></path><path d="M161.38,161.19c.48-.13,1.16,3.05,4.36,4.74s6.51.61,6.63,1c.09.19-.62.78-2.05,1.12a8.07,8.07,0,0,1-5.5-.7,7,7,0,0,1-3.44-4C161,162.08,161.16,161.22,161.38,161.19Z" style="fill:#263238"></path><path d="M127.38,148.2a12.9,12.9,0,0,0-6.75,1.89,9,9,0,0,0-4,5.6,9.42,9.42,0,0,0,1.38,6.8,15.93,15.93,0,0,0,5.08,4.89,10.76,10.76,0,0,0,4.7,1.86,5.16,5.16,0,0,0,4.58-1.73" style="fill:#ffbe9d"></path><path d="M129,162.24c.28,0-.42,1.61-2.61,1.49a4.52,4.52,0,0,1-3-1.7,10.27,10.27,0,0,1-1.93-3.53,6.05,6.05,0,0,1,.11-4.2,4,4,0,0,1,2.61-2.39c2.13-.5,3.1.84,2.87.93s-1.13-.38-2.45.25-2.22,2.66-1.44,4.89,2.1,4.23,3.46,4.5S128.86,162.08,129,162.24Z" style="fill:#eb996e"></path><path d="M173,91.8a15.78,15.78,0,0,1-3.24,18.63c-5.08,4.57-12.44,5.22-19,7.13s-13.59,6.74-13.29,13.57c.18,4.14,3.12,8.12,2.06,12.12-1.23,4.69-7.22,6.69-8.91,11.23-2.71,7.3,7.21,13.87,6.77,21.64-.26,4.61-4.16,8.37-4.59,13-.62,6.54,5.8,13.49,2.23,19-2.74,4.24-9.12,3.63-13.8,1.79s-9.8-4.46-14.49-2.62c-2.82,1.1-4.81,3.62-7.32,5.32a14,14,0,0,1-21.61-14.23c.76-4,3.18-7.43,5.13-11s3.5-7.74,2.33-11.63c-.91-3-3.25-5.26-5.11-7.76s-3.31-5.79-2.11-8.66c2.1-5.05,10.15-4.61,13.07-9.23,4-6.35-5.28-14.43-2.9-21.55,2.7-8.06,17-6.62,19.72-14.68,1-2.93,0-6.16.27-9.24.71-7,8.1-11.55,15.07-12.76s14.25-.31,21.09-2.11c3.74-1,7.24-2.77,10.92-4s7.76-1.84,11.4-.49,6.55,5.16,5.82,9" style="fill:#263238"></path><path d="M169.85,106.82a26.5,26.5,0,0,0,19.38,13c-.13-5.36-.41-10.76-1.86-15.91S183.2,93.77,179,90.5s-10.14-4.63-15.12-2.68" style="fill:#263238"></path><path d="M195.6,209.61c1.81.24,11.93,59.6-26.92,66.19-36.77,6.25-48.14-54.74-48.14-54.74S145.31,202.89,195.6,209.61Z" style="fill:#ffbe9d"></path><path d="M173.34,128.34c.23.43,2.23-.21,4.72-.49s4.57-.14,4.69-.61-2-1.43-4.89-1.09S173.11,128,173.34,128.34Z" style="fill:#263238"></path><path d="M143.65,132.94c.09-.08.08-.25,0-.52l0,.45a20.42,20.42,0,0,1,4.52-1.66c2.76-.6,5.1.06,5.29-.39.08-.21-.42-.68-1.44-1a7.84,7.84,0,0,0-4.19-.24,6.86,6.86,0,0,0-4.6,2.87l-.18.36.15.08C143.4,133,143.57,133,143.65,132.94Z" style="fill:#263238"></path><path d="M126.87,131.21a45,45,0,0,1-6.78-.43,42.89,42.89,0,0,1-6.72-.95,45.06,45.06,0,0,1,6.78.43A44.89,44.89,0,0,1,126.87,131.21Z" style="fill:#FFC100"></path><path d="M123.57,135a16.12,16.12,0,0,1-5.13.28,16.08,16.08,0,0,1-5.06-.83c0-.14,2.29.16,5.09.31S123.56,134.84,123.57,135Z" style="fill:#FFC100"></path><path d="M173.33,103.91a2.58,2.58,0,0,1-.2.62,5.71,5.71,0,0,1-1,1.58,9.69,9.69,0,0,1-6.2,2.74,18.58,18.58,0,0,1-4.75-.08c-1.69-.21-3.48-.52-5.36-.66a13.25,13.25,0,0,0-5.79.63,11.66,11.66,0,0,0-4.84,3.89c-1.37,1.7-2.52,3.52-3.87,5.13a16.24,16.24,0,0,1-2.21,2.18,11.41,11.41,0,0,1-2.58,1.5,26.75,26.75,0,0,1-5.28,1.37,28.14,28.14,0,0,0-4.55,1.09,9.49,9.49,0,0,0-5.19,4,6.52,6.52,0,0,0-.67,2.36,2.48,2.48,0,0,1,0-.65,5.37,5.37,0,0,1,.51-1.8,9.51,9.51,0,0,1,5.24-4.31,28.32,28.32,0,0,1,4.6-1.17,25.83,25.83,0,0,0,5.17-1.39,11.74,11.74,0,0,0,4.59-3.56c1.32-1.57,2.46-3.4,3.85-5.13a12.26,12.26,0,0,1,5.07-4,13.72,13.72,0,0,1,6-.63c3.83.34,7.18,1.25,10,.86A9.63,9.63,0,0,0,172,106,8,8,0,0,0,173.33,103.91Z" style="fill:#455a64"></path><path d="M89.88,213.52a7,7,0,0,0,.89-.25,3.51,3.51,0,0,0,1.78-1.85,5.41,5.41,0,0,0,.08-4.07c-.48-1.56-1.41-3.22-2.12-5.2a26.56,26.56,0,0,1-1.43-14.53,19.43,19.43,0,0,1,3.66-7.89,16.77,16.77,0,0,1,3.36-3.2,19.88,19.88,0,0,1,4.22-2.19,13.2,13.2,0,0,0,4-2.28,5,5,0,0,0,1.54-3.93c-.17-2.91-1.76-5.58-1.71-8.46a8.73,8.73,0,0,1,1.06-4,14.7,14.7,0,0,1,2.28-3.1,51.86,51.86,0,0,1,5.14-4.53c3.2-2.64,5.19-5.51,5.72-7.77a7.86,7.86,0,0,0,0-3.56.74.74,0,0,1,.08.23c0,.15.11.38.17.68a7,7,0,0,1-.09,2.7,10.91,10.91,0,0,1-1.81,3.87,23.15,23.15,0,0,1-3.86,4.13,53.72,53.72,0,0,0-5.06,4.54,14.54,14.54,0,0,0-2.2,3,8.34,8.34,0,0,0-1,3.76,13.91,13.91,0,0,0,.77,4.08,19.1,19.1,0,0,1,1,4.36,5.48,5.48,0,0,1-1.69,4.33,13.54,13.54,0,0,1-4.15,2.38A19.87,19.87,0,0,0,96.4,177a16.29,16.29,0,0,0-3.26,3.1,19,19,0,0,0-3.59,7.67,26.56,26.56,0,0,0,1.3,14.3c.68,2,1.59,3.63,2.06,5.25a7.49,7.49,0,0,1,.32,2.32,4.89,4.89,0,0,1-.49,1.92,3.59,3.59,0,0,1-1.93,1.86A2,2,0,0,1,89.88,213.52Z" style="fill:#455a64"></path></g><g id="freepik--Name--inject-2"><path d="M276.79,330.65a7.9,7.9,0,0,0-1.46,0c0-.26-.38-.45-.44-.31-.25.56-.68.29-1,.21a3.67,3.67,0,0,1-2.15-1c1,0,1.65,1.05,2.72.56-1.28-.72-2.44-1.47-3.71-2.07a2.47,2.47,0,0,1-1.56-3,12.82,12.82,0,0,1,3.85-7.38c1.77-1.72,3.54-3.45,5.46-5A200.18,200.18,0,0,1,297,299.24c2.56-1.64,5.18-3.17,7.75-4.73a3.15,3.15,0,0,0,1.22-1.38c.8-1.38,1.21-3,2-4.34,1-1.68,1-3.57,1.49-5.34.27-.95.53-1.9.76-2.84a10,10,0,0,1,.48-1.46c.57-1.17,1.18-2.35,1.93-3.77,0,.51.09.76.08,1,.42-.07.59-.83,1.18-.38a4,4,0,0,0,.31-.73l-.51.08c0-.17,0-.3,0-.43.08-.53.29-1,.93-1.06a3.41,3.41,0,0,1,1.11.19c.14.06.18.31.25.47-.21.26-.43.47-.76.82a8.1,8.1,0,0,0,1-.13,1.45,1.45,0,0,1-.27,1.17,9.11,9.11,0,0,0-1.43,2.18c-1.59,4.28-3.12,8.63-4.66,12.94,0,0,0,.13,0,.34.17,0,.44.05.6,0,1.67-.54,3.29-1.13,4.91-1.71l4.34-1.52a6.35,6.35,0,0,0-.54-.42,7.09,7.09,0,0,1,5.24,0c-.11.58-.18,1.19-.29,1.77l-1,.31c-.39-.06-.86-.5-1.5,0,.24.13.42.18.61.28a4.31,4.31,0,0,0,.5.43c-1.06.05-2.09.1-3.11.19a12.59,12.59,0,0,0-4.17,1.24c-1.93.8-3.87,1.78-5.77,2.71a4,4,0,0,0-.72.6c-.34,0-.53.18-.46.55a11.25,11.25,0,0,0-1.46,3.78c-1.19,3.86-2.23,7.79-3.36,11.72a11.49,11.49,0,0,1-.41,1.37c-.28.6-.48.68-1.37.53-.13-.53-.31-1.06-.51-1.72l-.9.76a2.66,2.66,0,0,1,0-1.81l2.92-10.75c.15-.41.25-.81.43-1.49-.89.58-1.59,1-2.25,1.42-5.94,4-11.88,7.94-17.49,12.35a64.52,64.52,0,0,0-8.31,7.2,15.19,15.19,0,0,0-3.29,4.65c-.11.37-.21.77-.33,1.09a2.07,2.07,0,0,0,1.34,1,12.92,12.92,0,0,0,5.79.64,53.16,53.16,0,0,0,11.34-2.34c.74-.22,1.51-.52,2.29-.7a5.47,5.47,0,0,1,1.15-.11.3.3,0,0,0,.22.05c-.19.16-.33.35-.66.67a21,21,0,0,0,2.42-.67,41,41,0,0,1,4.9-1.79,1,1,0,0,0,.9-1c1.76-.78,3.49-1.46,5.16-2.31.39-.2.84-.36,1.23-.6a14.07,14.07,0,0,1,1.36-.83c.47-.26,1-.48,1.51-.74s1-.47,1.51-.69,1-.51,1.51-.73a16.28,16.28,0,0,1,1.51-.74l1.46-.76a16.28,16.28,0,0,0,1.51-.74c3.83-2,7.67-3.9,11.39-6.05,6-3.44,11.81-7.11,17.45-11.09a90.38,90.38,0,0,0,11.15-9.24,24.26,24.26,0,0,0,5-6.5,9.22,9.22,0,0,0,1.08-3.5,3.62,3.62,0,0,0-1.52-3.53,17.67,17.67,0,0,0-5.84-2.69,17.65,17.65,0,0,1-3.57-1c-.24-.13-.69,0-1.11.06,0-.12,0-.26,0-.56l-1.26,0c-1.63,0-3.27,0-4.92-.1-2.86-.11-5.72-.26-8.55-.42-.69,0-1.35-.11-2.05-.16a20.51,20.51,0,0,0-3.67.16c-2.91.33-5.85.53-8.82.74-4.63.37-9.23,1.12-13.83,1.91-5.73,1-11.37,2.22-17,3.74a100.8,100.8,0,0,0-12.31,4.19,21.33,21.33,0,0,0-2.57,1.3,9.85,9.85,0,0,0-1.36,1.1c-.08.83.74,1.33.15,2.12a8.92,8.92,0,0,1-.69-.74c-.21.51-.45.9-.59,1.35a2.42,2.42,0,0,0-.39.2,7.75,7.75,0,0,1-1.68-2.25,2.16,2.16,0,0,1,.23-1.94,9.14,9.14,0,0,1,3-2.84,33.4,33.4,0,0,1,8.72-3.83c1-.25,1.94-.76,2.92-1.06,3.08-.87,6.2-1.75,9.33-2.55a150.15,150.15,0,0,1,16.64-3.3,146.53,146.53,0,0,1,18.2-1.76c2.36-.06,4.7.05,7.07.07.86,0,1.67.45,2.54.25.38-.06.78,0,1.12-.23a1.45,1.45,0,0,1,.93-.08,83.08,83.08,0,0,1,10.34,1.06,26.87,26.87,0,0,1,3.15.79,31.08,31.08,0,0,1,3.46,1.13,27.44,27.44,0,0,1,2.9,1.35,6.68,6.68,0,0,1,3.63,5.31,12.21,12.21,0,0,1,.39,3.25,12.75,12.75,0,0,1-2.52,6.37,46,46,0,0,1-6.89,7.47,139.25,139.25,0,0,1-16.9,12.51c-2.64,1.66-5.3,3.23-7.95,4.85a1.09,1.09,0,0,1-.49.13l.67-.63c-.26,0-.44-.05-.52,0-.72.56-1.44,1.11-2.17,1.62s-1.16,1-1.79,1.39a245.25,245.25,0,0,1-24.54,12.14c-2.57,1.09-5.14,2.14-7.78,3.06a37.66,37.66,0,0,1-3.74,1c-.13-.27-.24-.43-.31-.59-1.07.57-2.08,1.18-3.16,1.67a30.16,30.16,0,0,1-10.91,2.35A14.87,14.87,0,0,1,276.79,330.65Zm15.6-4.59a1.26,1.26,0,0,0-1.53.83ZM315.7,317c3.49-1.68,6.94-3.39,10.43-5.11a7.18,7.18,0,0,0,1.2-.55c1.26-.91,2.56-1.86,3.82-2.81,0,0,0-.09.05-.18l-.83.14c.12-.28.26-.47.35-.7-.13,0-.31,0-.39,0A182.69,182.69,0,0,1,313,318,21.57,21.57,0,0,0,315.7,317Zm17-51c-2.56.14-5.08.23-7.62.46-1.11.1-2.18.37-3.47.59a68,68,0,0,0,11.47-.86C332.91,266,332.8,265.92,332.72,265.93Z" style="fill:#263238"></path><path d="M373.57,292.16a15.71,15.71,0,0,0-.68,1.83,17.93,17.93,0,0,0,2.28-2q3.54-3.78,7.13-7.56l1.77-2c.22-.21.5-.34.76-.56l.87,1.31c.52-.22.84-.88,1.54-.57.93.92.74,2,.54,3.14a17,17,0,0,1-.59,2.08l-2.29,7.67c-.08.27-.21.55-.32.87-.46-.4-.24-.86-.18-1.26s.25-1.08.41-1.62a9.29,9.29,0,0,0,.88-2.65c-.46.81-1.1,1.61-.88,2.65-.5.34-.57.92-.74,1.46s-.37,1.35-.61,2.17l-.8-.64a4.59,4.59,0,0,1-.49.39c-.2-.14-.4-.28-.63-.41.07-.79.43-1.49.07-2.29-.07-.2.09-.49.17-.76l1.31-4.19c0-.22.08-.48.21-1l-3.15,3.17a1.2,1.2,0,0,0-.37.1c-.44-.05-.52,0-.76.61a2.66,2.66,0,0,1,.62-.19c.35.07.53-.14.66-.42.34-.23.7-.42,1.25-.73a40.67,40.67,0,0,1-4.91,5c-.9.8-1.86,1.48-2.81,2.2a4.48,4.48,0,0,1-3.85.62,1.35,1.35,0,0,1-1.09-1.32,7.79,7.79,0,0,1,.57-4.18,43.24,43.24,0,0,1,2.23-4.34,40,40,0,0,1,6.31-8.06,10.68,10.68,0,0,1,3.06-2,7.43,7.43,0,0,0,1.29-1,7.79,7.79,0,0,1,1.43-.93c.84-.4,1.53.08,2.18.61-.18,0-.36-.06-.62-.1a6.79,6.79,0,0,0,0,.73c.38,0,.77,0,1.12,0a2.42,2.42,0,0,1,1.08,2.79c-.85.57-.94.55-1.62-.15-.15.11-.35.23-.54.39-.14-.1-.32-.16-.47-.26a4.59,4.59,0,0,1-.34-.46,11.82,11.82,0,0,0-1.42,1c-1.42,1.27-2.87,2.6-4.23,3.91-.79.69-1.47,1.5-2.2,2.23A21.81,21.81,0,0,0,373.57,292.16Zm-.9,4a5.1,5.1,0,0,1-.73.3C372.66,296.62,372.85,296.5,372.67,296.18Zm.68-.8c.26,0,.44.09.62.11a6.28,6.28,0,0,1,.26-.74Zm5.25-3a.2.2,0,0,1,.11.15l.2-.34Z" style="fill:#263238"></path><path d="M406,282.57c-.26,3-.49,5.89-.71,8.85l-.16,2.05a2.13,2.13,0,0,0,.15,1.14,2.07,2.07,0,0,1-.3,2.25,1.26,1.26,0,0,1-1.66.07,1.28,1.28,0,0,0-.56-.21c-.86-.24-1.13-.58-1.11-1.44l.32-4.66c.08-1.3.2-2.57.36-3.89a4.05,4.05,0,0,1,.48-2.24.68.68,0,0,0,.12-.53,9.07,9.07,0,0,0,.12-1.57,7.8,7.8,0,0,0-.32-1.33,3,3,0,0,0-1.78.66,26.5,26.5,0,0,0-7.78,8.27,2.34,2.34,0,0,1-.72.85c-.58.36-1,.12-1-.55a25.26,25.26,0,0,1,.12-2.6,21,21,0,0,1,1.24-5.29l.76-2.33c-.09,0-.25.09-.46.12a17.37,17.37,0,0,1,1.94-4.51,5,5,0,0,1,.73.52c-.32.4-.6.75-.88,1.14a3.32,3.32,0,0,1,.55,2.41c.46-1,1-1.9,1.46-3a2.07,2.07,0,0,1,.18.53c0,.17-.14.41-.09.45.68.74.14,1.35-.22,2a4.53,4.53,0,0,0-.43,1.54l2.07-1.52c-.09.49-.15.67-.21,1.07.59-.32,1.14-.63,1.73-1a2.46,2.46,0,0,0-.56-.24,3.16,3.16,0,0,1,5.19-.86A4.84,4.84,0,0,1,406,282.57Zm-12.19-3.32a2.47,2.47,0,0,1-.26.47c0,.09,0,.17,0,.29C393.86,279.84,394.13,279.62,393.8,279.25Z" style="fill:#263238"></path><path d="M410.26,285.83a17,17,0,0,0-.67,1.84,17.1,17.1,0,0,0,2.27-2c2.37-2.51,4.73-5,7.13-7.55l1.77-2c.22-.21.5-.35.77-.56l.87,1.31c.52-.22.83-.88,1.53-.57.94.92.74,2,.54,3.14a16.9,16.9,0,0,1-.58,2.08l-2.3,7.66c-.08.28-.2.55-.32.88-.46-.4-.24-.87-.17-1.26.12-.54.24-1.08.4-1.62a9,9,0,0,0,.88-2.65c-.46.81-1.1,1.61-.88,2.65-.5.34-.57.91-.73,1.46s-.37,1.35-.62,2.17l-.8-.64a4.59,4.59,0,0,1-.49.39,6.24,6.24,0,0,0-.63-.41c.08-.79.43-1.49.08-2.29-.08-.21.09-.49.17-.76l1.3-4.19c.05-.22.09-.49.22-1l-3.16,3.17a1.27,1.27,0,0,0-.37.1c-.44-.05-.51,0-.75.61a2.57,2.57,0,0,1,.61-.19.57.57,0,0,0,.66-.42c.35-.23.7-.42,1.25-.73a40.56,40.56,0,0,1-4.91,5c-.89.81-1.85,1.49-2.8,2.21a4.48,4.48,0,0,1-3.85.62,1.34,1.34,0,0,1-1.09-1.32,7.79,7.79,0,0,1,.57-4.18,44.43,44.43,0,0,1,2.22-4.35,39.89,39.89,0,0,1,6.31-8.05,10.48,10.48,0,0,1,3.06-2,8,8,0,0,0,1.3-1,7.3,7.3,0,0,1,1.43-.93c.83-.41,1.52.08,2.17.61-.17,0-.36-.07-.62-.11,0,.22,0,.44,0,.74.39,0,.78,0,1.12,0a2.4,2.4,0,0,1,1.08,2.79c-.85.57-.94.54-1.62-.16-.15.12-.34.24-.53.4-.15-.11-.33-.16-.48-.26s-.16-.24-.33-.46a13.21,13.21,0,0,0-1.43,1c-1.41,1.28-2.86,2.61-4.23,3.92-.78.69-1.46,1.5-2.2,2.23A22.5,22.5,0,0,0,410.26,285.83Zm-.9,4a5.5,5.5,0,0,1-.72.3C409.35,290.29,409.54,290.17,409.36,289.86Zm.68-.8c.27,0,.45.09.62.1.06-.18.11-.36.26-.73Zm5.25-3a.21.21,0,0,1,.12.15l.2-.34Z" style="fill:#263238"></path></g></svg>