<svg xmlns="http://www.w3.org/2000/svg" viewBox="0 0 500 500"><g id="freepik--background-complete--inject-3"><path d="M482.33,357.47c0,.14-97.11.26-216.86.26s-216.88-.12-216.88-.26,97.09-.26,216.88-.26S482.33,357.32,482.33,357.47Z" style="fill:#e0e0e0"></path><path d="M414.59,281.59c.33-.32,2.55,1.28,5.48,4.57a52.52,52.52,0,0,1,4.64,6.17,61.52,61.52,0,0,1,4.46,8.36,62.2,62.2,0,0,1,3.05,9,51.59,51.59,0,0,1,1.32,7.6c.4,4.39,0,7.1-.4,7.12-1.06.08-2-10.53-7.2-22.3C420.91,290.26,413.82,282.3,414.59,281.59Z" style="fill:#ebebeb"></path><path d="M436.61,333.19c-.46.06-1.72-5.74-2.88-15.26s-2.17-22.71-2.55-37.31-.23-27.8.05-37.35.75-15.46,1.23-15.46.92,5.9,1.26,15.45.58,22.73,1,37.27,1,27.67,1.51,37.18S437.11,333.12,436.61,333.19Z" style="fill:#ebebeb"></path><path d="M457.91,250.24c.45.25-1.39,4.31-3.8,11.09s-5.48,16.22-8.45,26.8-5.21,20.27-6.58,27.32-1.95,11.47-2.47,11.46-.81-4.57,0-11.84a200.65,200.65,0,0,1,15.19-54.69C454.86,253.73,457.52,250,457.91,250.24Z" style="fill:#ebebeb"></path><path d="M409.2,321.06v11.61a24.8,24.8,0,0,0,24.8,24.8h0a24.79,24.79,0,0,0,24.79-24.8V321.06Z" style="fill:#e0e0e0"></path><path d="M459.24,330.88c0,.2-11.2.36-25,.36s-25-.16-25-.36,11.2-.35,25-.35S459.24,330.69,459.24,330.88Z" style="fill:#fafafa"></path><path d="M459.24,334.11c0,.19-11.2.35-25,.35s-25-.16-25-.35,11.2-.35,25-.35S459.24,333.92,459.24,334.11Z" style="fill:#fafafa"></path><rect x="361.74" y="52.27" width="94.84" height="98.86" style="fill:#e0e0e0"></rect><rect x="355.31" y="52.27" width="94.84" height="98.86" style="fill:#ebebeb"></rect><rect x="368.06" y="65.56" width="69.34" height="72.28" style="fill:#fafafa"></rect><path d="M368.06,138.32a12.5,12.5,0,0,1-1.73,2c-1.11,1.16-2.67,2.74-4.42,4.46s-3.34,3.25-4.52,4.34a13.13,13.13,0,0,1-2,1.7,12.83,12.83,0,0,1,1.72-2c1.12-1.16,2.68-2.74,4.43-4.47s3.35-3.26,4.53-4.35A14.36,14.36,0,0,1,368.06,138.32Z" style="fill:#e0e0e0"></path><path d="M437.4,138.15a13.06,13.06,0,0,1,2,1.73c1.16,1.11,2.74,2.67,4.46,4.42s3.25,3.34,4.34,4.52a12.57,12.57,0,0,1,1.7,2,12.09,12.09,0,0,1-2-1.73c-1.16-1.11-2.75-2.67-4.47-4.42s-3.26-3.35-4.35-4.53A14.36,14.36,0,0,1,437.4,138.15Z" style="fill:#e0e0e0"></path><path d="M437.21,65.75a13.9,13.9,0,0,1,1.74-2c1.11-1.16,2.67-2.74,4.41-4.46s3.35-3.25,4.52-4.35a12.53,12.53,0,0,1,2-1.69,13.35,13.35,0,0,1-1.73,2c-1.11,1.16-2.68,2.74-4.43,4.46s-3.35,3.27-4.52,4.36A12.14,12.14,0,0,1,437.21,65.75Z" style="fill:#e0e0e0"></path><path d="M367.87,65.93a13.35,13.35,0,0,1-2-1.73c-1.16-1.11-2.74-2.67-4.46-4.42s-3.26-3.34-4.35-4.52a13.37,13.37,0,0,1-1.69-2,13.43,13.43,0,0,1,2,1.72c1.16,1.12,2.74,2.68,4.46,4.43s3.26,3.35,4.36,4.53A12.39,12.39,0,0,1,367.87,65.93Z" style="fill:#e0e0e0"></path><path d="M437.21,137.84s0-.12,0-.35,0-.57,0-1c0-.9,0-2.21,0-3.9,0-3.42,0-8.4-.06-14.73,0-12.65-.07-30.7-.11-52.3l.22.23-69.14,0h0l.26-.26c0,26.53,0,51.35,0,72.28l-.23-.22,50.08.11,14.06.06,3.72,0h1.29l-.3,0H436l-3.67,0-14,.06-50.23.12h-.22v-.23c0-20.93,0-45.75,0-72.28V65.3h.27l69.14,0h.23v.23c-.05,21.66-.09,39.76-.12,52.45,0,6.3,0,11.27-.05,14.67,0,1.68,0,3,0,3.86,0,.42,0,.74,0,1S437.21,137.84,437.21,137.84Z" style="fill:#e0e0e0"></path><path d="M386.36,95.76s-1.48,17.89,17.9,17.89C404.26,104.1,396.38,96.56,386.36,95.76Z" style="fill:#ebebeb"></path><path d="M421.83,95.77s-17.9-1.48-17.9,17.9C413.48,113.67,421,105.79,421.83,95.77Z" style="fill:#ebebeb"></path><path d="M403.4,86s-14.62,13.12.8,27.67C411.37,106.06,410.76,94.14,403.4,86Z" style="fill:#e0e0e0"></path><rect x="85.52" y="84.75" width="80.42" height="83.83" style="fill:#e0e0e0"></rect><rect x="80.07" y="84.75" width="80.42" height="83.83" style="fill:#fafafa"></rect><path d="M160.52,168.61H80.05V84.73h80.47Zm-80.42-.05h80.37V84.78H80.1Z" style="fill:#e0e0e0"></path><rect x="90.89" y="96.02" width="58.8" height="61.29" style="fill:#fafafa"></rect><path d="M90.89,157.72a9.94,9.94,0,0,1-1.46,1.69c-.93,1-2.25,2.33-3.73,3.79s-2.84,2.75-3.84,3.68a9.61,9.61,0,0,1-1.7,1.41,9.23,9.23,0,0,1,1.44-1.68c.94-1,2.26-2.33,3.74-3.8s2.85-2.76,3.85-3.68A9.61,9.61,0,0,1,90.89,157.72Z" style="fill:#e0e0e0"></path><path d="M149.68,157.57a9.55,9.55,0,0,1,1.69,1.45c1,.94,2.33,2.26,3.79,3.74s2.76,2.84,3.68,3.84a9.61,9.61,0,0,1,1.41,1.7,9.23,9.23,0,0,1-1.68-1.44c-1-.94-2.33-2.26-3.79-3.75s-2.77-2.84-3.69-3.85A9.38,9.38,0,0,1,149.68,157.57Z" style="fill:#e0e0e0"></path><path d="M149.52,96.19A9.55,9.55,0,0,1,151,94.5c.94-1,2.26-2.33,3.74-3.79S157.55,88,158.55,87a9.61,9.61,0,0,1,1.7-1.41,9.23,9.23,0,0,1-1.44,1.68c-.94,1-2.26,2.33-3.75,3.79s-2.84,2.77-3.85,3.69A9.38,9.38,0,0,1,149.52,96.19Z" style="fill:#e0e0e0"></path><path d="M90.72,96.34A10.21,10.21,0,0,1,89,94.89c-1-.94-2.33-2.26-3.79-3.74s-2.76-2.84-3.68-3.84a9.07,9.07,0,0,1-1.41-1.7,9.65,9.65,0,0,1,1.68,1.44c1,.94,2.33,2.26,3.79,3.75s2.76,2.84,3.69,3.85A8.52,8.52,0,0,1,90.72,96.34Z" style="fill:#e0e0e0"></path><path d="M149.52,157.32s0-.11,0-.3,0-.49,0-.86c0-.77,0-1.87,0-3.31,0-2.9,0-7.12-.06-12.49,0-10.73-.07-26-.11-44.34l.22.23-58.63,0h0l.26-.26c0,22.5,0,43.55,0,61.3l-.22-.23,42.45.12,11.93,0,3.15,0h.82l.28,0h-1.05l-3.11,0-11.88,0-42.59.12h-.23v-.22c0-17.75,0-38.8,0-61.3v-.26h.27l58.63,0h.23V96c-.05,18.37-.09,33.72-.12,44.49,0,5.34,0,9.55,0,12.44,0,1.41,0,2.5,0,3.26,0,.36,0,.63,0,.83A1.45,1.45,0,0,1,149.52,157.32Z" style="fill:#e0e0e0"></path><rect x="110.47" y="116.86" width="19.62" height="19.62" style="fill:#ebebeb"></rect><ellipse cx="251.94" cy="421.18" rx="211.73" ry="38.79" style="fill:#ebebeb"></ellipse><path d="M332.74,421.18a1.25,1.25,0,0,0-.37-.74,5.94,5.94,0,0,0-2.13-1.22,49.72,49.72,0,0,0-9.28-2.17,329.53,329.53,0,0,0-35-3.07c-14.84-.66-32.53-.94-52.17-.49-9.81.24-20.11.66-30.76,1.47-5.33.42-10.74.92-16.2,1.67-2.73.38-5.48.81-8.2,1.4a37.58,37.58,0,0,0-4,1.08,11.49,11.49,0,0,0-1.91.8c-.58.3-1.21.76-1.24,1.26s.65,1,1.23,1.27a11.49,11.49,0,0,0,1.91.8,37.63,37.63,0,0,0,4,1.09c2.72.59,5.47,1,8.2,1.4,5.46.74,10.87,1.25,16.2,1.67,10.65.81,21,1.23,30.77,1.47,19.64.45,37.34.17,52.18-.49a332.24,332.24,0,0,0,35-3.07,49.58,49.58,0,0,0,9.28-2.18,5.8,5.8,0,0,0,2.13-1.22,1.22,1.22,0,0,0,.37-.73,1,1,0,0,1-.33.77,5.76,5.76,0,0,1-2.13,1.28,48.16,48.16,0,0,1-9.29,2.28,319.48,319.48,0,0,1-35,3.23c-14.84.72-32.55,1-52.2.61-9.82-.23-20.13-.64-30.8-1.45-5.33-.41-10.76-.91-16.23-1.66-2.74-.38-5.5-.81-8.24-1.41a39.32,39.32,0,0,1-4.1-1.09,13.16,13.16,0,0,1-2-.84,4.3,4.3,0,0,1-.92-.63,1.32,1.32,0,0,1,0-2.19,4,4,0,0,1,.92-.63,13.1,13.1,0,0,1,2-.83,37.64,37.64,0,0,1,4.1-1.1c2.75-.59,5.5-1,8.24-1.41,5.47-.74,10.9-1.25,16.23-1.66,10.66-.8,21-1.21,30.79-1.44,19.65-.43,37.35-.11,52.2.6a319.29,319.29,0,0,1,35,3.24,47.42,47.42,0,0,1,9.29,2.28,5.63,5.63,0,0,1,2.13,1.28A1,1,0,0,1,332.74,421.18Z" style="fill:#fafafa"></path><path d="M380.88,421.18a2.82,2.82,0,0,0-.42-1.27,7.92,7.92,0,0,0-3.07-2.47c-3.11-1.64-8.12-3.15-14.64-4.53-13.08-2.74-32.32-5-56.16-6.37s-52.31-2-83.88-1.06c-15.78.48-32.34,1.33-49.44,3-8.55.85-17.23,1.89-26,3.41-4.37.78-8.75,1.67-13.07,2.88A47.18,47.18,0,0,0,127.9,417a15.67,15.67,0,0,0-2.91,1.64,3.62,3.62,0,0,0-1.72,2.54,3.56,3.56,0,0,0,1.7,2.54,15.71,15.71,0,0,0,2.91,1.65,47.18,47.18,0,0,0,6.34,2.23,133.34,133.34,0,0,0,13.07,2.88c8.73,1.53,17.42,2.57,26,3.41,17.1,1.66,33.67,2.51,49.45,3,31.57.91,60,.32,83.88-1.07s43.09-3.62,56.16-6.37c6.53-1.37,11.53-2.88,14.64-4.53a7.92,7.92,0,0,0,3.07-2.46,2.82,2.82,0,0,0,.42-1.27s0,.11,0,.34a2.84,2.84,0,0,1-.35,1,8,8,0,0,1-3.07,2.53c-3.12,1.68-8.12,3.22-14.65,4.63-13.08,2.81-32.33,5.1-56.18,6.54s-52.32,2.06-83.91,1.18c-15.79-.47-32.37-1.31-49.49-3-8.56-.84-17.25-1.88-26-3.41-4.38-.78-8.77-1.66-13.12-2.89a47.08,47.08,0,0,1-6.42-2.26,15.63,15.63,0,0,1-3-1.7,6.25,6.25,0,0,1-1.28-1.24,2.64,2.64,0,0,1,0-3.45,6.16,6.16,0,0,1,1.28-1.22,16.56,16.56,0,0,1,3-1.71,48.42,48.42,0,0,1,6.42-2.25c4.35-1.22,8.74-2.11,13.12-2.89,8.75-1.53,17.45-2.56,26-3.4,17.12-1.66,33.69-2.5,49.48-3,31.58-.88,60.06-.25,83.91,1.18s43.1,3.73,56.18,6.54c6.53,1.4,11.53,2.95,14.65,4.63a8,8,0,0,1,3.07,2.53,2.8,2.8,0,0,1,.35.95C380.88,421.06,380.88,421.18,380.88,421.18Z" style="fill:#fafafa"></path><path d="M440.61,421.18a5.15,5.15,0,0,0-.47-1.93,10.91,10.91,0,0,0-4.05-4.17c-4.31-2.89-11.56-5.58-21.09-8-19.09-4.85-47.41-8.78-82.53-11.25a1212.4,1212.4,0,0,0-123.61-1.9c-23.26.84-47.67,2.33-72.83,5.24-12.57,1.48-25.34,3.3-38.14,6a163.18,163.18,0,0,0-19,5.06,56.9,56.9,0,0,0-9.11,3.93,20.43,20.43,0,0,0-4,2.86,6.17,6.17,0,0,0-2.16,4.16,6.11,6.11,0,0,0,2.14,4.18,20.08,20.08,0,0,0,4,2.86,55.16,55.16,0,0,0,9.11,3.93,162.91,162.91,0,0,0,19.06,5.08c12.8,2.68,25.57,4.49,38.15,6,25.16,2.91,49.58,4.4,72.84,5.23a1206.79,1206.79,0,0,0,123.62-1.9c35.12-2.46,63.44-6.4,82.53-11.24,9.52-2.43,16.77-5.11,21.09-8a10.86,10.86,0,0,0,4-4.16,5.15,5.15,0,0,0,.47-1.93s0,.17,0,.5a1.93,1.93,0,0,1-.11.62,3.69,3.69,0,0,1-.28.83,10.8,10.8,0,0,1-4,4.23c-4.31,2.94-11.57,5.66-21.09,8.11-19.1,4.92-47.43,8.91-82.55,11.42a1202,1202,0,0,1-123.67,2c-23.27-.82-47.7-2.3-72.88-5.2-12.59-1.49-25.37-3.3-38.2-6a163.51,163.51,0,0,1-19.12-5.09,57.34,57.34,0,0,1-9.2-4,20.82,20.82,0,0,1-4.12-3,5.61,5.61,0,0,1,0-9.09,21.08,21.08,0,0,1,4.13-2.93,56.51,56.51,0,0,1,9.2-4,164.39,164.39,0,0,1,19.12-5.08c12.82-2.68,25.6-4.5,38.18-6,25.18-2.91,49.6-4.38,72.87-5.21a1198.74,1198.74,0,0,1,123.66,2C367.62,398,396,402,415.05,406.88c9.53,2.46,16.79,5.18,21.1,8.12a10.8,10.8,0,0,1,4,4.23,3.62,3.62,0,0,1,.28.82,2,2,0,0,1,.11.62C440.61,421,440.61,421.18,440.61,421.18Z" style="fill:#fafafa"></path><path d="M260.57,397.35c-16.39-1.07-32.86-2.14-49.29-1.45s-33,3.21-47.52,9c-5.72,2.26-11.6,5.54-12.61,10.32-1.09,5.16,4.11,10,10.27,12.49,12.7,5,28.39,2.39,41.61-1.85s26-10,40.25-11.17c11.88-1,23.79,1.41,35,4.48s22.12,6.88,33.72,9,24.29,2.41,35.08-1.41c5.77-2,11.21-5.79,11.54-10.56.24-3.39-2.21-6.64-5.61-8.88s-7.65-3.61-11.92-4.75c-27.37-7.3-57.26-6.42-86.29-5.44" style="fill:#e0e0e0"></path><path d="M57,419.49l-6.91,5c-.69.5-1.46,1.18-1.34,2,.14,1.05,1.49,1.4,2.55,1.46,7.41.39,12.47-.39,19-3.82a32.46,32.46,0,0,0,3.32-1.95c.51-.38,2.67-2,2.27-2.53a2.27,2.27,0,0,0-1.89-.54c-5.9.13-11.15.17-17,.31" style="fill:#e0e0e0"></path></g><g id="freepik--Character--inject-3"><path d="M329.94,200.77a6.35,6.35,0,0,0-9.88-5.43,11.83,11.83,0,0,0-4.27,4.68c-2.68,4.92-3,10.73-3.56,16.3a39.78,39.78,0,0,1-4.86,15.78l20.48-24.4A11.94,11.94,0,0,0,329.94,200.77Z" style="fill:#FFC100"></path><g style="opacity:0.2"><path d="M329.94,200.77a6.35,6.35,0,0,0-9.88-5.43,11.83,11.83,0,0,0-4.27,4.68c-2.68,4.92-3,10.73-3.56,16.3a39.78,39.78,0,0,1-4.86,15.78l20.48-24.4A11.94,11.94,0,0,0,329.94,200.77Z"></path></g><path d="M306.48,187.44c1.21,1,41.09,46.78,41.09,46.78L326,251.35l-27.4-34.15Z" style="fill:#ffbe9d"></path><path d="M187.64,202.91c-1.06,1.18-33.28,44-33.28,44l20.17,21.86,24.75-37.37Z" style="fill:#ffbe9d"></path><path d="M188,231.28c2.35,1.08,3.68,3.59,4.57,6s1.55,5,3.22,7,4.79,3.07,6.89,1.55,2.1-4.45,1.2-6.74a13.84,13.84,0,0,0-5.85-6.51,28.91,28.91,0,0,0-8.32-3.11" style="fill:#FFC100"></path><g style="opacity:0.2"><path d="M188,231.28c2.35,1.08,3.68,3.59,4.57,6s1.55,5,3.22,7,4.79,3.07,6.89,1.55,2.1-4.45,1.2-6.74a13.84,13.84,0,0,0-5.85-6.51,28.91,28.91,0,0,0-8.32-3.11"></path></g><path d="M375.48,317.87a14.57,14.57,0,0,0-2.2-.42L292.9,283.74H213l-78.8,31.13c-8,2.66-19.41,18.27-12.94,36.92.18.52.37,1,.56,1.51,5.18,13,19.55,19.72,33,16.12,10.89-2.91,26.53-7.17,42.63-11.58l1.81,0,50.13-14.22c7.85,2.17,24.35,6.72,42.69,11.76h0c22.29,6.13,47.29,13,62.72,17.09,13.49,3.61,27.87-3.15,33-16.12.2-.49.38-1,.56-1.51C394.89,336.14,383.48,320.53,375.48,317.87Z" style="fill:#455a64"></path><path d="M248.77,343.74l.28-.1.81-.25,3.18-.93,12-3.42-.14.24-8-29.4.27.21H249c-2.83,0-5.73.26-8.69.38l-18.5,1c-22.86,1.33-43.52,2.88-58.47,4.09L145.59,317l-4.82.39-1.25.09a2,2,0,0,1-.43,0,2,2,0,0,1,.42-.08l1.25-.14,4.8-.52c4.18-.42,10.22-1,17.69-1.66,14.94-1.33,35.61-2.95,58.47-4.28l18.51-1c3-.12,5.87-.33,8.7-.36h8.48l0,.22c3.11,11.7,5.8,21.83,7.82,29.45l.05.18-.18.05-12,3.25-3.21.83-.83.2A.79.79,0,0,1,248.77,343.74Z" style="fill:#263238"></path><path d="M222.74,310.84c-.09.14-2.31-1.13-4.72-3.14s-4.06-4-3.94-4.08,2,1.6,4.35,3.59S222.84,310.68,222.74,310.84Z" style="fill:#263238"></path><path d="M366,320.78a7.6,7.6,0,0,1-1.1,0l-3.15-.19-11.58-.79L312,317.2l-38.23-2.31-11.59-.68L259,314a7.15,7.15,0,0,1-1.09-.11,5.79,5.79,0,0,1,1.1,0l3.16.1,11.59.48c9.8.45,23.32,1.17,38.25,2.13s28.43,1.95,38.2,2.75l11.57,1,3.14.3A5.8,5.8,0,0,1,366,320.78Z" style="fill:#263238"></path><path d="M250.1,319.24c-.11-.12,1.21-1.33,3.3-1.85s3.83-.12,3.78,0-1.68.07-3.62.58S250.21,319.39,250.1,319.24Z" style="fill:#263238"></path><path d="M252.28,324.32c0-.18,1.44-.49,3.26-.71s3.32-.25,3.34-.08-1.44.5-3.26.71S252.3,324.49,252.28,324.32Z" style="fill:#263238"></path><path d="M253.26,330.22c0-.19,1.79-.24,3.87-.86s3.61-1.5,3.72-1.34a7,7,0,0,1-3.55,2C255.11,330.62,253.24,330.38,253.26,330.22Z" style="fill:#263238"></path><path d="M255.22,336.56c0-.19,1.71-.32,3.65-1.07s3.34-1.74,3.45-1.59-1.15,1.43-3.22,2.19S255.21,336.73,255.22,336.56Z" style="fill:#263238"></path><path d="M291.85,307.79c.13.13-1.21,1.69-2.7,3.72s-2.61,3.76-2.77,3.67.72-2,2.25-4.05S291.73,307.67,291.85,307.79Z" style="fill:#263238"></path><path d="M257.46,309.73l-19.15-2.9s-1.74-4.51-4.69-4.74-5.68,3-7.83,2.83-27.87-8.85-29.34,2.8l10.7,4.41" style="fill:#ffbe9d"></path><path d="M320.29,320.28l-57,12.22-5.12-19.57,21.09-1s2.53-4.13,5.47-3.82,5,4,7.2,4.18S320.93,308.56,320.29,320.28Z" style="fill:#ffbe9d"></path><path d="M212,285.72s-.16.09-.49.24l-1.47.68c-1.29.6-3.21,1.45-5.69,2.52-5,2.14-12.19,5.09-21.16,8.66s-19.66,7.75-31.42,12.71c-5.88,2.47-12.18,4.81-18.18,8.26l-1.12.67a1.07,1.07,0,0,0-.2.14s0,0,0,0,0-.07,0-.07a1.53,1.53,0,0,0,.51.16,18.07,18.07,0,0,0,2.58.22c1.76.05,3.53,0,5.32,0,3.58-.09,7.22-.25,10.89-.44,14.71-.78,28.7-1.83,41.42-2.8l33.8-2.69,22.78-1.9,6.2-.5,1.61-.12c.36,0,.55,0,.55,0s-.19,0-.55.08l-1.6.17-6.19.6-22.77,2.06c-9.61.84-21.06,1.81-33.79,2.81s-26.72,2.06-41.43,2.84c-3.68.19-7.32.35-10.9.43-1.8,0-3.58.06-5.36,0a18.59,18.59,0,0,1-2.66-.22,1.94,1.94,0,0,1-.73-.27.44.44,0,0,1-.17-.34.47.47,0,0,1,.13-.31,1.78,1.78,0,0,1,.33-.24l1.12-.67c6.06-3.48,12.38-5.8,18.26-8.26,11.77-4.94,22.49-9.08,31.47-12.61s16.24-6.43,21.21-8.51l5.73-2.42,1.48-.63Z" style="fill:#fff"></path><path d="M290.84,285.72a1.43,1.43,0,0,1,.37.13l1.07.45,4.08,1.76,15,6.39,49.71,20.76a126,126,0,0,1,14,6.4c.55.3,1.09.61,1.61.93a6.85,6.85,0,0,1,.81.52,2.09,2.09,0,0,1,.2.22.52.52,0,0,1,.09.4c0,.18-.12.24-.21.34a2.07,2.07,0,0,1-.25.15,13.46,13.46,0,0,1-3.67.45c-2.4.05-4.74,0-7-.13-9.11-.44-17.29-1.19-24.16-1.82s-12.41-1.24-16.24-1.66l-4.41-.51-1.15-.15a2.11,2.11,0,0,1-.38-.07l.39,0,1.15.09,4.42.42,16.26,1.49c6.87.58,15.05,1.3,24.15,1.71,2.27.09,4.6.17,7,.11a13.22,13.22,0,0,0,3.48-.41l.14-.08s.06-.05,0,0,0-.07-.12-.15-.47-.31-.74-.47c-.52-.31-1.05-.62-1.59-.92a130.23,130.23,0,0,0-13.94-6.36c-19.42-8.1-37-15.46-49.66-20.9-6.33-2.72-11.44-5-15-6.55l-4-1.84-1.05-.5Z" style="fill:#fff"></path><path d="M248.73,171h0a16.46,16.46,0,0,0,17.58-17.38c-.24-4.14-.45-7.3-.45-7.3s13.05-2,13.21-15.07-2.1-43-2.1-43h0A45.32,45.32,0,0,0,231.43,94l-1.94,1.49,4,60.18A16.47,16.47,0,0,0,248.73,171Z" style="fill:#ffbe9d"></path><path d="M265.89,146.16a30.36,30.36,0,0,1-17-4.83s4,9.39,17,8.21Z" style="fill:#eb996e"></path><path d="M231.1,109c-.22-.1-9-2.65-8.67,6.26s9.17,6.79,9.18,6.54S231.1,109,231.1,109Z" style="fill:#ffbe9d"></path><path d="M228.78,118.53s-.15.11-.41.24a1.57,1.57,0,0,1-1.16.06c-1-.32-1.8-1.79-1.89-3.39a5.23,5.23,0,0,1,.36-2.24,1.82,1.82,0,0,1,1.13-1.23.79.79,0,0,1,.93.4c.13.24.08.42.13.44s.18-.16.1-.52a.93.93,0,0,0-.37-.55,1.13,1.13,0,0,0-.86-.2,2.17,2.17,0,0,0-1.58,1.43,5.23,5.23,0,0,0-.46,2.5c.11,1.8,1.09,3.45,2.39,3.78a1.63,1.63,0,0,0,1.41-.28C228.77,118.74,228.81,118.54,228.78,118.53Z" style="fill:#eb996e"></path><path d="M247.62,107.63c.23-.25,1.64.8,3.65.79s3.47-1,3.69-.76-.13.55-.77,1a5.05,5.05,0,0,1-3,.91,4.89,4.89,0,0,1-2.9-.93C247.72,108.17,247.51,107.73,247.62,107.63Z" style="fill:#263238"></path><path d="M267.32,107.25c.23-.24,1.64.8,3.65.8s3.47-1,3.69-.76c.1.1-.13.54-.77,1a5.2,5.2,0,0,1-3,.91,5,5,0,0,1-2.9-.94C267.42,107.8,267.21,107.36,267.32,107.25Z" style="fill:#263238"></path><path d="M262.07,121.88a13.12,13.12,0,0,1,3.26-.59c.51-.05,1-.15,1.08-.5a2.61,2.61,0,0,0-.34-1.52l-1.51-3.9c-2.1-5.54-3.63-10.11-3.4-10.19s2.11,4.35,4.21,9.9l1.45,3.92a2.91,2.91,0,0,1,.26,2,1.25,1.25,0,0,1-.84.75,3.23,3.23,0,0,1-.87.12A13.45,13.45,0,0,1,262.07,121.88Z" style="fill:#263238"></path><path d="M256.18,123.26c.32,0,.33,2.16,2.19,3.7s4.18,1.31,4.19,1.61c0,.14-.51.43-1.49.45a5.34,5.34,0,0,1-3.5-1.22,4.67,4.67,0,0,1-1.7-3.1C255.79,123.79,256,123.25,256.18,123.26Z" style="fill:#263238"></path><path d="M255.32,101.2c-.2.55-2.2.29-4.55.57s-4.25.93-4.57.44c-.13-.24.2-.75,1-1.28a8,8,0,0,1,7-.76C255,100.52,255.4,100.94,255.32,101.2Z" style="fill:#263238"></path><path d="M273.76,103.12c-.35.45-1.73,0-3.39,0s-3.07.3-3.39-.17c-.14-.24.08-.69.69-1.12a4.9,4.9,0,0,1,5.47.17C273.73,102.42,273.92,102.89,273.76,103.12Z" style="fill:#263238"></path><path d="M283.32,80.06a4.81,4.81,0,0,0-1.78-4.3,3.41,3.41,0,0,0-4.42.33,4,4,0,0,0-3.43-4.83c-2.12-.13-3.94,1.47-6,2a9.67,9.67,0,0,1-6.09-.71c-1.93-.77-3.73-1.85-5.69-2.56a16.68,16.68,0,0,0-21.33,9.79c-2.85-.89-6.09.56-7.85,3a12.11,12.11,0,0,0-1.86,8.55,27.6,27.6,0,0,0,1.49,5.85c0,.17,0,.34,0,.5.13,7.17.95,15.6,4,15.64,5.34.08,4.07-10,4.07-10,6.54-2.53,4.1-12.34,5.74-13.82s5.06-5,18.76,2.06c5.32,2.72,12.39,2.63,16.25,1.75l.34-.06.08,0a.43.43,0,0,0,.12-.05,12.17,12.17,0,0,0,3.51-1.49,7,7,0,0,0,2.9-3.22,3.82,3.82,0,0,0-.75-4.08A8.37,8.37,0,0,0,283.32,80.06Z" style="fill:#263238"></path><path d="M270.3,63s.1.12.25.36a5.61,5.61,0,0,1,.52,1.11,8.36,8.36,0,0,1,.28,4.49,8.83,8.83,0,0,1-3.6,5.57c-2.18,1.45-5.17,1.73-8,1.3s-5.5-1.36-7.93-1.86a14.52,14.52,0,0,0-6.49-.16,8.62,8.62,0,0,0-3.88,2c-.76.72-1,1.24-1.09,1.21s0-.14.19-.39a5.59,5.59,0,0,1,.76-1,8.24,8.24,0,0,1,3.94-2.16,14.3,14.3,0,0,1,6.67,0c2.47.48,5.08,1.41,7.9,1.81a11.16,11.16,0,0,0,7.69-1.18A8.5,8.5,0,0,0,271,68.87a8.61,8.61,0,0,0-.11-4.35C270.57,63.52,270.25,63,270.3,63Z" style="fill:#455a64"></path><path d="M266.92,65.43a2.77,2.77,0,0,1,.84,2,4.56,4.56,0,0,1-.44,2.36,5.08,5.08,0,0,1-2,2.14,6.05,6.05,0,0,1-2.82.81,7,7,0,0,1-2.36-.32,4.36,4.36,0,0,1-1.92-1c0-.07.76.33,2,.64a6.54,6.54,0,0,0,4.82-.59,4.9,4.9,0,0,0,1.86-1.9,4.52,4.52,0,0,0,.5-2.13A6.9,6.9,0,0,0,266.92,65.43Z" style="fill:#263238"></path><path d="M312.59,280.12a9.89,9.89,0,0,1-5.44,9.6l-14.25-6-17.57,1.18,6.93-18.82s19.74,2.42,22.53,4.66S312.81,277.16,312.59,280.12Z" style="fill:#FFC100"></path><g style="opacity:0.4"><path d="M312.59,280.12a9.89,9.89,0,0,1-5.44,9.6l-14.25-6-17.57,1.18,6.93-18.82s19.74,2.42,22.53,4.66S312.81,277.16,312.59,280.12Z"></path></g><path d="M312.59,280.12a9.89,9.89,0,0,1-5.44,9.6l-14.25-6-17.57,1.18,6.93-18.82s19.74,2.42,22.53,4.66S312.81,277.16,312.59,280.12Z" style="fill:#FFC100"></path><g style="opacity:0.4"><path d="M312.59,280.12a9.89,9.89,0,0,1-5.44,9.6l-14.25-6-17.57,1.18,6.93-18.82s19.74,2.42,22.53,4.66S312.81,277.16,312.59,280.12Z"></path></g><path d="M327.39,195.56,326,194.32l-30.15-23.61c-9.31-9.89-16.08-12.87-29.17-14.42-2.14-.25,1.23.16,0,0-10,3.09-23.49,3.39-33.54.29h0c-4.65.19-8.51,1.63-12.47,2.39-12.48,2.39-19.15,11.2-23.95,19.87l-24.14,40.49,1,1.6a27.8,27.8,0,0,0,14.26,11.17h0l1.62.81a37.07,37.07,0,0,1,14.24,11.93h0l10.63-18.57-3,29.76-2.06,29.23a145.72,145.72,0,0,0,43.62,5.56c21,.1,50.26-25.49,59.7-10.7.13-7.58-9.41-18-12.06-23-8.21-15.63-6.67-21.95-7.26-33.68l14.1,8.65,2.53-4.95c2.14-4.18,6.22-13.49,7.74-20.74C317.64,206.41,319.3,192.87,327.39,195.56Z" style="fill:#FFC100"></path><path d="M214.39,196.28a4.78,4.78,0,0,1,.11,1.22c0,.79.06,1.93.08,3.34,0,2.81.06,6.7,0,11s-.07,8.19-.14,11c0,1.41-.07,2.55-.11,3.34a5.1,5.1,0,0,1-.12,1.22,4.86,4.86,0,0,1-.11-1.22c0-.79-.06-1.93-.08-3.34,0-2.81-.05-6.7,0-11s.07-8.18.13-11c0-1.4.07-2.54.11-3.33A5,5,0,0,1,214.39,196.28Z" style="fill:#263238"></path><path d="M295,243.48a11.58,11.58,0,0,1-.25-1.89c-.12-1.32-.27-3.06-.46-5.17-.37-4.36-.83-10.4-1.3-17.07s-.87-12.71-1.12-17.08c-.12-2.11-.21-3.86-.28-5.18a12.11,12.11,0,0,1,0-1.91,11.58,11.58,0,0,1,.25,1.89c.12,1.32.28,3.06.46,5.17.37,4.37.83,10.4,1.3,17.07s.87,12.71,1.13,17.08c.11,2.11.2,3.86.27,5.19A12,12,0,0,1,295,243.48Z" style="fill:#263238"></path><g style="opacity:0.2"><path d="M229.3,157.62a77.55,77.55,0,0,0,24.33,22.12c3.5,2,7.27,3.8,11.3,4.13,6.95.56,13.5-3.23,18.89-7.65,2.13-1.74,4.24-3.72,5.14-6.32s.2-6-2.23-7.24a6.29,6.29,0,0,0-5.48.18,29.55,29.55,0,0,0-4.74,3.11,31.83,31.83,0,0,1-44.88-8.48"></path></g><path d="M271,229.52a28.32,28.32,0,0,0-.64-4.2,16.4,16.4,0,0,0-1.93-4.56,17.42,17.42,0,0,0-4.37-4.84,17,17,0,0,0-16.15-2.41,16,16,0,0,0-4.31,2.32,16,16,0,0,0-3.6,3.62,17,17,0,0,0,0,20.13,16,16,0,0,0,3.6,3.62,16,16,0,0,0,4.31,2.32A17,17,0,0,0,264,243.11a17.42,17.42,0,0,0,4.37-4.84,16.4,16.4,0,0,0,1.93-4.56,28.51,28.51,0,0,0,.64-4.19,1.16,1.16,0,0,1,0,.28c0,.21,0,.48,0,.82a7.89,7.89,0,0,1-.11,1.34,12.23,12.23,0,0,1-.33,1.8,16.11,16.11,0,0,1-1.87,4.65,17.4,17.4,0,0,1-11.74,8.29,17.44,17.44,0,0,1-9.2-.73,16.3,16.3,0,0,1-4.44-2.37,16.11,16.11,0,0,1-3.71-3.72,17.42,17.42,0,0,1,0-20.73,19.82,19.82,0,0,1,1.72-2,20.94,20.94,0,0,1,2-1.69,16.44,16.44,0,0,1,4.44-2.37,17.54,17.54,0,0,1,9.2-.73,17.4,17.4,0,0,1,11.74,8.29,16.11,16.11,0,0,1,1.87,4.65,12.23,12.23,0,0,1,.33,1.8,7.89,7.89,0,0,1,.11,1.34c0,.34,0,.61,0,.83A1.23,1.23,0,0,1,271,229.52Z" style="fill:#fff"></path><path d="M253.14,246.78c-.15,0-.26-7.73-.26-17.27s.11-17.26.26-17.26.26,7.72.26,17.26S253.28,246.78,253.14,246.78Z" style="fill:#fff"></path><path d="M267.37,240a7.69,7.69,0,0,1-1.16-.8l-3-2.32c-2.56-2-6.06-4.75-9.9-7.83l-.31-.24h.34c-3.52,3.31-6.72,6.28-9.05,8.4l-2.78,2.5a6.77,6.77,0,0,1-1.06.86,6.82,6.82,0,0,1,.92-1L244,237c2.26-2.19,5.42-5.21,9-8.52l.16-.16.18.14.3.25c3.85,3.08,7.31,5.89,9.81,7.94,1.17,1,2.16,1.81,2.93,2.45A7.58,7.58,0,0,1,267.37,240Z" style="fill:#fff"></path><g style="opacity:0.2"><path d="M238.89,275.71a40.61,40.61,0,0,0,39.38-15.41c1.44-1.93,2.76-4.3,2.16-6.63s-3.28-3.95-5.79-3.89a11,11,0,0,0-6.72,3.07c-4.58,4-7.2,9.89-11.77,13.92a21,21,0,0,1-15,5.17,11.09,11.09,0,0,0-2.51.1,2.25,2.25,0,0,0-1.91,2c0,1,.78,1.42,2.15,1.68"></path></g><g style="opacity:0.2"><polygon points="292.02 205.24 293.26 223.45 307.37 232.09 310.32 226.6 292.02 205.24"></polygon></g><path d="M327.66,195.85a7.61,7.61,0,0,0-1.69-.33,6.36,6.36,0,0,0-4.27,1.6,11.62,11.62,0,0,0-3.33,6c-.69,2.55-1.35,5.42-2.27,8.36a112.74,112.74,0,0,1-5.64,14.71c-.85,1.83-1.6,3.28-2.13,4.27a9.61,9.61,0,0,1-.89,1.51,13.86,13.86,0,0,1,.71-1.6c.47-1,1.17-2.49,2-4.33a132.62,132.62,0,0,0,5.47-14.71c.92-2.93,1.58-5.76,2.31-8.35a11.7,11.7,0,0,1,3.56-6.12,6.43,6.43,0,0,1,4.51-1.51,3.83,3.83,0,0,1,1.28.31A1.76,1.76,0,0,1,327.66,195.85Z" style="fill:#263238"></path><path d="M203.69,244.84a14.23,14.23,0,0,1-1-1.24,41.82,41.82,0,0,0-2.92-3.25,27.53,27.53,0,0,0-5.05-4c-2.06-1.3-4.47-2.48-7-3.76a65.88,65.88,0,0,1-6.92-4,29.05,29.05,0,0,1-5-4.23,18,18,0,0,1-2.58-3.57,10.13,10.13,0,0,1-.53-1.08c-.11-.25-.16-.38-.14-.39a26,26,0,0,0,3.52,4.79,30.1,30.1,0,0,0,5,4.08,71.07,71.07,0,0,0,6.89,3.93c2.51,1.28,4.94,2.48,7,3.82A26.1,26.1,0,0,1,200,240.1a31.42,31.42,0,0,1,2.82,3.38c.3.42.53.75.67,1A1.68,1.68,0,0,1,203.69,244.84Z" style="fill:#263238"></path><path d="M283.63,250.89a2.34,2.34,0,0,1-.17.57c-.15.37-.32.93-.64,1.61a36.46,36.46,0,0,1-3,5.6,40.11,40.11,0,0,1-35.68,18.41,37.32,37.32,0,0,1-6.3-.81c-.73-.14-1.29-.32-1.67-.41a2.93,2.93,0,0,1-.58-.19,2.23,2.23,0,0,1,.6.09c.39.06,1,.21,1.69.32a43.61,43.61,0,0,0,6.27.63,40.73,40.73,0,0,0,35.36-18.24,42.22,42.22,0,0,0,3.12-5.48c.34-.67.54-1.21.72-1.57A3,3,0,0,1,283.63,250.89Z" style="fill:#263238"></path><g style="opacity:0.2"><path d="M204.58,242.74a147.93,147.93,0,0,1,9.81-42.45l0,25.88Z"></path></g><path d="M228.79,157.1c4.38,9.39,16,14.72,26.14,16.68a33.48,33.48,0,0,0,28.77-8.33c6.4-6,10.17-14.33,16.13-20.78A41,41,0,0,1,341,133.5l.79-14.2c-4.86-3.15-17.37-4.29-23.09-3.43a45.52,45.52,0,0,0-28.82,16.87c-6.28,8.08-10,18.47-18.31,24.41-6,4.29-13.49,4.32-20.78,3.09s-12.21-7.9-17.84-12.69Z" style="fill:#263238"></path><path d="M232.87,147.56a23.42,23.42,0,0,0,32.91,3.9c1.3-1,3-2.27,4.43-1.5,1.14.6,1.42,2.07,1.57,3.34.35,2.94.63,6.19-1.1,8.59S266,165,263.2,165.48c-6.64,1.1-13.69,1-19.85-1.71s-9.95-9.49-10.48-16.21" style="fill:#263238"></path><path d="M274.43,154.75a1.92,1.92,0,0,1-.33.37c-.23.22-.55.57-1,1a23.68,23.68,0,0,1-4.27,2.93,24,24,0,0,1-7.26,2.5,23.25,23.25,0,0,1-9.39-.29,31.27,31.27,0,0,1-8.62-3.77c-1.24-.74-2.4-1.45-3.48-2.16a26.69,26.69,0,0,1-2.84-2.19,19,19,0,0,1-3.43-3.87,10.45,10.45,0,0,1-.69-1.23c-.14-.29-.2-.45-.18-.46s.34.59,1,1.57a20.83,20.83,0,0,0,3.5,3.72,32.28,32.28,0,0,0,2.84,2.1c1.07.68,2.25,1.38,3.49,2.11a31.8,31.8,0,0,0,8.49,3.67,23.21,23.21,0,0,0,9.19.33,24.53,24.53,0,0,0,7.17-2.36,25.64,25.64,0,0,0,4.31-2.76A18.32,18.32,0,0,1,274.43,154.75Z" style="fill:#455a64"></path><path d="M291.62,154.83a52.81,52.81,0,0,1-5.84-3,52.77,52.77,0,0,1-5.71-3.24,33.43,33.43,0,0,1,6,2.78A34.52,34.52,0,0,1,291.62,154.83Z" style="fill:#455a64"></path><path d="M298.59,145.75a51.41,51.41,0,0,1-6.41-3.24,51.09,51.09,0,0,1-6.16-3.7,48.27,48.27,0,0,1,6.41,3.24A49.6,49.6,0,0,1,298.59,145.75Z" style="fill:#455a64"></path><path d="M305.33,138.23a9.75,9.75,0,0,1-1.66-1.44l-3.83-3.64L296,129.54a10.24,10.24,0,0,1-1.53-1.57,9.54,9.54,0,0,1,1.77,1.29c1,.86,2.47,2.09,4,3.51s2.82,2.76,3.73,3.76A8.84,8.84,0,0,1,305.33,138.23Z" style="fill:#455a64"></path><path d="M306.35,119.52a13.39,13.39,0,0,1,1.43,2.06c1,1.45,2.05,3.17,3.28,5.06s2.37,3.59,3.33,5a12.18,12.18,0,0,1,1.3,2.15,11.49,11.49,0,0,1-1.61-1.93c-.93-1.24-2.16-3-3.46-5s-2.39-3.82-3.15-5.16A10.46,10.46,0,0,1,306.35,119.52Z" style="fill:#455a64"></path><path d="M322.05,116.56a11.36,11.36,0,0,1,.58,2.23c.36,1.59.77,3.41,1.23,5.43s.93,3.82,1.32,5.4a10.46,10.46,0,0,1,.47,2.26,9.51,9.51,0,0,1-.82-2.16c-.44-1.36-1-3.26-1.48-5.38s-.86-4.07-1.08-5.48A9.06,9.06,0,0,1,322.05,116.56Z" style="fill:#455a64"></path><path d="M334.34,116.38c.15,0,.09,3.38.3,7.53s.59,7.5.44,7.52a8.41,8.41,0,0,1-.46-2.17c-.2-1.36-.4-3.24-.5-5.33s-.09-4,0-5.34A8.83,8.83,0,0,1,334.34,116.38Z" style="fill:#455a64"></path><path d="M282.67,166.21a47.94,47.94,0,0,1-5.23-4.73,49,49,0,0,1-4.86-5.11,48.73,48.73,0,0,1,5.23,4.74A47.11,47.11,0,0,1,282.67,166.21Z" style="fill:#455a64"></path><path d="M268.55,173.49a44.64,44.64,0,0,1-2.17-6.33,42.35,42.35,0,0,1-1.68-6.48,43.34,43.34,0,0,1,2.18,6.33A42.64,42.64,0,0,1,268.55,173.49Z" style="fill:#455a64"></path><path d="M252.84,173.28a33.63,33.63,0,0,1,.95-5.87,34.62,34.62,0,0,1,1.46-5.77,34.81,34.81,0,0,1-.95,5.87A34.62,34.62,0,0,1,252.84,173.28Z" style="fill:#455a64"></path><path d="M241,168.76a19,19,0,0,1,1.9-5.21,19.46,19.46,0,0,1,2.91-4.73c.13.09-1.12,2.22-2.44,5S241.13,168.81,241,168.76Z" style="fill:#455a64"></path><path d="M237.71,153.65a18.12,18.12,0,0,1-2.29,4.53,18.93,18.93,0,0,1-3,4.06,38.68,38.68,0,0,1,2.6-4.34A38.07,38.07,0,0,1,237.71,153.65Z" style="fill:#455a64"></path><path d="M250.94,156.66c.14,0,.05.83-.05,1.8s-.18,1.76-.33,1.77-.3-.82-.19-1.83S250.8,156.62,250.94,156.66Z" style="fill:#455a64"></path><path d="M260.71,161.32a8.81,8.81,0,0,1-.69-3.21,8.41,8.41,0,0,1,0-3.27,13.15,13.15,0,0,1,.5,3.22A12.8,12.8,0,0,1,260.71,161.32Z" style="fill:#455a64"></path><path d="M267.73,150.74a26.77,26.77,0,0,1,.71,4,26.29,26.29,0,0,1,.62,4,17.58,17.58,0,0,1-1.33-8Z" style="fill:#455a64"></path><path d="M177,267.4,239.75,231a16.18,16.18,0,0,0,8.06-13.3l1.66-38.21a2,2,0,0,0-1.78-2h0a2,2,0,0,0-2.07,1.43l-8,28.67-74.71,31.64a15.79,15.79,0,0,0-7.95,21.61h0A15.79,15.79,0,0,0,177,267.4Z" style="fill:#ffbe9d"></path><path d="M237.6,207.57a6.57,6.57,0,0,1-.72.38l-2.1,1L227,212.51c-6.59,3-15.73,7-25.89,11.3s-19.43,8-26.17,10.65c-3.36,1.31-6.1,2.35-8,3l-2.19.8a3.62,3.62,0,0,1-.78.24,7.39,7.39,0,0,1,.74-.34l2.15-.89c1.93-.77,4.62-1.87,7.94-3.21,6.7-2.7,15.94-6.49,26.1-10.78s19.32-8.27,25.94-11.16l7.85-3.41,2.15-.91A4.13,4.13,0,0,1,237.6,207.57Z" style="fill:#eb996e"></path><path d="M156.72,264.13c0-.05.84-.14,2.31-.5a13.63,13.63,0,0,0,2.59-.94,20.31,20.31,0,0,0,3.08-1.95c1.09-.82,2.29-1.72,3.54-2.71s2.56-2.11,3.93-3.28a46.78,46.78,0,0,1,9.61-6.8,32.69,32.69,0,0,1,11.32-3.21,33.68,33.68,0,0,1,9.61.49,31.34,31.34,0,0,1,6.19,1.94c.7.3,1.22.59,1.58.77a2,2,0,0,1,.53.31,3.69,3.69,0,0,1-.57-.22c-.38-.14-.91-.41-1.62-.68a34.77,34.77,0,0,0-6.18-1.75,34,34,0,0,0-9.49-.38,32.87,32.87,0,0,0-11.14,3.2,47.89,47.89,0,0,0-9.53,6.7c-1.38,1.16-2.7,2.26-4,3.25s-2.48,1.86-3.6,2.66a19.67,19.67,0,0,1-3.17,1.93,13.79,13.79,0,0,1-2.66.87c-.75.15-1.34.23-1.75.27A2.35,2.35,0,0,1,156.72,264.13Z" style="fill:#263238"></path><path d="M168.76,258.23s.06.36.21,1a5.34,5.34,0,0,0,1.25,2.26,7.91,7.91,0,0,0,3.2,2.1,6.63,6.63,0,0,0,4.59-.17l.43-.2-.12.33a8.71,8.71,0,0,0-2.76-3.57,8.51,8.51,0,0,0-3.36-1.54,13.86,13.86,0,0,0-3.44-.17,2.6,2.6,0,0,1,.91-.24,8.22,8.22,0,0,1,2.6.05,8.55,8.55,0,0,1,3.57,1.52,8.84,8.84,0,0,1,3,3.75l.1.23-.22.1-.47.22a7,7,0,0,1-5,.15,8,8,0,0,1-3.32-2.32,5.19,5.19,0,0,1-1.17-2.46A2.29,2.29,0,0,1,168.76,258.23Z" style="fill:#263238"></path><path d="M168.76,258.23a12,12,0,0,1,3.1,1.49,11.14,11.14,0,0,1,2.84,1.95,12,12,0,0,1-3.1-1.49A11.14,11.14,0,0,1,168.76,258.23Z" style="fill:#263238"></path><path d="M178.21,250.46a8.29,8.29,0,0,1,.43.88,5.45,5.45,0,0,0,1.73,1.92,8.1,8.1,0,0,0,3.6,1.31,6.65,6.65,0,0,0,4.43-1.22l.37-.3,0,.35a8.77,8.77,0,0,0-3.5-2.84,8.63,8.63,0,0,0-3.63-.73,13.24,13.24,0,0,0-3.39.63,2.54,2.54,0,0,1,.84-.44,7.92,7.92,0,0,1,2.54-.55,8.34,8.34,0,0,1,3.82.66,8.86,8.86,0,0,1,3.75,3l.14.2-.19.15c-.13.1-.26.22-.41.32a7,7,0,0,1-4.78,1.28,8.1,8.1,0,0,1-3.76-1.49,5.22,5.22,0,0,1-1.7-2.13A2.58,2.58,0,0,1,178.21,250.46Z" style="fill:#263238"></path><path d="M178.21,250.46a11.37,11.37,0,0,1,3.37.74,11.65,11.65,0,0,1,3.21,1.24,22.87,22.87,0,0,1-6.58-2Z" style="fill:#263238"></path><path d="M161.62,262.64s.24-.27.62-.76a5.31,5.31,0,0,0,1-2.37,7.86,7.86,0,0,0-.29-3.81,6.6,6.6,0,0,0-2.94-3.53l-.42-.22.33-.11a8.61,8.61,0,0,0-.31,8,13.7,13.7,0,0,0,2,2.83,2.57,2.57,0,0,1-.75-.58,8.53,8.53,0,0,1-2.53-5.84,8.93,8.93,0,0,1,1.16-4.64l.12-.22.22.12.46.24a7,7,0,0,1,3.14,3.82,8,8,0,0,1,.19,4A5.13,5.13,0,0,1,162.4,262,2.47,2.47,0,0,1,161.62,262.64Z" style="fill:#263238"></path><path d="M161.62,262.64a11.1,11.1,0,0,1-.72-3.37,11.79,11.79,0,0,1-.2-3.44,11.1,11.1,0,0,1,.72,3.37A11.79,11.79,0,0,1,161.62,262.64Z" style="fill:#263238"></path><path d="M185,247s.3-.12.81-.38a4.82,4.82,0,0,0,1.79-1.55,7.2,7.2,0,0,0,1.28-3.26,6,6,0,0,0-1-4.07c-.08-.13-.18-.24-.26-.36l.35.05a7.91,7.91,0,0,0-2.68,3.15,7.81,7.81,0,0,0-.76,3.3A12.44,12.44,0,0,0,185,247s-.2-.25-.4-.77a7.55,7.55,0,0,1-.45-2.35,7.72,7.72,0,0,1,.69-3.5,8.12,8.12,0,0,1,2.82-3.38l.2-.14.14.19c.09.13.2.25.29.39a6.4,6.4,0,0,1,1.07,4.43,7.41,7.41,0,0,1-1.46,3.43,4.72,4.72,0,0,1-2,1.51A2,2,0,0,1,185,247Z" style="fill:#263238"></path><path d="M185,247a9.63,9.63,0,0,1,.73-3.07A10.28,10.28,0,0,1,187,241a9.61,9.61,0,0,1-.73,3.08A10.13,10.13,0,0,1,185,247Z" style="fill:#263238"></path><path d="M193.08,244.93a8.05,8.05,0,0,1-.07.9,5.06,5.06,0,0,0,.48,2.32,7.35,7.35,0,0,0,2.23,2.7,6,6,0,0,0,4.06,1.09l.43-.05-.21.28a8,8,0,0,0-1.44-3.88A7.83,7.83,0,0,0,196,246a13.18,13.18,0,0,0-3-1.1,2.16,2.16,0,0,1,.87,0,7.79,7.79,0,0,1,5,3.06,8.19,8.19,0,0,1,1.58,4.1l0,.25-.23,0-.48.06a6.42,6.42,0,0,1-4.39-1.22,7.27,7.27,0,0,1-2.28-3,4.66,4.66,0,0,1-.35-2.48A1.86,1.86,0,0,1,193.08,244.93Z" style="fill:#263238"></path><path d="M193.08,244.93a10,10,0,0,1,2.33,2.14,9.71,9.71,0,0,1,1.94,2.49,9.79,9.79,0,0,1-2.33-2.14A9.35,9.35,0,0,1,193.08,244.93Z" style="fill:#263238"></path><path d="M198.9,244.7a5.22,5.22,0,0,0,2.77-.49,6.42,6.42,0,0,0,2.25-2,5.28,5.28,0,0,0,.8-3.54c0-.13-.05-.25-.07-.37l.29.2a6.9,6.9,0,0,0-3.29,1.38,6.74,6.74,0,0,0-1.88,2.25,11.79,11.79,0,0,0-.87,2.6,1.81,1.81,0,0,1,0-.76,6.46,6.46,0,0,1,.56-2,6.89,6.89,0,0,1,1.91-2.46,7.21,7.21,0,0,1,3.52-1.53l.25,0,0,.24a2.7,2.7,0,0,1,.07.41,5.63,5.63,0,0,1-.91,3.88,6.53,6.53,0,0,1-2.49,2.09,4.18,4.18,0,0,1-2.16.38C199.15,244.85,198.89,244.73,198.9,244.7Z" style="fill:#263238"></path><path d="M198.9,244.7a14.44,14.44,0,0,1,3.87-3.87A7.45,7.45,0,0,1,201,243C200,244,199,244.81,198.9,244.7Z" style="fill:#263238"></path><path d="M173.49,253.74s.24-.26.63-.75a5.42,5.42,0,0,0,1-2.37,8,8,0,0,0-.29-3.82,6.64,6.64,0,0,0-2.94-3.53l-.43-.22.34-.11a8.73,8.73,0,0,0-1.14,4.37,8.65,8.65,0,0,0,.83,3.6,13.47,13.47,0,0,0,2,2.83,2.73,2.73,0,0,1-.75-.58,7.86,7.86,0,0,1-1.54-2.09,8.34,8.34,0,0,1-1-3.75,8.86,8.86,0,0,1,1.16-4.64l.12-.21.21.11.47.24a6.93,6.93,0,0,1,3.13,3.82,7.91,7.91,0,0,1,.2,4.05,5.08,5.08,0,0,1-1.24,2.43A2.22,2.22,0,0,1,173.49,253.74Z" style="fill:#263238"></path><path d="M173.49,253.74a11.66,11.66,0,0,1-.71-3.37,11.79,11.79,0,0,1-.2-3.44,11.85,11.85,0,0,1,.72,3.37A11.18,11.18,0,0,1,173.49,253.74Z" style="fill:#263238"></path><path d="M328.47,256.71l-64-28.59a15.65,15.65,0,0,1-9.08-12L250,179.64a1.91,1.91,0,0,1,1.51-2.14h0a1.89,1.89,0,0,1,2.13,1.16l10.59,26.72,74.92,22.85c9.38,3,13,11.75,9.82,20h0A15.24,15.24,0,0,1,328.47,256.71Z" style="fill:#ffbe9d"></path><path d="M264.21,205.38a4.05,4.05,0,0,1,.76.19l2.15.66,7.89,2.48c6.65,2.1,15.85,5,26,8.09s19.44,5.8,26.15,7.73l7.94,2.28,2.16.64a6.4,6.4,0,0,1,.74.25,3.6,3.6,0,0,1-.77-.15l-2.18-.54c-1.89-.48-4.62-1.21-8-2.13-6.73-1.83-16-4.48-26.2-7.58s-19.37-6.05-26-8.24l-7.83-2.64-2.12-.75A4.2,4.2,0,0,1,264.21,205.38Z" style="fill:#eb996e"></path><path d="M347.57,251.53a2.23,2.23,0,0,1-.59,0,14.86,14.86,0,0,1-1.7-.08,12.35,12.35,0,0,1-2.65-.57,18.87,18.87,0,0,1-3.24-1.52c-1.15-.66-2.39-1.38-3.72-2.2s-2.7-1.74-4.14-2.72A45.9,45.9,0,0,0,321.7,239a31.57,31.57,0,0,0-11-2,33.3,33.3,0,0,0-9.07,1.32,32.74,32.74,0,0,0-5.76,2.31c-.66.33-1.14.64-1.49.81a2,2,0,0,1-.53.26,3.61,3.61,0,0,1,.48-.35c.33-.2.8-.54,1.44-.9a30.11,30.11,0,0,1,5.75-2.48,32.88,32.88,0,0,1,9.17-1.45,31.47,31.47,0,0,1,11.2,2,45.12,45.12,0,0,1,9.92,5.56c1.44,1,2.8,1.92,4.1,2.75s2.55,1.57,3.67,2.24a20.07,20.07,0,0,0,3.16,1.57,13.49,13.49,0,0,0,2.57.64C346.76,251.47,347.58,251.48,347.57,251.53Z" style="fill:#263238"></path><path d="M335.42,247.08a2.07,2.07,0,0,1,.09,1,5,5,0,0,1-.87,2.49,7.73,7.73,0,0,1-3,2.56,6.78,6.78,0,0,1-4.77.36l-.48-.17-.22-.07.07-.24a8.66,8.66,0,0,1,2.47-3.91,8.28,8.28,0,0,1,5.77-2.12,2.31,2.31,0,0,1,.9.14,13.92,13.92,0,0,0-3.29.51,8.2,8.2,0,0,0-3.06,1.82,8.3,8.3,0,0,0-2.29,3.7l-.16-.31.44.15a6.38,6.38,0,0,0,4.42-.3,7.65,7.65,0,0,0,2.86-2.33,5.27,5.27,0,0,0,1-2.3C335.4,247.43,335.38,247.09,335.42,247.08Z" style="fill:#263238"></path><path d="M335.42,247.08a10.43,10.43,0,0,1-2.53,2.16,10.65,10.65,0,0,1-2.83,1.74,10.69,10.69,0,0,1,2.53-2.16A11,11,0,0,1,335.42,247.08Z" style="fill:#263238"></path><path d="M325.56,240.57a2.42,2.42,0,0,1-.14,1,5,5,0,0,1-1.41,2.22,7.73,7.73,0,0,1-3.47,1.81,6.68,6.68,0,0,1-4.72-.75c-.16-.08-.3-.18-.43-.26l-.2-.13.12-.22a8.64,8.64,0,0,1,3.3-3.23,8.21,8.21,0,0,1,3.61-1,8.1,8.1,0,0,1,2.49.28,2.3,2.3,0,0,1,.85.34,13.41,13.41,0,0,0-3.32-.26,8.32,8.32,0,0,0-6.48,4.15l-.08-.34c.13.08.26.17.4.24a6.34,6.34,0,0,0,4.36.73,7.71,7.71,0,0,0,3.32-1.62,5.23,5.23,0,0,0,1.47-2A6.05,6.05,0,0,1,325.56,240.57Z" style="fill:#263238"></path><path d="M325.56,240.57a10.77,10.77,0,0,1-3,1.52,10.39,10.39,0,0,1-3.16,1,21.29,21.29,0,0,1,6.12-2.56Z" style="fill:#263238"></path><path d="M342.72,250.59a2.21,2.21,0,0,1-.81-.52,5,5,0,0,1-1.44-2.2,7.7,7.7,0,0,1-.22-3.91,6.79,6.79,0,0,1,2.63-4l.42-.27.2-.14.15.21a8.66,8.66,0,0,1,1.58,4.33,8.27,8.27,0,0,1-.57,3.71,7.64,7.64,0,0,1-1.27,2.16c-.39.45-.65.65-.67.63a12.84,12.84,0,0,0,1.61-2.92,8.29,8.29,0,0,0-1.11-7.61l.35.07c-.12.08-.26.16-.39.26a6.42,6.42,0,0,0-2.46,3.68,7.66,7.66,0,0,0,.1,3.69,5.23,5.23,0,0,0,1.23,2.17C342.46,250.36,342.75,250.55,342.72,250.59Z" style="fill:#263238"></path><path d="M342.72,250.59a10.72,10.72,0,0,1-.16-3.32,11,11,0,0,1,.35-3.31,10.57,10.57,0,0,1,.17,3.32A10.8,10.8,0,0,1,342.72,250.59Z" style="fill:#263238"></path><path d="M318.67,238a1.81,1.81,0,0,1-.88-.09,4.5,4.5,0,0,1-2.08-1.25,7.12,7.12,0,0,1-1.75-3.15,6.15,6.15,0,0,1,.57-4.36c.08-.15.17-.28.24-.4l.12-.21.22.12a7.84,7.84,0,0,1,3.05,3,7.46,7.46,0,0,1,1,3.3,7.07,7.07,0,0,1-.2,2.3,2.07,2.07,0,0,1-.3.78,12.68,12.68,0,0,0,.14-3,7.5,7.5,0,0,0-1.06-3.09,7.69,7.69,0,0,0-2.88-2.74l.34-.09c-.07.12-.15.24-.22.37a5.9,5.9,0,0,0-.57,4,7.23,7.23,0,0,0,1.56,3,4.74,4.74,0,0,0,1.87,1.3A7.54,7.54,0,0,1,318.67,238Z" style="fill:#263238"></path><path d="M318.67,238a18.1,18.1,0,0,1-2.49-5.55,18.1,18.1,0,0,1,2.49,5.55Z" style="fill:#263238"></path><path d="M310.73,236.76a2,2,0,0,1,.35.82A4.59,4.59,0,0,1,311,240a7.09,7.09,0,0,1-1.9,3.07,6.18,6.18,0,0,1-4.09,1.61,3.65,3.65,0,0,1-.47,0h-.24v-.25a7.94,7.94,0,0,1,1.1-4.11,7.64,7.64,0,0,1,2.39-2.49,7.21,7.21,0,0,1,2.11-.94,2.16,2.16,0,0,1,.83-.12,13.28,13.28,0,0,0-2.73,1.36,7.6,7.6,0,0,0-3.18,6.29l-.24-.26a2.91,2.91,0,0,0,.42,0,5.86,5.86,0,0,0,3.78-1.45,7.19,7.19,0,0,0,1.87-2.82,4.8,4.8,0,0,0,.23-2.27A7.33,7.33,0,0,1,310.73,236.76Z" style="fill:#263238"></path><path d="M310.73,236.76a9.08,9.08,0,0,1-1.61,2.6,8.9,8.9,0,0,1-2,2.28,9.39,9.39,0,0,1,1.61-2.59A9.29,9.29,0,0,1,310.73,236.76Z" style="fill:#263238"></path><path d="M305.12,237.13s-.23.17-.72.29a3.89,3.89,0,0,1-2.11-.15,6.08,6.08,0,0,1-2.61-1.75,5.47,5.47,0,0,1-1.28-3.64c0-.14,0-.28,0-.4l0-.24h.25a6.9,6.9,0,0,1,3.54,1.12,6.43,6.43,0,0,1,2.08,2.17,6.24,6.24,0,0,1,.74,1.87,1.7,1.7,0,0,1,.06.73,13.26,13.26,0,0,0-1.11-2.41,6.6,6.6,0,0,0-5.33-2.95l.27-.24c0,.12,0,.24,0,.37a5.1,5.1,0,0,0,1.12,3.31,6.15,6.15,0,0,0,2.36,1.72A5.13,5.13,0,0,0,305.12,237.13Z" style="fill:#263238"></path><path d="M305.12,237.13a6.88,6.88,0,0,1-2.22-1.46c-1.14-.92-2-1.76-1.89-1.87a7,7,0,0,1,2.22,1.46C304.36,236.18,305.21,237,305.12,237.13Z" style="fill:#263238"></path><path d="M330.42,243.25a2.4,2.4,0,0,1-.81-.52,4.91,4.91,0,0,1-1.44-2.21,7.69,7.69,0,0,1-.22-3.91,6.77,6.77,0,0,1,2.63-4l.42-.28.2-.13.14.2a8.65,8.65,0,0,1,1.59,4.34,8.29,8.29,0,0,1-.57,3.71,7.55,7.55,0,0,1-1.28,2.15c-.38.46-.64.66-.66.64a12.84,12.84,0,0,0,1.61-2.92,8.29,8.29,0,0,0-1.11-7.61l.35.07-.39.25a6.45,6.45,0,0,0-2.46,3.68,7.66,7.66,0,0,0,.1,3.69,5.05,5.05,0,0,0,1.23,2.17C330.16,243,330.45,243.21,330.42,243.25Z" style="fill:#263238"></path><path d="M330.42,243.25a10.8,10.8,0,0,1-.16-3.32,10.93,10.93,0,0,1,.35-3.31,10.89,10.89,0,0,1,.17,3.32A11.18,11.18,0,0,1,330.42,243.25Z" style="fill:#263238"></path></g><g id="freepik--Plant--inject-3"><path d="M62.35,393.43a2.13,2.13,0,0,1,.18-.44l.59-1.27a31,31,0,0,0,1.74-5.06c1.16-4.5,1.56-11.37-.14-19.54A105.86,105.86,0,0,0,61.09,354c-1.53-4.66-3.31-9.6-4.77-14.94A57.78,57.78,0,0,1,54,321.88c.22-6.08,2-12.15,4-18.19s4-11.95,4.63-17.9a27.35,27.35,0,0,0-3.28-16.54c-2.62-4.82-5.91-8.95-8.38-13.22a46.2,46.2,0,0,1-5-12.72,47.45,47.45,0,0,1-.32-19.69,37.18,37.18,0,0,1,2.06-7,2.7,2.7,0,0,1-.12.46l-.42,1.33a53.57,53.57,0,0,0-1.28,5.21,48.15,48.15,0,0,0,.52,19.55,45.66,45.66,0,0,0,5.05,12.56c2.46,4.22,5.77,8.33,8.44,13.21a27.79,27.79,0,0,1,3.38,16.87c-.61,6-2.67,12-4.64,18s-3.76,12-4,18a57.5,57.5,0,0,0,2.3,17c1.43,5.32,3.19,10.26,4.71,14.94A105,105,0,0,1,65.15,367c1.66,8.22,1.19,15.17-.05,19.68a29,29,0,0,1-1.86,5L62.59,393A3.44,3.44,0,0,1,62.35,393.43Z" style="fill:#263238"></path><path d="M54.28,260.25s-5-16,4-25.39a.56.56,0,0,1,1,.27C59.68,237.78,60.28,245.83,54.28,260.25Z" style="fill:#FFC100"></path><path d="M57.28,240.19a15.29,15.29,0,0,1-.34,3c-.33,2-.71,4.42-1.14,7.06s-.8,5-1.12,7.06a16.78,16.78,0,0,1-.53,2.92,12.58,12.58,0,0,1,.09-3c.16-1.83.49-4.35.94-7.11s.93-5.25,1.33-7A13.2,13.2,0,0,1,57.28,240.19Z" style="fill:#263238"></path><path d="M60.16,298s3.06-16.5,15.39-20.58a.55.55,0,0,1,.71.69C75.45,280.68,72.21,288.08,60.16,298Z" style="fill:#FFC100"></path><path d="M72.19,281.69a15.12,15.12,0,0,1-1.68,2.45l-4.31,5.71-4.3,5.72a15.2,15.2,0,0,1-1.83,2.33,12.58,12.58,0,0,1,1.47-2.59c1-1.54,2.46-3.61,4.16-5.84s3.28-4.2,4.46-5.6A12.81,12.81,0,0,1,72.19,281.69Z" style="fill:#263238"></path><path d="M56.83,339.39S55,322.72,65.58,315.23a.55.55,0,0,1,.88.45C66.42,318.36,65.48,326.38,56.83,339.39Z" style="fill:#FFC100"></path><path d="M63.6,320.28a14.42,14.42,0,0,1-.89,2.83c-.72,1.94-1.55,4.21-2.47,6.72s-1.75,4.78-2.45,6.72a15.08,15.08,0,0,1-1.08,2.76,12.33,12.33,0,0,1,.66-2.9c.51-1.77,1.31-4.17,2.28-6.8s1.92-5,2.64-6.66A13,13,0,0,1,63.6,320.28Z" style="fill:#263238"></path><path d="M66.11,381s-1.26-16.73,9.61-23.83a.55.55,0,0,1,.86.48C76.45,360.34,75.22,368.32,66.11,381Z" style="fill:#FFC100"></path><path d="M73.56,362.15a14.27,14.27,0,0,1-1,2.8l-2.71,6.63-2.69,6.62A15.68,15.68,0,0,1,66,380.93a12.47,12.47,0,0,1,.76-2.88c.57-1.74,1.45-4.12,2.52-6.71s2.1-4.91,2.88-6.56A14,14,0,0,1,73.56,362.15Z" style="fill:#263238"></path><path d="M47.08,246.18s-14.87-7.77-15.16-20.75a.56.56,0,0,1,.87-.48C35,226.48,41.12,231.75,47.08,246.18Z" style="fill:#FFC100"></path><path d="M35,229.89a14.54,14.54,0,0,1,1.85,2.33L41.05,238l4.21,5.78A16,16,0,0,1,47,246.23a11.89,11.89,0,0,1-2-2.16c-1.18-1.41-2.73-3.42-4.37-5.69s-3-4.37-4-5.91A13.25,13.25,0,0,1,35,229.89Z" style="fill:#263238"></path><path d="M63.05,280.56s-15.31-6.84-16.39-19.78a.55.55,0,0,1,.83-.53C49.79,261.64,56.22,266.52,63.05,280.56Z" style="fill:#FFC100"></path><path d="M50,265a14.63,14.63,0,0,1,2,2.21l4.54,5.53,4.55,5.52a16.54,16.54,0,0,1,1.84,2.33,12.78,12.78,0,0,1-2.17-2c-1.27-1.33-2.94-3.24-4.71-5.41s-3.32-4.18-4.4-5.66A13.66,13.66,0,0,1,50,265Z" style="fill:#263238"></path><path d="M54.24,318.92s-10.52-13.07-5.58-25.08a.55.55,0,0,1,1-.09C51.06,296,54.56,303.31,54.24,318.92Z" style="fill:#FFC100"></path><path d="M49.7,299.16a15.75,15.75,0,0,1,.77,2.87c.43,2,1,4.38,1.51,7s1.1,5,1.54,7a15.67,15.67,0,0,1,.58,2.91,12.31,12.31,0,0,1-1-2.8c-.51-1.77-1.13-4.23-1.72-7s-1-5.23-1.34-7A13.07,13.07,0,0,1,49.7,299.16Z" style="fill:#263238"></path><path d="M64.65,364.06S49.46,357,48.6,344a.55.55,0,0,1,.84-.52C51.72,344.91,58.07,349.9,64.65,364.06Z" style="fill:#FFC100"></path><path d="M51.88,348.32a14.16,14.16,0,0,1,1.95,2.24l4.44,5.6,4.46,5.6a16,16,0,0,1,1.8,2.36A12.47,12.47,0,0,1,62.39,362c-1.24-1.35-2.88-3.29-4.61-5.49s-3.25-4.23-4.3-5.73A13.23,13.23,0,0,1,51.88,348.32Z" style="fill:#263238"></path><path d="M94.93,298.1a1.33,1.33,0,0,1,0,.37c0,.29,0,.64,0,1.07,0,1-.11,2.37-.18,4.07-.2,3.57-.47,8.56-.8,14.52v0c-1.09,6.07-4.18,12.8-8.33,19.33-3,4.81-6.24,9.19-9,13.26a93.43,93.43,0,0,0-6.74,11.14,47.81,47.81,0,0,0-3.15,8.18c-.27,1-.47,1.78-.59,2.32a4.27,4.27,0,0,1-.22.81,5,5,0,0,1,.1-.83c.08-.55.24-1.34.47-2.36a43.51,43.51,0,0,1,3-8.31,89.54,89.54,0,0,1,6.67-11.28c2.73-4.09,5.91-8.48,8.94-13.26,4.13-6.5,7.2-13.13,8.33-19.1v0c.42-6,.77-10.94,1-14.51.14-1.7.25-3,.33-4.06,0-.43.08-.78.11-1.07S94.91,298.1,94.93,298.1Z" style="fill:#263238"></path><path d="M85.88,336.25s6.43-15.49-1.66-25.64a.56.56,0,0,0-1,.19C82.53,313.39,81.2,321.35,85.88,336.25Z" style="fill:#FFC100"></path><path d="M84.7,316a12.56,12.56,0,0,1,.51,2.93c.23,1.82.49,4.34.69,7.14s.29,5.32.29,7.16a12.2,12.2,0,0,1-.18,3,16.58,16.58,0,0,1-.26-3c-.14-2.05-.3-4.46-.48-7.13s-.35-5.08-.5-7.14A15.83,15.83,0,0,1,84.7,316Z" style="fill:#263238"></path><g style="opacity:0.30000000000000004"><path d="M85.88,336.25s6.43-15.49-1.66-25.64a.56.56,0,0,0-1,.19C82.53,313.39,81.2,321.35,85.88,336.25Z"></path></g><path d="M65.94,373.59s5.16-16-3.73-25.43a.56.56,0,0,0-1,.27C60.75,351.07,60.07,359.12,65.94,373.59Z" style="fill:#FFC100"></path><path d="M63.13,353.51a13.09,13.09,0,0,1,.75,2.88c.37,1.79.83,4.28,1.26,7.05s.72,5.29.87,7.12a12.15,12.15,0,0,1,.06,3,17.05,17.05,0,0,1-.5-2.93c-.3-2-.66-4.43-1-7.07s-.77-5-1.08-7.08A15.43,15.43,0,0,1,63.13,353.51Z" style="fill:#263238"></path><g style="opacity:0.30000000000000004"><path d="M65.94,373.59s5.16-16-3.73-25.43a.56.56,0,0,0-1,.27C60.75,351.07,60.07,359.12,65.94,373.59Z"></path></g><path d="M94.07,317.32s13.75-9.62,12.36-22.53a.55.55,0,0,0-.92-.36C103.51,296.23,98.12,302.24,94.07,317.32Z" style="fill:#FFC100"></path><g style="opacity:0.30000000000000004"><path d="M94.07,317.32s13.75-9.62,12.36-22.53a.55.55,0,0,0-.92-.36C103.51,296.23,98.12,302.24,94.07,317.32Z"></path></g><path d="M103.94,299.61a12.74,12.74,0,0,1-1.14,2.75c-.78,1.65-1.92,3.92-3.25,6.38S96.94,313.4,96,315a12.6,12.6,0,0,1-1.74,2.41,16.2,16.2,0,0,1,1.36-2.64L99,308.44l3.41-6.29A15.19,15.19,0,0,1,103.94,299.61Z" style="fill:#263238"></path><path d="M71.48,357.76s16.58-2.58,21-14.78a.56.56,0,0,0-.67-.74C89.25,343,81.76,346,71.48,357.76Z" style="fill:#FFC100"></path><g style="opacity:0.30000000000000004"><path d="M71.48,357.76s16.58-2.58,21-14.78a.56.56,0,0,0-.67-.74C89.25,343,81.76,346,71.48,357.76Z"></path></g><path d="M88.14,346.21a12.91,12.91,0,0,1-2.23,2c-1.44,1.14-3.45,2.68-5.73,4.3s-4.4,3-6,4a12.48,12.48,0,0,1-2.63,1.39A16.26,16.26,0,0,1,74,356.09L79.81,352l5.83-4.14A14.11,14.11,0,0,1,88.14,346.21Z" style="fill:#263238"></path><polygon points="51.87 388.26 56.62 419.45 75.61 419.42 82.01 388.26 51.87 388.26" style="fill:#455a64"></polygon><path d="M79.23,400.3l-.16.11a4.24,4.24,0,0,1-.5.29,7,7,0,0,1-2.13.63A7.73,7.73,0,0,1,73,401a7.33,7.33,0,0,1-3.75-2.72,5.21,5.21,0,0,1-.88-2.61A2.82,2.82,0,0,1,69.61,393a3.05,3.05,0,0,1,3.18.26,4.61,4.61,0,0,1,1.82,2.86,12.17,12.17,0,0,1,.23,3.52,11.28,11.28,0,0,1-.77,3.61,8,8,0,0,1-2.2,3.14,6.09,6.09,0,0,1-3.65,1.52,6.68,6.68,0,0,1-3.8-1.1,11.62,11.62,0,0,1-2.84-2.56,6.28,6.28,0,0,1-1.43-3.43,4,4,0,0,1,1.34-3.3,3.09,3.09,0,0,1,3.37-.21,3.61,3.61,0,0,1,1.94,2.54,4.87,4.87,0,0,1-2.4,4.94,6.68,6.68,0,0,1-4.58.66,10.23,10.23,0,0,1-3.27-1.28,17.5,17.5,0,0,1-1.83-1.23,4.19,4.19,0,0,1-.59-.5,3.34,3.34,0,0,1,.65.41c.42.28,1,.69,1.87,1.15a10.72,10.72,0,0,0,3.22,1.17,6.46,6.46,0,0,0,4.34-.7,4.49,4.49,0,0,0,2.17-4.53,3.17,3.17,0,0,0-1.73-2.22,2.63,2.63,0,0,0-2.86.17,3.51,3.51,0,0,0-1.15,2.9A5.75,5.75,0,0,0,62,403.92a11.1,11.1,0,0,0,2.71,2.44,6.15,6.15,0,0,0,3.51,1,5.66,5.66,0,0,0,3.34-1.4,7.42,7.42,0,0,0,2.06-2.93,11.23,11.23,0,0,0,.75-3.45,11.82,11.82,0,0,0-.21-3.38,4.15,4.15,0,0,0-1.61-2.59,2.63,2.63,0,0,0-2.71-.27,2.43,2.43,0,0,0-1.1,2.29,4.86,4.86,0,0,0,.79,2.42,7,7,0,0,0,3.54,2.66,7.76,7.76,0,0,0,3.37.4A9.3,9.3,0,0,0,79.23,400.3Z" style="fill:#263238"></path></g></svg>