<svg xmlns="http://www.w3.org/2000/svg" viewBox="0 0 750 500"><g id="freepik--background-complete--inject-2"><path d="M278.74,294.64c-7.13,23.86-33.65,38.41-58.54,37.76s-45.91-17.59-60.52-37.76Z" style="fill:#fafafa"></path><path d="M309.82,296.1c7.57-30.75,37.31-54.59,69-55.29,18.28-.4,36.65,6.08,54.62,2.66,29.57-5.62,49.23-36.06,78.51-43.08,27.4-6.57,56.39,9,83.91,3,22-4.84,38.71-22.49,59-32.37a97.24,97.24,0,0,1,26.35-8.33,110.9,110.9,0,0,1,53.54,4.42l15.31,5.1V298.85Z" style="fill:#f5f5f5"></path><path d="M0,228.19c15.86-9.5,43.21-8.48,58.1,2.47,9.28,6.83,16.17,17.09,26.77,21.59,11.93,5.07,25.88,1.71,38.32,5.33,15.46,4.51,26.57,20.79,25.12,36.83H0Z" style="fill:#f5f5f5"></path><path d="M320.61,71.22h93.75s-8.29-15.08-32.42-12.89c-23.05,2.1-24.22-7.42-35.94-8.59S324.52,57.55,320.61,71.22Z" style="fill:#ebebeb"></path><path d="M82.6,201.06h61.33s-5.43-9.87-21.21-8.43c-15.08,1.37-15.84-4.85-23.51-5.62S85.16,192.12,82.6,201.06Z" style="fill:#f5f5f5"></path><path d="M532.45,121H635.78s-9.14-16.63-35.74-14.21c-25.4,2.31-26.69-8.18-39.6-9.47S536.76,105.88,532.45,121Z" style="fill:#f5f5f5"></path><path d="M403,294.41l-1,0-3.05,0-11.74.05L344,294.6l-142.46.07L59,294.6l-43.18-.09-11.74-.05-3,0-1,0,1,0,3.05,0,11.74-.05L59,294.23l142.48-.08,142.46.08,43.18.08,11.74.05,3.05,0Z" style="fill:#e0e0e0"></path></g><g id="freepik--Character--inject-2"><path d="M296.84,265.65a15.76,15.76,0,0,0-15.36,13.84l-1.76,77-.54,5.4s-14.6,9.64-14.24,10.13,30.15-8.26,30.15-8.26l1-8.28,7.37-65.25h41.77l.67-25.54Z" style="fill:#ffbe9d"></path><path d="M322.59,265.65a15.75,15.75,0,0,0-15.35,13.84L305,361.21h0l-.08.72s-14.59,9.64-14.23,10.13,30.15-8.26,30.15-8.26l1-8.27h0l7.37-65.25H371l.66-25.54Z" style="fill:#ffbe9d"></path><path d="M334.36,265.55a11.23,11.23,0,0,1-1.81,0c-1.16,0-2.83,0-4.9,0a33.54,33.54,0,0,0-7.16,1,18.93,18.93,0,0,0-7.77,3.94,15.91,15.91,0,0,0-4.54,7.39,31.36,31.36,0,0,0-1.18,7.12c-.13,2.06-.13,3.74-.14,4.9a12.11,12.11,0,0,1-.06,1.8,1.59,1.59,0,0,1-.07-.46c0-.31-.05-.76-.07-1.34-.06-1.16-.11-2.84,0-4.92a30.53,30.53,0,0,1,1.09-7.24,16.23,16.23,0,0,1,4.65-7.64,19,19,0,0,1,8-4,32.2,32.2,0,0,1,7.27-.86c2.08,0,3.76.05,4.92.12l1.33.09A1.62,1.62,0,0,1,334.36,265.55Z" style="fill:#eb996e"></path><polygon points="399.46 235.89 418.19 290.11 439.19 290.11 425.39 284.73 414.3 231.19 399.46 235.89" style="fill:#ffbe9d"></polygon><path d="M399.68,260.43h0l-2.82-13.33,2.89-8.06.18-3,16.49-5.34c-3.68-15.47-4.44-28.9-14.36-31.18-.05,0,.23,0,0,0-5.24-2.09-12.51-1.87-17.26-2.72-7.71-1.86-13.57,3.48-15.68,9a4.23,4.23,0,0,0-.18.7l-8,48.1-6.71,5.78h-1.67L303.85,265l30.51.54c14.56,2.43,9.26,24.72,9.26,24.72l48.26.56a7.4,7.4,0,0,0,3.05-1.39,16.43,16.43,0,0,0,6.88-14.73A132.27,132.27,0,0,0,399.68,260.43Z" style="fill:#FFC100"></path><path d="M380.55,195c-1.35,3.69-2.52,9.29-2.22,13.21a5.55,5.55,0,0,0,1.25,3.6,4.09,4.09,0,0,0,4,.77,11.11,11.11,0,0,0,3.68-2.18,27.06,27.06,0,0,0,6-6,17.71,17.71,0,0,0,3-8.58" style="fill:#ffbe9d"></path><path d="M380.07,218.69s.28,0,.71.24a3.29,3.29,0,0,1,1.35,1.54,3.21,3.21,0,0,1-.2,3,3.39,3.39,0,0,1-6.16-.74,3.14,3.14,0,0,1,.52-3,3.34,3.34,0,0,1,1.67-1.18,1.37,1.37,0,0,1,.74-.07s-.25.08-.67.26a3.47,3.47,0,0,0-1.45,1.21,2.84,2.84,0,0,0-.36,2.62,2.94,2.94,0,0,0,5.31.63,2.88,2.88,0,0,0,.26-2.63,3.38,3.38,0,0,0-1.13-1.51C380.3,218.82,380.05,218.73,380.07,218.69Z" style="fill:#fafafa"></path><path d="M383.62,237.06s.17-.22.62-.42a3.32,3.32,0,0,1,2.05-.13,3.18,3.18,0,0,1,2.28,2,3.39,3.39,0,0,1-4.33,4.44,3.18,3.18,0,0,1-2.06-2.23,3.31,3.31,0,0,1,.08-2.05,1.32,1.32,0,0,1,.4-.63,5.29,5.29,0,0,1-.2.7,3.4,3.4,0,0,0,.07,1.88,2.85,2.85,0,0,0,1.86,1.88,2.94,2.94,0,0,0,3.73-3.83,2.86,2.86,0,0,0-1.93-1.81,3.42,3.42,0,0,0-1.88,0C383.87,237,383.64,237.09,383.62,237.06Z" style="fill:#fafafa"></path><path d="M392.78,255.19s.17-.22.62-.41a3.32,3.32,0,0,1,2.05-.13,3.19,3.19,0,0,1,2.28,2,3.39,3.39,0,0,1-4.33,4.45,3.19,3.19,0,0,1-2.06-2.23,3.31,3.31,0,0,1,.08-2.05c.18-.45.38-.65.4-.63s-.09.25-.2.69a3.4,3.4,0,0,0,.07,1.88,2.81,2.81,0,0,0,1.86,1.88,2.94,2.94,0,0,0,3.73-3.83,2.84,2.84,0,0,0-1.93-1.8,3.42,3.42,0,0,0-1.88,0C393,255.09,392.8,255.23,392.78,255.19Z" style="fill:#fafafa"></path><path d="M393.7,271.2s.17-.22.62-.41a3.35,3.35,0,0,1,2-.14,3.2,3.2,0,0,1,2.29,2,3.4,3.4,0,0,1-4.34,4.45,3.2,3.2,0,0,1-2.05-2.23,3.3,3.3,0,0,1,.08-2.05c.18-.45.37-.65.4-.63s-.1.25-.21.69a3.42,3.42,0,0,0,.08,1.88,2.84,2.84,0,0,0,1.85,1.88,3.12,3.12,0,0,0,3.1-.71,3.16,3.16,0,0,0,.64-3.12,2.86,2.86,0,0,0-1.93-1.8,3.42,3.42,0,0,0-1.88,0C394,271.1,393.72,271.24,393.7,271.2Z" style="fill:#fafafa"></path><path d="M381.06,261.74s.17-.22.62-.42a3.28,3.28,0,0,1,2-.13,3.2,3.2,0,0,1,2.29,2,3.39,3.39,0,0,1-4.34,4.44,3.18,3.18,0,0,1-2.05-2.23,3.27,3.27,0,0,1,.08-2c.18-.46.37-.65.4-.64s-.1.25-.21.7a3.42,3.42,0,0,0,.08,1.88,2.86,2.86,0,0,0,1.85,1.88,2.95,2.95,0,0,0,3.74-3.83,2.88,2.88,0,0,0-1.93-1.81,3.46,3.46,0,0,0-1.89,0A6.72,6.72,0,0,1,381.06,261.74Z" style="fill:#fafafa"></path><path d="M393.49,212.84a1.37,1.37,0,0,1,.63-.41,3.34,3.34,0,0,1,2-.14,3.17,3.17,0,0,1,2.28,2,3.39,3.39,0,0,1-4.33,4.45,3.19,3.19,0,0,1-2.06-2.23,3.29,3.29,0,0,1,.09-2c.18-.45.37-.65.39-.63s-.09.25-.2.69a3.42,3.42,0,0,0,.08,1.88,2.82,2.82,0,0,0,1.85,1.88,3.12,3.12,0,0,0,3.1-.71,3.16,3.16,0,0,0,.63-3.12,2.84,2.84,0,0,0-1.93-1.8,3.42,3.42,0,0,0-1.88,0C393.74,212.74,393.52,212.88,393.49,212.84Z" style="fill:#fafafa"></path><path d="M363.75,253.63s.17-.22.62-.41a3.27,3.27,0,0,1,2-.14,3.2,3.2,0,0,1,2.29,2,3.4,3.4,0,0,1-4.34,4.45,3.2,3.2,0,0,1-2.05-2.24,3.28,3.28,0,0,1,.08-2c.18-.46.38-.65.4-.64s-.1.26-.21.7a3.42,3.42,0,0,0,.08,1.88,2.86,2.86,0,0,0,1.85,1.88,2.95,2.95,0,0,0,3.74-3.83,2.84,2.84,0,0,0-1.93-1.8,3.42,3.42,0,0,0-1.88,0C364,253.53,363.77,253.67,363.75,253.63Z" style="fill:#fafafa"></path><path d="M389.78,226.55s.17-.22.62-.42a3.32,3.32,0,0,1,2.05-.13,3.18,3.18,0,0,1,2.28,2,3.38,3.38,0,0,1-4.33,4.44,3.18,3.18,0,0,1-2.06-2.23,3.27,3.27,0,0,1,.08-2c.19-.46.38-.65.4-.64a5.29,5.29,0,0,1-.2.7,3.42,3.42,0,0,0,.08,1.88,2.84,2.84,0,0,0,1.85,1.88,2.94,2.94,0,0,0,3.73-3.83,2.8,2.8,0,0,0-1.93-1.8,3.33,3.33,0,0,0-1.88,0C390,226.45,389.8,226.58,389.78,226.55Z" style="fill:#fafafa"></path><path d="M368,230.73s.17-.22.62-.42a3.29,3.29,0,0,1,2-.13,3.18,3.18,0,0,1,2.29,2,3.39,3.39,0,0,1-4.33,4.44,3.18,3.18,0,0,1-2.06-2.23,3.31,3.31,0,0,1,.08-2c.18-.45.38-.65.4-.63s-.09.25-.21.7a3.42,3.42,0,0,0,.08,1.88,2.85,2.85,0,0,0,1.86,1.88,2.94,2.94,0,0,0,3.73-3.83,2.86,2.86,0,0,0-1.93-1.81,3.42,3.42,0,0,0-1.88,0C368.24,230.63,368,230.76,368,230.73Z" style="fill:#fafafa"></path><path d="M407,221.56s.17-.22.62-.41a3.29,3.29,0,0,1,2-.13,3.18,3.18,0,0,1,2.29,2,3.39,3.39,0,0,1-4.33,4.45,3.19,3.19,0,0,1-2.06-2.23,3.31,3.31,0,0,1,.08-2c.18-.45.38-.65.4-.63a6.43,6.43,0,0,1-.21.69,3.42,3.42,0,0,0,.08,1.88,2.84,2.84,0,0,0,1.85,1.88,2.94,2.94,0,0,0,3.74-3.83,2.86,2.86,0,0,0-1.93-1.8,3.42,3.42,0,0,0-1.88,0C407.21,221.46,407,221.6,407,221.56Z" style="fill:#fafafa"></path><path d="M400.8,205.6s.17-.22.62-.41a3.24,3.24,0,0,1,2.05-.14,3.18,3.18,0,0,1,2.28,2,3.39,3.39,0,0,1-4.33,4.45,3.19,3.19,0,0,1-2.06-2.24,3.35,3.35,0,0,1,.08-2c.19-.46.38-.65.4-.64s-.09.26-.2.7a3.42,3.42,0,0,0,.08,1.88,2.84,2.84,0,0,0,1.85,1.88,2.94,2.94,0,0,0,3.73-3.83,2.82,2.82,0,0,0-1.93-1.8,3.33,3.33,0,0,0-1.88,0C401.05,205.5,400.82,205.64,400.8,205.6Z" style="fill:#fafafa"></path><path d="M371.91,204.8s.17-.22.62-.41a3.37,3.37,0,0,1,2.05-.14,3.2,3.2,0,0,1,2.28,2,3.39,3.39,0,0,1-4.33,4.45,3.19,3.19,0,0,1-2.06-2.23,3.3,3.3,0,0,1,.08-2.05c.18-.45.38-.65.4-.63s-.09.25-.2.69a3.31,3.31,0,0,0,.07,1.88,2.83,2.83,0,0,0,1.86,1.88,3.1,3.1,0,0,0,3.09-.71,3.14,3.14,0,0,0,.64-3.12,2.84,2.84,0,0,0-1.93-1.8,3.42,3.42,0,0,0-1.88,0C372.16,204.7,371.93,204.84,371.91,204.8Z" style="fill:#fafafa"></path><path d="M375.92,247.3s.17-.22.62-.41a3.31,3.31,0,0,1,2-.14,3.2,3.2,0,0,1,2.28,2,3.39,3.39,0,0,1-4.33,4.45,3.19,3.19,0,0,1-2.06-2.24,3.27,3.27,0,0,1,.08-2c.18-.46.38-.65.4-.64s-.09.26-.2.7a3.5,3.5,0,0,0,.07,1.88,2.85,2.85,0,0,0,1.86,1.88,2.94,2.94,0,0,0,3.73-3.83,2.82,2.82,0,0,0-1.93-1.8,3.42,3.42,0,0,0-1.88,0C376.17,247.2,375.94,247.34,375.92,247.3Z" style="fill:#fafafa"></path><path d="M378,272.16a1.37,1.37,0,0,1,.63-.41,3.27,3.27,0,0,1,2-.14,3.17,3.17,0,0,1,2.28,2,3.39,3.39,0,0,1-4.33,4.45,3.19,3.19,0,0,1-2.06-2.24,3.34,3.34,0,0,1,.09-2c.18-.46.37-.65.39-.64s-.09.26-.2.7a3.42,3.42,0,0,0,.08,1.88,2.84,2.84,0,0,0,1.85,1.88,3.14,3.14,0,0,0,3.1-.72,3.11,3.11,0,0,0,.63-3.11,2.82,2.82,0,0,0-1.93-1.8,3.43,3.43,0,0,0-1.88,0C378.22,272.06,378,272.2,378,272.16Z" style="fill:#fafafa"></path><path d="M350.17,274.37a1.43,1.43,0,0,1,.63-.42,3.28,3.28,0,0,1,2-.13,3.17,3.17,0,0,1,2.28,2,3.39,3.39,0,0,1-4.33,4.44,3.18,3.18,0,0,1-2.06-2.23,3.33,3.33,0,0,1,.09-2c.18-.46.37-.65.39-.64a5.29,5.29,0,0,1-.2.7,3.42,3.42,0,0,0,.08,1.88,2.84,2.84,0,0,0,1.85,1.88,3.14,3.14,0,0,0,3.1-.72,3.11,3.11,0,0,0,.63-3.11,2.84,2.84,0,0,0-1.93-1.81,3.41,3.41,0,0,0-1.88,0C350.42,274.27,350.2,274.4,350.17,274.37Z" style="fill:#fafafa"></path><path d="M387.32,284.8s.17-.22.62-.42a3.32,3.32,0,0,1,2.05-.13,3.2,3.2,0,0,1,2.28,2,3.39,3.39,0,0,1-4.33,4.44,3.18,3.18,0,0,1-2.06-2.23,3.27,3.27,0,0,1,.08-2c.18-.46.38-.65.4-.64a5.29,5.29,0,0,1-.2.7,3.4,3.4,0,0,0,.07,1.88,2.85,2.85,0,0,0,1.86,1.88,2.94,2.94,0,0,0,3.73-3.83,2.84,2.84,0,0,0-1.93-1.81,3.41,3.41,0,0,0-1.88,0C387.57,284.7,387.34,284.83,387.32,284.8Z" style="fill:#fafafa"></path><path d="M364.44,282.56a1.37,1.37,0,0,1,.63-.41,3.34,3.34,0,0,1,2-.14,3.17,3.17,0,0,1,2.28,2,3.39,3.39,0,0,1-4.33,4.45,3.19,3.19,0,0,1-2.06-2.24,3.27,3.27,0,0,1,.09-2c.18-.46.37-.65.39-.64s-.09.26-.2.7a3.42,3.42,0,0,0,.08,1.88,2.84,2.84,0,0,0,1.85,1.88,2.94,2.94,0,0,0,3.73-3.83,2.82,2.82,0,0,0-1.93-1.8,3.42,3.42,0,0,0-1.88,0C364.69,282.46,364.47,282.6,364.44,282.56Z" style="fill:#fafafa"></path><path d="M347.88,263.83s.17-.22.62-.41a3.37,3.37,0,0,1,2.05-.14,3.2,3.2,0,0,1,2.28,2,3.39,3.39,0,0,1-4.33,4.45,3.19,3.19,0,0,1-2.06-2.23,3.31,3.31,0,0,1,.08-2.05c.18-.45.38-.65.4-.63s-.09.25-.2.69a3.31,3.31,0,0,0,.07,1.88,2.83,2.83,0,0,0,1.86,1.88,3.1,3.1,0,0,0,3.09-.71,3.13,3.13,0,0,0,.64-3.12,2.86,2.86,0,0,0-1.93-1.8,3.42,3.42,0,0,0-1.88,0C348.13,263.73,347.9,263.87,347.88,263.83Z" style="fill:#fafafa"></path><path d="M365.73,266.74s.18-.22.63-.42a3.28,3.28,0,0,1,2-.13,3.17,3.17,0,0,1,2.28,2,3.39,3.39,0,0,1-4.33,4.44,3.18,3.18,0,0,1-2.06-2.23,3.3,3.3,0,0,1,.09-2c.18-.45.37-.64.39-.63a5.29,5.29,0,0,1-.2.7,3.42,3.42,0,0,0,.08,1.88,2.84,2.84,0,0,0,1.85,1.88,2.94,2.94,0,0,0,3.73-3.83,2.84,2.84,0,0,0-1.93-1.81,3.42,3.42,0,0,0-1.88,0A6.34,6.34,0,0,1,365.73,266.74Z" style="fill:#fafafa"></path><g style="opacity:0.30000000000000004"><path d="M396.53,231a39.55,39.55,0,0,0-4.3,12.66,22.18,22.18,0,0,0,1.94,13.08,12.26,12.26,0,0,0,3,3.87,1.11,1.11,0,0,0,1.79-.59c.48-2.41-.38-5.44-1-7.74-.4-1.51-.89-4.07-1-4.92a1.11,1.11,0,0,1,0-.57l2.45-6.92a5.24,5.24,0,0,0,.5-2.82,1.08,1.08,0,0,0-1.4-.89h0a1.1,1.1,0,0,1-1.41-.9l-.57-4.26"></path></g><path d="M397.28,236.56a7.54,7.54,0,0,1-.32-1.48c-.17-1.06-.39-2.43-.66-4.07s-.58-3.8-.92-6-.72-4.78-.94-7.45a34.19,34.19,0,0,1,.09-7.53,14.5,14.5,0,0,1,2.11-5.78,10.42,10.42,0,0,1,2.86-3,7.1,7.1,0,0,1,1-.56,1.72,1.72,0,0,1,.36-.15c0,.05-.46.29-1.23.87a11.34,11.34,0,0,0-2.67,3,14.57,14.57,0,0,0-1.94,5.66,35.18,35.18,0,0,0-.05,7.42c.21,2.64.59,5.14.9,7.42s.57,4.31.8,6.07.37,3,.5,4.09A9.35,9.35,0,0,1,397.28,236.56Z" style="fill:#263238"></path><path d="M387.5,275.05c-.09.05-.63-1.06-1.77-2.67a24.4,24.4,0,0,0-12.13-9c-1.87-.63-3.09-.83-3.07-.93a3,3,0,0,1,.87.07,14.48,14.48,0,0,1,2.31.51A22.18,22.18,0,0,1,386,272.17a15.36,15.36,0,0,1,1.15,2.07A3,3,0,0,1,387.5,275.05Z" style="fill:#263238"></path><path d="M381.32,281.79a22.37,22.37,0,0,0-1.17-5.32,21.36,21.36,0,0,0-8.21-10,34.12,34.12,0,0,0-12.24-4.7c-1.66-.32-3-.52-4-.65a7.69,7.69,0,0,1-1.46-.24,8.87,8.87,0,0,1,1.49,0c.95.07,2.32.21,4,.49A32.52,32.52,0,0,1,372.23,266a21,21,0,0,1,8.26,10.3,15,15,0,0,1,.84,4,8.58,8.58,0,0,1,0,1.1C381.35,281.66,381.34,281.79,381.32,281.79Z" style="fill:#263238"></path><path d="M381.64,155.83c-6.42-.34-8.82,8.07-8.87,13,0,2.33.44,4.92-.93,6.82-1,1.34-2.69,2-3.52,3.47-1,1.73-.42,3.91,0,5.88s.44,4.41-1.22,5.56a56.31,56.31,0,0,0,10.82,3.16,18.67,18.67,0,0,0,11-1.34" style="fill:#263238"></path><path d="M375.39,172.49c-3.25-10.06,3-15.4,7-17.15a15.65,15.65,0,0,1,7.57-.87,27.65,27.65,0,0,1,7.44,1.4,13.53,13.53,0,0,1,6.14,4.29c2.74,3.56,3,8.47,2.26,12.91a35.19,35.19,0,0,1-5.88,14.6,3.7,3.7,0,0,1-1.46,1.4,1.37,1.37,0,0,1-1.77-.51" style="fill:#263238"></path><path d="M386.34,207c4.31.72,8.45-2.63,9.57-9.26l5.66-33.7-.39,2.33a2.74,2.74,0,0,0-2.18-3l-13.31-2.71a8.22,8.22,0,0,0-9.76,6.76c-.82,5.14-1.62,11.44-1.38,15.35.49,7.87,6.34,9.43,6.34,9.43l-1,5.58a7.91,7.91,0,0,0,6.47,9.22Z" style="fill:#ffbe9d"></path><path d="M377.46,172.63a1,1,0,0,0,.87,1.1,1,1,0,0,0,1.11-.8,1,1,0,0,0-.86-1.09A1,1,0,0,0,377.46,172.63Z" style="fill:#263238"></path><path d="M377,170.84c.11.14.91-.34,2-.24s1.81.72,1.93.6,0-.3-.35-.58A2.78,2.78,0,0,0,379,170a2.63,2.63,0,0,0-1.6.35C377.07,170.56,376.93,170.78,377,170.84Z" style="fill:#263238"></path><path d="M387.92,173.64a1,1,0,0,0,.86,1.09,1,1,0,0,0,1.11-.8,1,1,0,0,0-.86-1.09A1,1,0,0,0,387.92,173.64Z" style="fill:#263238"></path><path d="M387.48,172.05c.11.14.92-.34,2-.24s1.8.72,1.93.6,0-.3-.36-.58a2.71,2.71,0,0,0-1.53-.64,2.66,2.66,0,0,0-1.6.35C387.56,171.76,387.43,172,387.48,172.05Z" style="fill:#263238"></path><path d="M382.84,179.61a7,7,0,0,0-1.71-.48c-.27,0-.52-.13-.55-.32a1.48,1.48,0,0,1,.26-.8l1-2a35.13,35.13,0,0,0,2.33-5.27,38.43,38.43,0,0,0-2.75,5.07c-.34.71-.67,1.38-1,2a1.56,1.56,0,0,0-.25,1.06.69.69,0,0,0,.41.44,1.89,1.89,0,0,0,.46.11A7.1,7.1,0,0,0,382.84,179.61Z" style="fill:#263238"></path><path d="M380.89,192.2a19.87,19.87,0,0,0,10.65-1.78s-3.3,5.1-11,3.63Z" style="fill:#eb996e"></path><path d="M383.05,182.23a1.94,1.94,0,0,1,1.79-.55,1.8,1.8,0,0,1,1.16.77,1.13,1.13,0,0,1,0,1.28,1.29,1.29,0,0,1-1.44.22,4.19,4.19,0,0,1-1.29-.94,1.49,1.49,0,0,1-.27-.35.36.36,0,0,1,0-.4" style="fill:#eb996e"></path><path d="M385.92,180.65c-.17,0-.29,1.14-1.36,1.87s-2.3.48-2.32.64.25.25.77.32a2.92,2.92,0,0,0,1.93-.48,2.5,2.5,0,0,0,1.07-1.57C386.1,181,386,180.65,385.92,180.65Z" style="fill:#263238"></path><path d="M387.18,170.13c.08.3,1.16.27,2.4.54s2.22.71,2.41.46-.06-.41-.44-.73a4.31,4.31,0,0,0-3.67-.76C387.4,169.78,387.15,170,387.18,170.13Z" style="fill:#263238"></path><path d="M377.68,167.78c.16.27.92.08,1.81.16s1.62.32,1.82.08,0-.37-.32-.63a2.62,2.62,0,0,0-2.92-.19C377.73,167.42,377.6,167.66,377.68,167.78Z" style="fill:#263238"></path><path d="M383.27,155c7.92-3.48,15.69.27,21.16,7,1.21,1.48,2.26,3.18,3.93,4.1s4.33,1.11,5.28,2.94c1.12,2.14-.93,4.8-.19,7.09.68,2.11,3.4,3,4.24,5,.66,1.61,0,3.42-.58,5.08s-.89,3.66.26,5l-16.76,4.54a4.15,4.15,0,0,1-2.29,0c-2.25-.68-2.21-2.82-1.82-4.56a7.32,7.32,0,0,0,.28-3.92c-.52-1.48-2.11-2.41-2.56-3.91-.78-2.66,2.37-5,2.29-7.81a5.17,5.17,0,0,0-2.92-4.06,51.05,51.05,0,0,0-4.85-1.94c-3.69-1.59-6.48-5.39-7.73-9.43a4.22,4.22,0,0,1,2.26-5.1Z" style="fill:#263238"></path></g><g id="freepik--Plants--inject-2"><path d="M662.24,244.39c0-1,3.27-64.79,3.27-64.79l5,28.87Z" style="fill:#FFC100"></path><g style="opacity:0.30000000000000004"><path d="M662.24,244.39c0-1,3.27-64.79,3.27-64.79l5,28.87Z"></path></g><path d="M661,314.51c.25-.72,5.58-12.37,5.58-12.37l23.54-29.85-14.56,32.76Z" style="fill:#FFC100"></path><polygon points="658.35 331.74 652.31 317.43 653.5 296.8 658.35 323.25 658.35 331.74" style="fill:#FFC100"></polygon><path d="M656.83,364.17c-.15,0,1-28.47,2.62-63.56s3-63.54,3.14-63.53-1,28.45-2.62,63.56S657,364.17,656.83,364.17Z" style="fill:#263238"></path><path d="M649.38,209.93c-.49-.73-2-24.51-1.22-26.45s8.5-28.15,8.5-28.15l-2.19,38.83Z" style="fill:#FFC100"></path><path d="M648,239.29s2.43-10.43,4.35-11.65S680,207,680,207l13.1-2.67-11.16,5.58Z" style="fill:#FFC100"></path><polygon points="637 206.04 644.04 248.51 646.95 251.91 647.96 240.75 637 206.04" style="fill:#FFC100"></polygon><polygon points="622.2 243.17 637 272.78 645.74 276.42 638.7 262.83 622.2 243.17" style="fill:#FFC100"></polygon><path d="M645.74,294.86c.48-.73,8.73-21.6,8.73-21.6l21.6-15h9.22l-6.55,1.57Z" style="fill:#FFC100"></path><polygon points="630.88 294.86 638.15 313.08 644.12 314.27 644.12 310.1 630.88 294.86" style="fill:#FFC100"></polygon><path d="M644.09,365.09c-.14,0,1.25-35.73,3.11-79.79s3.49-79.77,3.63-79.77-1.25,35.73-3.11,79.8S644.24,365.09,644.09,365.09Z" style="fill:#263238"></path><g style="opacity:0.30000000000000004"><path d="M661,314.51c.25-.72,5.58-12.37,5.58-12.37l23.54-29.85-14.56,32.76Z"></path></g><g style="opacity:0.30000000000000004"><polygon points="658.35 331.74 652.31 317.43 653.5 296.8 658.35 323.25 658.35 331.74"></polygon></g><path d="M103.83,277.89c-.51-.47-7.51-19.16-7.32-20.79s1.17-23.22,1.17-23.22l5.7,30.22Z" style="fill:#FFC100"></path><path d="M107.06,295.09s-.11-8.47,1.13-9.76,17.3-21.09,17.3-21.09L135,259.7l-7.51,6.41Z" style="fill:#FFC100"></path><polygon points="93.98 278.32 107.45 309.58 110.33 311.63 108.99 302.87 93.98 278.32" style="fill:#FFC100"></polygon><polygon points="89.87 308.7 106.86 328.62 114.26 329.75 106.27 320.66 89.87 308.7" style="fill:#FFC100"></polygon><polygon points="128.48 312.69 122.74 338.23 116.72 342.68 119.54 330.92 128.48 312.69" style="fill:#FFC100"></polygon><polygon points="105.82 343.91 114.87 356.52 119.67 356.3 118.88 353.09 105.82 343.91" style="fill:#FFC100"></polygon><path d="M121.09,363.82c-.14,0-4.36-20.16-9.42-45.09s-9.06-45.18-8.92-45.21,4.36,20.16,9.43,45.1S121.23,363.79,121.09,363.82Z" style="fill:#263238"></path></g><g id="freepik--Birds--inject-2"><path d="M474.24,110a5.37,5.37,0,0,1-.75.22c-.5.15-1.25.3-2.19.58a61,61,0,0,0-29.94,19l-.21.25-.2-.26-1.29-1.7a47.68,47.68,0,0,0-11.85-10.63,49.3,49.3,0,0,0-20.45-7.28c-1-.15-1.85-.17-2.4-.23a4.36,4.36,0,0,1-.83-.11s.29,0,.84,0,1.36,0,2.41.14a45.27,45.27,0,0,1,8.7,1.67,48.12,48.12,0,0,1,12,5.41,47.08,47.08,0,0,1,12,10.71c.44.59.89,1.17,1.3,1.71H441a59.12,59.12,0,0,1,22.36-16.23,54.54,54.54,0,0,1,7.93-2.62c.95-.26,1.71-.38,2.21-.49A3.82,3.82,0,0,1,474.24,110Z" style="fill:#263238"></path><path d="M106.68,144.42a12.64,12.64,0,0,1-1.62.49,36.25,36.25,0,0,0-4.34,1.56,33.8,33.8,0,0,0-12.23,9l-.21.24-.2-.26-.71-.94a26.61,26.61,0,0,0-6.55-5.89,26.93,26.93,0,0,0-6.55-3,28.63,28.63,0,0,0-4.77-1.05,17.67,17.67,0,0,1-1.79-.23,1.35,1.35,0,0,1,.47,0c.31,0,.76,0,1.34.05a24.35,24.35,0,0,1,4.86.9,26.69,26.69,0,0,1,13.4,9l.73,1-.41,0a32.7,32.7,0,0,1,12.48-9,29,29,0,0,1,4.43-1.42c.53-.14.95-.2,1.23-.25A1.34,1.34,0,0,1,106.68,144.42Z" style="fill:#263238"></path><path d="M506.31,141.94s-.56-.3-1.6-.73a12.74,12.74,0,0,0-4.63-1,12,12,0,0,0-6.69,1.81,12.53,12.53,0,0,0-5.21,6.63l-.19.58-.29-.55-.16-.29a13.08,13.08,0,0,0-6.3-5.8,12.75,12.75,0,0,0-7-.92,13.75,13.75,0,0,0-4.57,1.52c-1,.55-1.51,1-1.54.91s.11-.12.34-.32a10,10,0,0,1,1.1-.77,13.07,13.07,0,0,1,4.62-1.7,12.81,12.81,0,0,1,7.23.84,13.45,13.45,0,0,1,6.57,6l.17.3-.48,0a12.75,12.75,0,0,1,5.45-6.87,12.15,12.15,0,0,1,6.95-1.78,12.34,12.34,0,0,1,4.7,1.15,8.05,8.05,0,0,1,1.15.64A1.67,1.67,0,0,1,506.31,141.94Z" style="fill:#263238"></path></g><g id="freepik--Sea--inject-2"><path d="M31.86,371.94S33.92,370.53,38,368a110.42,110.42,0,0,1,18.77-9,87.65,87.65,0,0,1,14.56-3.84,73.27,73.27,0,0,1,17.88-.75,83.71,83.71,0,0,1,20.13,4.21c3.46,1.16,7,2.52,10.49,4s7.11,3.23,10.76,5,7.4,3.5,11.38,4.9c1,.38,2,.65,3,.95s2.07.5,3.14.64c2.13.37,4.29.62,6.49.8a63.33,63.33,0,0,0,27-3.66,130.32,130.32,0,0,0,13.23-5.87c4.44-2.12,9-4.23,13.69-6.11a73.7,73.7,0,0,1,7.25-2.49c2.5-.71,5.07-1.06,7.64-1.52a80,80,0,0,1,15.83-1,84.64,84.64,0,0,1,16.07,2.43c5.33,1.26,10.69,2.65,16.18,3.7,11,2,22.24,4.16,33.77,5.6a201.65,201.65,0,0,0,35.38,1.36c12-.59,24-3.1,35.93-6.09s23.76-6.2,35.68-8a113.3,113.3,0,0,1,17.86-1.45l2.22,0,2.21.09c1.48.07,3,.11,4.42.2,2.93.28,5.85.47,8.73.91,11.58,1.48,22.71,4.25,33.54,7.08s21.38,5.83,31.81,8.17a215.85,215.85,0,0,0,30.84,4.63,234.15,234.15,0,0,0,29.43.29c19-1,36.51-3.85,52.53-6s30.62-3.71,43.49-3.67a170.44,170.44,0,0,1,32.79,3,173.65,173.65,0,0,1,20.14,5.32l5.1,1.83,1.73.64-1.75-.59L722.21,372a179.31,179.31,0,0,0-20.14-5.22,171.82,171.82,0,0,0-32.76-2.94c-12.85,0-27.43,1.5-43.44,3.75s-33.53,5.06-52.56,6.08a233,233,0,0,1-29.48-.27,215.41,215.41,0,0,1-30.92-4.61c-10.44-2.34-21-5.31-31.83-8.16s-21.94-5.58-33.47-7.06c-2.88-.43-5.79-.62-8.71-.9-1.46-.09-2.92-.13-4.39-.19l-2.21-.09-2.21,0a113.61,113.61,0,0,0-17.78,1.46c-11.88,1.78-23.66,5-35.64,8s-24,5.52-36,6.11a203.64,203.64,0,0,1-35.47-1.37c-11.56-1.45-22.8-3.59-33.81-5.62s-21.47-5.8-32.18-6.14a79.11,79.11,0,0,0-15.73,1c-2.56.45-5.13.8-7.58,1.49a73.81,73.81,0,0,0-7.21,2.48c-4.7,1.87-9.23,4-13.66,6.08a130.46,130.46,0,0,1-13.28,5.88,63.92,63.92,0,0,1-27.15,3.65c-2.21-.18-4.39-.44-6.52-.81-1.08-.14-2.13-.41-3.18-.65s-2.06-.59-3.06-1c-4-1.42-7.75-3.22-11.41-4.94s-7.21-3.43-10.74-5-7-2.9-10.46-4.06a83.56,83.56,0,0,0-20-4.23,73.32,73.32,0,0,0-17.81.71,86.76,86.76,0,0,0-14.53,3.78A112.7,112.7,0,0,0,38,368.12c-2.05,1.2-3.56,2.22-4.6,2.85Z" style="fill:#263238"></path><path d="M628.18,406.42a1,1,0,0,1-.29-.1l-.83-.32a33.41,33.41,0,0,0-3.22-1.12,40.82,40.82,0,0,0-5.28-1.16,50.21,50.21,0,0,0-7.13-.49A88.91,88.91,0,0,0,593,405.55c-6.88,1.42-14.39,3.4-22.51,4.18a56.77,56.77,0,0,1-11.88,0c-3.82-.41-7.46-1.09-10.92-1.74s-6.73-1.28-9.82-1.7a58.48,58.48,0,0,0-8.65-.59,34.5,34.5,0,0,0-12.29,2.16,27.56,27.56,0,0,0-3.09,1.44l-.78.43a2.24,2.24,0,0,1-.27.14,19.75,19.75,0,0,1,4.07-2.2,33.89,33.89,0,0,1,12.36-2.34,58.55,58.55,0,0,1,8.7.53c3.11.4,6.4,1,9.86,1.65s7.09,1.31,10.88,1.71a57.19,57.19,0,0,0,11.78,0c8.06-.79,15.57-2.75,22.46-4.14a86.93,86.93,0,0,1,18.56-2.21,48.83,48.83,0,0,1,7.18.56,38.75,38.75,0,0,1,5.28,1.25A26.7,26.7,0,0,1,628.18,406.42Z" style="fill:#263238"></path><path d="M350.85,407.13l-.4-.2-1.11-.62c-.5-.26-1.14-.52-1.89-.86a26.15,26.15,0,0,0-2.69-.86c-4.09-1.12-10.44-1.28-17.79.76a93.74,93.74,0,0,0-11.72,4.2,131.26,131.26,0,0,1-13.45,5,44.44,44.44,0,0,1-7.63,1.53,28.27,28.27,0,0,1-4,.17c-.68,0-1.37,0-2-.07l-2.05-.22a55.61,55.61,0,0,1-8.21-1.81c-2.73-.82-5.45-1.77-8.19-2.75-5.48-2-10.85-3.91-16.26-4.72a40.53,40.53,0,0,0-15.63.74c-4.91,1.1-9.47,2.63-13.77,3.92a77.33,77.33,0,0,1-12.15,2.92c-7.6,1.14-14,.09-17.86-1.66a24.11,24.11,0,0,1-2.55-1.28c-.68-.46-1.28-.82-1.72-1.16l-1-.82a1.58,1.58,0,0,1-.33-.29,3.51,3.51,0,0,1,.36.25l1,.77c.45.33,1.06.67,1.74,1.12a23.67,23.67,0,0,0,2.55,1.22c3.89,1.67,10.19,2.66,17.72,1.48a78.74,78.74,0,0,0,12.09-3c4.29-1.31,8.84-2.86,13.78-4a40.68,40.68,0,0,1,15.82-.78c5.48.81,10.88,2.77,16.35,4.73,2.74,1,5.46,1.93,8.16,2.74a54.15,54.15,0,0,0,8.13,1.8l2,.22c.67,0,1.34.05,2,.08a27.51,27.51,0,0,0,4-.17,44.06,44.06,0,0,0,7.55-1.49,134.4,134.4,0,0,0,13.42-5A92.18,92.18,0,0,1,326.88,405c7.4-2,13.82-1.8,17.94-.6a23.31,23.31,0,0,1,2.69.91c.74.36,1.39.63,1.88.91l1.09.67A2.67,2.67,0,0,1,350.85,407.13Z" style="fill:#263238"></path></g><g id="freepik--Wharf--inject-2"><path d="M432.83,352.07c-.72,0-1.3-16-1.3-35.73s.58-35.72,1.3-35.72,1.3,16,1.3,35.72S433.55,352.07,432.83,352.07Z" style="fill:#263238"></path><path d="M503.22,366.17c-.36,0-.69-4.78-.93-12.53s-.38-18.43-.38-30.24.15-22.51.38-30.25.57-12.53.93-12.53.68,4.78.92,12.53.38,18.43.38,30.25-.15,22.5-.38,30.24S503.58,366.17,503.22,366.17Z" style="fill:#263238"></path><path d="M503.14,338c0,.72-15.86,1.3-35.43,1.3s-35.44-.58-35.44-1.3,15.86-1.3,35.44-1.3S503.14,337.23,503.14,338Z" style="fill:#263238"></path><path d="M503.14,314.35c0,.72-15.86,1.3-35.43,1.3s-35.44-.58-35.44-1.3,15.86-1.3,35.44-1.3S503.14,313.63,503.14,314.35Z" style="fill:#263238"></path><path d="M369.63,363.07c-5.28,1.12-10.56,2.84-17.8,3.45l-.34-100.36a9.07,9.07,0,0,1,9.07-9.07h0a9.07,9.07,0,0,1,9.07,9.07Z" style="fill:#263238"></path><path d="M418.06,298.85H333.52a4.44,4.44,0,0,1-4.44-4.44h0a4.44,4.44,0,0,1,4.44-4.44h84.54Z" style="fill:#263238"></path><rect x="420.84" y="289.97" width="91.55" height="8.88" style="fill:#263238"></rect><rect x="516.07" y="289.97" width="91.55" height="8.88" style="fill:#263238"></rect><rect x="611.31" y="289.97" width="91.55" height="8.88" style="fill:#263238"></rect><rect x="705.37" y="289.97" width="44.63" height="8.88" style="fill:#263238"></rect><path d="M568.82,373.39c-2.31.72-11.52.4-18.14.19V266.16a9.07,9.07,0,0,1,9.07-9.07h0a9.07,9.07,0,0,1,9.07,9.07Z" style="fill:#263238"></path><path d="M568.82,290c0,.29-4.06.6-9.08.53s-9-.23-9.06-.51,4.06-.6,9.07-.53S568.81,289.68,568.82,290Z" style="fill:#455a64"></path><path d="M569.69,283.05c.12.25-4,2.28-9.31,3.8s-9.88,2-9.91,1.71,4.34-1.18,9.62-2.71S569.57,282.78,569.69,283.05Z" style="fill:#455a64"></path><path d="M569.07,282.25c0,.28-4,.91-9.08.95s-9.12-.51-9.1-.79,4.09-.2,9.09-.25S569,282,569.07,282.25Z" style="fill:#455a64"></path><path d="M569.06,279.78c0,.29-4,.76-9,1.06s-9.1.31-9.12,0,4-.76,9.06-1.06S569.05,279.49,569.06,279.78Z" style="fill:#455a64"></path><path d="M569,299c0,.3-4.13.07-9.17.13s-9.13.36-9.17.06,4-1.06,9.16-1.1S569.06,298.71,569,299Z" style="fill:#455a64"></path><path d="M569.27,302c.1.24-3.95,1.88-9.27,2.24s-9.55-.65-9.49-.91,4.25.26,9.42-.13S569.18,301.7,569.27,302Z" style="fill:#455a64"></path><path d="M569.79,306.65c0,.29-4.25.48-9.48.42s-9.48-.33-9.48-.62,4.25-.47,9.49-.42S569.8,306.36,569.79,306.65Z" style="fill:#455a64"></path><path d="M368.81,289.58c0,.28-3.86.6-8.62.52s-8.59-.22-8.6-.51,3.85-.6,8.62-.53S368.8,289.29,368.81,289.58Z" style="fill:#455a64"></path><path d="M369.64,282.66c.12.24-3.71,2.26-8.81,3.79s-9.41,2-9.44,1.71,4.12-1.18,9.14-2.7S369.52,282.38,369.64,282.66Z" style="fill:#455a64"></path><path d="M369.05,281.86c0,.28-3.82.91-8.62.95s-8.67-.51-8.64-.79,3.88-.2,8.63-.25S369,281.56,369.05,281.86Z" style="fill:#455a64"></path><path d="M369.05,279.38c0,.29-3.83.77-8.6,1.07s-8.64.31-8.66,0,3.83-.76,8.6-1.06S369,279.1,369.05,279.38Z" style="fill:#455a64"></path><path d="M369.63,299.15c0,.29-4,.64-8.94.79s-9,.05-9-.23,4-.65,8.92-.81S369.62,298.86,369.63,299.15Z" style="fill:#455a64"></path><path d="M369.24,301.6c.1.25-3.72,1.88-8.79,2.25s-9.09-.66-9-.91,4,.26,8.95-.13S369.14,301.31,369.24,301.6Z" style="fill:#455a64"></path><path d="M369.74,306.25c0,.29-4,.48-9,.43s-9-.33-9-.62,4-.48,9-.42S369.74,306,369.74,306.25Z" style="fill:#455a64"></path></g><g id="freepik--Sun--inject-2"><circle cx="239.98" cy="153.64" r="46.26" style="fill:#FFC100"></circle></g><g id="freepik--Glass--inject-2"><polygon points="440.09 289.97 437.69 271.92 453.81 271.92 451.64 289.97 440.09 289.97" style="fill:#e0e0e0"></polygon><path d="M439.64,280.88a2.73,2.73,0,0,1,1.92-2.19,6.25,6.25,0,0,1,3-.06,13.26,13.26,0,0,0,3,.33c.78,0,1.54-.28,2.32-.31s2.14.05,2.09.86c0,.33-1.35,9.88-1.35,9.88h-9.84Z" style="fill:#FFC100"></path><path d="M450.38,280.28s-.35.47-1.15,1a8.37,8.37,0,0,1-7,.64,3.08,3.08,0,0,1-1.3-.74,13.7,13.7,0,0,0,4.85.68A13.56,13.56,0,0,0,450.38,280.28Z" style="fill:#fafafa"></path><path d="M449.59,283.76c.07.13-.34.48-.9.78s-1.09.46-1.16.33.34-.48.91-.78S449.52,283.63,449.59,283.76Z" style="fill:#fafafa"></path><path d="M453.53,271.88a6.58,6.58,0,0,1-2.08,1.34,13.75,13.75,0,0,1-5.82,1.35,14,14,0,0,1-5.86-1.24,6.28,6.28,0,0,1-2.1-1.3c0-.07.84.42,2.24,1a15.16,15.16,0,0,0,11.39-.1C452.69,272.32,453.49,271.81,453.53,271.88Z" style="fill:#263238"></path></g><g id="freepik--Bag--inject-2"><path d="M530,290.17c2.61-1.83,2.72-5.61,2.34-8.78a90.59,90.59,0,0,0-5.53-21.2c-1.71-4.5-4.14-9.37-8.7-10.91-3.89-1.32-8.1.22-12.19.55-7.16.58-14.3-2.62-21.41-1.56-3,.45-6.08,1.8-7.78,4.34-2.18,3.28-1.64,7.61-2.74,11.38-.95,3.22-3.06,5.94-5.15,8.56s-4.27,5.27-5.36,8.44-.88,7,1.4,9.46Z" style="fill:#FFC100"></path><g style="opacity:0.4"><path d="M497.89,250c5.12,1.52,11,1.24,16.25.3,1.9-.34,4.09-.76,5.55.49s1.41,3.17,1,4.87a12.62,12.62,0,0,1-11.57,9.49c-3.12.1-6.15-1-9.08-2.07-4.82-1.78-9.76-3.61-13.68-6.93-1.8-1.53-3.55-3.43-5.89-3.73a3.73,3.73,0,0,1-1.38-.28c-.42-.22-.63-.37-.36-.76,0,0,1.23-.68,1.15-.65A30.51,30.51,0,0,1,497.89,250Z"></path></g><path d="M480.05,250.7a9.59,9.59,0,0,0-1.42.93,8.05,8.05,0,0,0-2.36,3.87,25.23,25.23,0,0,0-.66,6.82,20,20,0,0,1-.44,4.12,17.51,17.51,0,0,1-1.64,4.14c-1.45,2.68-3.24,4.94-4.57,7.17a16.82,16.82,0,0,0-2.53,6.31,10,10,0,0,0,.32,4.56c.35,1,.71,1.54.66,1.57a2.33,2.33,0,0,1-.27-.36,6.47,6.47,0,0,1-.58-1.14,9.59,9.59,0,0,1-.49-4.68,16.68,16.68,0,0,1,2.48-6.51c1.33-2.27,3.1-4.54,4.52-7.17a17,17,0,0,0,1.6-4,20.94,20.94,0,0,0,.47-4,24.18,24.18,0,0,1,.78-6.93,8,8,0,0,1,2.58-3.91,5.48,5.48,0,0,1,1.12-.65C479.89,250.72,480,250.68,480.05,250.7Z" style="fill:#263238"></path><path d="M528.94,290.77s.37-.49.86-1.46a11.72,11.72,0,0,0,1.1-4.45c.23-3.9-.61-9.35-2.35-15.07s-3.85-10.79-5.23-14.47a7,7,0,0,0-3.9-4.71,3.58,3.58,0,0,1,1.56.72,9,9,0,0,1,2.68,3.85c1.48,3.66,3.62,8.68,5.39,14.46s2.54,11.27,2.22,15.25A11,11,0,0,1,530,289.4a8.12,8.12,0,0,1-.72,1.06C529.06,290.68,529,290.78,528.94,290.77Z" style="fill:#263238"></path><path d="M524.15,254.26a2.31,2.31,0,0,1,.11.63,5.23,5.23,0,0,1,.07.78,7.61,7.61,0,0,1,0,1.07,14.15,14.15,0,0,1-2,6.49,15.81,15.81,0,0,1-2.93,3.7,17.06,17.06,0,0,1-4.53,3,22,22,0,0,1-12.19,1.54,32.16,32.16,0,0,1-11.54-4.35,54.35,54.35,0,0,1-8.08-6c-2.15-1.9-3.8-3.53-4.94-4.65l-1.29-1.31a2.61,2.61,0,0,1-.43-.49,3.83,3.83,0,0,1,.5.41l1.36,1.24c1.18,1.08,2.87,2.66,5,4.52a57.27,57.27,0,0,0,8.09,5.89,32.09,32.09,0,0,0,11.37,4.24,21.65,21.65,0,0,0,11.91-1.46,15.89,15.89,0,0,0,7.34-6.43,14.47,14.47,0,0,0,2.07-6.32C524.25,255.14,524.09,254.26,524.15,254.26Z" style="fill:#fafafa"></path><path d="M527.71,264a2.9,2.9,0,0,1-.12.68c-.11.45-.28,1.1-.56,1.92a23.63,23.63,0,0,1-3.47,6.45,22.86,22.86,0,0,1-8.43,6.8,21.16,21.16,0,0,1-13.1,1.72c-4.7-1-8.65-3.38-12-5.7s-6.22-4.65-8.6-6.63a52.8,52.8,0,0,1-5.31-5c-.57-.65-1-1.17-1.28-1.53a3.68,3.68,0,0,1-.4-.56,3.67,3.67,0,0,1,.48.5c.31.33.75.83,1.35,1.45a60,60,0,0,0,5.39,4.9c2.4,1.93,5.32,4.17,8.64,6.51s7.24,4.66,11.83,5.59a20.78,20.78,0,0,0,12.78-1.64,22.88,22.88,0,0,0,8.35-6.6,24.57,24.57,0,0,0,3.57-6.29c.31-.8.5-1.44.65-1.87A3.21,3.21,0,0,1,527.71,264Z" style="fill:#fafafa"></path><path d="M530.69,276.51s0,.06,0,.19a3.28,3.28,0,0,1,0,.55,6.82,6.82,0,0,1-.43,2.07,9.32,9.32,0,0,1-1.76,2.85,13.15,13.15,0,0,1-3.54,2.7,33.07,33.07,0,0,1-5,2.05,58.65,58.65,0,0,1-5.91,1.71,46.07,46.07,0,0,1-14,1.12,34.81,34.81,0,0,1-13.49-3.93,56.85,56.85,0,0,1-9.52-6.45c-2.52-2.08-4.47-3.88-5.81-5.12l-1.52-1.45a5.87,5.87,0,0,1-.51-.53,3,3,0,0,1,.58.45l1.59,1.38c1.38,1.2,3.36,2.95,5.9,5a58,58,0,0,0,9.51,6.31,34.82,34.82,0,0,0,13.31,3.84A46.16,46.16,0,0,0,514,288.16a59.07,59.07,0,0,0,5.88-1.65,31.9,31.9,0,0,0,4.92-2,12.94,12.94,0,0,0,3.49-2.56,9.08,9.08,0,0,0,1.79-2.73A8.9,8.9,0,0,0,530.69,276.51Z" style="fill:#fafafa"></path><path d="M475.56,290.84a5.73,5.73,0,0,1-2.44-.42,13.66,13.66,0,0,1-5-3.2,26.43,26.43,0,0,1-3.7-4.67,10.23,10.23,0,0,1-1.21-2.14,12.89,12.89,0,0,1,1.51,1.93,35.93,35.93,0,0,0,3.76,4.5,15.4,15.4,0,0,0,4.8,3.24C474.64,290.64,475.58,290.75,475.56,290.84Z" style="fill:#fafafa"></path><path d="M521.46,253.51a12.79,12.79,0,0,1,1,3,39.43,39.43,0,0,1,1.44,8.57,17.71,17.71,0,0,1-.81,6.06,16.11,16.11,0,0,1-10.15,10.33,20.22,20.22,0,0,1-8.3.9,30,30,0,0,1-8.05-1.94,27.47,27.47,0,0,1-6.79-3.67,19.15,19.15,0,0,1-4.79-5.14,25.28,25.28,0,0,1-2.59-5.49,46.13,46.13,0,0,1-1.88-8.47,11.17,11.17,0,0,1-.23-3.17,13.51,13.51,0,0,1,.83,3.06,61.46,61.46,0,0,0,2.32,8.2,20.82,20.82,0,0,0,7.19,9.86,27.79,27.79,0,0,0,6.48,3.39,29.18,29.18,0,0,0,7.65,1.81,19,19,0,0,0,7.67-.79,15,15,0,0,0,9.42-9.29,17.23,17.23,0,0,0,.92-5.64,50.85,50.85,0,0,0-.92-8.45A12.08,12.08,0,0,1,521.46,253.51Z" style="fill:#263238"></path></g></svg>