<svg xmlns="http://www.w3.org/2000/svg" viewBox="0 0 500 500"><g id="freepik--background-complete--inject-2"><path d="M36,242.55s-13.2,3.07-3,31.66S50.87,317.3,50.87,317.3s1.61,6.54-3.75,6.82-16.66-3.06-19.83,3c-3.29,6.33.72,13.23,9.79,20S65.48,369.54,67.22,371s3.2,4.53-.43,5.31-29.91.09-29.49,12.59,28.8,27.23,31.87,28.9,3.66,3.14,3.17,4.88-9.32.68-16.8.79-16.15,1.56-15.3,8.75,16.58,24.11,58.88,33.91l19.9,3.26,13.07-15.46c26-34.79,27.07-57.88,23.07-63.91s-11.54-1.55-17.32,3.2S126,404.42,124.5,403.41s-2-2.52-.73-5.78,13.41-32.82,5.67-42.64-27.38,7.68-30.65,9.43-4.16-1.62-3.75-3.78,5.11-26.59,7.66-37.62,1.16-18.89-5.44-21.6c-6.36-2.62-12.83,7.23-17.11,10.48s-7.26-2.79-7.26-2.79S69.43,293,58.74,264.64s-23-22-23-22" style="fill:#ebebeb"></path><path d="M119.44,474.18c-7.77-20.89-21-58.24-32.44-90.26S65.1,323,57.44,302c-3.84-10.44-6.95-18.89-9.1-24.77-1.07-2.9-1.9-5.17-2.47-6.73l-.63-1.76c-.14-.4-.19-.61-.19-.61s.09.2.25.59.39,1,.69,1.73c.59,1.56,1.46,3.81,2.57,6.7,2.24,5.82,5.41,14.26,9.29,24.7,7.77,20.89,18.26,49.83,29.74,81.83s24.6,69.39,32.26,90.31" style="fill:#e0e0e0"></path><path d="M42.9,332.48a6.81,6.81,0,0,1,1.34.57c.85.4,2.06,1,3.54,1.79,3,1.55,7,3.8,11.44,6.36l11.29,6.59,3.43,2a6,6,0,0,1,1.24.78,6.23,6.23,0,0,1-1.35-.56c-.85-.41-2.06-1-3.54-1.81-3-1.58-7-3.88-11.39-6.44l-11.33-6.51-3.44-2A6.37,6.37,0,0,1,42.9,332.48Z" style="fill:#e0e0e0"></path><path d="M76.71,349.45c-.15-.08,4.11-8.63,9.53-19.09s9.93-18.88,10.08-18.8-4.11,8.63-9.53,19.09S76.86,349.53,76.71,349.45Z" style="fill:#e0e0e0"></path><path d="M92.13,399.4a5.75,5.75,0,0,1,1-1.13l2.79-2.93c2.35-2.48,5.59-5.91,9-9.83s6.43-7.56,8.58-10.22l2.54-3.15a6,6,0,0,1,1-1.11,7.43,7.43,0,0,1-.8,1.26c-.54.78-1.35,1.91-2.39,3.27-2,2.73-5,6.44-8.44,10.36s-6.74,7.33-9.17,9.73c-1.23,1.19-2.23,2.15-2.94,2.79A6.94,6.94,0,0,1,92.13,399.4Z" style="fill:#e0e0e0"></path><path d="M58.17,390.78a5.88,5.88,0,0,1,1.36.2l3.66.78c3.08.68,7.33,1.66,12,2.79s8.92,2.18,12,3l3.62,1a5.63,5.63,0,0,1,1.3.44,5.88,5.88,0,0,1-1.36-.2L87.08,398c-3.08-.68-7.33-1.67-12-2.79s-8.92-2.18-12-3l-3.61-1A6.3,6.3,0,0,1,58.17,390.78Z" style="fill:#e0e0e0"></path><path d="M66.17,436.6a9.75,9.75,0,0,1,1.74.28l4.7,1c4,.86,9.41,2.08,15.43,3.46S99.5,444,103.43,445l4.65,1.17a9.82,9.82,0,0,1,1.69.51,10.18,10.18,0,0,1-1.74-.27l-4.7-1c-4-.85-9.41-2.07-15.43-3.46s-11.46-2.67-15.39-3.63l-4.65-1.18A10.24,10.24,0,0,1,66.17,436.6Z" style="fill:#e0e0e0"></path><path d="M108.79,446.1a11.15,11.15,0,0,1,1.2-1.46l3.4-3.84c2.87-3.25,6.82-7.75,11-12.84s7.93-9.79,10.58-13.21l3.15-4.05a10.57,10.57,0,0,1,1.22-1.45,11.17,11.17,0,0,1-1,1.59c-.69,1-1.71,2.43-3,4.18-2.57,3.49-6.23,8.25-10.46,13.34s-8.23,9.56-11.19,12.73c-1.48,1.59-2.7,2.86-3.55,3.71A11.73,11.73,0,0,1,108.79,446.1Z" style="fill:#e0e0e0"></path><path d="M356.75,469.39c-27.22-16.18-35.56-49.32-36.75-79.57-.2-5.05-1.15-10.32.93-14.92s7.44-8,12.1-6.23c3.87,1.49,5.82,5.72,8.18,9.16a29.55,29.55,0,0,0,12.64,10.42c3.33,1.43,7.38,2.15,10.41.17,4.17-2.71,4.24-8.75,3.84-13.76q-1.11-14-2.23-28c-.4-5-.79-10.12.42-15s4.33-9.54,9-11.23,10.77.63,12.13,5.46c.57,2,.31,4.16.6,6.23s1.43,4.3,3.45,4.73,4-1.12,5.34-2.7a56.51,56.51,0,0,0,10.63-18.93c2.52-7.31,5-14.67,9.78-19.46,5.15-5.12,10.46-10.71,17.6-11.64s15.12,2.93,17.45,9.84-1.26,14.4-5.32,20.45a112.2,112.2,0,0,1-21.65,23.9c-1.5,1.24-3.12,2.58-3.59,4.48-.84,3.42,2.56,6.5,5.94,7.36,3.83,1,7.85.28,11.79.45s8.3,1.59,10.05,5.17c2.43,5-1.46,10.65-5.42,14.48a96,96,0,0,1-27.14,18.45c-3.59,1.62-7.38,3.09-10.16,5.89s-4.25,7.45-2.19,10.84,6.74,4.19,10.55,3.19,7.11-3.35,10.69-5c6.69-3.11,15.62-3.29,20.46,2.34,3.19,3.7,3.85,9.12,2.72,13.89s-3.8,9-6.68,12.94c-10.09,13.76-23.45,25.22-39,31.93s-30.25,9.3-46.55,4.66" style="fill:#ebebeb"></path><path d="M363.15,449.9c3.32-15.55,8.38-32.3,14.27-49.64l4.4-12.82c1.46-4.2,2.9-8.37,4.57-12.36a223,223,0,0,1,10.88-22.39c3.8-6.95,7.67-13.41,11.32-19.42s7.2-11.54,10.63-16.45a177.91,177.91,0,0,1,17.89-21.93c2.31-2.42,4.16-4.23,5.43-5.44l1.46-1.38a3.28,3.28,0,0,1,.52-.44,4,4,0,0,1-.46.51c-.34.36-.8.84-1.39,1.44-1.22,1.26-3,3.11-5.3,5.56a189,189,0,0,0-17.61,22.06c-3.39,4.92-6.88,10.46-10.51,16.48s-7.46,12.49-11.24,19.43a226.92,226.92,0,0,0-10.79,22.32c-1.65,4-3.07,8.11-4.53,12.32s-2.91,8.49-4.4,12.82c-5.89,17.32-11,34-14.31,49.52" style="fill:#e0e0e0"></path><path d="M386.65,375a10,10,0,0,1-.65-2.1c-.36-1.36-.82-3.35-1.36-5.82-1.07-4.94-2.33-11.81-3.68-19.38s-2.7-14.41-3.84-19.32c-.57-2.46-1.05-4.44-1.4-5.8a10.25,10.25,0,0,1-.44-2.16,9.89,9.89,0,0,1,.79,2.06c.45,1.33,1,3.3,1.68,5.74,1.31,4.88,2.77,11.72,4.12,19.31s2.5,14.25,3.41,19.42c.43,2.33.79,4.3,1.07,5.87A10.47,10.47,0,0,1,386.65,375Z" style="fill:#e0e0e0"></path><path d="M450.18,358.25a14.64,14.64,0,0,1-2.55.5c-1.64.27-4,.64-6.94,1.2-5.86,1.07-13.89,2.83-22.67,5.16s-16.62,4.81-22.25,6.76c-2.82.95-5.08,1.79-6.65,2.35a13.9,13.9,0,0,1-2.47.8,14.35,14.35,0,0,1,2.34-1.14c1.53-.67,3.76-1.6,6.56-2.63,5.59-2.11,13.44-4.69,22.24-7a225.16,225.16,0,0,1,22.79-4.91c2.94-.48,5.34-.76,7-.91A14.46,14.46,0,0,1,450.18,358.25Z" style="fill:#e0e0e0"></path><path d="M363.85,448.66s-.2-.24-.5-.75l-1.27-2.25c-1.1-2-2.61-4.83-4.43-8.41-3.65-7.15-8.38-17.19-13.45-28.33s-9.71-21.22-13.2-28.43L326.83,372l-1.12-2.33a2.84,2.84,0,0,1-.33-.84,3.73,3.73,0,0,1,.5.75l1.27,2.25c1.09,2,2.61,4.83,4.43,8.41,3.65,7.15,8.38,17.19,13.45,28.34s9.71,21.21,13.2,28.43l4.17,8.53,1.12,2.33A3.6,3.6,0,0,1,363.85,448.66Z" style="fill:#e0e0e0"></path><path d="M447.42,414.78a3.41,3.41,0,0,1-.83.42l-2.42,1-8.95,3.65c-7.55,3.08-17.94,7.45-29.41,12.29s-21.9,9.13-29.52,12.06c-3.81,1.46-6.91,2.61-9.06,3.36l-2.49.86a3.43,3.43,0,0,1-.89.23,3.69,3.69,0,0,1,.83-.41l2.42-1,8.95-3.64c7.55-3.08,17.94-7.45,29.41-12.3s21.9-9.13,29.52-12.05c3.81-1.46,6.91-2.61,9.06-3.37l2.49-.85A3.82,3.82,0,0,1,447.42,414.78Z" style="fill:#e0e0e0"></path></g><g id="freepik--Hearts--inject-2"><path d="M310.1,40.92a13.47,13.47,0,0,0-3-7.53,13,13,0,0,0-6.52-4.56,10.48,10.48,0,0,0-11.84,4.72,10.47,10.47,0,0,0-11-5.64,13,13,0,0,0-7,3.77,13.58,13.58,0,0,0-3.9,7.13A16.47,16.47,0,0,0,268.25,49a23.36,23.36,0,0,0,7.57,8c5.05,3.45,11.71,7.8,11.71,7.8s6.08-4,11.49-6.86a23.38,23.38,0,0,0,8.45-7A16.49,16.49,0,0,0,310.1,40.92Z" style="fill:#FFC100"></path><path d="M262,65.49a9.06,9.06,0,0,0-2.78-4.7,8.68,8.68,0,0,0-4.78-2.36,7,7,0,0,0-7.38,4.32,7.09,7.09,0,0,0-2.29-2.07,7.19,7.19,0,0,0-5.58-.56,8.74,8.74,0,0,0-4.27,3.2,9.12,9.12,0,0,0-1.86,5.12,11,11,0,0,0,2,6.64,15.61,15.61,0,0,0,5.83,4.52c3.69,1.79,8.55,4,8.55,4s3.63-3.27,6.93-5.71a15.52,15.52,0,0,0,4.9-5.51A11.09,11.09,0,0,0,262,65.49Z" style="fill:#FFC100"></path><path d="M310.1,40.92a13.47,13.47,0,0,0-3-7.53,13,13,0,0,0-6.52-4.56,10.48,10.48,0,0,0-11.84,4.72,10.47,10.47,0,0,0-11-5.64,13,13,0,0,0-7,3.77,13.58,13.58,0,0,0-3.9,7.13A16.47,16.47,0,0,0,268.25,49a23.36,23.36,0,0,0,7.57,8c5.05,3.45,11.71,7.8,11.71,7.8s6.08-4,11.49-6.86a23.38,23.38,0,0,0,8.45-7A16.49,16.49,0,0,0,310.1,40.92Z" style="fill:#fff;opacity:0.5"></path><path d="M262,65.49a9.06,9.06,0,0,0-2.78-4.7,8.68,8.68,0,0,0-4.78-2.36,7,7,0,0,0-7.38,4.32,7.09,7.09,0,0,0-2.29-2.07,7.19,7.19,0,0,0-5.58-.56,8.74,8.74,0,0,0-4.27,3.2,9.12,9.12,0,0,0-1.86,5.12,11,11,0,0,0,2,6.64,15.61,15.61,0,0,0,5.83,4.52c3.69,1.79,8.55,4,8.55,4s3.63-3.27,6.93-5.71a15.52,15.52,0,0,0,4.9-5.51A11.09,11.09,0,0,0,262,65.49Z" style="fill:#fff;opacity:0.5"></path></g><g id="freepik--speech-bubble--inject-2"><path d="M399.45,54.39a6.75,6.75,0,0,1,.85,0l2.51.06c.55,0,1.17,0,1.85.06l2.21.25,2.58.3,2.89.58a53,53,0,0,1,14,4.89,47.18,47.18,0,0,1,14.46,11.31A35.9,35.9,0,0,1,449,90.3a33.8,33.8,0,0,1,.14,5.43c-.08.92-.06,1.85-.23,2.78s-.35,1.86-.52,2.8a35,35,0,0,1-4.7,11,44.53,44.53,0,0,1-9,9.92,53,53,0,0,1-12.95,7.47A55.65,55.65,0,0,1,406,133.64a39.33,39.33,0,0,1-4.21.29c-1.42.08-2.84.12-4.26.06a62.89,62.89,0,0,1-8.53-.86,57.11,57.11,0,0,1-17-5.73l.51,0L355.21,133l-1,.33.29-.86q2.63-7.63,5.09-14.83l.08.36a36.35,36.35,0,0,1-9.22-17,29,29,0,0,1-.68-8.69,23.07,23.07,0,0,1,.49-4.17c.14-.68.27-1.36.4-2s.4-1.31.6-2c3.34-10.44,11.36-18.15,19.29-22.57A52.39,52.39,0,0,1,382,56.77L384.6,56l2.45-.5,2.25-.45c.72-.11,1.41-.17,2.07-.25,1.3-.13,2.45-.32,3.46-.36l2.54-.06,1.55,0h.53a2.46,2.46,0,0,1-.53.06l-1.54.1-2.53.14c-1,.06-2.13.26-3.43.41a56.23,56.23,0,0,0-20.51,7c-7.78,4.41-15.59,12-18.8,22.32-.19.64-.44,1.27-.58,1.93s-.25,1.33-.38,2a22.18,22.18,0,0,0-.46,4.09,28.5,28.5,0,0,0,.71,8.52,35.78,35.78,0,0,0,9.1,16.58l.15.17-.07.2q-2.44,7.18-5,14.85l-.73-.53,17.28-5.58.27-.09.24.13a56.05,56.05,0,0,0,16.6,5.6,61.54,61.54,0,0,0,8.33.84,41.4,41.4,0,0,0,4.17-.06,37.32,37.32,0,0,0,4.11-.27A54.86,54.86,0,0,0,421.25,129a52.46,52.46,0,0,0,12.69-7.29,43.77,43.77,0,0,0,8.83-9.71,34.34,34.34,0,0,0,4.65-10.81c.18-.92.35-1.83.53-2.74s.15-1.82.23-2.72a32.61,32.61,0,0,0-.11-5.33,35.29,35.29,0,0,0-7.94-18.18A46.64,46.64,0,0,0,426,60.94a53.59,53.59,0,0,0-13.76-5l-2.85-.61L406.82,55l-2.19-.29c-.67-.06-1.29-.07-1.84-.11l-2.49-.15A4.21,4.21,0,0,1,399.45,54.39Z" style="fill:#263238"></path><path d="M373.4,89.55v2h-3.61v9.62h-2.24V91.52h-3.61v-2Z" style="fill:#263238"></path><path d="M377.2,89.55v5H383v-5h2.22v11.59H383v-4.7H377.2v4.7H375V89.55Z" style="fill:#263238"></path><path d="M395.62,98.69H390l-1,2.45h-2.3l5.08-11.59H394l5,11.59h-2.39Zm-.8-1.9-2-4.87-2.05,4.87Z" style="fill:#263238"></path><path d="M402.55,89.55l6,7.93V89.55h2.16v11.59h-2.11l-6-7.91v7.91h-2.17V89.55Z" style="fill:#263238"></path><path d="M421.22,101.14l-3.61-5-1.86,2v2.91h-2.22V89.55h2.22v5.67L421,89.55h2.58l-4.42,4.9,4.74,6.69Z" style="fill:#263238"></path><path d="M429.37,91.47c-1,0-1.72.38-1.72,1.1,0,2.35,6.22,1.07,6.21,5.23,0,2.17-1.89,3.43-4.44,3.43a7.51,7.51,0,0,1-4.9-1.86l.92-1.87a6.55,6.55,0,0,0,4,1.71c1.24,0,2-.47,2-1.28,0-2.42-6.23-1-6.23-5.17,0-2,1.74-3.31,4.34-3.31a7.88,7.88,0,0,1,4.19,1.23l-.89,1.92A7.39,7.39,0,0,0,429.37,91.47Z" style="fill:#263238"></path><path d="M437.72,100.08a1.14,1.14,0,1,1-2.27,0,1.14,1.14,0,1,1,2.27,0Zm-.1-10.41v2.88l-.36,4.82h-1.34l-.37-4.82V89.67Z" style="fill:#263238"></path></g><g id="freepik--Characters--inject-2"><path d="M146.29,189.4s-30.83-5.19-37.73,13.17C102.73,218.09,127,245.85,127,245.85l20.34-19.45Z" style="fill:#ffbe9d"></path><path d="M105.84,274.11s.82,36.38,11.83,70.19c3.62,11.15,16,69.59,16,69.59-12.22,23.81-21.1,37.72-24.79,58.92H263.73L252,401.8s4.75-57.19,4.79-57.76c3.41-44.55,6.08-93.26,3.66-94.93-15.81-10.84-47.46-25.42-68-27.56S111.61,242,105.84,274.11Z" style="fill:#263238"></path><path d="M204.82,364.43a4.39,4.39,0,0,1-.26.82c-.21.58-.49,1.35-.85,2.32l-.63,1.67c-.25.6-.57,1.23-.89,1.92a48.91,48.91,0,0,1-2.33,4.62c-.48.83-1,1.71-1.49,2.61s-1.18,1.79-1.79,2.73a71.53,71.53,0,0,1-4.29,5.78,82.89,82.89,0,0,1-11.8,11.5,82.5,82.5,0,0,1-14,8.7c-2.32,1-4.5,2.08-6.64,2.79-1.07.37-2.07.79-3.08,1.08l-2.9.82a50.21,50.21,0,0,1-5,1.16c-.74.14-1.43.3-2.08.4l-1.77.21-2.45.27a4.62,4.62,0,0,1-.86.06,5.47,5.47,0,0,1,.85-.16l2.43-.37,1.76-.26c.64-.11,1.33-.28,2.07-.44,1.47-.34,3.18-.63,5-1.23l2.87-.84c1-.3,2-.73,3-1.11,2.13-.72,4.28-1.77,6.58-2.81a77.48,77.48,0,0,0,25.64-20.08c1.56-2,3.09-3.82,4.3-5.71.62-.94,1.27-1.8,1.81-2.7s1-1.76,1.51-2.58c1-1.62,1.7-3.21,2.39-4.56.33-.68.66-1.31.92-1.9l.67-1.65c.4-.95.71-1.71.94-2.27A7.85,7.85,0,0,1,204.82,364.43Z" style="fill:#455a64"></path><path d="M236.56,387.58a1.29,1.29,0,0,1-.16.2c-.14.16-.32.34-.54.57-.5.53-1.2,1.25-2.08,2.16l-1.52,1.56c-.57.55-1.23,1.11-1.91,1.73-1.4,1.21-2.92,2.69-4.8,4.07l-2.89,2.25c-1,.77-2.13,1.48-3.26,2.26-2.23,1.61-4.78,3.05-7.44,4.62a113.56,113.56,0,0,1-18.34,8.1,115,115,0,0,1-19.55,4.47c-3.07.32-6,.69-8.72.73-1.37.05-2.7.15-4,.14l-3.66-.08c-2.34,0-4.43-.26-6.28-.4-.92-.09-1.78-.15-2.57-.25l-2.14-.34-3-.48-.77-.14-.26-.07.27,0,.77.08,3,.39,2.14.3c.79.08,1.65.12,2.57.2,1.84.11,3.93.36,6.26.32l3.65,0c1.26,0,2.58-.11,4-.16,2.73-.06,5.63-.45,8.68-.78a107,107,0,0,0,37.72-12.51c2.65-1.55,5.2-3,7.43-4.56,1.13-.77,2.25-1.46,3.27-2.22l2.9-2.22c1.88-1.36,3.41-2.81,4.82-4,.7-.61,1.36-1.16,1.94-1.69s1.08-1.06,1.55-1.52l2.15-2.09.57-.53Z" style="fill:#455a64"></path><path d="M202.25,242.81c0,.05-.61.35-1.67,1a18.12,18.12,0,0,0-4,3.39,22.55,22.55,0,0,0-4.07,6.61,28.11,28.11,0,0,0-2,9.3c-.26,6.83,1.4,12.89,2.62,17.18.62,2.15,1.17,3.88,1.53,5.08.17.55.3,1,.41,1.39a1.58,1.58,0,0,1,.11.49,2.68,2.68,0,0,1-.21-.46c-.13-.37-.3-.81-.5-1.36-.43-1.18-1-2.89-1.7-5a70.49,70.49,0,0,1-2-7.65,41.12,41.12,0,0,1-.81-9.65,28.41,28.41,0,0,1,2.1-9.46,22.52,22.52,0,0,1,4.24-6.68,17.27,17.27,0,0,1,4.18-3.32,12.29,12.29,0,0,1,1.31-.64A2.42,2.42,0,0,1,202.25,242.81Z" style="fill:#455a64"></path><path d="M218.4,217.66c4.79,1.72,10.39,3.36,14.77.49,3-2,4.6-5.6,5.94-9a251.5,251.5,0,0,0,8.1-24.39s12-27.76,11.49-43.51,1.81-22.67-18.86-28.25-73.73,88-73.73,88Z" style="fill:#ffbe9d"></path><path d="M258.77,130.27s12-22.36-3.79-29.19-30.74,1.43-30.74,1.43-43.71-7.06-51.92,10.21-18.43,31.55-16.16,47.79S167.6,196,167.6,196c13.25,6.29,30.56,2.45,39.89-8.87a84.29,84.29,0,0,0,11.61-18.18c3.41-7,11.77-13.22,17.15-5.78.85,1.17,4.74.74,5.54-1.9,1.49-4.89,1.12-14.3,3.73-14.84,4-.84,8.12-2.11,11.06-5s4.33-7.67,2.19-11.17" style="fill:#FFC100"></path><path d="M231.12,174.56a2.61,2.61,0,0,1-1.8-.61,4.29,4.29,0,0,1,1-7.65,2.61,2.61,0,0,1,1.9-.15,8.58,8.58,0,0,0-1.75.49,4.05,4.05,0,0,0-.88,7A10.08,10.08,0,0,0,231.12,174.56Z" style="fill:#eb996e"></path><path d="M223.29,164.39a17.13,17.13,0,0,0-4.17,11.89,8.49,8.49,0,0,0,2,5.54c1.38,1.46,3.82,2,5.44.84a1.46,1.46,0,0,0,.68-1.69,1.86,1.86,0,0,0-.71-.68,11.26,11.26,0,0,1-2.48-16" style="fill:#eb996e"></path><path d="M234.91,162.09s-.29-.44-1-1a4.51,4.51,0,0,0-3.61-.82h0a8.88,8.88,0,0,0-5,2.49,11.12,11.12,0,0,0-3.09,6.13,13.32,13.32,0,0,0,.54,6.91,6.91,6.91,0,0,0,3.7,4.09,5.77,5.77,0,0,0,3.75.31,13.3,13.3,0,0,0,1.31-.55s-.09.09-.28.24a4.45,4.45,0,0,1-1,.5,5.72,5.72,0,0,1-4-.16,7.22,7.22,0,0,1-4-4.25,13.61,13.61,0,0,1-.6-7.18,11.42,11.42,0,0,1,3.27-6.39,9,9,0,0,1,5.31-2.5h0a4.6,4.6,0,0,1,3.81,1,3.58,3.58,0,0,1,.69.84C234.87,162,234.93,162.08,234.91,162.09Z" style="fill:#263238"></path><g style="opacity:0.2"><path d="M159,148c2.8,3.85,6.39,7.31,8.69,11.48,2.65,4.81,3.9,10.27,4.62,15.71,1,8,.64,14.21-2.55,21.86,5.25-1.62,8-5.29,8.91-10.7a40.13,40.13,0,0,0-1.34-17.45,35.68,35.68,0,0,0-10.76-16.63c-3.58-3.17-9.62-7.56-10.69-12.22C155.84,140.08,157.11,145.5,159,148Z"></path></g><g style="opacity:0.2"><path d="M160.45,136.15a16.06,16.06,0,0,0,28-14.91,2.57,2.57,0,0,0-1.22-1.65,1.93,1.93,0,0,0-2.25,1.09,7.55,7.55,0,0,0-.51,2.68,15.08,15.08,0,0,1-22.31,11.74"></path></g><path d="M181.93,111.46a10.3,10.3,0,0,0-9.16-2.21,19.68,19.68,0,0,0-8.07,4.23,24.37,24.37,0,0,0-7.16,8.23c-1.59,3.3-2,7.35-.28,10.6,2.16,4.17,7.23,6.18,11.92,6A18.17,18.17,0,0,0,184.46,128c2.72-5.86,3.55-12.44-2.53-16.53" style="fill:#263238"></path><path d="M146,189.93l24,6.77s3.18-1.83,2.37-16.25c-.38-6.81-5.73-13-8-19.43-1.85-5.32-4.82-10.19-6.78-15.47s-3.31-10.21-.86-15.28,7.64-5.2,12.55-2.44a12.71,12.71,0,0,0,6-7.24c-3-7.73-7.59-11.17-13-13.17a23.76,23.76,0,0,0-21.06,1.87c-7.56,4.84-11.93,13.13-13.79,21.73l-.06.24a43.24,43.24,0,0,0,4.38,29.61c3.75,6.82,7.11,18.83.64,28l9.51.42A19.28,19.28,0,0,1,146,189.93Z" style="fill:#FFC100"></path><path d="M175.65,116.06a9.5,9.5,0,0,1-.1,2.74,13.25,13.25,0,0,1-2.36,6.2,8.68,8.68,0,0,1-2.8,2.44,7.16,7.16,0,0,1-2.91.82,5.62,5.62,0,0,1-2-.23c-.45-.15-.68-.29-.67-.32a10.27,10.27,0,0,0,2.67.19,7.57,7.57,0,0,0,2.71-.88,8.51,8.51,0,0,0,2.61-2.33,14,14,0,0,0,2.41-6C175.48,117.09,175.57,116.05,175.65,116.06Z" style="fill:#455a64"></path><path d="M144,189.4a25.65,25.65,0,0,0,2.4-3.51,15,15,0,0,0,1.51-4.7,23.42,23.42,0,0,0-.06-6.57,99.46,99.46,0,0,0-4.08-16.71c-1-3.08-2.14-6.3-3.12-9.71a52.38,52.38,0,0,1-2.1-10.78,31.66,31.66,0,0,1,1.1-10.92,21.92,21.92,0,0,1,2-4.84,17.66,17.66,0,0,1,3.06-4,16.7,16.7,0,0,1,8.09-4.44,17.2,17.2,0,0,1,8.06.09,16.46,16.46,0,0,1,6,2.94,16.63,16.63,0,0,1,3.49,3.62,15.4,15.4,0,0,1,1.58,2.75c.15.33.24.59.31.77a1.09,1.09,0,0,1,.08.26,1.72,1.72,0,0,1-.13-.24c-.08-.17-.19-.43-.35-.75a17,17,0,0,0-1.65-2.67,17.23,17.23,0,0,0-3.5-3.51,16.26,16.26,0,0,0-5.88-2.81,16.84,16.84,0,0,0-7.87,0,16.14,16.14,0,0,0-7.85,4.37,16.65,16.65,0,0,0-3,3.9,21.2,21.2,0,0,0-2,4.74,31.38,31.38,0,0,0-1.07,10.75,52.77,52.77,0,0,0,2.07,10.67c1,3.39,2.09,6.61,3.09,9.7a97.3,97.3,0,0,1,4,16.82,23.38,23.38,0,0,1,0,6.65,15.12,15.12,0,0,1-1.62,4.76,11.81,11.81,0,0,1-1,1.54,8.37,8.37,0,0,1-.83,1.06l-.55.61A1.17,1.17,0,0,1,144,189.4Z" style="fill:#263238"></path><path d="M169.53,128.73a7.05,7.05,0,0,0-2.75-1.9,8.16,8.16,0,0,0-8.44,1.94c-2.75,2.75-3.76,7.93-2,12.75a27.79,27.79,0,0,0,3.88,7.06c1.67,2.26,3.54,4.53,5.23,7a41.76,41.76,0,0,1,4.29,7.68,39.68,39.68,0,0,1,2.12,7.92c.42,2.56.83,5,1,7.33a58.53,58.53,0,0,1,.06,6.45c-.1,2-.32,3.74-.48,5.29a14.59,14.59,0,0,1-.88,3.93,9,9,0,0,1-1.25,2.21c-.17.24-.33.4-.42.51l-.16.16a7.58,7.58,0,0,1,.49-.73,9.4,9.4,0,0,0,1.15-2.22c.78-2,.92-5.27,1.18-9.17a56.2,56.2,0,0,0-.13-6.4,72.11,72.11,0,0,0-1-7.28,39.47,39.47,0,0,0-2.11-7.81A41.09,41.09,0,0,0,165,155.9c-1.68-2.48-3.53-4.73-5.21-7a27.55,27.55,0,0,1-3.92-7.19c-1.8-5-.72-10.33,2.18-13.16a8.2,8.2,0,0,1,4.78-2.34,8,8,0,0,1,4,.46A6.08,6.08,0,0,1,169,128a5.72,5.72,0,0,1,.43.5C169.5,128.66,169.54,128.73,169.53,128.73Z" style="fill:#263238"></path><path d="M182.78,127a3.1,3.1,0,0,1,.4-.51c.28-.32.66-.81,1.22-1.38a40.83,40.83,0,0,1,5-4.51,43.45,43.45,0,0,1,42.48-5.85,40.55,40.55,0,0,1,6.08,3c.7.4,1.2.77,1.55,1a2.49,2.49,0,0,1,.52.38,3.37,3.37,0,0,1-.57-.3c-.37-.19-.89-.53-1.6-.9a44.36,44.36,0,0,0-48.24,3,45.59,45.59,0,0,0-5.12,4.36c-.59.55-1,1-1.29,1.31A2.78,2.78,0,0,1,182.78,127Z" style="fill:#263238"></path><path d="M176.31,133.84a2.44,2.44,0,0,1,.45.41l1.22,1.24c1.09,1,2.64,2.58,4.75,4.27a53.74,53.74,0,0,0,7.79,5.32,42.58,42.58,0,0,0,10.69,4.29,39,39,0,0,0,5.89,1,41.48,41.48,0,0,0,5.56.05c3.55-.21,6.74-.68,9.43-1a54.83,54.83,0,0,1,6.4-.35c.76,0,1.35.05,1.75.09a3,3,0,0,1,.6.08s-.84,0-2.35,0a62,62,0,0,0-6.36.51c-2.68.31-5.86.82-9.44,1.06a40.9,40.9,0,0,1-5.64,0,39,39,0,0,1-6-1,42.08,42.08,0,0,1-10.79-4.38,51,51,0,0,1-7.8-5.46,55,55,0,0,1-4.65-4.41l-1.15-1.31A2.57,2.57,0,0,1,176.31,133.84Z" style="fill:#263238"></path><path d="M176.18,138s.15.11.4.37l1.06,1.13.76.83c.29.3.62.59,1,.93.7.65,1.45,1.44,2.4,2.19l1.46,1.21c.5.41,1.08.79,1.64,1.22,1.13.86,2.43,1.64,3.77,2.49a51.11,51.11,0,0,0,19.44,6.76c1.59.17,3.09.37,4.51.38.71,0,1.39.08,2,.07l1.89-.05c1.21,0,2.29-.15,3.24-.22.48-.05.93-.08,1.33-.13l1.11-.18,1.54-.23a2.28,2.28,0,0,1,.55,0,3.52,3.52,0,0,1-.53.14l-1.52.33-1.11.22c-.41.07-.85.11-1.33.17a31.49,31.49,0,0,1-3.26.31l-1.91.08c-.66,0-1.35,0-2.07,0a44.23,44.23,0,0,1-4.55-.34,49.56,49.56,0,0,1-19.62-6.82,45.16,45.16,0,0,1-3.78-2.56c-.57-.43-1.14-.82-1.65-1.25l-1.44-1.25a31.12,31.12,0,0,1-2.37-2.26c-.34-.34-.66-.65-.94-1s-.5-.6-.73-.86l-1-1.2C176.27,138.16,176.16,138,176.18,138Z" style="fill:#263238"></path><path d="M159.44,193.73s.1-.31.31-.89c.1-.3.23-.66.37-1.08s.27-.94.42-1.49a33.29,33.29,0,0,0,.78-4.2,37.28,37.28,0,0,0,.17-5.63,47.22,47.22,0,0,0-3.12-14.31c-1.89-5.22-5.11-10.44-7.71-16.29a38.84,38.84,0,0,1-2.82-8.91,21.79,21.79,0,0,1,.13-8.68,16.66,16.66,0,0,1,3.54-7,12,12,0,0,1,5.69-3.75,11.26,11.26,0,0,1,5.63-.12,10,10,0,0,1,3.87,1.78,9,9,0,0,1,1.87,2l.47.81-.51-.79a9.08,9.08,0,0,0-1.88-1.91,10.05,10.05,0,0,0-3.85-1.73,11,11,0,0,0-5.56.16,11.87,11.87,0,0,0-5.6,3.71,16.51,16.51,0,0,0-3.48,6.93,21.76,21.76,0,0,0-.12,8.6,38.73,38.73,0,0,0,2.81,8.86c2.6,5.83,5.81,11.06,7.7,16.3a47.09,47.09,0,0,1,3.08,14.37,36.23,36.23,0,0,1-.19,5.66,34.42,34.42,0,0,1-.82,4.2l-.44,1.49-.39,1.08C159.57,193.43,159.44,193.73,159.44,193.73Z" style="fill:#263238"></path><path d="M237,136.57l-.55.13-1.59.31c-.69.15-1.54.31-2.54.44s-2.12.34-3.37.45-2.63.29-4.12.36-3.06.13-4.73.17a91.19,91.19,0,0,1-10.84-.63,92.64,92.64,0,0,1-10.67-2c-1.61-.44-3.15-.83-4.56-1.31s-2.72-.9-3.9-1.34-2.24-.88-3.17-1.26-1.71-.73-2.35-1l-1.47-.69c-.33-.16-.5-.26-.5-.26l.52.22,1.49.66c.64.29,1.42.64,2.36,1s2,.83,3.17,1.23,2.48.9,3.91,1.32,2.94.85,4.55,1.29a94.91,94.91,0,0,0,10.64,2,93.25,93.25,0,0,0,10.82.65c1.66,0,3.24,0,4.72-.15s2.86-.2,4.11-.33,2.38-.29,3.38-.42,1.84-.27,2.53-.41l1.6-.28Z" style="fill:#263238"></path><path d="M156.58,340.35c-.51,2.8-2.71,4.28-4.32,5.5a26.37,26.37,0,0,1-14.94,5.28,3.13,3.13,0,0,1-1.89-.35c-1.16-.78-.91-2.55-.38-3.85s1.21-2.79.5-4a11.89,11.89,0,0,1-12.35,1.5,1.52,1.52,0,0,1-.2-2.62c5.62-4,9.44-11.56,10.43-18.39Z" style="fill:#FFC100"></path><g style="opacity:0.2"><path d="M155.44,339a145.25,145.25,0,0,0-22-15.54c-.31,3-.55,6.49.9,9.15s4,4.05,6.63,5.34c4.32,2.16,9.21,4.09,13.87,2.81.56-.15,1.21-.53,1.11-1.1A1.24,1.24,0,0,0,155.44,339Z"></path></g><path d="M129.78,231.6c13.16-4.73,18.7-5.35,31.47-8.16,1.06-.23,8.43-1.66,9.49-1.42,2.46.56,4,6.07,3.7,8.57s-1.8,4.68-3,6.9a39.25,39.25,0,0,0-2.41,31.8c1.53,4.22,3.79,8.15,5.11,12.44s3.45,7.93.47,11.5c-11.58-3.81-25.91-9.52-37.49-13.32,1.11-4.1.12-4.91-3.08-7.69s-7.11-4.68-10.17-7.62a20.12,20.12,0,0,1,5.92-33" style="fill:#FFC100"></path><g style="opacity:0.2"><path d="M132.4,230.68c4.55,5.58,13.16,9.55,20.35,10.06a29.06,29.06,0,0,0,20.73-7,6.23,6.23,0,0,0,.83-2.13c-.16-.51-1.72-.13-2.22-.29a105.41,105.41,0,0,0-21.33-4.61c-6.36-.52-18.36,4.26-18.36,4"></path></g><path d="M155.16,284.9a20.79,20.79,0,0,0,.18-2.47,14.55,14.55,0,0,0-1.83-6.41,23.59,23.59,0,0,0-2.58-3.86c-1.05-1.3-2.28-2.61-3.59-4s-2.68-2.82-4-4.45A23.4,23.4,0,0,1,138.31,246a23.06,23.06,0,0,1,8-14.57,14.67,14.67,0,0,1,1.48-1.11,2.5,2.5,0,0,1,.55-.34s-.7.54-1.9,1.6a24.25,24.25,0,0,0-4.32,5.16,22.84,22.84,0,0,0-3.32,9.32A23.24,23.24,0,0,0,140.51,258c1.67,4,4.6,7.08,7.18,9.83,1.3,1.38,2.53,2.71,3.58,4a24.11,24.11,0,0,1,2.57,4,14.16,14.16,0,0,1,1.7,6.58,10,10,0,0,1-.2,1.85A2.62,2.62,0,0,1,155.16,284.9Z" style="fill:#263238"></path><path d="M164.38,288.86s0-.22.15-.64a5.17,5.17,0,0,0,.17-.78,9.2,9.2,0,0,0,.15-1.07,15.43,15.43,0,0,0-1-6.79,26.49,26.49,0,0,0-2.06-4.3,46.4,46.4,0,0,0-3.16-4.49c-2.35-3.07-5.23-6.27-7.28-10.29a24.75,24.75,0,0,1-2.08-6.2,26.36,26.36,0,0,1-.37-6.08,26.87,26.87,0,0,1,2.54-9.95,24.88,24.88,0,0,1,3.77-5.82c.51-.64,1-1,1.29-1.37s.48-.46.48-.46l-.45.49c-.28.32-.76.74-1.26,1.39a26.17,26.17,0,0,0-3.7,5.83,27.12,27.12,0,0,0-2.48,9.9,26.48,26.48,0,0,0,.38,6,24.88,24.88,0,0,0,2.06,6.15c2,4,4.91,7.18,7.26,10.26a45.17,45.17,0,0,1,3.14,4.52,25.22,25.22,0,0,1,2.06,4.34,15.48,15.48,0,0,1,1,6.84,7,7,0,0,1-.17,1.08,4.45,4.45,0,0,1-.19.78C164.45,288.65,164.38,288.86,164.38,288.86Z" style="fill:#263238"></path><path d="M240.71,193.73c5.39,5.72,4.49,13.59,1.78,19.13-4.1,8.36-2.9,10.93-5.49,15.26-2.47,4.14-.56,3.83,1.1,8.36s4.74,8.39,8,11.92a96,96,0,0,0,13.07,11.68c2.58,1.9,5.68,3.77,8.79,3,2.57-.63,4.43-3,5.22-5.49a23.28,23.28,0,0,0,.62-7.86L272.36,208" style="fill:#263238"></path><path d="M263.73,472.81H381.55c-1.31-3.59-5.91-54.58-34.18-70.93,0,0-10.34,3.72-33.19-7.58-26.55-13.12-58.63-34.8-58.63-34.8L252,401.8Z" style="fill:#FFC100"></path><g style="opacity:0.2"><path d="M340,401.2a25,25,0,0,0-5.31-4.63c-11.75-8.33-24.52-15.11-37.25-21.85-11.74-6.23-23.58-12.49-36.35-16.14a7,7,0,0,0-3.82-.33,2.55,2.55,0,0,0-1.94,2.89c9.47,9.14,19.19,18,30.48,24.77s23.89,11.62,37,12.82c2.23.2,4.94.62,5.75,2.7.44,1.16.12,2.45.17,3.69s.84,2.68,2.08,2.61c1.44-.09,1.88-2,1.9-3.43s.39-3.34,1.83-3.51a3.09,3.09,0,0,1,2.32,1.28c1.8,1.89,8.26,10.67,10.06,12.55C347.09,412.28,341.44,403.05,340,401.2Z"></path></g><path d="M346.17,426.49c-.1,0,.41-1.43.74-3.77a23.82,23.82,0,0,0,.2-4.13,24.06,24.06,0,0,0-2.51-9.75,23.36,23.36,0,0,0-2.18-3.53c-1.42-1.89-2.54-2.86-2.47-2.94a4.18,4.18,0,0,1,.82.65,8.4,8.4,0,0,1,.88.85,14.06,14.06,0,0,1,1.07,1.22,21.82,21.82,0,0,1,2.31,3.53,24.65,24.65,0,0,1,1.85,4.83,25.46,25.46,0,0,1,.71,5.12,21.15,21.15,0,0,1-.32,4.21,12.56,12.56,0,0,1-.35,1.58,7.6,7.6,0,0,1-.35,1.17A4.52,4.52,0,0,1,346.17,426.49Z" style="fill:#263238"></path><path d="M332.27,413.76c-.08,0,.41-.79.94-2.1a15.81,15.81,0,0,0,1.17-5.35,16.15,16.15,0,0,0-.76-5.43c-.44-1.34-.86-2.13-.78-2.17a6.59,6.59,0,0,1,1.13,2,14.1,14.1,0,0,1,.93,5.58,13.91,13.91,0,0,1-1.35,5.48A6.14,6.14,0,0,1,332.27,413.76Z" style="fill:#263238"></path><path d="M302.05,386.41a69.36,69.36,0,0,1-7.3.44c-2.25,0-4.95-.05-7.92-.31a75,75,0,0,1-18.93-4.21,75.9,75.9,0,0,1-7.31-3.08,65.65,65.65,0,0,1-6.42-3.49l.45.23,1.28.7c1.09.62,2.72,1.46,4.75,2.43s4.51,2,7.31,3a85,85,0,0,0,9.31,2.7,86,86,0,0,0,9.58,1.5c3,.27,5.65.36,7.9.35s4.08-.09,5.34-.18l1.45-.1A4.9,4.9,0,0,1,302.05,386.41Z" style="fill:#fafafa"></path><path d="M333.46,410.4l-.82.25-2.35.7c-1,.31-2.27.68-3.75,1s-3.14.8-5,1.09-3.93.72-6.16.94c-1.11.11-2.26.31-3.45.37l-3.68.24a94.74,94.74,0,0,1-32.38-4.13l-3.5-1.15c-1.14-.35-2.2-.82-3.25-1.21-2.11-.76-4-1.64-5.75-2.42s-3.25-1.6-4.61-2.27-2.48-1.33-3.4-1.87l-2.12-1.24-.73-.44.75.4,2.14,1.21c.92.53,2.05,1.18,3.41,1.83s2.87,1.51,4.63,2.24,3.63,1.64,5.74,2.4c1.05.38,2.11.85,3.25,1.2l3.5,1.13a104.43,104.43,0,0,0,16,3.45,101.39,101.39,0,0,0,16.33.67l3.67-.22c1.19-.06,2.34-.25,3.45-.36,2.23-.22,4.28-.59,6.15-.92s3.55-.74,5-1,2.74-.66,3.76-1l2.36-.66Z" style="fill:#fafafa"></path><path d="M345.86,412.71a1.93,1.93,0,0,1-.37.26c-.25.16-.62.36-1.08.6a18.88,18.88,0,0,1-3.85,1.37,18.31,18.31,0,0,1-4.06.45c-.52,0-.94,0-1.23-.06a2.16,2.16,0,0,1-.45-.07s.64,0,1.68,0a20.46,20.46,0,0,0,4-.51,19.9,19.9,0,0,0,3.83-1.3C345.29,413,345.85,412.68,345.86,412.71Z" style="fill:#fafafa"></path><path d="M358,411a2.15,2.15,0,0,1-.29.4,12.84,12.84,0,0,1-.88,1,22.32,22.32,0,0,1-7.16,5.15c-.52.23-.94.4-1.24.5a2.68,2.68,0,0,1-.47.15,1.74,1.74,0,0,1,.44-.22l1.21-.57a26.2,26.2,0,0,0,3.77-2.25,27.12,27.12,0,0,0,3.35-2.86c.39-.4.71-.73.92-1A2.19,2.19,0,0,1,358,411Z" style="fill:#fafafa"></path><path d="M368.85,426.49s-.31.26-.92.74l-1.12.88a17,17,0,0,1-1.57,1.15,54.13,54.13,0,0,1-10.89,5.93,74.48,74.48,0,0,1-17.78,4.65c-3.43.46-7.06.81-10.82,1s-7.68.24-11.68.19a146.47,146.47,0,0,1-22.43-2.12c-6.84-1.15-12.93-2.56-18-3.84-10.15-2.6-16.34-4.53-16.34-4.53l1.13.31,3.25.9c2.83.78,6.92,1.91,12,3.17s11.17,2.66,18,3.8a148.85,148.85,0,0,0,22.41,2.1c4,.05,7.89,0,11.66-.18s7.38-.53,10.81-1a75.06,75.06,0,0,0,17.75-4.6,56.11,56.11,0,0,0,10.9-5.85,17,17,0,0,0,1.57-1.14l1.14-.86Z" style="fill:#fafafa"></path><path d="M375.72,455.41l-1.12.42L371.38,457l-2.33.82c-.85.29-1.8.55-2.8.86-2,.6-4.31,1.36-6.89,2l-4,1c-1.4.35-2.89.62-4.41.94-3.05.7-6.35,1.18-9.81,1.74a168,168,0,0,1-45.53.4c-3.48-.5-6.78-.92-9.84-1.56-1.53-.3-3-.54-4.43-.87l-4.06-1c-2.59-.56-4.89-1.28-6.92-1.84-1-.29-2-.55-2.82-.81l-2.34-.79-3.24-1.08c-.74-.25-1.13-.4-1.13-.4l1.14.36,3.25,1.05,2.35.76c.86.26,1.81.51,2.82.8,2,.54,4.33,1.26,6.93,1.81l4.05.93c1.41.32,2.9.56,4.43.86,3.05.63,6.36,1.05,9.83,1.54a169.75,169.75,0,0,0,45.48-.4c3.46-.55,6.76-1,9.8-1.71,1.53-.33,3-.59,4.42-.94l4-1c2.59-.59,4.87-1.34,6.89-1.93,1-.3,2-.56,2.81-.84l2.34-.81,3.23-1.1C375.33,455.53,375.72,455.41,375.72,455.41Z" style="fill:#fafafa"></path><path d="M260.46,251.11s22.17,17.77,33.61,43.46c9.21,20.68,71,49.32,75.83,71.68,6,27.76-18.84,38.05-32,36.06-31.05-4.7-101.3-54.34-101.3-54.34Z" style="fill:#263238"></path><path d="M280.1,376.09a7.59,7.59,0,0,1-1.81-.94c-1.13-.67-2.74-1.67-4.73-2.92-4-2.49-9.43-6-15.43-9.89s-11.41-7.46-15.31-10.07c-1.9-1.28-3.45-2.33-4.61-3.1L237,348.3a3.13,3.13,0,0,1-.42-.33,1.72,1.72,0,0,1,.47.24l1.29.79,4.7,3,15.4,9.94Z" style="fill:#455a64"></path><path d="M250.14,121.61c-8.65,5.5-12.1,17-10.45,23.84.83,3.44,2.39,6.89,1.71,10.36-.59,3-2.74,5.39-4.36,8a24.07,24.07,0,0,0,30.07,34.76" style="fill:#263238"></path><path d="M245,166.6c-21-46.25,29-69.49,56.29-61.78,25.66,7.24,36.6,20,40.82,37.17s4,35.75-2.71,52.1c-3.31,8.06-9.29,16.25-17.95,17.26" style="fill:#263238"></path><path d="M269.4,257.66c-.37-22.1-.36-30.4-.37-30.27s-19-3.16-22.93-27.94c-2-12.33-1.34-32.54-.3-49.06.94-14.87,10.79-33.12,25.61-31.55l46.26,11.7a8.71,8.71,0,0,1,7.8,8.84h0l-4.39,99.29" style="fill:#ffbe9d"></path><path d="M249.76,166.74c.38.43,2.85-1.27,6.27-1.15s5.87,1.91,6.25,1.51c.19-.18-.19-.94-1.25-1.77a8.78,8.78,0,0,0-5-1.73,8.4,8.4,0,0,0-5,1.44C250,165.81,249.58,166.55,249.76,166.74Z" style="fill:#263238"></path><path d="M282.07,168.07c.39.42,2.8-1.38,6.22-1.38s5.93,1.69,6.3,1.27c.18-.19-.22-.93-1.32-1.72a8.77,8.77,0,0,0-5-1.54,8.44,8.44,0,0,0-5,1.63C282.23,167.14,281.87,167.89,282.07,168.07Z" style="fill:#263238"></path><path d="M271.4,186.91c0-.2-2.11-.56-5.56-1-.87-.09-1.7-.27-1.85-.86a4.44,4.44,0,0,1,.59-2.59l2.58-6.65c3.59-9.47,6.18-17.26,5.8-17.4s-3.6,7.42-7.19,16.89c-.86,2.33-1.69,4.56-2.47,6.69a5.1,5.1,0,0,0-.46,3.43,2.2,2.2,0,0,0,1.44,1.27,5.71,5.71,0,0,0,1.48.21C269.23,187.09,271.38,187.1,271.4,186.91Z" style="fill:#263238"></path><path d="M269,227.39a63.1,63.1,0,0,0,33.2-8.86s-8.39,17.24-33.2,14.93Z" style="fill:#eb996e"></path><path d="M272.84,195.15a6.19,6.19,0,0,1,5.53-2.29,5.62,5.62,0,0,1,3.88,2.09,3.54,3.54,0,0,1,.27,4.07c-.92,1.3-2.85,1.6-4.48,1.14a13,13,0,0,1-4.37-2.61,3.91,3.91,0,0,1-1-1,1.15,1.15,0,0,1,0-1.28" style="fill:#eb996e"></path><path d="M281.46,189.27c-.55,0-.56,3.68-3.74,6.32s-7.13,2.23-7.16,2.75c-.05.23.88.72,2.55.76a9.25,9.25,0,0,0,6-2.08,8.07,8.07,0,0,0,2.9-5.3C282.13,190.17,281.72,189.25,281.46,189.27Z" style="fill:#263238"></path><path d="M282.27,155.55c.34.93,3.75.49,7.77,1s7.26,1.58,7.79.75c.24-.4-.33-1.28-1.64-2.18a13.57,13.57,0,0,0-11.85-1.3C282.87,154.38,282.13,155.11,282.27,155.55Z" style="fill:#263238"></path><path d="M251.44,151c.61.78,3,0,5.8-.06s5.23.52,5.78-.3c.24-.39-.13-1.17-1.18-1.9a8,8,0,0,0-4.71-1.28,8.09,8.09,0,0,0-4.62,1.56C251.51,149.82,251.18,150.62,251.44,151Z" style="fill:#263238"></path><path d="M321.22,171.86c.36-.18,13.27-5.89,13.42,8.95s-14.78,11.93-14.81,11.51S321.22,171.86,321.22,171.86Z" style="fill:#ffbe9d"></path><path d="M324.31,186.65c.06-.05.26.18.7.37a2.57,2.57,0,0,0,1.93,0c1.56-.59,2.86-3.09,2.9-5.77a8.57,8.57,0,0,0-.76-3.69,3,3,0,0,0-2-2,1.3,1.3,0,0,0-1.51.72c-.2.42-.1.71-.18.74s-.32-.25-.21-.86a1.65,1.65,0,0,1,.58-.94,2,2,0,0,1,1.42-.39,3.64,3.64,0,0,1,2.73,2.27,8.76,8.76,0,0,1,.93,4.13c-.06,3-1.56,5.81-3.7,6.45a2.77,2.77,0,0,1-2.37-.37C324.34,187,324.26,186.68,324.31,186.65Z" style="fill:#eb996e"></path><path d="M266.47,111.37c-8.26,4.27-11.66,21.16-8.24,29.8s12,14.5,21.09,16.49,18.58.59,27.54-1.9c.62,6,4.23,12.2,10.07,13.79,7.73,2.1,15.53-5,17.25-12.81s-.86-15.89-3.41-23.49" style="fill:#263238"></path><path d="M331.94,165.22s-.37.43-1.14,1.08a42.08,42.08,0,0,1-3.43,2.58,20.82,20.82,0,0,1-5.77,2.79,12.49,12.49,0,0,1-7.87-.11,12.24,12.24,0,0,1-6-5.16,16.61,16.61,0,0,1-2.14-6.05,22.75,22.75,0,0,1-.23-4.3,5.35,5.35,0,0,1,.19-1.57c.17,0,0,2.26.64,5.76a17,17,0,0,0,2.21,5.75,11.78,11.78,0,0,0,5.59,4.77,12.05,12.05,0,0,0,7.36.15,21.89,21.89,0,0,0,5.66-2.54C330.08,166.47,331.85,165.09,331.94,165.22Z" style="fill:#263238"></path><path d="M321,239.47c2.61-3.94,9.09-7.15,13.81-7.52s9.48-.15,14.15-.88c15.55-2.42,22.4-12.65,20.56-27.6-.73-6-3.08-10-12.59-21.74-8.13-10-12.3-22.14-13.61-34.27l-6.56,19,2.64,21.78-6.31,13-10.54,4.38Z" style="fill:#263238"></path><path d="M368.73,238.19c-1.37-3.76-3.72-7.07-6.08-10.3a50.72,50.72,0,0,1-6.34-10.15l-15,9.24a13.7,13.7,0,0,0-.73-7c-1.5-4-4.41-7.27-7.26-10.44l-10.22-16.74c-4.13,11.2-8.23,14.7-16.53,20.4s-16.73,9.25-23.57,21.33c-1.89,3.34-5.86,20.77-3.61,22.8,0,0,19.58-11.93,23.06-13.12,8.54-2.93,17.53-4.21,26.06-7a39.58,39.58,0,0,1,21.33,11.26c2.69,2.77,5.29,6.13,9.09,6.85s8-1.85,9.72-5.46S370.1,242,368.73,238.19Z" style="fill:#263238"></path><path d="M363,228.17a17.21,17.21,0,0,0-.94-1.5,13,13,0,0,0-3.76-3.34,35.62,35.62,0,0,0-7.35-3.19,49.09,49.09,0,0,1-4.69-1.84,16.17,16.17,0,0,1-4.71-3.16,12.25,12.25,0,0,1-3.1-5.4A18.93,18.93,0,0,1,338,203c.4-4.71,2.46-9.35,4-14.29a28.91,28.91,0,0,0,1.5-7.79A16,16,0,0,0,341.7,173a10.5,10.5,0,0,0-2.64-3.22,9.84,9.84,0,0,0-3.83-1.82c-1.4-.36-2.86-.56-4.33-.88a10.67,10.67,0,0,1-4.23-1.72,9.13,9.13,0,0,1-2.78-3.63c-.66-1.36-1.14-2.76-1.74-4.09a12.81,12.81,0,0,0-5.65-6.15,22.06,22.06,0,0,0-7.85-2.47,53.55,53.55,0,0,0-8-.29c-2.61.05-5.17.13-7.66,0a30.07,30.07,0,0,1-18.4-7.53,29.13,29.13,0,0,1-6.53-8.44,30.41,30.41,0,0,1-2.69-7.6,27.09,27.09,0,0,1-.58-5.06,16.11,16.11,0,0,1,0-1.78s0,.15,0,.45,0,.74,0,1.32a29.63,29.63,0,0,0,.68,5,30.61,30.61,0,0,0,2.75,7.51,28.8,28.8,0,0,0,6.51,8.29A29.94,29.94,0,0,0,286,147a29.61,29.61,0,0,0,7,1.19c2.46.14,5,.06,7.62,0a53.41,53.41,0,0,1,8.05.27,22.43,22.43,0,0,1,8,2.52,14.32,14.32,0,0,1,3.45,2.67,12.91,12.91,0,0,1,2.42,3.71c.62,1.35,1.1,2.75,1.74,4.08A8.64,8.64,0,0,0,327,164.9a10.29,10.29,0,0,0,4,1.64c1.44.31,2.91.51,4.36.88a10.42,10.42,0,0,1,4,1.92,10.87,10.87,0,0,1,2.77,3.38,16.51,16.51,0,0,1,1.83,8.2,29.43,29.43,0,0,1-1.54,7.92c-1.58,5-3.64,9.57-4,14.19a18.52,18.52,0,0,0,.43,6.6,11.81,11.81,0,0,0,3,5.25,16,16,0,0,0,4.59,3.12c1.6.76,3.17,1.33,4.65,1.87a34.9,34.9,0,0,1,7.36,3.29,12.53,12.53,0,0,1,3.74,3.45A7.52,7.52,0,0,1,363,228.17Z" style="fill:#455a64"></path><path d="M357.3,217.55a1.54,1.54,0,0,1,.32-.24c.22-.16.57-.34,1-.67a14,14,0,0,0,3.1-3.26,17.68,17.68,0,0,0,2.73-6.55,21.06,21.06,0,0,0-.22-9.37A34.37,34.37,0,0,0,359.5,187a114.41,114.41,0,0,0-8-10.53,72.3,72.3,0,0,1-8.39-12c-2.45-4.54-3.4-9.82-5.42-14.77a20.32,20.32,0,0,0-4.2-6.6,22.39,22.39,0,0,0-6.23-4.4c-4.53-2.24-9.39-3.18-13.95-4.08a98.39,98.39,0,0,1-12.89-3.17,55.27,55.27,0,0,1-10.58-4.68,37.11,37.11,0,0,1-12.26-11.26,29.36,29.36,0,0,1-2.24-4c-.22-.47-.36-.85-.46-1.09a2.43,2.43,0,0,1-.14-.38,2.13,2.13,0,0,1,.19.36c.12.23.27.6.51,1.06a31,31,0,0,0,2.31,3.9,37.51,37.51,0,0,0,12.28,11,54.61,54.61,0,0,0,10.52,4.59,100.38,100.38,0,0,0,12.85,3.11c4.57.89,9.47,1.82,14.09,4.09a23.4,23.4,0,0,1,6.37,4.49,21.13,21.13,0,0,1,4.31,6.77c2.05,5,3,10.27,5.39,14.73a72.74,72.74,0,0,0,8.31,12,112.62,112.62,0,0,1,8,10.6,34.46,34.46,0,0,1,4.7,10.56,21.35,21.35,0,0,1,.15,9.52,17.86,17.86,0,0,1-2.85,6.61,14,14,0,0,1-3.21,3.23A12.81,12.81,0,0,1,357.3,217.55Z" style="fill:#455a64"></path><path d="M285.5,245.81a3.91,3.91,0,0,1-.09-.78,17.5,17.5,0,0,1,0-2.25,24.62,24.62,0,0,1,1.79-8.08,31.28,31.28,0,0,1,6.69-10.26,47.85,47.85,0,0,1,12.1-8.9c4.72-2.53,9.55-4.19,13.58-6.37a29.77,29.77,0,0,0,5.39-3.61,18.13,18.13,0,0,0,3.65-4.28,13.79,13.79,0,0,0,2.23-7.74,16.52,16.52,0,0,0-.5-3,3.93,3.93,0,0,1,.28.73,9.82,9.82,0,0,1,.42,2.22,13.74,13.74,0,0,1-2.12,7.94,18.5,18.5,0,0,1-3.67,4.42,29.91,29.91,0,0,1-5.45,3.7c-4.07,2.23-8.89,3.9-13.56,6.41a48.32,48.32,0,0,0-12,8.77,31.64,31.64,0,0,0-6.69,10.07,26.06,26.06,0,0,0-1.93,7.95,21.63,21.63,0,0,0-.07,2.24A4.68,4.68,0,0,1,285.5,245.81Z" style="fill:#455a64"></path><path d="M333.45,128.83c-.06,0-.23-.81-.88-2.19a15.38,15.38,0,0,0-3.91-5,22.49,22.49,0,0,0-8.32-4.41,61.5,61.5,0,0,0-11.49-1.9,95,95,0,0,1-20.92-4c-2.6-.82-4.67-1.6-6.08-2.18-.71-.28-1.25-.52-1.62-.68a2.53,2.53,0,0,1-.54-.28,2.29,2.29,0,0,1,.58.18l1.65.59c1.43.52,3.51,1.25,6.12,2a102.23,102.23,0,0,0,20.86,3.87,59,59,0,0,1,11.58,2,22.52,22.52,0,0,1,8.42,4.59,15,15,0,0,1,3.86,5.19,11.39,11.39,0,0,1,.57,1.67A3,3,0,0,1,333.45,128.83Z" style="fill:#455a64"></path><path d="M308.29,240.08,199,299.76a6.12,6.12,0,0,1-5,.39l-75-26.66a82.39,82.39,0,0,1-1.93-9.69c-.34-4.19,1.4-11.14,1.4-11.14-5.21.57-6,7.1-6,7.1s-11.34-.6-13.73,2.39a20.93,20.93,0,0,0-3.07,6.45,5.91,5.91,0,0,0,0,3.41c.53,1.81,1.06,4.86-.53,6.85-2.39,3-6,6.57-4.78,11.34s6.06,13.7,14,13.64c6.08,0,35.87,26.77,62.67,43.19a54,54,0,0,0,36.22,7.31c23-3.45,80.42-28,96.58-35.93C323.13,307.07,308.29,240.08,308.29,240.08Z" style="fill:#ffbe9d"></path><path d="M115.66,276.57c.06.06-.71.92-1.8,2.41a33.42,33.42,0,0,0-5.79,13.08c-.37,1.81-.48,3-.57,2.95a2.7,2.7,0,0,1,0-.81,20.33,20.33,0,0,1,.23-2.2,28.84,28.84,0,0,1,2.07-7,28.18,28.18,0,0,1,3.79-6.23A21.73,21.73,0,0,1,115,277.1C115.42,276.74,115.63,276.55,115.66,276.57Z" style="fill:#eb996e"></path><path d="M283.05,249.05s29.21-17.8,41.24-18.26c20.67-.79,36.65,11.86,38.83,34.76,1.45,15.25-8.28,56.92-8.63,75.09,1.79,1.66,2.15,3.88,1.51,6.5L337,332.2c-5-2.87-15.4-11.17-17.58-12.72,0,0-17.22,5.5-34.3,10.78-12.93,4-54.07,19.38-61.93,22.17l-21.66-54.92Z" style="fill:#FFC100"></path><path d="M337,318.37a11.18,11.18,0,0,0-4.43-1.26c-3-.26-7.3.64-12.43,2.2s-11.22,3.56-17.95,5.84-14.12,4.83-21.87,7.53l-39.62,14-12,4.26-3.27,1.14-.86.29-.29.08a1.14,1.14,0,0,1,.28-.13l.83-.34,3.24-1.23,11.94-4.41c10.11-3.69,24.09-8.72,39.58-14.13,7.75-2.7,15.14-5.25,21.89-7.5s12.83-4.24,18-5.73c1.29-.4,2.53-.72,3.71-1s2.3-.53,3.35-.71a20.81,20.81,0,0,1,5.49-.33,10.37,10.37,0,0,1,3.36.86A6,6,0,0,1,337,318.37Z" style="fill:#263238"></path><path d="M349.85,329.7a59.2,59.2,0,0,0,2,5.66,57,57,0,0,0,3,5.18,16.78,16.78,0,0,1-5-10.84Z" style="fill:#263238"></path><g style="opacity:0.30000000000000004"><path d="M337.5,321a2.37,2.37,0,0,0-.69-2.37,4.49,4.49,0,0,0-2.18-1.18c-4.22-1.07-10.25.76-15.08,2.14h0c4.94,3.62,9.81,7.59,15.14,11.19l1.55,1a2.06,2.06,0,0,0,.59-1.59,15.41,15.41,0,0,0-1.21-3.39,4,4,0,0,1,0-3.48C336.15,322.42,337.17,321.92,337.5,321Z"></path></g><path d="M244.84,344.52c-.05,0-5.72-12.86-12.65-28.77s-12.52-28.84-12.46-28.86,5.71,12.86,12.65,28.77S244.89,344.5,244.84,344.52Z" style="fill:#fafafa"></path><path d="M270.22,334.7l-.29-.62-.8-1.8-2.93-6.61c-2.49-5.57-6-13.23-9.94-21.69s-7.43-16.13-9.89-21.72c-1.23-2.79-2.21-5.06-2.87-6.64-.31-.75-.57-1.35-.76-1.81s-.25-.64-.25-.64l.29.62c.2.46.47,1.06.79,1.8l2.94,6.61c2.49,5.58,6,13.24,9.94,21.7s7.43,16.12,9.89,21.71c1.23,2.8,2.21,5.07,2.87,6.64.31.75.57,1.35.76,1.82S270.22,334.7,270.22,334.7Z" style="fill:#fafafa"></path><path d="M295.88,326.83s-.12-.23-.32-.68-.5-1.15-.86-2L291.51,317c-2.72-6.1-6.54-14.48-10.93-23.67s-8.51-17.43-11.54-23.37l-3.62-7c-.41-.8-.74-1.43-1-1.91s-.34-.67-.34-.67.14.22.37.65.6,1.1,1,1.89c.89,1.64,2.14,4,3.68,7,3.07,5.93,7.21,14.16,11.6,23.35s8.19,17.59,10.87,23.7c1.34,3.05,2.41,5.53,3.13,7.25.35.82.62,1.48.83,2S295.88,326.83,295.88,326.83Z" style="fill:#fafafa"></path><path d="M314.92,320.14c-.05,0-6.77-15.72-15-35.15S285,249.78,285.08,249.75s6.78,15.72,15,35.15S315,320.11,314.92,320.14Z" style="fill:#fafafa"></path><path d="M336.5,316.22s-.07-.28-.17-.83l-.45-2.39c-.19-1-.43-2.3-.74-3.77s-.63-3.15-1.07-5c-.81-3.69-1.91-8.05-3.25-12.85s-3-10-4.91-15.47-4-10.52-6-15.11-3.89-8.65-5.58-12c-.82-1.7-1.63-3.2-2.32-4.54s-1.29-2.47-1.8-3.39l-1.16-2.14c-.26-.49-.39-.75-.39-.75s2.39,4,5.8,10.75c1.71,3.37,3.63,7.44,5.63,12s4,9.68,6,15.11,3.55,10.68,4.91,15.48,2.41,9.18,3.2,12.88C335.82,311.6,336.5,316.22,336.5,316.22Z" style="fill:#fafafa"></path><path d="M345.35,235.56s.08.26.22.77l.6,2.21c.54,1.92,1.19,4.73,1.91,8.22s1.44,7.68,1.92,12.37c.31,2.34.43,4.81.63,7.36s.23,5.22.18,7.94a103,103,0,0,1-3.7,27.53c-.24.86-.48,1.67-.7,2.45l-.74,2.14c-.46,1.34-.86,2.49-1.27,3.4s-.66,1.59-.88,2.12-.33.73-.33.73.09-.26.29-.75.49-1.24.85-2.13.78-2.07,1.23-3.41c.23-.67.47-1.39.72-2.14l.69-2.45a104.81,104.81,0,0,0,3.63-27.49c0-2.72-.08-5.37-.17-7.92s-.32-5-.62-7.36c-.47-4.69-1.22-8.86-1.87-12.36s-1.33-6.3-1.85-8.23c-.23-.93-.42-1.67-.56-2.22Z" style="fill:#fafafa"></path><path d="M355.91,325.42a16.35,16.35,0,0,1-2.71,2.24,21.58,21.58,0,0,1-7.82,3.23,22,22,0,0,1-8.47.09,15.35,15.35,0,0,1-3.37-1l.24.06.67.21a10.81,10.81,0,0,0,1.06.29,13.15,13.15,0,0,0,1.43.3,22.78,22.78,0,0,0,8.4-.14,22.44,22.44,0,0,0,7.78-3.15,20,20,0,0,0,2.06-1.53l.54-.45C355.84,325.46,355.91,325.41,355.91,325.42Z" style="fill:#fafafa"></path><path d="M352.09,339.52a4.23,4.23,0,0,1-1.72,1.25,4.39,4.39,0,0,1-2.08.48,20.52,20.52,0,0,0,2-.67A16.26,16.26,0,0,0,352.09,339.52Z" style="fill:#fafafa"></path><path d="M361.45,288.86s0,.15-.06.43-.13.75-.22,1.23-.22,1.21-.36,1.94-.41,1.59-.65,2.53a46.25,46.25,0,0,1-6.37,13.69,44.27,44.27,0,0,1-5.43,6.32,33.89,33.89,0,0,1-5.41,4.13,16.39,16.39,0,0,1-4.21,1.83,5.09,5.09,0,0,1-1.23.2l-.43,0,.43-.07a6,6,0,0,0,1.21-.24,16.86,16.86,0,0,0,4.15-1.88,34.89,34.89,0,0,0,5.36-4.14,45.7,45.7,0,0,0,5.39-6.3A47.58,47.58,0,0,0,360,295c.25-.93.52-1.76.68-2.51s.28-1.38.39-1.94l.26-1.22C361.41,289,361.45,288.86,361.45,288.86Z" style="fill:#fafafa"></path><path d="M146.19,190l76.63,21.66,37.55,27.48,9,18.55,1,15.27a3.64,3.64,0,0,1-6.86,1.72c-1-1.83-1.73-4.62-2-8.84l-1-6.74L255,250.72s.49,19.9.44,24.33c0,4.87-2,6.05-4.24,6.05-1.55,0-5.39,1.36-5.49-10.64-.15-18.8-3.13-20.1-3.13-20.1S242,268,241.07,275.45c-.61,5.15-7.66,4.14-8-.69-.31-4.6-.89-17.55-.89-17.55-.24-4.94-1-8.49-2.8-10.36,0,0-3.33,21.85-4.26,25.16-1.61,5.76-6.57,1.93-6.57-.78s-.78-24.77-.78-24.77l-13.93-11.61-64.64-6.58Z" style="fill:#ffbe9d"></path><path d="M160.61,230.45a12.81,12.81,0,0,1-1.7,0l-4.6-.31a138.13,138.13,0,0,1-15.16-1.68,54.07,54.07,0,0,1-8.12-2.17c-1.21-.47-2.37-.9-3.4-1.42s-2-1-2.84-1.47-1.58-1-2.24-1.4a18.48,18.48,0,0,1-1.62-1.16,9.55,9.55,0,0,1-1.3-1.08,10.15,10.15,0,0,1,1.42.92c.45.3,1,.7,1.66,1.08s1.38.9,2.26,1.32,1.79,1,2.84,1.4,2.18.91,3.38,1.36a58.58,58.58,0,0,0,8.06,2.11c5.83,1.07,11.21,1.43,15.09,1.82,1.94.19,3.51.34,4.59.48A9.33,9.33,0,0,1,160.61,230.45Z" style="fill:#eb996e"></path><path d="M136,228.06a9.56,9.56,0,0,1-2.75.59,24.7,24.7,0,0,1-13.3-2.19,10,10,0,0,1-2.42-1.44c0-.08,1,.44,2.57,1.1a29.84,29.84,0,0,0,6.43,1.84,29.18,29.18,0,0,0,6.68.32C134.94,228.17,136,228,136,228.06Z" style="fill:#eb996e"></path><path d="M217.37,246.41a22.67,22.67,0,0,1-2.73-2c-1.65-1.3-3.9-3.11-6.36-5.17a15.62,15.62,0,0,1-3.12-3.32,7.57,7.57,0,0,1-1.29-3.52,5.34,5.34,0,0,1,.34-2.51,2,2,0,0,1,.48-.79,6.37,6.37,0,0,0-.45,3.25,7.48,7.48,0,0,0,1.31,3.3,17.23,17.23,0,0,0,3.06,3.2c2.45,2,4.68,3.91,6.26,5.28A21.19,21.19,0,0,1,217.37,246.41Z" style="fill:#eb996e"></path><path d="M232.89,235.56a2.8,2.8,0,0,1,.85.27c.54.2,1.3.52,2.22,1a15.73,15.73,0,0,1,3.06,1.92,9.17,9.17,0,0,1,2.71,3.52,12.62,12.62,0,0,1,.94,4.34,34.82,34.82,0,0,1,0,3.59,24.37,24.37,0,0,1-.27,3.28,17.63,17.63,0,0,1-.1-3.29c0-2,.18-4.9-1-7.71a9.09,9.09,0,0,0-2.54-3.36,17.85,17.85,0,0,0-2.92-2C234,236.16,232.86,235.64,232.89,235.56Z" style="fill:#eb996e"></path><path d="M255.15,259.32a12.32,12.32,0,0,1-.3-3.59c0-1.11,0-2.43,0-3.9s.11-3.09,0-4.75a12.67,12.67,0,0,0-1.07-4.53,6.73,6.73,0,0,0-2.44-2.82,5.49,5.49,0,0,0-2.39-.84c-.6,0-.94,0-.95,0a2.13,2.13,0,0,1,1-.16,5.06,5.06,0,0,1,2.57.73,6.79,6.79,0,0,1,2.68,2.92,12.37,12.37,0,0,1,1.16,4.7,47.65,47.65,0,0,1,0,4.8c0,1.43-.1,2.74-.14,3.9s-.05,2-.05,2.62A5.08,5.08,0,0,1,255.15,259.32Z" style="fill:#eb996e"></path><path d="M260.37,239.11a.91.91,0,0,1-.2-.12l-.55-.38-2.12-1.5-7.87-5.66-27-19.62.08,0c-5-1.49-10.34-3-15.89-4.61-16.77-4.73-32-8.81-43-12-5.49-1.56-9.91-2.89-13-3.81l-3.51-1.1-.9-.29a1.41,1.41,0,0,1-.31-.12,1.14,1.14,0,0,1,.32.07l.92.24,3.54,1,13,3.66c11,3.06,26.25,7.09,43,11.82,5.55,1.57,10.91,3.13,15.89,4.63h.05l0,0,26.85,19.76L257.6,237l2.07,1.56.53.42A1.07,1.07,0,0,1,260.37,239.11Z" style="fill:#eb996e"></path></g><g id="freepik--Desk--inject-2"><path d="M471.06,472.81c0,.14-99,.26-221,.26S28.94,473,28.94,472.81s99-.26,221.07-.26S471.06,472.66,471.06,472.81Z" style="fill:#263238"></path></g></svg>